<svg width="133" height="71" viewBox="0 0 133 71" fill="none" xmlns="http://www.w3.org/2000/svg">
<g clip-path="url(#clip0_83_297)">
<path d="M67.8162 4.11555L80.9412 9.03742C81.6562 9.30542 82.2723 9.78527 82.7072 10.4128C83.1421 11.0404 83.3751 11.7858 83.375 12.5493V22.6049C83.3751 25.7388 82.5024 28.8109 80.8549 31.4768C79.2073 34.1427 76.8499 36.2971 74.0469 37.6987L67.7581 40.843C67.3675 41.0384 66.9368 41.1401 66.5 41.1401C66.0632 41.1401 65.6325 41.0384 65.2419 40.843L58.9531 37.6987C56.1501 36.2971 53.7927 34.1427 52.1451 31.4768C50.4976 28.8109 49.6249 25.7388 49.625 22.6049V12.5493C49.6249 11.7858 49.8579 11.0404 50.2928 10.4128C50.7277 9.78527 51.3438 9.30542 52.0587 9.03742L65.1838 4.11555C66.0324 3.79742 66.9676 3.79742 67.8162 4.11555ZM66.5 7.62742L53.375 12.5493V22.6049C53.3754 25.0422 54.0545 27.4312 55.3361 29.5042C56.6177 31.5773 58.4512 33.2526 60.6312 34.3424L66.5 37.2805L72.3687 34.3462C74.5494 33.2561 76.3833 31.5802 77.6649 29.5064C78.9465 27.4326 79.6253 25.0428 79.625 22.6049V12.5493L66.5 7.62742ZM66.5 14.9999C67.3004 14.9996 68.0799 15.2553 68.7244 15.7298C69.369 16.2042 69.8449 16.8725 70.0825 17.6368C70.3201 18.4011 70.3069 19.2213 70.0449 19.9776C69.7829 20.7338 69.2858 21.3864 68.6262 21.8399L68.375 21.9993V28.1249C68.3745 28.6028 68.1915 29.0625 67.8634 29.41C67.5353 29.7575 67.087 29.9666 66.6099 29.9946C66.1328 30.0226 65.663 29.8674 65.2966 29.5607C64.9301 29.2539 64.6946 28.8189 64.6381 28.3443L64.625 28.1249V21.9993C63.9092 21.5869 63.3496 20.9498 63.0331 20.1867C62.7166 19.4237 62.6609 18.5775 62.8746 17.7796C63.0884 16.9816 63.5596 16.2766 64.2152 15.774C64.8707 15.2713 65.6739 14.9992 66.5 14.9999Z" fill="url(#paint0_linear_83_297)"/>
</g>
<path d="M13.2037 47.5455C13.161 47.1856 12.9882 46.9062 12.6852 46.7074C12.3822 46.5085 12.0105 46.4091 11.5701 46.4091C11.2482 46.4091 10.9664 46.4612 10.725 46.5653C10.4859 46.6695 10.2988 46.8127 10.1639 46.995C10.0313 47.1773 9.96502 47.3845 9.96502 47.6165C9.96502 47.8106 10.0112 47.9775 10.1035 48.1172C10.1982 48.2545 10.319 48.3693 10.4657 48.4616C10.6125 48.5516 10.7664 48.6262 10.9274 48.6854C11.0884 48.7422 11.2363 48.7884 11.3713 48.8239L12.1099 49.0227C12.2993 49.0724 12.51 49.1411 12.742 49.2287C12.9764 49.3163 13.2001 49.4358 13.4132 49.5874C13.6286 49.7365 13.8062 49.9283 13.9458 50.1626C14.0855 50.397 14.1554 50.6847 14.1554 51.0256C14.1554 51.4186 14.0524 51.7737 13.8464 52.0909C13.6428 52.4081 13.3445 52.6603 12.9515 52.8473C12.5609 53.0343 12.0862 53.1278 11.5275 53.1278C11.0067 53.1278 10.5557 53.0438 10.1745 52.8757C9.79575 52.7076 9.49746 52.4732 9.27965 52.1726C9.06422 51.8719 8.94229 51.5227 8.91388 51.125H9.82298C9.84665 51.3996 9.93898 51.6269 10.1 51.8068C10.2633 51.9844 10.4693 52.117 10.7179 52.2045C10.9688 52.2898 11.2387 52.3324 11.5275 52.3324C11.8637 52.3324 12.1655 52.2779 12.4331 52.169C12.7006 52.0578 12.9125 51.9039 13.0687 51.7074C13.225 51.5085 13.3031 51.2765 13.3031 51.0114C13.3031 50.7699 13.2356 50.5734 13.1007 50.4219C12.9657 50.2704 12.7882 50.1473 12.568 50.0526C12.3478 49.9579 12.1099 49.875 11.8542 49.804L10.9593 49.5483C10.3912 49.3849 9.94135 49.1518 9.60991 48.8487C9.27847 48.5457 9.11275 48.1491 9.11275 47.6591C9.11275 47.2519 9.22283 46.8968 9.443 46.5938C9.66554 46.2884 9.96384 46.0516 10.3379 45.8835C10.7143 45.7131 11.1345 45.6278 11.5985 45.6278C12.0673 45.6278 12.484 45.7119 12.8485 45.88C13.2131 46.0457 13.502 46.273 13.715 46.5618C13.9305 46.8506 14.0441 47.1785 14.0559 47.5455H13.2037ZM17.7766 53.1136C17.2511 53.1136 16.7977 52.9976 16.4165 52.7656C16.0378 52.5312 15.7454 52.2045 15.5394 51.7855C15.3358 51.3641 15.234 50.8741 15.234 50.3153C15.234 49.7566 15.3358 49.2642 15.5394 48.8381C15.7454 48.4096 16.0318 48.0758 16.3988 47.8366C16.7681 47.5952 17.199 47.4744 17.6914 47.4744C17.9755 47.4744 18.256 47.5218 18.533 47.6165C18.81 47.7112 19.0621 47.8651 19.2894 48.0781C19.5167 48.2888 19.6978 48.5682 19.8327 48.9162C19.9677 49.2642 20.0352 49.6927 20.0352 50.2017V50.5568H15.8306V49.8324H19.1829C19.1829 49.5246 19.1213 49.25 18.9982 49.0085C18.8775 48.767 18.7047 48.5765 18.4798 48.4368C18.2572 48.2971 17.9944 48.2273 17.6914 48.2273C17.3576 48.2273 17.0688 48.3101 16.8249 48.4759C16.5835 48.6392 16.3976 48.8523 16.2674 49.1151C16.1372 49.3778 16.0721 49.6596 16.0721 49.9602V50.4432C16.0721 50.8551 16.1431 51.2043 16.2852 51.4908C16.4296 51.7749 16.6296 51.9915 16.8853 52.1406C17.141 52.2874 17.4381 52.3608 17.7766 52.3608C17.9968 52.3608 18.1957 52.33 18.3732 52.2685C18.5531 52.2045 18.7082 52.1098 18.8384 51.9844C18.9686 51.8565 19.0692 51.6979 19.1403 51.5085L19.9499 51.7358C19.8647 52.0104 19.7215 52.2519 19.5202 52.4602C19.319 52.6662 19.0704 52.8272 18.7745 52.9432C18.4786 53.0568 18.146 53.1136 17.7766 53.1136ZM23.5259 53.1136C23.0146 53.1136 22.5742 52.9929 22.2049 52.7514C21.8356 52.5099 21.5515 52.1773 21.3526 51.7536C21.1538 51.3298 21.0543 50.8456 21.0543 50.3011C21.0543 49.7472 21.1561 49.2583 21.3597 48.8345C21.5657 48.4084 21.8522 48.0758 22.2191 47.8366C22.5884 47.5952 23.0193 47.4744 23.5117 47.4744C23.8952 47.4744 24.2409 47.5455 24.5487 47.6875C24.8564 47.8295 25.1085 48.0284 25.305 48.2841C25.5015 48.5398 25.6235 48.8381 25.6708 49.179H24.8327C24.7688 48.9304 24.6268 48.7102 24.4066 48.5185C24.1888 48.3243 23.8952 48.2273 23.5259 48.2273C23.1992 48.2273 22.9128 48.3125 22.6665 48.483C22.4227 48.651 22.2321 48.889 22.0948 49.1967C21.9599 49.5021 21.8924 49.8608 21.8924 50.2727C21.8924 50.6941 21.9587 51.0611 22.0913 51.3736C22.2262 51.6861 22.4156 51.9287 22.6594 52.1016C22.9057 52.2744 23.1945 52.3608 23.5259 52.3608C23.7437 52.3608 23.9414 52.3229 24.119 52.2472C24.2965 52.1714 24.4469 52.0625 24.57 51.9205C24.6931 51.7784 24.7807 51.608 24.8327 51.4091H25.6708C25.6235 51.7311 25.5063 52.0211 25.3192 52.2791C25.1346 52.5348 24.8896 52.7384 24.5842 52.8899C24.2811 53.0391 23.9284 53.1136 23.5259 53.1136ZM30.3335 50.7699V47.5455H31.1715V53H30.3335V52.0767H30.2766C30.1488 52.3537 29.9499 52.5893 29.68 52.7834C29.4102 52.9751 29.0692 53.071 28.6573 53.071C28.3164 53.071 28.0134 52.9964 27.7482 52.8473C27.4831 52.6958 27.2747 52.4685 27.1232 52.1655C26.9717 51.8601 26.896 51.4754 26.896 51.0114V47.5455H27.734V50.9545C27.734 51.3523 27.8453 51.6695 28.0678 51.9062C28.2927 52.143 28.5792 52.2614 28.9272 52.2614C29.1355 52.2614 29.3474 52.2081 29.5629 52.1016C29.7807 51.995 29.9629 51.8317 30.1097 51.6115C30.2589 51.3913 30.3335 51.1108 30.3335 50.7699ZM32.7065 53V47.5455H33.5162V48.3693H33.573C33.6724 48.0994 33.8523 47.8804 34.1127 47.7124C34.3732 47.5443 34.6667 47.4602 34.9934 47.4602C35.055 47.4602 35.1319 47.4614 35.2243 47.4638C35.3166 47.4661 35.3864 47.4697 35.4338 47.4744V48.3267C35.4054 48.3196 35.3403 48.3089 35.2385 48.2947C35.139 48.2782 35.0337 48.2699 34.9224 48.2699C34.6573 48.2699 34.4205 48.3255 34.2122 48.4368C34.0062 48.5457 33.8429 48.6972 33.7221 48.8913C33.6038 49.0831 33.5446 49.3021 33.5446 49.5483V53H32.7065ZM38.5481 53.1136C38.0225 53.1136 37.5692 52.9976 37.188 52.7656C36.8092 52.5312 36.5169 52.2045 36.3109 51.7855C36.1073 51.3641 36.0055 50.8741 36.0055 50.3153C36.0055 49.7566 36.1073 49.2642 36.3109 48.8381C36.5169 48.4096 36.8033 48.0758 37.1703 47.8366C37.5396 47.5952 37.9705 47.4744 38.4629 47.4744C38.747 47.4744 39.0275 47.5218 39.3045 47.6165C39.5815 47.7112 39.8336 47.8651 40.0609 48.0781C40.2882 48.2888 40.4693 48.5682 40.6042 48.9162C40.7392 49.2642 40.8066 49.6927 40.8066 50.2017V50.5568H36.6021V49.8324H39.9544C39.9544 49.5246 39.8928 49.25 39.7697 49.0085C39.649 48.767 39.4761 48.5765 39.2512 48.4368C39.0287 48.2971 38.7659 48.2273 38.4629 48.2273C38.1291 48.2273 37.8403 48.3101 37.5964 48.4759C37.3549 48.6392 37.1691 48.8523 37.0389 49.1151C36.9087 49.3778 36.8436 49.6596 36.8436 49.9602V50.4432C36.8436 50.8551 36.9146 51.2043 37.0566 51.4908C37.2011 51.7749 37.4011 51.9915 37.6568 52.1406C37.9125 52.2874 38.2096 52.3608 38.5481 52.3608C38.7683 52.3608 38.9672 52.33 39.1447 52.2685C39.3246 52.2045 39.4797 52.1098 39.6099 51.9844C39.7401 51.8565 39.8407 51.6979 39.9118 51.5085L40.7214 51.7358C40.6362 52.0104 40.493 52.2519 40.2917 52.4602C40.0905 52.6662 39.8419 52.8272 39.546 52.9432C39.2501 53.0568 38.9174 53.1136 38.5481 53.1136ZM44.894 55.0455V47.5455H45.7037V48.4119H45.8031C45.8646 48.3172 45.9499 48.1965 46.0588 48.0497C46.17 47.9006 46.3287 47.768 46.5346 47.652C46.743 47.5336 47.0247 47.4744 47.3798 47.4744C47.8391 47.4744 48.2439 47.5893 48.5943 47.8189C48.9447 48.0485 49.2181 48.3741 49.4146 48.7955C49.6111 49.2169 49.7093 49.714 49.7093 50.2869C49.7093 50.8646 49.6111 51.3653 49.4146 51.7891C49.2181 52.2105 48.9458 52.5372 48.5978 52.7692C48.2498 52.9988 47.8485 53.1136 47.394 53.1136C47.0436 53.1136 46.7631 53.0556 46.5524 52.9396C46.3417 52.8213 46.1795 52.6875 46.0659 52.5384C45.9522 52.3868 45.8646 52.2614 45.8031 52.1619H45.7321V55.0455H44.894ZM45.7179 50.2727C45.7179 50.6847 45.7782 51.0481 45.899 51.3629C46.0197 51.6754 46.1961 51.9205 46.4281 52.098C46.6601 52.2732 46.9442 52.3608 47.2804 52.3608C47.6307 52.3608 47.9231 52.2685 48.1575 52.0838C48.3942 51.8968 48.5718 51.6458 48.6902 51.331C48.8109 51.0137 48.8713 50.661 48.8713 50.2727C48.8713 49.8892 48.8121 49.5436 48.6937 49.2358C48.5777 48.9257 48.4013 48.6806 48.1646 48.5007C47.9302 48.3184 47.6355 48.2273 47.2804 48.2273C46.9395 48.2273 46.653 48.3137 46.421 48.4865C46.189 48.657 46.0138 48.8961 45.8954 49.2038C45.777 49.5092 45.7179 49.8655 45.7179 50.2727ZM50.9877 53V47.5455H51.7974V48.3693H51.8542C51.9537 48.0994 52.1336 47.8804 52.394 47.7124C52.6544 47.5443 52.948 47.4602 53.2747 47.4602C53.3362 47.4602 53.4132 47.4614 53.5055 47.4638C53.5978 47.4661 53.6677 47.4697 53.715 47.4744V48.3267C53.6866 48.3196 53.6215 48.3089 53.5197 48.2947C53.4203 48.2782 53.3149 48.2699 53.2037 48.2699C52.9385 48.2699 52.7018 48.3255 52.4934 48.4368C52.2875 48.5457 52.1241 48.6972 52.0034 48.8913C51.885 49.0831 51.8258 49.3021 51.8258 49.5483V53H50.9877ZM54.7085 53V47.5455H55.5465V53H54.7085ZM55.1346 46.6364C54.9712 46.6364 54.8304 46.5807 54.712 46.4695C54.596 46.3582 54.538 46.2244 54.538 46.0682C54.538 45.9119 54.596 45.7782 54.712 45.6669C54.8304 45.5556 54.9712 45.5 55.1346 45.5C55.2979 45.5 55.4376 45.5556 55.5536 45.6669C55.672 45.7782 55.7312 45.9119 55.7312 46.0682C55.7312 46.2244 55.672 46.3582 55.5536 46.4695C55.4376 46.5807 55.2979 46.6364 55.1346 46.6364ZM57.9196 49.7188V53H57.0815V47.5455H57.8912V48.3977H57.9622C58.09 48.1207 58.2842 47.8982 58.5446 47.7301C58.805 47.5597 59.1412 47.4744 59.5531 47.4744C59.9224 47.4744 60.2456 47.5502 60.5225 47.7017C60.7995 47.8509 61.015 48.0781 61.1689 48.3835C61.3227 48.6866 61.3997 49.0701 61.3997 49.5341V53H60.5616V49.5909C60.5616 49.1624 60.4503 48.8286 60.2278 48.5895C60.0053 48.348 59.6999 48.2273 59.3116 48.2273C59.0441 48.2273 58.805 48.2853 58.5943 48.4013C58.3859 48.5173 58.2214 48.6866 58.1007 48.9091C57.9799 49.1316 57.9196 49.4015 57.9196 49.7188ZM65.3033 47.5455V48.2557H62.4766V47.5455H65.3033ZM63.3004 46.2386H64.1385V51.4375C64.1385 51.6742 64.1728 51.8518 64.2415 51.9702C64.3125 52.0862 64.4025 52.1643 64.5114 52.2045C64.6226 52.2424 64.7398 52.2614 64.8629 52.2614C64.9553 52.2614 65.031 52.2566 65.0902 52.2472C65.1494 52.2353 65.1967 52.2259 65.2322 52.2188L65.4027 52.9716C65.3459 52.9929 65.2666 53.0142 65.1648 53.0355C65.063 53.0592 64.9339 53.071 64.7777 53.071C64.541 53.071 64.3089 53.0201 64.0817 52.9183C63.8568 52.8165 63.6697 52.6615 63.5206 52.4531C63.3738 52.2448 63.3004 51.982 63.3004 51.6648V46.2386ZM68.7212 53.1136C68.2288 53.1136 67.7968 52.9964 67.4251 52.7621C67.0558 52.5277 66.7669 52.1998 66.5586 51.7784C66.3526 51.357 66.2496 50.8646 66.2496 50.3011C66.2496 49.733 66.3526 49.237 66.5586 48.8132C66.7669 48.3894 67.0558 48.0604 67.4251 47.826C67.7968 47.5916 68.2288 47.4744 68.7212 47.4744C69.2137 47.4744 69.6445 47.5916 70.0138 47.826C70.3855 48.0604 70.6744 48.3894 70.8803 48.8132C71.0887 49.237 71.1928 49.733 71.1928 50.3011C71.1928 50.8646 71.0887 51.357 70.8803 51.7784C70.6744 52.1998 70.3855 52.5277 70.0138 52.7621C69.6445 52.9964 69.2137 53.1136 68.7212 53.1136ZM68.7212 52.3608C69.0953 52.3608 69.4031 52.2649 69.6445 52.0732C69.886 51.8814 70.0647 51.6293 70.1808 51.3168C70.2968 51.0043 70.3548 50.6657 70.3548 50.3011C70.3548 49.9366 70.2968 49.5968 70.1808 49.282C70.0647 48.9671 69.886 48.7126 69.6445 48.5185C69.4031 48.3243 69.0953 48.2273 68.7212 48.2273C68.3472 48.2273 68.0394 48.3243 67.7979 48.5185C67.5565 48.7126 67.3777 48.9671 67.2617 49.282C67.1457 49.5968 67.0877 49.9366 67.0877 50.3011C67.0877 50.6657 67.1457 51.0043 67.2617 51.3168C67.3777 51.6293 67.5565 51.8814 67.7979 52.0732C68.0394 52.2649 68.3472 52.3608 68.7212 52.3608ZM75.9096 50.7699V47.5455H76.7477V53H75.9096V52.0767H75.8528C75.725 52.3537 75.5261 52.5893 75.2562 52.7834C74.9863 52.9751 74.6454 53.071 74.2335 53.071C73.8926 53.071 73.5895 52.9964 73.3244 52.8473C73.0592 52.6958 72.8509 52.4685 72.6994 52.1655C72.5479 51.8601 72.4721 51.4754 72.4721 51.0114V47.5455H73.3102V50.9545C73.3102 51.3523 73.4215 51.6695 73.644 51.9062C73.8689 52.143 74.1554 52.2614 74.5034 52.2614C74.7117 52.2614 74.9236 52.2081 75.139 52.1016C75.3568 51.995 75.5391 51.8317 75.6859 51.6115C75.835 51.3913 75.9096 51.1108 75.9096 50.7699ZM80.6548 47.5455V48.2557H77.8281V47.5455H80.6548ZM78.652 46.2386H79.4901V51.4375C79.4901 51.6742 79.5244 51.8518 79.593 51.9702C79.6641 52.0862 79.754 52.1643 79.8629 52.2045C79.9742 52.2424 80.0914 52.2614 80.2145 52.2614C80.3068 52.2614 80.3826 52.2566 80.4418 52.2472C80.5009 52.2353 80.5483 52.2259 80.5838 52.2188L80.7543 52.9716C80.6974 52.9929 80.6181 53.0142 80.5163 53.0355C80.4145 53.0592 80.2855 53.071 80.1293 53.071C79.8925 53.071 79.6605 53.0201 79.4332 52.9183C79.2083 52.8165 79.0213 52.6615 78.8722 52.4531C78.7254 52.2448 78.652 51.982 78.652 51.6648V46.2386ZM85.6815 48.767L84.9286 48.9801C84.8813 48.8546 84.8114 48.7327 84.7191 48.6143C84.6291 48.4936 84.506 48.3942 84.3498 48.3161C84.1935 48.2379 83.9935 48.1989 83.7496 48.1989C83.4158 48.1989 83.1377 48.2758 82.9151 48.4297C82.695 48.5812 82.5849 48.7741 82.5849 49.0085C82.5849 49.2169 82.6606 49.3814 82.8121 49.5021C82.9637 49.6229 83.2004 49.7235 83.5224 49.804L84.332 50.0028C84.8197 50.1212 85.1831 50.3023 85.4222 50.5462C85.6613 50.7876 85.7809 51.099 85.7809 51.4801C85.7809 51.7926 85.6909 52.072 85.511 52.3182C85.3335 52.5644 85.0849 52.7585 84.7653 52.9006C84.4457 53.0426 84.074 53.1136 83.6502 53.1136C83.0939 53.1136 82.6334 52.9929 82.2688 52.7514C81.9042 52.5099 81.6734 52.1572 81.5763 51.6932L82.3718 51.4943C82.4476 51.7879 82.5908 52.008 82.8015 52.1548C83.0146 52.3016 83.2927 52.375 83.636 52.375C84.0266 52.375 84.3368 52.2921 84.5664 52.1264C84.7984 51.9583 84.9144 51.7571 84.9144 51.5227C84.9144 51.3333 84.8481 51.1747 84.7156 51.0469C84.583 50.9167 84.3794 50.8196 84.1048 50.7557L83.1957 50.5426C82.6961 50.4242 82.3292 50.2408 82.0948 49.9922C81.8628 49.7412 81.7468 49.4276 81.7468 49.0511C81.7468 48.7434 81.8332 48.4711 82.006 48.2344C82.1812 47.9976 82.4192 47.8118 82.7198 47.6768C83.0228 47.5419 83.3661 47.4744 83.7496 47.4744C84.2894 47.4744 84.7132 47.5928 85.021 47.8295C85.3311 48.0663 85.5513 48.3788 85.6815 48.767ZM91.0907 53L89.4288 47.5455H90.3095L91.4885 51.7216H91.5453L92.71 47.5455H93.6049L94.7555 51.7074H94.8123L95.9913 47.5455H96.872L95.21 53H94.3862L93.193 48.8097H93.1078L91.9146 53H91.0907ZM97.9799 53V47.5455H98.818V53H97.9799ZM98.4061 46.6364C98.2427 46.6364 98.1019 46.5807 97.9835 46.4695C97.8675 46.3582 97.8095 46.2244 97.8095 46.0682C97.8095 45.9119 97.8675 45.7782 97.9835 45.6669C98.1019 45.5556 98.2427 45.5 98.4061 45.5C98.5694 45.5 98.7091 45.5556 98.8251 45.6669C98.9435 45.7782 99.0027 45.9119 99.0027 46.0682C99.0027 46.2244 98.9435 46.3582 98.8251 46.4695C98.7091 46.5807 98.5694 46.6364 98.4061 46.6364ZM102.725 47.5455V48.2557H99.8984V47.5455H102.725ZM100.722 46.2386H101.56V51.4375C101.56 51.6742 101.595 51.8518 101.663 51.9702C101.734 52.0862 101.824 52.1643 101.933 52.2045C102.045 52.2424 102.162 52.2614 102.285 52.2614C102.377 52.2614 102.453 52.2566 102.512 52.2472C102.571 52.2353 102.619 52.2259 102.654 52.2188L102.825 52.9716C102.768 52.9929 102.688 53.0142 102.587 53.0355C102.485 53.0592 102.356 53.071 102.2 53.071C101.963 53.071 101.731 53.0201 101.504 52.9183C101.279 52.8165 101.092 52.6615 100.942 52.4531C100.796 52.2448 100.722 51.982 100.722 51.6648V46.2386ZM104.941 49.7188V53H104.103V45.7273H104.941V48.3977H105.012C105.14 48.116 105.332 47.8923 105.587 47.7266C105.845 47.5585 106.189 47.4744 106.617 47.4744C106.989 47.4744 107.314 47.549 107.594 47.6982C107.873 47.8449 108.09 48.071 108.244 48.3764C108.4 48.6795 108.478 49.0653 108.478 49.5341V53H107.64V49.5909C107.64 49.1577 107.527 48.8227 107.303 48.5859C107.08 48.3468 106.771 48.2273 106.376 48.2273C106.101 48.2273 105.855 48.2853 105.637 48.4013C105.422 48.5173 105.251 48.6866 105.126 48.9091C105.003 49.1316 104.941 49.4015 104.941 49.7188ZM112.227 53.1136C111.735 53.1136 111.303 52.9964 110.931 52.7621C110.562 52.5277 110.273 52.1998 110.064 51.7784C109.858 51.357 109.756 50.8646 109.756 50.3011C109.756 49.733 109.858 49.237 110.064 48.8132C110.273 48.3894 110.562 48.0604 110.931 47.826C111.303 47.5916 111.735 47.4744 112.227 47.4744C112.72 47.4744 113.15 47.5916 113.52 47.826C113.891 48.0604 114.18 48.3894 114.386 48.8132C114.595 49.237 114.699 49.733 114.699 50.3011C114.699 50.8646 114.595 51.357 114.386 51.7784C114.18 52.1998 113.891 52.5277 113.52 52.7621C113.15 52.9964 112.72 53.1136 112.227 53.1136ZM112.227 52.3608C112.601 52.3608 112.909 52.2649 113.15 52.0732C113.392 51.8814 113.571 51.6293 113.687 51.3168C113.803 51.0043 113.861 50.6657 113.861 50.3011C113.861 49.9366 113.803 49.5968 113.687 49.282C113.571 48.9671 113.392 48.7126 113.15 48.5185C112.909 48.3243 112.601 48.2273 112.227 48.2273C111.853 48.2273 111.545 48.3243 111.304 48.5185C111.062 48.7126 110.884 48.9671 110.768 49.282C110.652 49.5968 110.594 49.9366 110.594 50.3011C110.594 50.6657 110.652 51.0043 110.768 51.3168C110.884 51.6293 111.062 51.8814 111.304 52.0732C111.545 52.2649 111.853 52.3608 112.227 52.3608ZM119.415 50.7699V47.5455H120.254V53H119.415V52.0767H119.359C119.231 52.3537 119.032 52.5893 118.762 52.7834C118.492 52.9751 118.151 53.071 117.739 53.071C117.398 53.071 117.095 52.9964 116.83 52.8473C116.565 52.6958 116.357 52.4685 116.205 52.1655C116.054 51.8601 115.978 51.4754 115.978 51.0114V47.5455H116.816V50.9545C116.816 51.3523 116.927 51.6695 117.15 51.9062C117.375 52.143 117.661 52.2614 118.009 52.2614C118.218 52.2614 118.429 52.2081 118.645 52.1016C118.863 51.995 119.045 51.8317 119.192 51.6115C119.341 51.3913 119.415 51.1108 119.415 50.7699ZM124.161 47.5455V48.2557H121.334V47.5455H124.161ZM122.158 46.2386H122.996V51.4375C122.996 51.6742 123.03 51.8518 123.099 51.9702C123.17 52.0862 123.26 52.1643 123.369 52.2045C123.48 52.2424 123.597 52.2614 123.72 52.2614C123.813 52.2614 123.888 52.2566 123.948 52.2472C124.007 52.2353 124.054 52.2259 124.09 52.2188L124.26 52.9716C124.203 52.9929 124.124 53.0142 124.022 53.0355C123.92 53.0592 123.791 53.071 123.635 53.071C123.398 53.071 123.166 53.0201 122.939 52.9183C122.714 52.8165 122.527 52.6615 122.378 52.4531C122.231 52.2448 122.158 51.982 122.158 51.6648V46.2386ZM25.4946 67.0455V59.5455H26.3042V60.4119H26.4037C26.4652 60.3172 26.5505 60.1965 26.6594 60.0497C26.7706 59.9006 26.9292 59.768 27.1352 59.652C27.3435 59.5336 27.6253 59.4744 27.9804 59.4744C28.4397 59.4744 28.8445 59.5893 29.1949 59.8189C29.5452 60.0485 29.8187 60.3741 30.0152 60.7955C30.2117 61.2169 30.3099 61.714 30.3099 62.2869C30.3099 62.8646 30.2117 63.3653 30.0152 63.7891C29.8187 64.2105 29.5464 64.5372 29.1984 64.7692C28.8504 64.9988 28.4491 65.1136 27.9946 65.1136C27.6442 65.1136 27.3637 65.0556 27.153 64.9396C26.9423 64.8213 26.7801 64.6875 26.6665 64.5384C26.5528 64.3868 26.4652 64.2614 26.4037 64.1619H26.3327V67.0455H25.4946ZM26.3184 62.2727C26.3184 62.6847 26.3788 63.0481 26.4996 63.3629C26.6203 63.6754 26.7967 63.9205 27.0287 64.098C27.2607 64.2732 27.5448 64.3608 27.8809 64.3608C28.2313 64.3608 28.5237 64.2685 28.7581 64.0838C28.9948 63.8968 29.1724 63.6458 29.2907 63.331C29.4115 63.0137 29.4719 62.661 29.4719 62.2727C29.4719 61.8892 29.4127 61.5436 29.2943 61.2358C29.1783 60.9257 29.0019 60.6806 28.7652 60.5007C28.5308 60.3184 28.2361 60.2273 27.8809 60.2273C27.54 60.2273 27.2536 60.3137 27.0216 60.4865C26.7896 60.657 26.6144 60.8961 26.496 61.2038C26.3776 61.5092 26.3184 61.8655 26.3184 62.2727ZM31.5883 65V59.5455H32.398V60.3693H32.4548C32.5542 60.0994 32.7342 59.8804 32.9946 59.7124C33.255 59.5443 33.5486 59.4602 33.8753 59.4602C33.9368 59.4602 34.0138 59.4614 34.1061 59.4638C34.1984 59.4661 34.2683 59.4697 34.3156 59.4744V60.3267C34.2872 60.3196 34.2221 60.3089 34.1203 60.2947C34.0209 60.2782 33.9155 60.2699 33.8042 60.2699C33.5391 60.2699 33.3023 60.3255 33.094 60.4368C32.8881 60.5457 32.7247 60.6972 32.604 60.8913C32.4856 61.0831 32.4264 61.3021 32.4264 61.5483V65H31.5883ZM35.309 65V59.5455H36.1471V65H35.309ZM35.7352 58.6364C35.5718 58.6364 35.431 58.5807 35.3126 58.4695C35.1966 58.3582 35.1386 58.2244 35.1386 58.0682C35.1386 57.9119 35.1966 57.7782 35.3126 57.6669C35.431 57.5556 35.5718 57.5 35.7352 57.5C35.8985 57.5 36.0382 57.5556 36.1542 57.6669C36.2726 57.7782 36.3318 57.9119 36.3318 58.0682C36.3318 58.2244 36.2726 58.3582 36.1542 58.4695C36.0382 58.5807 35.8985 58.6364 35.7352 58.6364ZM42.1423 59.5455L40.1253 65H39.273L37.2559 59.5455H38.165L39.6707 63.892H39.7275L41.2332 59.5455H42.1423ZM44.6876 65.1278C44.3419 65.1278 44.0283 65.0627 43.7465 64.9325C43.4648 64.8 43.2411 64.6094 43.0754 64.3608C42.9097 64.1098 42.8268 63.8068 42.8268 63.4517C42.8268 63.1392 42.8883 62.8859 43.0115 62.6918C43.1346 62.4953 43.2991 62.3414 43.5051 62.2301C43.711 62.1188 43.9383 62.036 44.1869 61.9815C44.4378 61.9247 44.69 61.8797 44.9433 61.8466C45.2747 61.804 45.5434 61.772 45.7494 61.7507C45.9577 61.727 46.1092 61.688 46.2039 61.6335C46.301 61.5791 46.3495 61.4844 46.3495 61.3494V61.321C46.3495 60.9706 46.2536 60.6984 46.0619 60.5043C45.8725 60.3101 45.5848 60.2131 45.199 60.2131C44.7989 60.2131 44.4852 60.3007 44.2579 60.4759C44.0306 60.651 43.8708 60.8381 43.7785 61.0369L42.983 60.7528C43.1251 60.4214 43.3145 60.1634 43.5512 59.9787C43.7903 59.7917 44.0508 59.6615 44.3325 59.5881C44.6166 59.5123 44.8959 59.4744 45.1705 59.4744C45.3457 59.4744 45.547 59.4957 45.7742 59.5384C46.0039 59.5786 46.2252 59.6626 46.4383 59.7905C46.6537 59.9183 46.8325 60.1113 46.9745 60.3693C47.1166 60.6274 47.1876 60.973 47.1876 61.4062V65H46.3495V64.2614H46.3069C46.2501 64.3797 46.1554 64.5064 46.0228 64.6413C45.8902 64.7763 45.7139 64.8911 45.4937 64.9858C45.2735 65.0805 45.0048 65.1278 44.6876 65.1278ZM44.8154 64.375C45.1469 64.375 45.4262 64.3099 45.6535 64.1797C45.8831 64.0495 46.056 63.8814 46.172 63.6754C46.2903 63.4695 46.3495 63.2528 46.3495 63.0256V62.2585C46.314 62.3011 46.2359 62.3402 46.1151 62.3757C45.9968 62.4089 45.8595 62.4384 45.7032 62.4645C45.5493 62.4882 45.399 62.5095 45.2522 62.5284C45.1078 62.545 44.9906 62.5592 44.9007 62.571C44.6829 62.5994 44.4793 62.6456 44.2899 62.7095C44.1028 62.7711 43.9513 62.8646 43.8353 62.9901C43.7217 63.1132 43.6649 63.2812 43.6649 63.4943C43.6649 63.7855 43.7726 64.0057 43.988 64.1548C44.2058 64.3016 44.4816 64.375 44.8154 64.375ZM50.9331 65.1136C50.4218 65.1136 49.9814 64.9929 49.6121 64.7514C49.2428 64.5099 48.9587 64.1773 48.7599 63.7536C48.561 63.3298 48.4616 62.8456 48.4616 62.3011C48.4616 61.7472 48.5634 61.2583 48.767 60.8345C48.9729 60.4084 49.2594 60.0758 49.6263 59.8366C49.9956 59.5952 50.4265 59.4744 50.9189 59.4744C51.3025 59.4744 51.6481 59.5455 51.9559 59.6875C52.2636 59.8295 52.5158 60.0284 52.7123 60.2841C52.9088 60.5398 53.0307 60.8381 53.078 61.179H52.24C52.176 60.9304 52.034 60.7102 51.8138 60.5185C51.596 60.3243 51.3025 60.2273 50.9331 60.2273C50.6064 60.2273 50.32 60.3125 50.0738 60.483C49.8299 60.651 49.6394 60.889 49.502 61.1967C49.3671 61.5021 49.2996 61.8608 49.2996 62.2727C49.2996 62.6941 49.3659 63.0611 49.4985 63.3736C49.6334 63.6861 49.8228 63.9287 50.0667 64.1016C50.3129 64.2744 50.6017 64.3608 50.9331 64.3608C51.151 64.3608 51.3486 64.3229 51.5262 64.2472C51.7037 64.1714 51.8541 64.0625 51.9772 63.9205C52.1003 63.7784 52.1879 63.608 52.24 63.4091H53.078C53.0307 63.7311 52.9135 64.0211 52.7265 64.2791C52.5418 64.5348 52.2968 64.7384 51.9914 64.8899C51.6884 65.0391 51.3356 65.1136 50.9331 65.1136ZM54.843 67.0455C54.7009 67.0455 54.5742 67.0336 54.463 67.0099C54.3517 66.9886 54.2748 66.9673 54.2322 66.946L54.4452 66.2074C54.6488 66.2595 54.8287 66.2784 54.985 66.2642C55.1412 66.25 55.2797 66.1802 55.4005 66.0547C55.5236 65.9316 55.636 65.7315 55.7378 65.4545L55.8941 65.0284L53.877 59.5455H54.7861L56.2918 63.892H56.3486L57.8543 59.5455H58.7634L56.4481 65.7955C56.3439 66.0772 56.2149 66.3104 56.061 66.495C55.9071 66.6821 55.7284 66.8205 55.5248 66.9105C55.3235 67.0005 55.0963 67.0455 54.843 67.0455ZM64.898 65.1136C64.3866 65.1136 63.9463 64.9929 63.577 64.7514C63.2077 64.5099 62.9236 64.1773 62.7247 63.7536C62.5258 63.3298 62.4264 62.8456 62.4264 62.3011C62.4264 61.7472 62.5282 61.2583 62.7318 60.8345C62.9378 60.4084 63.2242 60.0758 63.5912 59.8366C63.9605 59.5952 64.3914 59.4744 64.8838 59.4744C65.2673 59.4744 65.613 59.5455 65.9207 59.6875C66.2285 59.8295 66.4806 60.0284 66.6771 60.2841C66.8736 60.5398 66.9955 60.8381 67.0429 61.179H66.2048C66.1409 60.9304 65.9988 60.7102 65.7787 60.5185C65.5609 60.3243 65.2673 60.2273 64.898 60.2273C64.5713 60.2273 64.2848 60.3125 64.0386 60.483C63.7948 60.651 63.6042 60.889 63.4669 61.1967C63.3319 61.5021 63.2645 61.8608 63.2645 62.2727C63.2645 62.6941 63.3308 63.0611 63.4633 63.3736C63.5983 63.6861 63.7877 63.9287 64.0315 64.1016C64.2777 64.2744 64.5666 64.3608 64.898 64.3608C65.1158 64.3608 65.3135 64.3229 65.491 64.2472C65.6686 64.1714 65.8189 64.0625 65.942 63.9205C66.0651 63.7784 66.1527 63.608 66.2048 63.4091H67.0429C66.9955 63.7311 66.8783 64.0211 66.6913 64.2791C66.5067 64.5348 66.2616 64.7384 65.9562 64.8899C65.6532 65.0391 65.3005 65.1136 64.898 65.1136ZM70.4839 65.1136C69.9915 65.1136 69.5595 64.9964 69.1878 64.7621C68.8184 64.5277 68.5296 64.1998 68.3213 63.7784C68.1153 63.357 68.0123 62.8646 68.0123 62.3011C68.0123 61.733 68.1153 61.237 68.3213 60.8132C68.5296 60.3894 68.8184 60.0604 69.1878 59.826C69.5595 59.5916 69.9915 59.4744 70.4839 59.4744C70.9764 59.4744 71.4072 59.5916 71.7765 59.826C72.1482 60.0604 72.4371 60.3894 72.643 60.8132C72.8514 61.237 72.9555 61.733 72.9555 62.3011C72.9555 62.8646 72.8514 63.357 72.643 63.7784C72.4371 64.1998 72.1482 64.5277 71.7765 64.7621C71.4072 64.9964 70.9764 65.1136 70.4839 65.1136ZM70.4839 64.3608C70.858 64.3608 71.1657 64.2649 71.4072 64.0732C71.6487 63.8814 71.8274 63.6293 71.9434 63.3168C72.0595 63.0043 72.1175 62.6657 72.1175 62.3011C72.1175 61.9366 72.0595 61.5968 71.9434 61.282C71.8274 60.9671 71.6487 60.7126 71.4072 60.5185C71.1657 60.3243 70.858 60.2273 70.4839 60.2273C70.1099 60.2273 69.8021 60.3243 69.5606 60.5185C69.3192 60.7126 69.1404 60.9671 69.0244 61.282C68.9084 61.5968 68.8504 61.9366 68.8504 62.3011C68.8504 62.6657 68.9084 63.0043 69.0244 63.3168C69.1404 63.6293 69.3192 63.8814 69.5606 64.0732C69.8021 64.2649 70.1099 64.3608 70.4839 64.3608ZM75.0729 61.7188V65H74.2348V59.5455H75.0445V60.3977H75.1155C75.2433 60.1207 75.4375 59.8982 75.6979 59.7301C75.9583 59.5597 76.2945 59.4744 76.7064 59.4744C77.0757 59.4744 77.3989 59.5502 77.6759 59.7017C77.9529 59.8509 78.1683 60.0781 78.3222 60.3835C78.4761 60.6866 78.553 61.0701 78.553 61.5341V65H77.7149V61.5909C77.7149 61.1624 77.6037 60.8286 77.3811 60.5895C77.1586 60.348 76.8532 60.2273 76.4649 60.2273C76.1974 60.2273 75.9583 60.2853 75.7476 60.4013C75.5393 60.5173 75.3747 60.6866 75.254 60.9091C75.1333 61.1316 75.0729 61.4015 75.0729 61.7188ZM82.3003 65.1136C81.789 65.1136 81.3486 64.9929 80.9793 64.7514C80.61 64.5099 80.3259 64.1773 80.127 63.7536C79.9282 63.3298 79.8287 62.8456 79.8287 62.3011C79.8287 61.7472 79.9305 61.2583 80.1341 60.8345C80.3401 60.4084 80.6266 60.0758 80.9935 59.8366C81.3628 59.5952 81.7937 59.4744 82.2861 59.4744C82.6697 59.4744 83.0153 59.5455 83.3231 59.6875C83.6308 59.8295 83.883 60.0284 84.0795 60.2841C84.276 60.5398 84.3979 60.8381 84.4452 61.179H83.6072C83.5432 60.9304 83.4012 60.7102 83.181 60.5185C82.9632 60.3243 82.6697 60.2273 82.3003 60.2273C81.9736 60.2273 81.6872 60.3125 81.441 60.483C81.1971 60.651 81.0065 60.889 80.8692 61.1967C80.7343 61.5021 80.6668 61.8608 80.6668 62.2727C80.6668 62.6941 80.7331 63.0611 80.8657 63.3736C81.0006 63.6861 81.19 63.9287 81.4339 64.1016C81.6801 64.2744 81.9689 64.3608 82.3003 64.3608C82.5181 64.3608 82.7158 64.3229 82.8934 64.2472C83.0709 64.1714 83.2213 64.0625 83.3444 63.9205C83.4675 63.7784 83.5551 63.608 83.6072 63.4091H84.4452C84.3979 63.7311 84.2807 64.0211 84.0937 64.2791C83.909 64.5348 83.664 64.7384 83.3586 64.8899C83.0555 65.0391 82.7028 65.1136 82.3003 65.1136ZM87.9573 65.1136C87.4317 65.1136 86.9784 64.9976 86.5972 64.7656C86.2184 64.5312 85.926 64.2045 85.7201 63.7855C85.5165 63.3641 85.4147 62.8741 85.4147 62.3153C85.4147 61.7566 85.5165 61.2642 85.7201 60.8381C85.926 60.4096 86.2125 60.0758 86.5795 59.8366C86.9488 59.5952 87.3796 59.4744 87.8721 59.4744C88.1562 59.4744 88.4367 59.5218 88.7137 59.6165C88.9907 59.7112 89.2428 59.8651 89.4701 60.0781C89.6974 60.2888 89.8785 60.5682 90.0134 60.9162C90.1483 61.2642 90.2158 61.6927 90.2158 62.2017V62.5568H86.0113V61.8324H89.3635C89.3635 61.5246 89.302 61.25 89.1789 61.0085C89.0581 60.767 88.8853 60.5765 88.6604 60.4368C88.4379 60.2971 88.1751 60.2273 87.8721 60.2273C87.5383 60.2273 87.2494 60.3101 87.0056 60.4759C86.7641 60.6392 86.5783 60.8523 86.4481 61.1151C86.3179 61.3778 86.2528 61.6596 86.2528 61.9602V62.4432C86.2528 62.8551 86.3238 63.2043 86.4658 63.4908C86.6102 63.7749 86.8103 63.9915 87.066 64.1406C87.3216 64.2874 87.6188 64.3608 87.9573 64.3608C88.1775 64.3608 88.3763 64.33 88.5539 64.2685C88.7338 64.2045 88.8889 64.1098 89.0191 63.9844C89.1493 63.8565 89.2499 63.6979 89.3209 63.5085L90.1306 63.7358C90.0454 64.0104 89.9021 64.2519 89.7009 64.4602C89.4997 64.6662 89.2511 64.8272 88.9552 64.9432C88.6592 65.0568 88.3266 65.1136 87.9573 65.1136ZM91.4907 65V59.5455H92.3003V60.3693H92.3572C92.4566 60.0994 92.6365 59.8804 92.8969 59.7124C93.1573 59.5443 93.4509 59.4602 93.7776 59.4602C93.8392 59.4602 93.9161 59.4614 94.0084 59.4638C94.1008 59.4661 94.1706 59.4697 94.218 59.4744V60.3267C94.1895 60.3196 94.1244 60.3089 94.0226 60.2947C93.9232 60.2782 93.8179 60.2699 93.7066 60.2699C93.4414 60.2699 93.2047 60.3255 92.9964 60.4368C92.7904 60.5457 92.627 60.6972 92.5063 60.8913C92.3879 61.0831 92.3287 61.3021 92.3287 61.5483V65H91.4907ZM96.0494 61.7188V65H95.2114V59.5455H96.021V60.3977H96.0921C96.2199 60.1207 96.414 59.8982 96.6744 59.7301C96.9349 59.5597 97.271 59.4744 97.683 59.4744C98.0523 59.4744 98.3754 59.5502 98.6524 59.7017C98.9294 59.8509 99.1449 60.0781 99.2987 60.3835C99.4526 60.6866 99.5296 61.0701 99.5296 61.5341V65H98.6915V61.5909C98.6915 61.1624 98.5802 60.8286 98.3577 60.5895C98.1352 60.348 97.8298 60.2273 97.4415 60.2273C97.174 60.2273 96.9349 60.2853 96.7242 60.4013C96.5158 60.5173 96.3513 60.6866 96.2306 60.9091C96.1098 61.1316 96.0494 61.4015 96.0494 61.7188ZM104.925 60.767L104.172 60.9801C104.124 60.8546 104.055 60.7327 103.962 60.6143C103.872 60.4936 103.749 60.3942 103.593 60.3161C103.437 60.2379 103.237 60.1989 102.993 60.1989C102.659 60.1989 102.381 60.2758 102.158 60.4297C101.938 60.5812 101.828 60.7741 101.828 61.0085C101.828 61.2169 101.904 61.3814 102.055 61.5021C102.207 61.6229 102.444 61.7235 102.766 61.804L103.575 62.0028C104.063 62.1212 104.426 62.3023 104.665 62.5462C104.905 62.7876 105.024 63.099 105.024 63.4801C105.024 63.7926 104.934 64.072 104.754 64.3182C104.577 64.5644 104.328 64.7585 104.008 64.9006C103.689 65.0426 103.317 65.1136 102.893 65.1136C102.337 65.1136 101.877 64.9929 101.512 64.7514C101.147 64.5099 100.917 64.1572 100.82 63.6932L101.615 63.4943C101.691 63.7879 101.834 64.008 102.045 64.1548C102.258 64.3016 102.536 64.375 102.879 64.375C103.27 64.375 103.58 64.2921 103.81 64.1264C104.042 63.9583 104.158 63.7571 104.158 63.5227C104.158 63.3333 104.091 63.1747 103.959 63.0469C103.826 62.9167 103.623 62.8196 103.348 62.7557L102.439 62.5426C101.939 62.4242 101.572 62.2408 101.338 61.9922C101.106 61.7412 100.99 61.4276 100.99 61.0511C100.99 60.7434 101.076 60.4711 101.249 60.2344C101.424 59.9976 101.662 59.8118 101.963 59.6768C102.266 59.5419 102.609 59.4744 102.993 59.4744C103.533 59.4744 103.956 59.5928 104.264 59.8295C104.574 60.0663 104.794 60.3788 104.925 60.767ZM106.896 65.0568C106.721 65.0568 106.571 64.9941 106.445 64.8686C106.32 64.7431 106.257 64.5928 106.257 64.4176C106.257 64.2424 106.32 64.0921 106.445 63.9666C106.571 63.8411 106.721 63.7784 106.896 63.7784C107.072 63.7784 107.222 63.8411 107.347 63.9666C107.473 64.0921 107.536 64.2424 107.536 64.4176C107.536 64.5336 107.506 64.6402 107.447 64.7372C107.39 64.8343 107.313 64.9124 107.216 64.9716C107.121 65.0284 107.015 65.0568 106.896 65.0568Z" fill="black"/>
<defs>
<linearGradient id="paint0_linear_83_297" x1="49.625" y1="22.4999" x2="90.875" y2="22.4999" gradientUnits="userSpaceOnUse">
<stop stop-color="#3FF3FF"/>
<stop offset="1" stop-color="#00ABBB"/>
</linearGradient>
<clipPath id="clip0_83_297">
<rect width="45" height="45" fill="white" transform="translate(44)"/>
</clipPath>
</defs>
</svg>
