<svg width="101" height="70" viewBox="0 0 101 70" fill="none" xmlns="http://www.w3.org/2000/svg">
<path d="M56.125 7.5C60.1032 7.5 63.9186 9.08035 66.7316 11.8934C69.5446 14.7064 71.125 18.5218 71.125 22.5C71.125 26.4782 69.5446 30.2936 66.7316 33.1066C63.9186 35.9196 60.1032 37.5 56.125 37.5C52.1468 37.5 48.3314 35.9196 45.5184 33.1066C42.7054 30.2936 41.125 26.4782 41.125 22.5C41.125 18.5218 42.7054 14.7064 45.5184 11.8934C48.3314 9.08035 52.1468 7.5 56.125 7.5ZM56.125 11.25C53.1413 11.25 50.2798 12.4353 48.17 14.545C46.0603 16.6548 44.875 19.5163 44.875 22.5C44.875 25.4837 46.0603 28.3452 48.17 30.455C50.2798 32.5647 53.1413 33.75 56.125 33.75C59.1087 33.75 61.9702 32.5647 64.08 30.455C66.1897 28.3452 67.375 25.4837 67.375 22.5C67.375 19.5163 66.1897 16.6548 64.08 14.545C61.9702 12.4353 59.1087 11.25 56.125 11.25ZM54.25 15H57.0625V22.0875L61.4312 26.4562L59.4438 28.4438L54.25 23.25V15ZM31.75 33.75C31.2527 33.75 30.7758 33.5525 30.4242 33.2008C30.0725 32.8492 29.875 32.3723 29.875 31.875C29.875 31.3777 30.0725 30.9008 30.4242 30.5492C30.7758 30.1975 31.2527 30 31.75 30H38.9312C39.5125 31.3312 40.2625 32.5875 41.125 33.75H31.75ZM33.625 24.375C33.1277 24.375 32.6508 24.1775 32.2992 23.8258C31.9475 23.4742 31.75 22.9973 31.75 22.5C31.75 22.0027 31.9475 21.5258 32.2992 21.1742C32.6508 20.8225 33.1277 20.625 33.625 20.625H37.4688L37.375 22.5L37.4688 24.375H33.625ZM35.5 15C35.0027 15 34.5258 14.8025 34.1742 14.4508C33.8225 14.0992 33.625 13.6223 33.625 13.125C33.625 12.6277 33.8225 12.1508 34.1742 11.7992C34.5258 11.4475 35.0027 11.25 35.5 11.25H41.125C40.2625 12.4125 39.5125 13.6687 38.9312 15H35.5Z" fill="url(#paint0_linear_1_864)"/>
<path d="M1.61062 55H0.687322L3.35778 47.7273H4.26687L6.93732 55H6.01403L3.84073 48.8778H3.78391L1.61062 55ZM1.95153 52.1591H5.67312V52.9403H1.95153V52.1591ZM13.198 49.5455V50.2557H10.2576V49.5455H13.198ZM11.1383 55V48.7926C11.1383 48.4801 11.2117 48.2197 11.3585 48.0114C11.5053 47.803 11.6958 47.6468 11.9302 47.5426C12.1646 47.4384 12.412 47.3864 12.6724 47.3864C12.8784 47.3864 13.0465 47.4029 13.1767 47.4361C13.3069 47.4692 13.4039 47.5 13.4679 47.5284L13.2264 48.2528C13.1838 48.2386 13.1246 48.2209 13.0488 48.1996C12.9754 48.1783 12.8784 48.1676 12.7576 48.1676C12.4806 48.1676 12.2806 48.2375 12.1575 48.3771C12.0368 48.5168 11.9764 48.7216 11.9764 48.9915V55H11.1383ZM15.8214 55.1278C15.4757 55.1278 15.1621 55.0627 14.8803 54.9325C14.5986 54.8 14.3749 54.6094 14.2092 54.3608C14.0434 54.1098 13.9606 53.8068 13.9606 53.4517C13.9606 53.1392 14.0221 52.8859 14.1452 52.6918C14.2683 52.4953 14.4329 52.3414 14.6388 52.2301C14.8448 52.1188 15.0721 52.036 15.3207 51.9815C15.5716 51.9247 15.8237 51.8797 16.0771 51.8466C16.4085 51.804 16.6772 51.772 16.8832 51.7507C17.0915 51.727 17.243 51.688 17.3377 51.6335C17.4348 51.5791 17.4833 51.4844 17.4833 51.3494V51.321C17.4833 50.9706 17.3874 50.6984 17.1957 50.5043C17.0063 50.3101 16.7186 50.2131 16.3327 50.2131C15.9326 50.2131 15.619 50.3007 15.3917 50.4759C15.1644 50.651 15.0046 50.8381 14.9123 51.0369L14.1168 50.7528C14.2589 50.4214 14.4483 50.1634 14.685 49.9787C14.9241 49.7917 15.1845 49.6615 15.4663 49.5881C15.7504 49.5123 16.0297 49.4744 16.3043 49.4744C16.4795 49.4744 16.6808 49.4957 16.908 49.5384C17.1377 49.5786 17.359 49.6626 17.5721 49.7905C17.7875 49.9183 17.9663 50.1113 18.1083 50.3693C18.2504 50.6274 18.3214 50.973 18.3214 51.4062V55H17.4833V54.2614H17.4407C17.3839 54.3797 17.2892 54.5064 17.1566 54.6413C17.024 54.7763 16.8477 54.8911 16.6275 54.9858C16.4073 55.0805 16.1386 55.1278 15.8214 55.1278ZM15.9492 54.375C16.2807 54.375 16.56 54.3099 16.7873 54.1797C17.0169 54.0495 17.1897 53.8814 17.3058 53.6754C17.4241 53.4695 17.4833 53.2528 17.4833 53.0256V52.2585C17.4478 52.3011 17.3697 52.3402 17.2489 52.3757C17.1306 52.4089 16.9933 52.4384 16.837 52.4645C16.6831 52.4882 16.5328 52.5095 16.386 52.5284C16.2416 52.545 16.1244 52.5592 16.0344 52.571C15.8166 52.5994 15.613 52.6456 15.4237 52.7095C15.2366 52.7711 15.0851 52.8646 14.9691 52.9901C14.8555 53.1132 14.7987 53.2812 14.7987 53.4943C14.7987 53.7855 14.9064 54.0057 15.1218 54.1548C15.3396 54.3016 15.6154 54.375 15.9492 54.375ZM23.7147 50.767L22.9618 50.9801C22.9145 50.8546 22.8446 50.7327 22.7523 50.6143C22.6623 50.4936 22.5392 50.3942 22.383 50.3161C22.2267 50.2379 22.0267 50.1989 21.7828 50.1989C21.449 50.1989 21.1709 50.2758 20.9483 50.4297C20.7282 50.5812 20.6181 50.7741 20.6181 51.0085C20.6181 51.2169 20.6938 51.3814 20.8453 51.5021C20.9969 51.6229 21.2336 51.7235 21.5556 51.804L22.3652 52.0028C22.8529 52.1212 23.2163 52.3023 23.4554 52.5462C23.6945 52.7876 23.8141 53.099 23.8141 53.4801C23.8141 53.7926 23.7241 54.072 23.5442 54.3182C23.3667 54.5644 23.1181 54.7585 22.7985 54.9006C22.4789 55.0426 22.1072 55.1136 21.6834 55.1136C21.1271 55.1136 20.6666 54.9929 20.302 54.7514C19.9374 54.5099 19.7066 54.1572 19.6096 53.6932L20.405 53.4943C20.4808 53.7879 20.624 54.008 20.8347 54.1548C21.0478 54.3016 21.3259 54.375 21.6692 54.375C22.0598 54.375 22.37 54.2921 22.5996 54.1264C22.8316 53.9583 22.9476 53.7571 22.9476 53.5227C22.9476 53.3333 22.8813 53.1747 22.7488 53.0469C22.6162 52.9167 22.4126 52.8196 22.138 52.7557L21.2289 52.5426C20.7293 52.4242 20.3624 52.2408 20.128 51.9922C19.896 51.7412 19.78 51.4276 19.78 51.0511C19.78 50.7434 19.8664 50.4711 20.0392 50.2344C20.2144 49.9976 20.4524 49.8118 20.753 49.6768C21.056 49.5419 21.3993 49.4744 21.7828 49.4744C22.3226 49.4744 22.7464 49.5928 23.0542 49.8295C23.3643 50.0663 23.5845 50.3788 23.7147 50.767ZM27.4478 49.5455V50.2557H24.6211V49.5455H27.4478ZM25.445 48.2386H26.283V53.4375C26.283 53.6742 26.3174 53.8518 26.386 53.9702C26.457 54.0862 26.547 54.1643 26.6559 54.2045C26.7672 54.2424 26.8844 54.2614 27.0075 54.2614C27.0998 54.2614 27.1755 54.2566 27.2347 54.2472C27.2939 54.2353 27.3413 54.2259 27.3768 54.2188L27.5472 54.9716C27.4904 54.9929 27.4111 55.0142 27.3093 55.0355C27.2075 55.0592 27.0785 55.071 26.9222 55.071C26.6855 55.071 26.4535 55.0201 26.2262 54.9183C26.0013 54.8165 25.8143 54.6615 25.6651 54.4531C25.5183 54.2448 25.445 53.982 25.445 53.6648V48.2386ZM33.5806 55.0994C33.1024 55.0994 32.6905 55.0118 32.3448 54.8366C31.9992 54.6615 31.7328 54.4212 31.5458 54.1158C31.3588 53.8104 31.2653 53.4612 31.2653 53.0682C31.2653 52.7652 31.3292 52.4964 31.457 52.2621C31.5872 52.0253 31.766 51.8063 31.9933 51.6051C32.2229 51.4015 32.4869 51.1979 32.7852 50.9943L33.8363 50.2131C34.0423 50.0781 34.2068 49.9337 34.3299 49.7798C34.4554 49.6259 34.5181 49.4247 34.5181 49.1761C34.5181 48.9915 34.4364 48.8127 34.2731 48.6399C34.1121 48.4671 33.9002 48.3807 33.6374 48.3807C33.4528 48.3807 33.2894 48.428 33.1474 48.5227C33.0077 48.6151 32.8976 48.7334 32.8171 48.8778C32.739 49.0199 32.6999 49.1667 32.6999 49.3182C32.6999 49.4886 32.7461 49.6615 32.8384 49.8366C32.9331 50.0095 33.0527 50.187 33.1971 50.3693C33.3439 50.5492 33.4954 50.7339 33.6516 50.9233L36.9897 55H35.9812L33.2255 51.6761C32.9698 51.3684 32.7378 51.089 32.5295 50.8381C32.3211 50.5871 32.1554 50.3397 32.0323 50.0959C31.9092 49.852 31.8477 49.5881 31.8477 49.304C31.8477 48.9773 31.9199 48.6908 32.0643 48.4446C32.2111 48.196 32.4158 48.0031 32.6786 47.8658C32.9438 47.7261 33.2539 47.6562 33.609 47.6562C33.9736 47.6562 34.2873 47.7273 34.5501 47.8693C34.8129 48.009 35.0153 48.1948 35.1573 48.4268C35.2994 48.6565 35.3704 48.9062 35.3704 49.1761C35.3704 49.5241 35.284 49.826 35.1112 50.0817C34.9383 50.3374 34.7028 50.5753 34.4045 50.7955L32.9556 51.875C32.6289 52.1165 32.4076 52.3509 32.2915 52.5781C32.1755 52.8054 32.1175 52.9687 32.1175 53.0682C32.1175 53.2955 32.1767 53.5073 32.2951 53.7038C32.4135 53.9003 32.5804 54.0589 32.7958 54.1797C33.0112 54.3004 33.2634 54.3608 33.5522 54.3608C33.8268 54.3608 34.0943 54.3028 34.3548 54.1868C34.6152 54.0684 34.8507 53.898 35.0614 53.6754C35.2745 53.4529 35.4426 53.1854 35.5657 52.8729C35.6912 52.5604 35.7539 52.2088 35.7539 51.8182H36.5636C36.5636 52.3011 36.5079 52.6953 36.3967 53.0007C36.2854 53.3061 36.1599 53.5452 36.0202 53.718C35.8806 53.8909 35.7681 54.0199 35.6829 54.1051C35.6545 54.1406 35.6284 54.1761 35.6048 54.2116C35.5811 54.2472 35.555 54.2827 35.5266 54.3182C35.2923 54.581 34.9963 54.7775 34.6388 54.9077C34.2814 55.0355 33.9286 55.0994 33.5806 55.0994ZM43.0169 55.1136C42.4913 55.1136 42.0379 54.9976 41.6568 54.7656C41.278 54.5312 40.9856 54.2045 40.7797 53.7855C40.5761 53.3641 40.4743 52.8741 40.4743 52.3153C40.4743 51.7566 40.5761 51.2642 40.7797 50.8381C40.9856 50.4096 41.2721 50.0758 41.639 49.8366C42.0083 49.5952 42.4392 49.4744 42.9316 49.4744C43.2157 49.4744 43.4963 49.5218 43.7733 49.6165C44.0502 49.7112 44.3024 49.8651 44.5297 50.0781C44.7569 50.2888 44.938 50.5682 45.073 50.9162C45.2079 51.2642 45.2754 51.6927 45.2754 52.2017V52.5568H41.0708V51.8324H44.4231C44.4231 51.5246 44.3616 51.25 44.2385 51.0085C44.1177 50.767 43.9449 50.5765 43.72 50.4368C43.4975 50.2971 43.2347 50.2273 42.9316 50.2273C42.5978 50.2273 42.309 50.3101 42.0652 50.4759C41.8237 50.6392 41.6378 50.8523 41.5076 51.1151C41.3774 51.3778 41.3123 51.6596 41.3123 51.9602V52.4432C41.3123 52.8551 41.3833 53.2043 41.5254 53.4908C41.6698 53.7749 41.8699 53.9915 42.1255 54.1406C42.3812 54.2874 42.6783 54.3608 43.0169 54.3608C43.237 54.3608 43.4359 54.33 43.6135 54.2685C43.7934 54.2045 43.9484 54.1098 44.0787 53.9844C44.2089 53.8565 44.3095 53.6979 44.3805 53.5085L45.1902 53.7358C45.1049 54.0104 44.9617 54.2519 44.7605 54.4602C44.5592 54.6662 44.3107 54.8272 44.0147 54.9432C43.7188 55.0568 43.3862 55.1136 43.0169 55.1136ZM48.9792 49.5455V50.2557H46.0389V49.5455H48.9792ZM46.9196 55V48.7926C46.9196 48.4801 46.993 48.2197 47.1397 48.0114C47.2865 47.803 47.4771 47.6468 47.7115 47.5426C47.9458 47.4384 48.1932 47.3864 48.4537 47.3864C48.6596 47.3864 48.8277 47.4029 48.9579 47.4361C49.0881 47.4692 49.1852 47.5 49.2491 47.5284L49.0076 48.2528C48.965 48.2386 48.9058 48.2209 48.8301 48.1996C48.7567 48.1783 48.6596 48.1676 48.5389 48.1676C48.2619 48.1676 48.0618 48.2375 47.9387 48.3771C47.818 48.5168 47.7576 48.7216 47.7576 48.9915V55H46.9196ZM52.5827 49.5455V50.2557H49.6424V49.5455H52.5827ZM50.5231 55V48.7926C50.5231 48.4801 50.5965 48.2197 50.7433 48.0114C50.89 47.803 51.0806 47.6468 51.315 47.5426C51.5494 47.4384 51.7968 47.3864 52.0572 47.3864C52.2631 47.3864 52.4312 47.4029 52.5614 47.4361C52.6916 47.4692 52.7887 47.5 52.8526 47.5284L52.6112 48.2528C52.5685 48.2386 52.5094 48.2209 52.4336 48.1996C52.3602 48.1783 52.2631 48.1676 52.1424 48.1676C51.8654 48.1676 51.6654 48.2375 51.5423 48.3771C51.4215 48.5168 51.3612 48.7216 51.3612 48.9915V55H50.5231ZM53.7573 55V49.5455H54.5953V55H53.7573ZM54.1834 48.6364C54.0201 48.6364 53.8792 48.5807 53.7608 48.4695C53.6448 48.3582 53.5868 48.2244 53.5868 48.0682C53.5868 47.9119 53.6448 47.7782 53.7608 47.6669C53.8792 47.5556 54.0201 47.5 54.1834 47.5C54.3468 47.5 54.4864 47.5556 54.6025 47.6669C54.7208 47.7782 54.78 47.9119 54.78 48.0682C54.78 48.2244 54.7208 48.3582 54.6025 48.4695C54.4864 48.5807 54.3468 48.6364 54.1834 48.6364ZM58.3462 55.1136C57.8349 55.1136 57.3945 54.9929 57.0252 54.7514C56.6559 54.5099 56.3718 54.1773 56.1729 53.7536C55.9741 53.3298 55.8746 52.8456 55.8746 52.3011C55.8746 51.7472 55.9764 51.2583 56.18 50.8345C56.386 50.4084 56.6725 50.0758 57.0394 49.8366C57.4087 49.5952 57.8396 49.4744 58.332 49.4744C58.7156 49.4744 59.0612 49.5455 59.369 49.6875C59.6767 49.8295 59.9289 50.0284 60.1254 50.2841C60.3219 50.5398 60.4438 50.8381 60.4911 51.179H59.6531C59.5891 50.9304 59.4471 50.7102 59.2269 50.5185C59.0091 50.3243 58.7156 50.2273 58.3462 50.2273C58.0195 50.2273 57.7331 50.3125 57.4869 50.483C57.243 50.651 57.0524 50.889 56.9151 51.1967C56.7802 51.5021 56.7127 51.8608 56.7127 52.2727C56.7127 52.6941 56.779 53.0611 56.9116 53.3736C57.0465 53.6861 57.2359 53.9287 57.4798 54.1016C57.726 54.2744 58.0148 54.3608 58.3462 54.3608C58.564 54.3608 58.7617 54.3229 58.9393 54.2472C59.1168 54.1714 59.2672 54.0625 59.3903 53.9205C59.5134 53.7784 59.601 53.608 59.6531 53.4091H60.4911C60.4438 53.7311 60.3266 54.0211 60.1396 54.2791C59.9549 54.5348 59.7099 54.7384 59.4045 54.8899C59.1014 55.0391 58.7487 55.1136 58.3462 55.1136ZM61.7163 55V49.5455H62.5543V55H61.7163ZM62.1424 48.6364C61.979 48.6364 61.8382 48.5807 61.7198 48.4695C61.6038 48.3582 61.5458 48.2244 61.5458 48.0682C61.5458 47.9119 61.6038 47.7782 61.7198 47.6669C61.8382 47.5556 61.979 47.5 62.1424 47.5C62.3058 47.5 62.4454 47.5556 62.5614 47.6669C62.6798 47.7782 62.739 47.9119 62.739 48.0682C62.739 48.2244 62.6798 48.3582 62.5614 48.4695C62.4454 48.5807 62.3058 48.6364 62.1424 48.6364ZM66.3762 55.1136C65.8507 55.1136 65.3973 54.9976 65.0162 54.7656C64.6374 54.5312 64.345 54.2045 64.139 53.7855C63.9354 53.3641 63.8336 52.8741 63.8336 52.3153C63.8336 51.7566 63.9354 51.2642 64.139 50.8381C64.345 50.4096 64.6315 50.0758 64.9984 49.8366C65.3677 49.5952 65.7986 49.4744 66.291 49.4744C66.5751 49.4744 66.8556 49.5218 67.1326 49.6165C67.4096 49.7112 67.6618 49.8651 67.889 50.0781C68.1163 50.2888 68.2974 50.5682 68.4324 50.9162C68.5673 51.2642 68.6348 51.6927 68.6348 52.2017V52.5568H64.4302V51.8324H67.7825C67.7825 51.5246 67.7209 51.25 67.5978 51.0085C67.4771 50.767 67.3043 50.5765 67.0794 50.4368C66.8568 50.2971 66.594 50.2273 66.291 50.2273C65.9572 50.2273 65.6684 50.3101 65.4245 50.4759C65.1831 50.6392 64.9972 50.8523 64.867 51.1151C64.7368 51.3778 64.6717 51.6596 64.6717 51.9602V52.4432C64.6717 52.8551 64.7427 53.2043 64.8848 53.4908C65.0292 53.7749 65.2292 53.9915 65.4849 54.1406C65.7406 54.2874 66.0377 54.3608 66.3762 54.3608C66.5964 54.3608 66.7953 54.33 66.9728 54.2685C67.1528 54.2045 67.3078 54.1098 67.438 53.9844C67.5682 53.8565 67.6689 53.6979 67.7399 53.5085L68.5495 53.7358C68.4643 54.0104 68.3211 54.2519 68.1199 54.4602C67.9186 54.6662 67.67 54.8272 67.3741 54.9432C67.0782 55.0568 66.7456 55.1136 66.3762 55.1136ZM70.7477 51.7188V55H69.9096V49.5455H70.7193V50.3977H70.7903C70.9181 50.1207 71.1123 49.8982 71.3727 49.7301C71.6331 49.5597 71.9693 49.4744 72.3812 49.4744C72.7505 49.4744 73.0737 49.5502 73.3507 49.7017C73.6277 49.8509 73.8431 50.0781 73.997 50.3835C74.1509 50.6866 74.2278 51.0701 74.2278 51.5341V55H73.3897V51.5909C73.3897 51.1624 73.2785 50.8286 73.0559 50.5895C72.8334 50.348 72.528 50.2273 72.1397 50.2273C71.8722 50.2273 71.6331 50.2853 71.4224 50.4013C71.2141 50.5173 71.0495 50.6866 70.9288 50.9091C70.8081 51.1316 70.7477 51.4015 70.7477 51.7188ZM78.1314 49.5455V50.2557H75.3047V49.5455H78.1314ZM76.1286 48.2386H76.9666V53.4375C76.9666 53.6742 77.0009 53.8518 77.0696 53.9702C77.1406 54.0862 77.2306 54.1643 77.3395 54.2045C77.4508 54.2424 77.5679 54.2614 77.6911 54.2614C77.7834 54.2614 77.8591 54.2566 77.9183 54.2472C77.9775 54.2353 78.0249 54.2259 78.0604 54.2188L78.2308 54.9716C78.174 54.9929 78.0947 55.0142 77.9929 55.0355C77.8911 55.0592 77.7621 55.071 77.6058 55.071C77.3691 55.071 77.1371 55.0201 76.9098 54.9183C76.6849 54.8165 76.4979 54.6615 76.3487 54.4531C76.2019 54.2448 76.1286 53.982 76.1286 53.6648V48.2386ZM83.4403 55L81.7784 49.5455H82.6591L83.8381 53.7216H83.8949L85.0597 49.5455H85.9545L87.1051 53.7074H87.1619L88.3409 49.5455H89.2216L87.5597 55H86.7358L85.5426 50.8097H85.4574L84.2642 55H83.4403ZM91.9347 55.1278C91.589 55.1278 91.2753 55.0627 90.9936 54.9325C90.7119 54.8 90.4882 54.6094 90.3224 54.3608C90.1567 54.1098 90.0739 53.8068 90.0739 53.4517C90.0739 53.1392 90.1354 52.8859 90.2585 52.6918C90.3816 52.4953 90.5462 52.3414 90.7521 52.2301C90.9581 52.1188 91.1854 52.036 91.4339 51.9815C91.6849 51.9247 91.937 51.8797 92.1903 51.8466C92.5218 51.804 92.7905 51.772 92.9964 51.7507C93.2048 51.727 93.3563 51.688 93.451 51.6335C93.5481 51.5791 93.5966 51.4844 93.5966 51.3494V51.321C93.5966 50.9706 93.5007 50.6984 93.3089 50.5043C93.1196 50.3101 92.8319 50.2131 92.446 50.2131C92.0459 50.2131 91.7322 50.3007 91.505 50.4759C91.2777 50.651 91.1179 50.8381 91.0256 51.0369L90.2301 50.7528C90.3722 50.4214 90.5616 50.1634 90.7983 49.9787C91.0374 49.7917 91.2978 49.6615 91.5795 49.5881C91.8636 49.5123 92.143 49.4744 92.4176 49.4744C92.5928 49.4744 92.794 49.4957 93.0213 49.5384C93.2509 49.5786 93.4723 49.6626 93.6854 49.7905C93.9008 49.9183 94.0795 50.1113 94.2216 50.3693C94.3636 50.6274 94.4347 50.973 94.4347 51.4062V55H93.5966V54.2614H93.554C93.4972 54.3797 93.4025 54.5064 93.2699 54.6413C93.1373 54.7763 92.9609 54.8911 92.7408 54.9858C92.5206 55.0805 92.2519 55.1278 91.9347 55.1278ZM92.0625 54.375C92.3939 54.375 92.6733 54.3099 92.9006 54.1797C93.1302 54.0495 93.303 53.8814 93.419 53.6754C93.5374 53.4695 93.5966 53.2528 93.5966 53.0256V52.2585C93.5611 52.3011 93.483 52.3402 93.3622 52.3757C93.2438 52.4089 93.1065 52.4384 92.9503 52.4645C92.7964 52.4882 92.6461 52.5095 92.4993 52.5284C92.3549 52.545 92.2377 52.5592 92.1477 52.571C91.9299 52.5994 91.7263 52.6456 91.5369 52.7095C91.3499 52.7711 91.1984 52.8646 91.0824 52.9901C90.9688 53.1132 90.9119 53.2812 90.9119 53.4943C90.9119 53.7855 91.0196 54.0057 91.2351 54.1548C91.4529 54.3016 91.7287 54.375 92.0625 54.375ZM96.3088 57.0455C96.1667 57.0455 96.0401 57.0336 95.9288 57.0099C95.8175 56.9886 95.7406 56.9673 95.698 56.946L95.911 56.2074C96.1146 56.2595 96.2946 56.2784 96.4508 56.2642C96.6071 56.25 96.7456 56.1802 96.8663 56.0547C96.9894 55.9316 97.1019 55.7315 97.2037 55.4545L97.3599 55.0284L95.3429 49.5455H96.252L97.7576 53.892H97.8145L99.3201 49.5455H100.229L97.9139 55.7955C97.8097 56.0772 97.6807 56.3104 97.5268 56.495C97.3729 56.6821 97.1942 56.8205 96.9906 56.9105C96.7894 57.0005 96.5621 57.0455 96.3088 57.0455ZM13.4537 61.5455V62.2557H10.627V61.5455H13.4537ZM11.4508 60.2386H12.2889V65.4375C12.2889 65.6742 12.3232 65.8518 12.3919 65.9702C12.4629 66.0862 12.5529 66.1643 12.6618 66.2045C12.773 66.2424 12.8902 66.2614 13.0133 66.2614C13.1056 66.2614 13.1814 66.2566 13.2406 66.2472C13.2998 66.2353 13.3471 66.2259 13.3826 66.2188L13.5531 66.9716C13.4963 66.9929 13.417 67.0142 13.3152 67.0355C13.2134 67.0592 13.0843 67.071 12.9281 67.071C12.6913 67.071 12.4593 67.0201 12.2321 66.9183C12.0072 66.8165 11.8201 66.6615 11.671 66.4531C11.5242 66.2448 11.4508 65.982 11.4508 65.6648V60.2386ZM16.8716 67.1136C16.3792 67.1136 15.9471 66.9964 15.5755 66.7621C15.2061 66.5277 14.9173 66.1998 14.709 65.7784C14.503 65.357 14.4 64.8646 14.4 64.3011C14.4 63.733 14.503 63.237 14.709 62.8132C14.9173 62.3894 15.2061 62.0604 15.5755 61.826C15.9471 61.5916 16.3792 61.4744 16.8716 61.4744C17.3641 61.4744 17.7949 61.5916 18.1642 61.826C18.5359 62.0604 18.8248 62.3894 19.0307 62.8132C19.2391 63.237 19.3432 63.733 19.3432 64.3011C19.3432 64.8646 19.2391 65.357 19.0307 65.7784C18.8248 66.1998 18.5359 66.5277 18.1642 66.7621C17.7949 66.9964 17.3641 67.1136 16.8716 67.1136ZM16.8716 66.3608C17.2457 66.3608 17.5534 66.2649 17.7949 66.0732C18.0364 65.8814 18.2151 65.6293 18.3311 65.3168C18.4471 65.0043 18.5051 64.6657 18.5051 64.3011C18.5051 63.9366 18.4471 63.5968 18.3311 63.282C18.2151 62.9671 18.0364 62.7126 17.7949 62.5185C17.5534 62.3243 17.2457 62.2273 16.8716 62.2273C16.4976 62.2273 16.1898 62.3243 15.9483 62.5185C15.7069 62.7126 15.5281 62.9671 15.4121 63.282C15.2961 63.5968 15.2381 63.9366 15.2381 64.3011C15.2381 64.6657 15.2961 65.0043 15.4121 65.3168C15.5281 65.6293 15.7069 65.8814 15.9483 66.0732C16.1898 66.2649 16.4976 66.3608 16.8716 66.3608ZM25.8072 61.5455V62.2557H22.9805V61.5455H25.8072ZM23.8043 60.2386H24.6424V65.4375C24.6424 65.6742 24.6767 65.8518 24.7454 65.9702C24.8164 66.0862 24.9064 66.1643 25.0153 66.2045C25.1265 66.2424 25.2437 66.2614 25.3668 66.2614C25.4592 66.2614 25.5349 66.2566 25.5941 66.2472C25.6533 66.2353 25.7006 66.2259 25.7362 66.2188L25.9066 66.9716C25.8498 66.9929 25.7705 67.0142 25.6687 67.0355C25.5669 67.0592 25.4379 67.071 25.2816 67.071C25.0449 67.071 24.8129 67.0201 24.5856 66.9183C24.3607 66.8165 24.1737 66.6615 24.0245 66.4531C23.8777 66.2448 23.8043 65.982 23.8043 65.6648V60.2386ZM28.6729 67.1278C28.3273 67.1278 28.0136 67.0627 27.7319 66.9325C27.4502 66.8 27.2264 66.6094 27.0607 66.3608C26.895 66.1098 26.8121 65.8068 26.8121 65.4517C26.8121 65.1392 26.8737 64.8859 26.9968 64.6918C27.1199 64.4953 27.2844 64.3414 27.4904 64.2301C27.6964 64.1188 27.9237 64.036 28.1722 63.9815C28.4232 63.9247 28.6753 63.8797 28.9286 63.8466C29.2601 63.804 29.5288 63.772 29.7347 63.7507C29.9431 63.727 30.0946 63.688 30.1893 63.6335C30.2863 63.5791 30.3349 63.4844 30.3349 63.3494V63.321C30.3349 62.9706 30.239 62.6984 30.0472 62.5043C29.8578 62.3101 29.5702 62.2131 29.1843 62.2131C28.7842 62.2131 28.4705 62.3007 28.2433 62.4759C28.016 62.651 27.8562 62.8381 27.7638 63.0369L26.9684 62.7528C27.1104 62.4214 27.2998 62.1634 27.5366 61.9787C27.7757 61.7917 28.0361 61.6615 28.3178 61.5881C28.6019 61.5123 28.8813 61.4744 29.1559 61.4744C29.3311 61.4744 29.5323 61.4957 29.7596 61.5384C29.9892 61.5786 30.2106 61.6626 30.4237 61.7905C30.6391 61.9183 30.8178 62.1113 30.9599 62.3693C31.1019 62.6274 31.1729 62.973 31.1729 63.4062V67H30.3349V66.2614H30.2923C30.2354 66.3797 30.1407 66.5064 30.0082 66.6413C29.8756 66.7763 29.6992 66.8911 29.479 66.9858C29.2589 67.0805 28.9902 67.1278 28.6729 67.1278ZM28.8008 66.375C29.1322 66.375 29.4116 66.3099 29.6388 66.1797C29.8685 66.0495 30.0413 65.8814 30.1573 65.6754C30.2757 65.4695 30.3349 65.2528 30.3349 65.0256V64.2585C30.2994 64.3011 30.2212 64.3402 30.1005 64.3757C29.9821 64.4089 29.8448 64.4384 29.6886 64.4645C29.5347 64.4882 29.3844 64.5095 29.2376 64.5284C29.0932 64.545 28.976 64.5592 28.886 64.571C28.6682 64.5994 28.4646 64.6456 28.2752 64.7095C28.0882 64.7711 27.9367 64.8646 27.8207 64.9901C27.707 65.1132 27.6502 65.2812 27.6502 65.4943C27.6502 65.7855 27.7579 66.0057 27.9734 66.1548C28.1912 66.3016 28.467 66.375 28.8008 66.375ZM33.4838 65.0114L33.4696 63.9744H33.6401L36.0265 61.5455H37.0634L34.5208 64.1165H34.4498L33.4838 65.0114ZM32.7026 67V59.7273H33.5407V67H32.7026ZM36.1685 67L34.0378 64.3011L34.6344 63.7188L37.2338 67H36.1685ZM40.2044 67.1136C39.6788 67.1136 39.2254 66.9976 38.8443 66.7656C38.4655 66.5312 38.1731 66.2045 37.9672 65.7855C37.7636 65.3641 37.6618 64.8741 37.6618 64.3153C37.6618 63.7566 37.7636 63.2642 37.9672 62.8381C38.1731 62.4096 38.4596 62.0758 38.8265 61.8366C39.1958 61.5952 39.6267 61.4744 40.1191 61.4744C40.4032 61.4744 40.6838 61.5218 40.9608 61.6165C41.2377 61.7112 41.4899 61.8651 41.7172 62.0781C41.9444 62.2888 42.1255 62.5682 42.2605 62.9162C42.3954 63.2642 42.4629 63.6927 42.4629 64.2017V64.5568H38.2583V63.8324H41.6106C41.6106 63.5246 41.5491 63.25 41.426 63.0085C41.3052 62.767 41.1324 62.5765 40.9075 62.4368C40.685 62.2971 40.4222 62.2273 40.1191 62.2273C39.7853 62.2273 39.4965 62.3101 39.2527 62.4759C39.0112 62.6392 38.8253 62.8523 38.6951 63.1151C38.5649 63.3778 38.4998 63.6596 38.4998 63.9602V64.4432C38.4998 64.8551 38.5708 65.2043 38.7129 65.4908C38.8573 65.7749 39.0574 65.9915 39.313 66.1406C39.5687 66.2874 39.8658 66.3608 40.2044 66.3608C40.4245 66.3608 40.6234 66.33 40.801 66.2685C40.9809 66.2045 41.1359 66.1098 41.2662 65.9844C41.3964 65.8565 41.497 65.6979 41.568 65.5085L42.3777 65.7358C42.2924 66.0104 42.1492 66.2519 41.948 66.4602C41.7467 66.6662 41.4982 66.8272 41.2022 66.9432C40.9063 67.0568 40.5737 67.1136 40.2044 67.1136ZM46.5502 69.0455V61.5455H47.3599V62.4119H47.4593C47.5209 62.3172 47.6061 62.1965 47.715 62.0497C47.8263 61.9006 47.9849 61.768 48.1909 61.652C48.3992 61.5336 48.6809 61.4744 49.036 61.4744C49.4953 61.4744 49.9002 61.5893 50.2505 61.8189C50.6009 62.0485 50.8743 62.3741 51.0708 62.7955C51.2673 63.2169 51.3656 63.714 51.3656 64.2869C51.3656 64.8646 51.2673 65.3653 51.0708 65.7891C50.8743 66.2105 50.6021 66.5372 50.2541 66.7692C49.9061 66.9988 49.5048 67.1136 49.0502 67.1136C48.6999 67.1136 48.4193 67.0556 48.2086 66.9396C47.9979 66.8213 47.8358 66.6875 47.7221 66.5384C47.6085 66.3868 47.5209 66.2614 47.4593 66.1619H47.3883V69.0455H46.5502ZM47.3741 64.2727C47.3741 64.6847 47.4345 65.0481 47.5552 65.3629C47.676 65.6754 47.8523 65.9205 48.0843 66.098C48.3163 66.2732 48.6004 66.3608 48.9366 66.3608C49.287 66.3608 49.5794 66.2685 49.8137 66.0838C50.0505 65.8968 50.228 65.6458 50.3464 65.331C50.4672 65.0137 50.5275 64.661 50.5275 64.2727C50.5275 63.8892 50.4683 63.5436 50.35 63.2358C50.234 62.9257 50.0576 62.6806 49.8208 62.5007C49.5865 62.3184 49.2917 62.2273 48.9366 62.2273C48.5957 62.2273 48.3092 62.3137 48.0772 62.4865C47.8452 62.657 47.67 62.8961 47.5517 63.2038C47.4333 63.5092 47.3741 63.8655 47.3741 64.2727ZM52.644 67V61.5455H53.4537V62.3693H53.5105C53.6099 62.0994 53.7898 61.8804 54.0502 61.7124C54.3107 61.5443 54.6042 61.4602 54.9309 61.4602C54.9925 61.4602 55.0694 61.4614 55.1618 61.4638C55.2541 61.4661 55.3239 61.4697 55.3713 61.4744V62.3267C55.3429 62.3196 55.2778 62.3089 55.176 62.2947C55.0765 62.2782 54.9712 62.2699 54.8599 62.2699C54.5948 62.2699 54.358 62.3255 54.1497 62.4368C53.9437 62.5457 53.7804 62.6972 53.6596 62.8913C53.5413 63.0831 53.4821 63.3021 53.4821 63.5483V67H52.644ZM56.3647 67V61.5455H57.2028V67H56.3647ZM56.7908 60.6364C56.6275 60.6364 56.4866 60.5807 56.3683 60.4695C56.2522 60.3582 56.1942 60.2244 56.1942 60.0682C56.1942 59.9119 56.2522 59.7782 56.3683 59.6669C56.4866 59.5556 56.6275 59.5 56.7908 59.5C56.9542 59.5 57.0939 59.5556 57.2099 59.6669C57.3282 59.7782 57.3874 59.9119 57.3874 60.0682C57.3874 60.2244 57.3282 60.3582 57.2099 60.4695C57.0939 60.5807 56.9542 60.6364 56.7908 60.6364ZM59.5758 63.7188V67H58.7377V61.5455H59.5474V62.3977H59.6184C59.7463 62.1207 59.9404 61.8982 60.2008 61.7301C60.4612 61.5597 60.7974 61.4744 61.2093 61.4744C61.5787 61.4744 61.9018 61.5502 62.1788 61.7017C62.4558 61.8509 62.6712 62.0781 62.8251 62.3835C62.979 62.6866 63.0559 63.0701 63.0559 63.5341V67H62.2179V63.5909C62.2179 63.1624 62.1066 62.8286 61.8841 62.5895C61.6615 62.348 61.3561 62.2273 60.9679 62.2273C60.7003 62.2273 60.4612 62.2853 60.2505 62.4013C60.0422 62.5173 59.8777 62.6866 59.7569 62.9091C59.6362 63.1316 59.5758 63.4015 59.5758 63.7188ZM66.9595 61.5455V62.2557H64.1328V61.5455H66.9595ZM64.9567 60.2386H65.7947V65.4375C65.7947 65.6742 65.8291 65.8518 65.8977 65.9702C65.9688 66.0862 66.0587 66.1643 66.1676 66.2045C66.2789 66.2424 66.3961 66.2614 66.5192 66.2614C66.6115 66.2614 66.6873 66.2566 66.7464 66.2472C66.8056 66.2353 66.853 66.2259 66.8885 66.2188L67.0589 66.9716C67.0021 66.9929 66.9228 67.0142 66.821 67.0355C66.7192 67.0592 66.5902 67.071 66.4339 67.071C66.1972 67.071 65.9652 67.0201 65.7379 66.9183C65.513 66.8165 65.326 66.6615 65.1768 66.4531C65.0301 66.2448 64.9567 65.982 64.9567 65.6648V60.2386ZM70.3775 67.1136C69.8851 67.1136 69.453 66.9964 69.0813 66.7621C68.712 66.5277 68.4232 66.1998 68.2148 65.7784C68.0089 65.357 67.9059 64.8646 67.9059 64.3011C67.9059 63.733 68.0089 63.237 68.2148 62.8132C68.4232 62.3894 68.712 62.0604 69.0813 61.826C69.453 61.5916 69.8851 61.4744 70.3775 61.4744C70.8699 61.4744 71.3008 61.5916 71.6701 61.826C72.0418 62.0604 72.3306 62.3894 72.5366 62.8132C72.7449 63.237 72.8491 63.733 72.8491 64.3011C72.8491 64.8646 72.7449 65.357 72.5366 65.7784C72.3306 66.1998 72.0418 66.5277 71.6701 66.7621C71.3008 66.9964 70.8699 67.1136 70.3775 67.1136ZM70.3775 66.3608C70.7515 66.3608 71.0593 66.2649 71.3008 66.0732C71.5423 65.8814 71.721 65.6293 71.837 65.3168C71.953 65.0043 72.011 64.6657 72.011 64.3011C72.011 63.9366 71.953 63.5968 71.837 63.282C71.721 62.9671 71.5423 62.7126 71.3008 62.5185C71.0593 62.3243 70.7515 62.2273 70.3775 62.2273C70.0034 62.2273 69.6957 62.3243 69.4542 62.5185C69.2127 62.7126 69.034 62.9671 68.918 63.282C68.802 63.5968 68.744 63.9366 68.744 64.3011C68.744 64.6657 68.802 65.0043 68.918 65.3168C69.034 65.6293 69.2127 65.8814 69.4542 66.0732C69.6957 66.2649 70.0034 66.3608 70.3775 66.3608ZM77.5659 64.7699V61.5455H78.4039V67H77.5659V66.0767H77.5091C77.3812 66.3537 77.1824 66.5893 76.9125 66.7834C76.6426 66.9751 76.3017 67.071 75.8897 67.071C75.5488 67.071 75.2458 66.9964 74.9806 66.8473C74.7155 66.6958 74.5072 66.4685 74.3556 66.1655C74.2041 65.8601 74.1284 65.4754 74.1284 65.0114V61.5455H74.9664V64.9545C74.9664 65.3523 75.0777 65.6695 75.3002 65.9062C75.5252 66.143 75.8116 66.2614 76.1596 66.2614C76.368 66.2614 76.5798 66.2081 76.7953 66.1016C77.0131 65.995 77.1954 65.8317 77.3422 65.6115C77.4913 65.3913 77.5659 65.1108 77.5659 64.7699ZM82.3111 61.5455V62.2557H79.4844V61.5455H82.3111ZM80.3082 60.2386H81.1463V65.4375C81.1463 65.6742 81.1806 65.8518 81.2493 65.9702C81.3203 66.0862 81.4103 66.1643 81.5192 66.2045C81.6304 66.2424 81.7476 66.2614 81.8707 66.2614C81.9631 66.2614 82.0388 66.2566 82.098 66.2472C82.1572 66.2353 82.2045 66.2259 82.2401 66.2188L82.4105 66.9716C82.3537 66.9929 82.2744 67.0142 82.1726 67.0355C82.0708 67.0592 81.9418 67.071 81.7855 67.071C81.5488 67.071 81.3168 67.0201 81.0895 66.9183C80.8646 66.8165 80.6776 66.6615 80.5284 66.4531C80.3816 66.2448 80.3082 65.982 80.3082 65.6648V60.2386ZM87.3377 62.767L86.5849 62.9801C86.5375 62.8546 86.4677 62.7327 86.3754 62.6143C86.2854 62.4936 86.1623 62.3942 86.006 62.3161C85.8498 62.2379 85.6497 62.1989 85.4059 62.1989C85.0721 62.1989 84.7939 62.2758 84.5714 62.4297C84.3512 62.5812 84.2411 62.7741 84.2411 63.0085C84.2411 63.2169 84.3169 63.3814 84.4684 63.5021C84.6199 63.6229 84.8567 63.7235 85.1786 63.804L85.9883 64.0028C86.476 64.1212 86.8394 64.3023 87.0785 64.5462C87.3176 64.7876 87.4371 65.099 87.4371 65.4801C87.4371 65.7926 87.3472 66.072 87.1673 66.3182C86.9897 66.5644 86.7411 66.7585 86.4215 66.9006C86.1019 67.0426 85.7302 67.1136 85.3065 67.1136C84.7501 67.1136 84.2897 66.9929 83.9251 66.7514C83.5605 66.5099 83.3297 66.1572 83.2326 65.6932L84.0281 65.4943C84.1038 65.7879 84.247 66.008 84.4577 66.1548C84.6708 66.3016 84.949 66.375 85.2923 66.375C85.6829 66.375 85.993 66.2921 86.2227 66.1264C86.4547 65.9583 86.5707 65.7571 86.5707 65.5227C86.5707 65.3333 86.5044 65.1747 86.3718 65.0469C86.2392 64.9167 86.0356 64.8196 85.761 64.7557L84.8519 64.5426C84.3524 64.4242 83.9854 64.2408 83.7511 63.9922C83.5191 63.7412 83.4031 63.4276 83.4031 63.0511C83.4031 62.7434 83.4895 62.4711 83.6623 62.2344C83.8375 61.9976 84.0754 61.8118 84.3761 61.6768C84.6791 61.5419 85.0224 61.4744 85.4059 61.4744C85.9457 61.4744 86.3694 61.5928 86.6772 61.8295C86.9873 62.0663 87.2075 62.3788 87.3377 62.767ZM89.3095 67.0568C89.1343 67.0568 88.984 66.9941 88.8585 66.8686C88.733 66.7431 88.6703 66.5928 88.6703 66.4176C88.6703 66.2424 88.733 66.0921 88.8585 65.9666C88.984 65.8411 89.1343 65.7784 89.3095 65.7784C89.4847 65.7784 89.635 65.8411 89.7605 65.9666C89.8859 66.0921 89.9487 66.2424 89.9487 66.4176C89.9487 66.5336 89.9191 66.6402 89.8599 66.7372C89.8031 66.8343 89.7261 66.9124 89.6291 66.9716C89.5344 67.0284 89.4279 67.0568 89.3095 67.0568Z" fill="black"/>
<defs>
<linearGradient id="paint0_linear_1_864" x1="26.6154" y1="27.3461" x2="76.4616" y2="25.2692" gradientUnits="userSpaceOnUse">
<stop stop-color="#3FF3FF"/>
<stop offset="1" stop-color="#00ABBB"/>
</linearGradient>
</defs>
</svg>
