<svg width="38" height="32" viewBox="0 0 38 32" fill="none" xmlns="http://www.w3.org/2000/svg">
<g clip-path="url(#clip0_1_1152)">
<path d="M2.185 12H35.815C37.0203 12 38 10.9688 38 9.7C38 9.24375 37.8694 8.8 37.6319 8.425L33.1431 1.3375C32.6147 0.5 31.73 0 30.7741 0H7.22594C6.27594 0 5.38531 0.5 4.85687 1.3375L0.368125 8.41875C0.130625 8.8 0 9.24375 0 9.69375C0 10.9688 0.979688 12 2.185 12ZM3.8 14V29C3.8 30.6562 5.07656 32 6.65 32H19.95C21.5234 32 22.8 30.6562 22.8 29V14H19V24H7.6V14H3.8ZM30.4 14V30C30.4 31.1063 31.2491 32 32.3 32C33.3509 32 34.2 31.1063 34.2 30V14H30.4Z" fill="black"/>
</g>
<defs>
<clipPath id="clip0_1_1152">
<rect width="38" height="32" fill="white"/>
</clipPath>
</defs>
</svg>
