<svg width="133" height="164" viewBox="0 0 133 164" fill="none" xmlns="http://www.w3.org/2000/svg">
<path d="M72.125 7.5C76.1032 7.5 79.9186 9.08035 82.7316 11.8934C85.5446 14.7064 87.125 18.5218 87.125 22.5C87.125 26.4782 85.5446 30.2936 82.7316 33.1066C79.9186 35.9196 76.1032 37.5 72.125 37.5C68.1468 37.5 64.3314 35.9196 61.5184 33.1066C58.7054 30.2936 57.125 26.4782 57.125 22.5C57.125 18.5218 58.7054 14.7064 61.5184 11.8934C64.3314 9.08035 68.1468 7.5 72.125 7.5ZM72.125 11.25C69.1413 11.25 66.2798 12.4353 64.17 14.545C62.0603 16.6548 60.875 19.5163 60.875 22.5C60.875 25.4837 62.0603 28.3452 64.17 30.455C66.2798 32.5647 69.1413 33.75 72.125 33.75C75.1087 33.75 77.9702 32.5647 80.08 30.455C82.1897 28.3452 83.375 25.4837 83.375 22.5C83.375 19.5163 82.1897 16.6548 80.08 14.545C77.9702 12.4353 75.1087 11.25 72.125 11.25ZM70.25 15H73.0625V22.0875L77.4312 26.4562L75.4438 28.4438L70.25 23.25V15ZM47.75 33.75C47.2527 33.75 46.7758 33.5525 46.4242 33.2008C46.0725 32.8492 45.875 32.3723 45.875 31.875C45.875 31.3777 46.0725 30.9008 46.4242 30.5492C46.7758 30.1975 47.2527 30 47.75 30H54.9312C55.5125 31.3312 56.2625 32.5875 57.125 33.75H47.75ZM49.625 24.375C49.1277 24.375 48.6508 24.1775 48.2992 23.8258C47.9475 23.4742 47.75 22.9973 47.75 22.5C47.75 22.0027 47.9475 21.5258 48.2992 21.1742C48.6508 20.8225 49.1277 20.625 49.625 20.625H53.4688L53.375 22.5L53.4688 24.375H49.625ZM51.5 15C51.0027 15 50.5258 14.8025 50.1742 14.4508C49.8225 14.0992 49.625 13.6223 49.625 13.125C49.625 12.6277 49.8225 12.1508 50.1742 11.7992C50.5258 11.4475 51.0027 11.25 51.5 11.25H57.125C56.2625 12.4125 55.5125 13.6687 54.9312 15H51.5Z" fill="url(#paint0_linear_1_863)"/>
<path d="M17.6106 55H16.6873L19.3578 47.7273H20.2669L22.9373 55H22.014L19.8407 48.8778H19.7839L17.6106 55ZM17.9515 52.1591H21.6731V52.9403H17.9515V52.1591ZM29.198 49.5455V50.2557H26.2576V49.5455H29.198ZM27.1383 55V48.7926C27.1383 48.4801 27.2117 48.2197 27.3585 48.0114C27.5053 47.803 27.6958 47.6468 27.9302 47.5426C28.1646 47.4384 28.412 47.3864 28.6724 47.3864C28.8784 47.3864 29.0465 47.4029 29.1767 47.4361C29.3069 47.4692 29.4039 47.5 29.4679 47.5284L29.2264 48.2528C29.1838 48.2386 29.1246 48.2209 29.0488 48.1996C28.9754 48.1783 28.8784 48.1676 28.7576 48.1676C28.4806 48.1676 28.2806 48.2375 28.1575 48.3771C28.0368 48.5168 27.9764 48.7216 27.9764 48.9915V55H27.1383ZM31.8214 55.1278C31.4757 55.1278 31.1621 55.0627 30.8803 54.9325C30.5986 54.8 30.3749 54.6094 30.2092 54.3608C30.0434 54.1098 29.9606 53.8068 29.9606 53.4517C29.9606 53.1392 30.0221 52.8859 30.1452 52.6918C30.2683 52.4953 30.4329 52.3414 30.6388 52.2301C30.8448 52.1188 31.0721 52.036 31.3207 51.9815C31.5716 51.9247 31.8237 51.8797 32.0771 51.8466C32.4085 51.804 32.6772 51.772 32.8832 51.7507C33.0915 51.727 33.243 51.688 33.3377 51.6335C33.4348 51.5791 33.4833 51.4844 33.4833 51.3494V51.321C33.4833 50.9706 33.3874 50.6984 33.1957 50.5043C33.0063 50.3101 32.7186 50.2131 32.3327 50.2131C31.9326 50.2131 31.619 50.3007 31.3917 50.4759C31.1644 50.651 31.0046 50.8381 30.9123 51.0369L30.1168 50.7528C30.2589 50.4214 30.4483 50.1634 30.685 49.9787C30.9241 49.7917 31.1845 49.6615 31.4663 49.5881C31.7504 49.5123 32.0297 49.4744 32.3043 49.4744C32.4795 49.4744 32.6808 49.4957 32.908 49.5384C33.1377 49.5786 33.359 49.6626 33.5721 49.7905C33.7875 49.9183 33.9663 50.1113 34.1083 50.3693C34.2504 50.6274 34.3214 50.973 34.3214 51.4062V55H33.4833V54.2614H33.4407C33.3839 54.3797 33.2892 54.5064 33.1566 54.6413C33.024 54.7763 32.8477 54.8911 32.6275 54.9858C32.4073 55.0805 32.1386 55.1278 31.8214 55.1278ZM31.9492 54.375C32.2807 54.375 32.56 54.3099 32.7873 54.1797C33.0169 54.0495 33.1897 53.8814 33.3058 53.6754C33.4241 53.4695 33.4833 53.2528 33.4833 53.0256V52.2585C33.4478 52.3011 33.3697 52.3402 33.2489 52.3757C33.1306 52.4089 32.9933 52.4384 32.837 52.4645C32.6831 52.4882 32.5328 52.5095 32.386 52.5284C32.2416 52.545 32.1244 52.5592 32.0344 52.571C31.8166 52.5994 31.613 52.6456 31.4237 52.7095C31.2366 52.7711 31.0851 52.8646 30.9691 52.9901C30.8555 53.1132 30.7987 53.2812 30.7987 53.4943C30.7987 53.7855 30.9064 54.0057 31.1218 54.1548C31.3396 54.3016 31.6154 54.375 31.9492 54.375ZM39.7147 50.767L38.9618 50.9801C38.9145 50.8546 38.8446 50.7327 38.7523 50.6143C38.6623 50.4936 38.5392 50.3942 38.383 50.3161C38.2267 50.2379 38.0267 50.1989 37.7828 50.1989C37.449 50.1989 37.1709 50.2758 36.9483 50.4297C36.7282 50.5812 36.6181 50.7741 36.6181 51.0085C36.6181 51.2169 36.6938 51.3814 36.8453 51.5021C36.9969 51.6229 37.2336 51.7235 37.5556 51.804L38.3652 52.0028C38.8529 52.1212 39.2163 52.3023 39.4554 52.5462C39.6945 52.7876 39.8141 53.099 39.8141 53.4801C39.8141 53.7926 39.7241 54.072 39.5442 54.3182C39.3667 54.5644 39.1181 54.7585 38.7985 54.9006C38.4789 55.0426 38.1072 55.1136 37.6834 55.1136C37.1271 55.1136 36.6666 54.9929 36.302 54.7514C35.9374 54.5099 35.7066 54.1572 35.6096 53.6932L36.405 53.4943C36.4808 53.7879 36.624 54.008 36.8347 54.1548C37.0478 54.3016 37.3259 54.375 37.6692 54.375C38.0598 54.375 38.37 54.2921 38.5996 54.1264C38.8316 53.9583 38.9476 53.7571 38.9476 53.5227C38.9476 53.3333 38.8813 53.1747 38.7488 53.0469C38.6162 52.9167 38.4126 52.8196 38.138 52.7557L37.2289 52.5426C36.7293 52.4242 36.3624 52.2408 36.128 51.9922C35.896 51.7412 35.78 51.4276 35.78 51.0511C35.78 50.7434 35.8664 50.4711 36.0392 50.2344C36.2144 49.9976 36.4524 49.8118 36.753 49.6768C37.056 49.5419 37.3993 49.4744 37.7828 49.4744C38.3226 49.4744 38.7464 49.5928 39.0542 49.8295C39.3643 50.0663 39.5845 50.3788 39.7147 50.767ZM43.4478 49.5455V50.2557H40.6211V49.5455H43.4478ZM41.445 48.2386H42.283V53.4375C42.283 53.6742 42.3174 53.8518 42.386 53.9702C42.457 54.0862 42.547 54.1643 42.6559 54.2045C42.7672 54.2424 42.8844 54.2614 43.0075 54.2614C43.0998 54.2614 43.1755 54.2566 43.2347 54.2472C43.2939 54.2353 43.3413 54.2259 43.3768 54.2188L43.5472 54.9716C43.4904 54.9929 43.4111 55.0142 43.3093 55.0355C43.2075 55.0592 43.0785 55.071 42.9222 55.071C42.6855 55.071 42.4535 55.0201 42.2262 54.9183C42.0013 54.8165 41.8143 54.6615 41.6651 54.4531C41.5183 54.2448 41.445 53.982 41.445 53.6648V48.2386ZM49.5806 55.0994C49.1024 55.0994 48.6905 55.0118 48.3448 54.8366C47.9992 54.6615 47.7328 54.4212 47.5458 54.1158C47.3588 53.8104 47.2653 53.4612 47.2653 53.0682C47.2653 52.7652 47.3292 52.4964 47.457 52.2621C47.5872 52.0253 47.766 51.8063 47.9933 51.6051C48.2229 51.4015 48.4869 51.1979 48.7852 50.9943L49.8363 50.2131C50.0423 50.0781 50.2068 49.9337 50.3299 49.7798C50.4554 49.6259 50.5181 49.4247 50.5181 49.1761C50.5181 48.9915 50.4364 48.8127 50.2731 48.6399C50.1121 48.4671 49.9002 48.3807 49.6374 48.3807C49.4528 48.3807 49.2894 48.428 49.1474 48.5227C49.0077 48.6151 48.8976 48.7334 48.8171 48.8778C48.739 49.0199 48.6999 49.1667 48.6999 49.3182C48.6999 49.4886 48.7461 49.6615 48.8384 49.8366C48.9331 50.0095 49.0527 50.187 49.1971 50.3693C49.3439 50.5492 49.4954 50.7339 49.6516 50.9233L52.9897 55H51.9812L49.2255 51.6761C48.9698 51.3684 48.7378 51.089 48.5295 50.8381C48.3211 50.5871 48.1554 50.3397 48.0323 50.0959C47.9092 49.852 47.8477 49.5881 47.8477 49.304C47.8477 48.9773 47.9199 48.6908 48.0643 48.4446C48.2111 48.196 48.4158 48.0031 48.6786 47.8658C48.9438 47.7261 49.2539 47.6562 49.609 47.6562C49.9736 47.6562 50.2873 47.7273 50.5501 47.8693C50.8129 48.009 51.0153 48.1948 51.1573 48.4268C51.2994 48.6565 51.3704 48.9062 51.3704 49.1761C51.3704 49.5241 51.284 49.826 51.1112 50.0817C50.9383 50.3374 50.7028 50.5753 50.4045 50.7955L48.9556 51.875C48.6289 52.1165 48.4076 52.3509 48.2915 52.5781C48.1755 52.8054 48.1175 52.9687 48.1175 53.0682C48.1175 53.2955 48.1767 53.5073 48.2951 53.7038C48.4135 53.9003 48.5804 54.0589 48.7958 54.1797C49.0112 54.3004 49.2634 54.3608 49.5522 54.3608C49.8268 54.3608 50.0943 54.3028 50.3548 54.1868C50.6152 54.0684 50.8507 53.898 51.0614 53.6754C51.2745 53.4529 51.4426 53.1854 51.5657 52.8729C51.6912 52.5604 51.7539 52.2088 51.7539 51.8182H52.5636C52.5636 52.3011 52.5079 52.6953 52.3967 53.0007C52.2854 53.3061 52.1599 53.5452 52.0202 53.718C51.8806 53.8909 51.7681 54.0199 51.6829 54.1051C51.6545 54.1406 51.6284 54.1761 51.6048 54.2116C51.5811 54.2472 51.555 54.2827 51.5266 54.3182C51.2923 54.581 50.9963 54.7775 50.6388 54.9077C50.2814 55.0355 49.9286 55.0994 49.5806 55.0994ZM59.0169 55.1136C58.4913 55.1136 58.0379 54.9976 57.6568 54.7656C57.278 54.5312 56.9856 54.2045 56.7797 53.7855C56.5761 53.3641 56.4743 52.8741 56.4743 52.3153C56.4743 51.7566 56.5761 51.2642 56.7797 50.8381C56.9856 50.4096 57.2721 50.0758 57.639 49.8366C58.0083 49.5952 58.4392 49.4744 58.9316 49.4744C59.2157 49.4744 59.4963 49.5218 59.7733 49.6165C60.0502 49.7112 60.3024 49.8651 60.5297 50.0781C60.7569 50.2888 60.938 50.5682 61.073 50.9162C61.2079 51.2642 61.2754 51.6927 61.2754 52.2017V52.5568H57.0708V51.8324H60.4231C60.4231 51.5246 60.3616 51.25 60.2385 51.0085C60.1177 50.767 59.9449 50.5765 59.72 50.4368C59.4975 50.2971 59.2347 50.2273 58.9316 50.2273C58.5978 50.2273 58.309 50.3101 58.0652 50.4759C57.8237 50.6392 57.6378 50.8523 57.5076 51.1151C57.3774 51.3778 57.3123 51.6596 57.3123 51.9602V52.4432C57.3123 52.8551 57.3833 53.2043 57.5254 53.4908C57.6698 53.7749 57.8699 53.9915 58.1255 54.1406C58.3812 54.2874 58.6783 54.3608 59.0169 54.3608C59.237 54.3608 59.4359 54.33 59.6135 54.2685C59.7934 54.2045 59.9484 54.1098 60.0787 53.9844C60.2089 53.8565 60.3095 53.6979 60.3805 53.5085L61.1902 53.7358C61.1049 54.0104 60.9617 54.2519 60.7605 54.4602C60.5592 54.6662 60.3107 54.8272 60.0147 54.9432C59.7188 55.0568 59.3862 55.1136 59.0169 55.1136ZM64.9792 49.5455V50.2557H62.0389V49.5455H64.9792ZM62.9196 55V48.7926C62.9196 48.4801 62.993 48.2197 63.1397 48.0114C63.2865 47.803 63.4771 47.6468 63.7115 47.5426C63.9458 47.4384 64.1932 47.3864 64.4537 47.3864C64.6596 47.3864 64.8277 47.4029 64.9579 47.4361C65.0881 47.4692 65.1852 47.5 65.2491 47.5284L65.0076 48.2528C64.965 48.2386 64.9058 48.2209 64.8301 48.1996C64.7567 48.1783 64.6596 48.1676 64.5389 48.1676C64.2619 48.1676 64.0618 48.2375 63.9387 48.3771C63.818 48.5168 63.7576 48.7216 63.7576 48.9915V55H62.9196ZM68.5827 49.5455V50.2557H65.6424V49.5455H68.5827ZM66.5231 55V48.7926C66.5231 48.4801 66.5965 48.2197 66.7433 48.0114C66.89 47.803 67.0806 47.6468 67.315 47.5426C67.5494 47.4384 67.7968 47.3864 68.0572 47.3864C68.2631 47.3864 68.4312 47.4029 68.5614 47.4361C68.6916 47.4692 68.7887 47.5 68.8526 47.5284L68.6112 48.2528C68.5685 48.2386 68.5094 48.2209 68.4336 48.1996C68.3602 48.1783 68.2631 48.1676 68.1424 48.1676C67.8654 48.1676 67.6654 48.2375 67.5423 48.3771C67.4215 48.5168 67.3612 48.7216 67.3612 48.9915V55H66.5231ZM69.7573 55V49.5455H70.5953V55H69.7573ZM70.1834 48.6364C70.0201 48.6364 69.8792 48.5807 69.7608 48.4695C69.6448 48.3582 69.5868 48.2244 69.5868 48.0682C69.5868 47.9119 69.6448 47.7782 69.7608 47.6669C69.8792 47.5556 70.0201 47.5 70.1834 47.5C70.3468 47.5 70.4864 47.5556 70.6025 47.6669C70.7208 47.7782 70.78 47.9119 70.78 48.0682C70.78 48.2244 70.7208 48.3582 70.6025 48.4695C70.4864 48.5807 70.3468 48.6364 70.1834 48.6364ZM74.3462 55.1136C73.8349 55.1136 73.3945 54.9929 73.0252 54.7514C72.6559 54.5099 72.3718 54.1773 72.1729 53.7536C71.9741 53.3298 71.8746 52.8456 71.8746 52.3011C71.8746 51.7472 71.9764 51.2583 72.18 50.8345C72.386 50.4084 72.6725 50.0758 73.0394 49.8366C73.4087 49.5952 73.8396 49.4744 74.332 49.4744C74.7156 49.4744 75.0612 49.5455 75.369 49.6875C75.6767 49.8295 75.9289 50.0284 76.1254 50.2841C76.3219 50.5398 76.4438 50.8381 76.4911 51.179H75.6531C75.5891 50.9304 75.4471 50.7102 75.2269 50.5185C75.0091 50.3243 74.7156 50.2273 74.3462 50.2273C74.0195 50.2273 73.7331 50.3125 73.4869 50.483C73.243 50.651 73.0524 50.889 72.9151 51.1967C72.7802 51.5021 72.7127 51.8608 72.7127 52.2727C72.7127 52.6941 72.779 53.0611 72.9116 53.3736C73.0465 53.6861 73.2359 53.9287 73.4798 54.1016C73.726 54.2744 74.0148 54.3608 74.3462 54.3608C74.564 54.3608 74.7617 54.3229 74.9393 54.2472C75.1168 54.1714 75.2672 54.0625 75.3903 53.9205C75.5134 53.7784 75.601 53.608 75.6531 53.4091H76.4911C76.4438 53.7311 76.3266 54.0211 76.1396 54.2791C75.9549 54.5348 75.7099 54.7384 75.4045 54.8899C75.1014 55.0391 74.7487 55.1136 74.3462 55.1136ZM77.7163 55V49.5455H78.5543V55H77.7163ZM78.1424 48.6364C77.979 48.6364 77.8382 48.5807 77.7198 48.4695C77.6038 48.3582 77.5458 48.2244 77.5458 48.0682C77.5458 47.9119 77.6038 47.7782 77.7198 47.6669C77.8382 47.5556 77.979 47.5 78.1424 47.5C78.3058 47.5 78.4454 47.5556 78.5614 47.6669C78.6798 47.7782 78.739 47.9119 78.739 48.0682C78.739 48.2244 78.6798 48.3582 78.5614 48.4695C78.4454 48.5807 78.3058 48.6364 78.1424 48.6364ZM82.3762 55.1136C81.8507 55.1136 81.3973 54.9976 81.0162 54.7656C80.6374 54.5312 80.345 54.2045 80.139 53.7855C79.9354 53.3641 79.8336 52.8741 79.8336 52.3153C79.8336 51.7566 79.9354 51.2642 80.139 50.8381C80.345 50.4096 80.6315 50.0758 80.9984 49.8366C81.3677 49.5952 81.7986 49.4744 82.291 49.4744C82.5751 49.4744 82.8556 49.5218 83.1326 49.6165C83.4096 49.7112 83.6618 49.8651 83.889 50.0781C84.1163 50.2888 84.2974 50.5682 84.4324 50.9162C84.5673 51.2642 84.6348 51.6927 84.6348 52.2017V52.5568H80.4302V51.8324H83.7825C83.7825 51.5246 83.7209 51.25 83.5978 51.0085C83.4771 50.767 83.3043 50.5765 83.0794 50.4368C82.8568 50.2971 82.594 50.2273 82.291 50.2273C81.9572 50.2273 81.6684 50.3101 81.4245 50.4759C81.1831 50.6392 80.9972 50.8523 80.867 51.1151C80.7368 51.3778 80.6717 51.6596 80.6717 51.9602V52.4432C80.6717 52.8551 80.7427 53.2043 80.8848 53.4908C81.0292 53.7749 81.2292 53.9915 81.4849 54.1406C81.7406 54.2874 82.0377 54.3608 82.3762 54.3608C82.5964 54.3608 82.7953 54.33 82.9728 54.2685C83.1528 54.2045 83.3078 54.1098 83.438 53.9844C83.5682 53.8565 83.6689 53.6979 83.7399 53.5085L84.5495 53.7358C84.4643 54.0104 84.3211 54.2519 84.1199 54.4602C83.9186 54.6662 83.67 54.8272 83.3741 54.9432C83.0782 55.0568 82.7456 55.1136 82.3762 55.1136ZM86.7477 51.7188V55H85.9096V49.5455H86.7193V50.3977H86.7903C86.9181 50.1207 87.1123 49.8982 87.3727 49.7301C87.6331 49.5597 87.9693 49.4744 88.3812 49.4744C88.7505 49.4744 89.0737 49.5502 89.3507 49.7017C89.6277 49.8509 89.8431 50.0781 89.997 50.3835C90.1509 50.6866 90.2278 51.0701 90.2278 51.5341V55H89.3897V51.5909C89.3897 51.1624 89.2785 50.8286 89.0559 50.5895C88.8334 50.348 88.528 50.2273 88.1397 50.2273C87.8722 50.2273 87.6331 50.2853 87.4224 50.4013C87.2141 50.5173 87.0495 50.6866 86.9288 50.9091C86.8081 51.1316 86.7477 51.4015 86.7477 51.7188ZM94.1314 49.5455V50.2557H91.3047V49.5455H94.1314ZM92.1286 48.2386H92.9666V53.4375C92.9666 53.6742 93.0009 53.8518 93.0696 53.9702C93.1406 54.0862 93.2306 54.1643 93.3395 54.2045C93.4508 54.2424 93.5679 54.2614 93.6911 54.2614C93.7834 54.2614 93.8591 54.2566 93.9183 54.2472C93.9775 54.2353 94.0249 54.2259 94.0604 54.2188L94.2308 54.9716C94.174 54.9929 94.0947 55.0142 93.9929 55.0355C93.8911 55.0592 93.7621 55.071 93.6058 55.071C93.3691 55.071 93.1371 55.0201 92.9098 54.9183C92.6849 54.8165 92.4979 54.6615 92.3487 54.4531C92.2019 54.2448 92.1286 53.982 92.1286 53.6648V48.2386ZM99.4403 55L97.7784 49.5455H98.6591L99.8381 53.7216H99.8949L101.06 49.5455H101.955L103.105 53.7074H103.162L104.341 49.5455H105.222L103.56 55H102.736L101.543 50.8097H101.457L100.264 55H99.4403ZM107.935 55.1278C107.589 55.1278 107.275 55.0627 106.994 54.9325C106.712 54.8 106.488 54.6094 106.322 54.3608C106.157 54.1098 106.074 53.8068 106.074 53.4517C106.074 53.1392 106.135 52.8859 106.259 52.6918C106.382 52.4953 106.546 52.3414 106.752 52.2301C106.958 52.1188 107.185 52.036 107.434 51.9815C107.685 51.9247 107.937 51.8797 108.19 51.8466C108.522 51.804 108.79 51.772 108.996 51.7507C109.205 51.727 109.356 51.688 109.451 51.6335C109.548 51.5791 109.597 51.4844 109.597 51.3494V51.321C109.597 50.9706 109.501 50.6984 109.309 50.5043C109.12 50.3101 108.832 50.2131 108.446 50.2131C108.046 50.2131 107.732 50.3007 107.505 50.4759C107.278 50.651 107.118 50.8381 107.026 51.0369L106.23 50.7528C106.372 50.4214 106.562 50.1634 106.798 49.9787C107.037 49.7917 107.298 49.6615 107.58 49.5881C107.864 49.5123 108.143 49.4744 108.418 49.4744C108.593 49.4744 108.794 49.4957 109.021 49.5384C109.251 49.5786 109.472 49.6626 109.685 49.7905C109.901 49.9183 110.08 50.1113 110.222 50.3693C110.364 50.6274 110.435 50.973 110.435 51.4062V55H109.597V54.2614H109.554C109.497 54.3797 109.402 54.5064 109.27 54.6413C109.137 54.7763 108.961 54.8911 108.741 54.9858C108.521 55.0805 108.252 55.1278 107.935 55.1278ZM108.062 54.375C108.394 54.375 108.673 54.3099 108.901 54.1797C109.13 54.0495 109.303 53.8814 109.419 53.6754C109.537 53.4695 109.597 53.2528 109.597 53.0256V52.2585C109.561 52.3011 109.483 52.3402 109.362 52.3757C109.244 52.4089 109.107 52.4384 108.95 52.4645C108.796 52.4882 108.646 52.5095 108.499 52.5284C108.355 52.545 108.238 52.5592 108.148 52.571C107.93 52.5994 107.726 52.6456 107.537 52.7095C107.35 52.7711 107.198 52.8646 107.082 52.9901C106.969 53.1132 106.912 53.2812 106.912 53.4943C106.912 53.7855 107.02 54.0057 107.235 54.1548C107.453 54.3016 107.729 54.375 108.062 54.375ZM112.309 57.0455C112.167 57.0455 112.04 57.0336 111.929 57.0099C111.818 56.9886 111.741 56.9673 111.698 56.946L111.911 56.2074C112.115 56.2595 112.295 56.2784 112.451 56.2642C112.607 56.25 112.746 56.1802 112.866 56.0547C112.989 55.9316 113.102 55.7315 113.204 55.4545L113.36 55.0284L111.343 49.5455H112.252L113.758 53.892H113.814L115.32 49.5455H116.229L113.914 55.7955C113.81 56.0772 113.681 56.3104 113.527 56.495C113.373 56.6821 113.194 56.8205 112.991 56.9105C112.789 57.0005 112.562 57.0455 112.309 57.0455ZM29.4537 61.5455V62.2557H26.627V61.5455H29.4537ZM27.4508 60.2386H28.2889V65.4375C28.2889 65.6742 28.3232 65.8518 28.3919 65.9702C28.4629 66.0862 28.5529 66.1643 28.6618 66.2045C28.773 66.2424 28.8902 66.2614 29.0133 66.2614C29.1056 66.2614 29.1814 66.2566 29.2406 66.2472C29.2998 66.2353 29.3471 66.2259 29.3826 66.2188L29.5531 66.9716C29.4963 66.9929 29.417 67.0142 29.3152 67.0355C29.2134 67.0592 29.0843 67.071 28.9281 67.071C28.6913 67.071 28.4593 67.0201 28.2321 66.9183C28.0072 66.8165 27.8201 66.6615 27.671 66.4531C27.5242 66.2448 27.4508 65.982 27.4508 65.6648V60.2386ZM32.8716 67.1136C32.3792 67.1136 31.9471 66.9964 31.5755 66.7621C31.2061 66.5277 30.9173 66.1998 30.709 65.7784C30.503 65.357 30.4 64.8646 30.4 64.3011C30.4 63.733 30.503 63.237 30.709 62.8132C30.9173 62.3894 31.2061 62.0604 31.5755 61.826C31.9471 61.5916 32.3792 61.4744 32.8716 61.4744C33.3641 61.4744 33.7949 61.5916 34.1642 61.826C34.5359 62.0604 34.8248 62.3894 35.0307 62.8132C35.2391 63.237 35.3432 63.733 35.3432 64.3011C35.3432 64.8646 35.2391 65.357 35.0307 65.7784C34.8248 66.1998 34.5359 66.5277 34.1642 66.7621C33.7949 66.9964 33.3641 67.1136 32.8716 67.1136ZM32.8716 66.3608C33.2457 66.3608 33.5534 66.2649 33.7949 66.0732C34.0364 65.8814 34.2151 65.6293 34.3311 65.3168C34.4471 65.0043 34.5051 64.6657 34.5051 64.3011C34.5051 63.9366 34.4471 63.5968 34.3311 63.282C34.2151 62.9671 34.0364 62.7126 33.7949 62.5185C33.5534 62.3243 33.2457 62.2273 32.8716 62.2273C32.4976 62.2273 32.1898 62.3243 31.9483 62.5185C31.7069 62.7126 31.5281 62.9671 31.4121 63.282C31.2961 63.5968 31.2381 63.9366 31.2381 64.3011C31.2381 64.6657 31.2961 65.0043 31.4121 65.3168C31.5281 65.6293 31.7069 65.8814 31.9483 66.0732C32.1898 66.2649 32.4976 66.3608 32.8716 66.3608ZM41.8072 61.5455V62.2557H38.9805V61.5455H41.8072ZM39.8043 60.2386H40.6424V65.4375C40.6424 65.6742 40.6767 65.8518 40.7454 65.9702C40.8164 66.0862 40.9064 66.1643 41.0153 66.2045C41.1265 66.2424 41.2437 66.2614 41.3668 66.2614C41.4592 66.2614 41.5349 66.2566 41.5941 66.2472C41.6533 66.2353 41.7006 66.2259 41.7362 66.2188L41.9066 66.9716C41.8498 66.9929 41.7705 67.0142 41.6687 67.0355C41.5669 67.0592 41.4379 67.071 41.2816 67.071C41.0449 67.071 40.8129 67.0201 40.5856 66.9183C40.3607 66.8165 40.1737 66.6615 40.0245 66.4531C39.8777 66.2448 39.8043 65.982 39.8043 65.6648V60.2386ZM44.6729 67.1278C44.3273 67.1278 44.0136 67.0627 43.7319 66.9325C43.4502 66.8 43.2264 66.6094 43.0607 66.3608C42.895 66.1098 42.8121 65.8068 42.8121 65.4517C42.8121 65.1392 42.8737 64.8859 42.9968 64.6918C43.1199 64.4953 43.2844 64.3414 43.4904 64.2301C43.6964 64.1188 43.9237 64.036 44.1722 63.9815C44.4232 63.9247 44.6753 63.8797 44.9286 63.8466C45.2601 63.804 45.5288 63.772 45.7347 63.7507C45.9431 63.727 46.0946 63.688 46.1893 63.6335C46.2863 63.5791 46.3349 63.4844 46.3349 63.3494V63.321C46.3349 62.9706 46.239 62.6984 46.0472 62.5043C45.8578 62.3101 45.5702 62.2131 45.1843 62.2131C44.7842 62.2131 44.4705 62.3007 44.2433 62.4759C44.016 62.651 43.8562 62.8381 43.7638 63.0369L42.9684 62.7528C43.1104 62.4214 43.2998 62.1634 43.5366 61.9787C43.7757 61.7917 44.0361 61.6615 44.3178 61.5881C44.6019 61.5123 44.8813 61.4744 45.1559 61.4744C45.3311 61.4744 45.5323 61.4957 45.7596 61.5384C45.9892 61.5786 46.2106 61.6626 46.4237 61.7905C46.6391 61.9183 46.8178 62.1113 46.9599 62.3693C47.1019 62.6274 47.1729 62.973 47.1729 63.4062V67H46.3349V66.2614H46.2923C46.2354 66.3797 46.1407 66.5064 46.0082 66.6413C45.8756 66.7763 45.6992 66.8911 45.479 66.9858C45.2589 67.0805 44.9902 67.1278 44.6729 67.1278ZM44.8008 66.375C45.1322 66.375 45.4116 66.3099 45.6388 66.1797C45.8685 66.0495 46.0413 65.8814 46.1573 65.6754C46.2757 65.4695 46.3349 65.2528 46.3349 65.0256V64.2585C46.2994 64.3011 46.2212 64.3402 46.1005 64.3757C45.9821 64.4089 45.8448 64.4384 45.6886 64.4645C45.5347 64.4882 45.3844 64.5095 45.2376 64.5284C45.0932 64.545 44.976 64.5592 44.886 64.571C44.6682 64.5994 44.4646 64.6456 44.2752 64.7095C44.0882 64.7711 43.9367 64.8646 43.8207 64.9901C43.707 65.1132 43.6502 65.2812 43.6502 65.4943C43.6502 65.7855 43.7579 66.0057 43.9734 66.1548C44.1912 66.3016 44.467 66.375 44.8008 66.375ZM49.4838 65.0114L49.4696 63.9744H49.6401L52.0265 61.5455H53.0634L50.5208 64.1165H50.4498L49.4838 65.0114ZM48.7026 67V59.7273H49.5407V67H48.7026ZM52.1685 67L50.0378 64.3011L50.6344 63.7188L53.2338 67H52.1685ZM56.2044 67.1136C55.6788 67.1136 55.2254 66.9976 54.8443 66.7656C54.4655 66.5312 54.1731 66.2045 53.9672 65.7855C53.7636 65.3641 53.6618 64.8741 53.6618 64.3153C53.6618 63.7566 53.7636 63.2642 53.9672 62.8381C54.1731 62.4096 54.4596 62.0758 54.8265 61.8366C55.1958 61.5952 55.6267 61.4744 56.1191 61.4744C56.4032 61.4744 56.6838 61.5218 56.9608 61.6165C57.2377 61.7112 57.4899 61.8651 57.7172 62.0781C57.9444 62.2888 58.1255 62.5682 58.2605 62.9162C58.3954 63.2642 58.4629 63.6927 58.4629 64.2017V64.5568H54.2583V63.8324H57.6106C57.6106 63.5246 57.5491 63.25 57.426 63.0085C57.3052 62.767 57.1324 62.5765 56.9075 62.4368C56.685 62.2971 56.4222 62.2273 56.1191 62.2273C55.7853 62.2273 55.4965 62.3101 55.2527 62.4759C55.0112 62.6392 54.8253 62.8523 54.6951 63.1151C54.5649 63.3778 54.4998 63.6596 54.4998 63.9602V64.4432C54.4998 64.8551 54.5708 65.2043 54.7129 65.4908C54.8573 65.7749 55.0574 65.9915 55.313 66.1406C55.5687 66.2874 55.8658 66.3608 56.2044 66.3608C56.4245 66.3608 56.6234 66.33 56.801 66.2685C56.9809 66.2045 57.1359 66.1098 57.2662 65.9844C57.3964 65.8565 57.497 65.6979 57.568 65.5085L58.3777 65.7358C58.2924 66.0104 58.1492 66.2519 57.948 66.4602C57.7467 66.6662 57.4982 66.8272 57.2022 66.9432C56.9063 67.0568 56.5737 67.1136 56.2044 67.1136ZM62.5502 69.0455V61.5455H63.3599V62.4119H63.4593C63.5209 62.3172 63.6061 62.1965 63.715 62.0497C63.8263 61.9006 63.9849 61.768 64.1909 61.652C64.3992 61.5336 64.6809 61.4744 65.036 61.4744C65.4953 61.4744 65.9002 61.5893 66.2505 61.8189C66.6009 62.0485 66.8743 62.3741 67.0708 62.7955C67.2673 63.2169 67.3656 63.714 67.3656 64.2869C67.3656 64.8646 67.2673 65.3653 67.0708 65.7891C66.8743 66.2105 66.6021 66.5372 66.2541 66.7692C65.9061 66.9988 65.5048 67.1136 65.0502 67.1136C64.6999 67.1136 64.4193 67.0556 64.2086 66.9396C63.9979 66.8213 63.8358 66.6875 63.7221 66.5384C63.6085 66.3868 63.5209 66.2614 63.4593 66.1619H63.3883V69.0455H62.5502ZM63.3741 64.2727C63.3741 64.6847 63.4345 65.0481 63.5552 65.3629C63.676 65.6754 63.8523 65.9205 64.0843 66.098C64.3163 66.2732 64.6004 66.3608 64.9366 66.3608C65.287 66.3608 65.5794 66.2685 65.8137 66.0838C66.0505 65.8968 66.228 65.6458 66.3464 65.331C66.4672 65.0137 66.5275 64.661 66.5275 64.2727C66.5275 63.8892 66.4683 63.5436 66.35 63.2358C66.234 62.9257 66.0576 62.6806 65.8208 62.5007C65.5865 62.3184 65.2917 62.2273 64.9366 62.2273C64.5957 62.2273 64.3092 62.3137 64.0772 62.4865C63.8452 62.657 63.67 62.8961 63.5517 63.2038C63.4333 63.5092 63.3741 63.8655 63.3741 64.2727ZM68.644 67V61.5455H69.4537V62.3693H69.5105C69.6099 62.0994 69.7898 61.8804 70.0502 61.7124C70.3107 61.5443 70.6042 61.4602 70.9309 61.4602C70.9925 61.4602 71.0694 61.4614 71.1618 61.4638C71.2541 61.4661 71.3239 61.4697 71.3713 61.4744V62.3267C71.3429 62.3196 71.2778 62.3089 71.176 62.2947C71.0765 62.2782 70.9712 62.2699 70.8599 62.2699C70.5948 62.2699 70.358 62.3255 70.1497 62.4368C69.9437 62.5457 69.7804 62.6972 69.6596 62.8913C69.5413 63.0831 69.4821 63.3021 69.4821 63.5483V67H68.644ZM72.3647 67V61.5455H73.2028V67H72.3647ZM72.7908 60.6364C72.6275 60.6364 72.4866 60.5807 72.3683 60.4695C72.2522 60.3582 72.1942 60.2244 72.1942 60.0682C72.1942 59.9119 72.2522 59.7782 72.3683 59.6669C72.4866 59.5556 72.6275 59.5 72.7908 59.5C72.9542 59.5 73.0939 59.5556 73.2099 59.6669C73.3282 59.7782 73.3874 59.9119 73.3874 60.0682C73.3874 60.2244 73.3282 60.3582 73.2099 60.4695C73.0939 60.5807 72.9542 60.6364 72.7908 60.6364ZM75.5758 63.7188V67H74.7377V61.5455H75.5474V62.3977H75.6184C75.7463 62.1207 75.9404 61.8982 76.2008 61.7301C76.4612 61.5597 76.7974 61.4744 77.2093 61.4744C77.5787 61.4744 77.9018 61.5502 78.1788 61.7017C78.4558 61.8509 78.6712 62.0781 78.8251 62.3835C78.979 62.6866 79.0559 63.0701 79.0559 63.5341V67H78.2179V63.5909C78.2179 63.1624 78.1066 62.8286 77.8841 62.5895C77.6615 62.348 77.3561 62.2273 76.9679 62.2273C76.7003 62.2273 76.4612 62.2853 76.2505 62.4013C76.0422 62.5173 75.8777 62.6866 75.7569 62.9091C75.6362 63.1316 75.5758 63.4015 75.5758 63.7188ZM82.9595 61.5455V62.2557H80.1328V61.5455H82.9595ZM80.9567 60.2386H81.7947V65.4375C81.7947 65.6742 81.8291 65.8518 81.8977 65.9702C81.9688 66.0862 82.0587 66.1643 82.1676 66.2045C82.2789 66.2424 82.3961 66.2614 82.5192 66.2614C82.6115 66.2614 82.6873 66.2566 82.7464 66.2472C82.8056 66.2353 82.853 66.2259 82.8885 66.2188L83.0589 66.9716C83.0021 66.9929 82.9228 67.0142 82.821 67.0355C82.7192 67.0592 82.5902 67.071 82.4339 67.071C82.1972 67.071 81.9652 67.0201 81.7379 66.9183C81.513 66.8165 81.326 66.6615 81.1768 66.4531C81.0301 66.2448 80.9567 65.982 80.9567 65.6648V60.2386ZM86.3775 67.1136C85.8851 67.1136 85.453 66.9964 85.0813 66.7621C84.712 66.5277 84.4232 66.1998 84.2148 65.7784C84.0089 65.357 83.9059 64.8646 83.9059 64.3011C83.9059 63.733 84.0089 63.237 84.2148 62.8132C84.4232 62.3894 84.712 62.0604 85.0813 61.826C85.453 61.5916 85.8851 61.4744 86.3775 61.4744C86.8699 61.4744 87.3008 61.5916 87.6701 61.826C88.0418 62.0604 88.3306 62.3894 88.5366 62.8132C88.7449 63.237 88.8491 63.733 88.8491 64.3011C88.8491 64.8646 88.7449 65.357 88.5366 65.7784C88.3306 66.1998 88.0418 66.5277 87.6701 66.7621C87.3008 66.9964 86.8699 67.1136 86.3775 67.1136ZM86.3775 66.3608C86.7515 66.3608 87.0593 66.2649 87.3008 66.0732C87.5423 65.8814 87.721 65.6293 87.837 65.3168C87.953 65.0043 88.011 64.6657 88.011 64.3011C88.011 63.9366 87.953 63.5968 87.837 63.282C87.721 62.9671 87.5423 62.7126 87.3008 62.5185C87.0593 62.3243 86.7515 62.2273 86.3775 62.2273C86.0034 62.2273 85.6957 62.3243 85.4542 62.5185C85.2127 62.7126 85.034 62.9671 84.918 63.282C84.802 63.5968 84.744 63.9366 84.744 64.3011C84.744 64.6657 84.802 65.0043 84.918 65.3168C85.034 65.6293 85.2127 65.8814 85.4542 66.0732C85.6957 66.2649 86.0034 66.3608 86.3775 66.3608ZM93.5659 64.7699V61.5455H94.4039V67H93.5659V66.0767H93.5091C93.3812 66.3537 93.1824 66.5893 92.9125 66.7834C92.6426 66.9751 92.3017 67.071 91.8897 67.071C91.5488 67.071 91.2458 66.9964 90.9806 66.8473C90.7155 66.6958 90.5072 66.4685 90.3556 66.1655C90.2041 65.8601 90.1284 65.4754 90.1284 65.0114V61.5455H90.9664V64.9545C90.9664 65.3523 91.0777 65.6695 91.3002 65.9062C91.5252 66.143 91.8116 66.2614 92.1596 66.2614C92.368 66.2614 92.5798 66.2081 92.7953 66.1016C93.0131 65.995 93.1954 65.8317 93.3422 65.6115C93.4913 65.3913 93.5659 65.1108 93.5659 64.7699ZM98.3111 61.5455V62.2557H95.4844V61.5455H98.3111ZM96.3082 60.2386H97.1463V65.4375C97.1463 65.6742 97.1806 65.8518 97.2493 65.9702C97.3203 66.0862 97.4103 66.1643 97.5192 66.2045C97.6304 66.2424 97.7476 66.2614 97.8707 66.2614C97.9631 66.2614 98.0388 66.2566 98.098 66.2472C98.1572 66.2353 98.2045 66.2259 98.2401 66.2188L98.4105 66.9716C98.3537 66.9929 98.2744 67.0142 98.1726 67.0355C98.0708 67.0592 97.9418 67.071 97.7855 67.071C97.5488 67.071 97.3168 67.0201 97.0895 66.9183C96.8646 66.8165 96.6776 66.6615 96.5284 66.4531C96.3816 66.2448 96.3082 65.982 96.3082 65.6648V60.2386ZM103.338 62.767L102.585 62.9801C102.538 62.8546 102.468 62.7327 102.375 62.6143C102.285 62.4936 102.162 62.3942 102.006 62.3161C101.85 62.2379 101.65 62.1989 101.406 62.1989C101.072 62.1989 100.794 62.2758 100.571 62.4297C100.351 62.5812 100.241 62.7741 100.241 63.0085C100.241 63.2169 100.317 63.3814 100.468 63.5021C100.62 63.6229 100.857 63.7235 101.179 63.804L101.988 64.0028C102.476 64.1212 102.839 64.3023 103.078 64.5462C103.318 64.7876 103.437 65.099 103.437 65.4801C103.437 65.7926 103.347 66.072 103.167 66.3182C102.99 66.5644 102.741 66.7585 102.422 66.9006C102.102 67.0426 101.73 67.1136 101.306 67.1136C100.75 67.1136 100.29 66.9929 99.9251 66.7514C99.5605 66.5099 99.3297 66.1572 99.2326 65.6932L100.028 65.4943C100.104 65.7879 100.247 66.008 100.458 66.1548C100.671 66.3016 100.949 66.375 101.292 66.375C101.683 66.375 101.993 66.2921 102.223 66.1264C102.455 65.9583 102.571 65.7571 102.571 65.5227C102.571 65.3333 102.504 65.1747 102.372 65.0469C102.239 64.9167 102.036 64.8196 101.761 64.7557L100.852 64.5426C100.352 64.4242 99.9854 64.2408 99.7511 63.9922C99.5191 63.7412 99.4031 63.4276 99.4031 63.0511C99.4031 62.7434 99.4895 62.4711 99.6623 62.2344C99.8375 61.9976 100.075 61.8118 100.376 61.6768C100.679 61.5419 101.022 61.4744 101.406 61.4744C101.946 61.4744 102.369 61.5928 102.677 61.8295C102.987 62.0663 103.208 62.3788 103.338 62.767ZM105.309 67.0568C105.134 67.0568 104.984 66.9941 104.858 66.8686C104.733 66.7431 104.67 66.5928 104.67 66.4176C104.67 66.2424 104.733 66.0921 104.858 65.9666C104.984 65.8411 105.134 65.7784 105.309 65.7784C105.485 65.7784 105.635 65.8411 105.76 65.9666C105.886 66.0921 105.949 66.2424 105.949 66.4176C105.949 66.5336 105.919 66.6402 105.86 66.7372C105.803 66.8343 105.726 66.9124 105.629 66.9716C105.534 67.0284 105.428 67.0568 105.309 67.0568Z" fill="black"/>
<g clip-path="url(#clip0_1_863)">
<path d="M67.8162 97.1155L80.9412 102.037C81.6562 102.305 82.2723 102.785 82.7072 103.413C83.1421 104.04 83.3751 104.786 83.375 105.549V115.605C83.3751 118.739 82.5024 121.811 80.8549 124.477C79.2073 127.143 76.8499 129.297 74.0469 130.699L67.7581 133.843C67.3675 134.038 66.9368 134.14 66.5 134.14C66.0632 134.14 65.6325 134.038 65.2419 133.843L58.9531 130.699C56.1501 129.297 53.7927 127.143 52.1451 124.477C50.4976 121.811 49.6249 118.739 49.625 115.605V105.549C49.6249 104.786 49.8579 104.04 50.2928 103.413C50.7277 102.785 51.3438 102.305 52.0587 102.037L65.1838 97.1155C66.0324 96.7974 66.9676 96.7974 67.8162 97.1155ZM66.5 100.627L53.375 105.549V115.605C53.3754 118.042 54.0545 120.431 55.3361 122.504C56.6177 124.577 58.4512 126.253 60.6312 127.342L66.5 130.281L72.3687 127.346C74.5494 126.256 76.3833 124.58 77.6649 122.506C78.9465 120.433 79.6253 118.043 79.625 115.605V105.549L66.5 100.627ZM66.5 108C67.3004 108 68.0799 108.255 68.7244 108.73C69.369 109.204 69.8449 109.872 70.0825 110.637C70.3201 111.401 70.3069 112.221 70.0449 112.978C69.7829 113.734 69.2858 114.386 68.6262 114.84L68.375 114.999V121.125C68.3745 121.603 68.1915 122.062 67.8634 122.41C67.5353 122.757 67.087 122.967 66.6099 122.995C66.1328 123.023 65.663 122.867 65.2966 122.561C64.9301 122.254 64.6946 121.819 64.6381 121.344L64.625 121.125V114.999C63.9092 114.587 63.3496 113.95 63.0331 113.187C62.7166 112.424 62.6609 111.578 62.8746 110.78C63.0884 109.982 63.5596 109.277 64.2152 108.774C64.8707 108.271 65.6739 107.999 66.5 108Z" fill="url(#paint1_linear_1_863)"/>
</g>
<path d="M13.2037 140.545C13.161 140.186 12.9882 139.906 12.6852 139.707C12.3822 139.509 12.0105 139.409 11.5701 139.409C11.2482 139.409 10.9664 139.461 10.725 139.565C10.4859 139.67 10.2988 139.813 10.1639 139.995C10.0313 140.177 9.96502 140.384 9.96502 140.616C9.96502 140.811 10.0112 140.978 10.1035 141.117C10.1982 141.254 10.319 141.369 10.4657 141.462C10.6125 141.552 10.7664 141.626 10.9274 141.685C11.0884 141.742 11.2363 141.788 11.3713 141.824L12.1099 142.023C12.2993 142.072 12.51 142.141 12.742 142.229C12.9764 142.316 13.2001 142.436 13.4132 142.587C13.6286 142.737 13.8062 142.928 13.9458 143.163C14.0855 143.397 14.1554 143.685 14.1554 144.026C14.1554 144.419 14.0524 144.774 13.8464 145.091C13.6428 145.408 13.3445 145.66 12.9515 145.847C12.5609 146.034 12.0862 146.128 11.5275 146.128C11.0067 146.128 10.5557 146.044 10.1745 145.876C9.79575 145.708 9.49746 145.473 9.27965 145.173C9.06422 144.872 8.94229 144.523 8.91388 144.125H9.82298C9.84665 144.4 9.93898 144.627 10.1 144.807C10.2633 144.984 10.4693 145.117 10.7179 145.205C10.9688 145.29 11.2387 145.332 11.5275 145.332C11.8637 145.332 12.1655 145.278 12.4331 145.169C12.7006 145.058 12.9125 144.904 13.0687 144.707C13.225 144.509 13.3031 144.277 13.3031 144.011C13.3031 143.77 13.2356 143.573 13.1007 143.422C12.9657 143.27 12.7882 143.147 12.568 143.053C12.3478 142.958 12.1099 142.875 11.8542 142.804L10.9593 142.548C10.3912 142.385 9.94135 142.152 9.60991 141.849C9.27847 141.546 9.11275 141.149 9.11275 140.659C9.11275 140.252 9.22283 139.897 9.443 139.594C9.66554 139.288 9.96384 139.052 10.3379 138.884C10.7143 138.713 11.1345 138.628 11.5985 138.628C12.0673 138.628 12.484 138.712 12.8485 138.88C13.2131 139.046 13.502 139.273 13.715 139.562C13.9305 139.851 14.0441 140.179 14.0559 140.545H13.2037ZM17.7766 146.114C17.2511 146.114 16.7977 145.998 16.4165 145.766C16.0378 145.531 15.7454 145.205 15.5394 144.786C15.3358 144.364 15.234 143.874 15.234 143.315C15.234 142.757 15.3358 142.264 15.5394 141.838C15.7454 141.41 16.0318 141.076 16.3988 140.837C16.7681 140.595 17.199 140.474 17.6914 140.474C17.9755 140.474 18.256 140.522 18.533 140.616C18.81 140.711 19.0621 140.865 19.2894 141.078C19.5167 141.289 19.6978 141.568 19.8327 141.916C19.9677 142.264 20.0352 142.693 20.0352 143.202V143.557H15.8306V142.832H19.1829C19.1829 142.525 19.1213 142.25 18.9982 142.009C18.8775 141.767 18.7047 141.576 18.4798 141.437C18.2572 141.297 17.9944 141.227 17.6914 141.227C17.3576 141.227 17.0688 141.31 16.8249 141.476C16.5835 141.639 16.3976 141.852 16.2674 142.115C16.1372 142.378 16.0721 142.66 16.0721 142.96V143.443C16.0721 143.855 16.1431 144.204 16.2852 144.491C16.4296 144.775 16.6296 144.991 16.8853 145.141C17.141 145.287 17.4381 145.361 17.7766 145.361C17.9968 145.361 18.1957 145.33 18.3732 145.268C18.5531 145.205 18.7082 145.11 18.8384 144.984C18.9686 144.857 19.0692 144.698 19.1403 144.509L19.9499 144.736C19.8647 145.01 19.7215 145.252 19.5202 145.46C19.319 145.666 19.0704 145.827 18.7745 145.943C18.4786 146.057 18.146 146.114 17.7766 146.114ZM23.5259 146.114C23.0146 146.114 22.5742 145.993 22.2049 145.751C21.8356 145.51 21.5515 145.177 21.3526 144.754C21.1538 144.33 21.0543 143.846 21.0543 143.301C21.0543 142.747 21.1561 142.258 21.3597 141.835C21.5657 141.408 21.8522 141.076 22.2191 140.837C22.5884 140.595 23.0193 140.474 23.5117 140.474C23.8952 140.474 24.2409 140.545 24.5487 140.688C24.8564 140.83 25.1085 141.028 25.305 141.284C25.5015 141.54 25.6235 141.838 25.6708 142.179H24.8327C24.7688 141.93 24.6268 141.71 24.4066 141.518C24.1888 141.324 23.8952 141.227 23.5259 141.227C23.1992 141.227 22.9128 141.312 22.6665 141.483C22.4227 141.651 22.2321 141.889 22.0948 142.197C21.9599 142.502 21.8924 142.861 21.8924 143.273C21.8924 143.694 21.9587 144.061 22.0913 144.374C22.2262 144.686 22.4156 144.929 22.6594 145.102C22.9057 145.274 23.1945 145.361 23.5259 145.361C23.7437 145.361 23.9414 145.323 24.119 145.247C24.2965 145.171 24.4469 145.062 24.57 144.92C24.6931 144.778 24.7807 144.608 24.8327 144.409H25.6708C25.6235 144.731 25.5063 145.021 25.3192 145.279C25.1346 145.535 24.8896 145.738 24.5842 145.89C24.2811 146.039 23.9284 146.114 23.5259 146.114ZM30.3335 143.77V140.545H31.1715V146H30.3335V145.077H30.2766C30.1488 145.354 29.9499 145.589 29.68 145.783C29.4102 145.975 29.0692 146.071 28.6573 146.071C28.3164 146.071 28.0134 145.996 27.7482 145.847C27.4831 145.696 27.2747 145.469 27.1232 145.165C26.9717 144.86 26.896 144.475 26.896 144.011V140.545H27.734V143.955C27.734 144.352 27.8453 144.67 28.0678 144.906C28.2927 145.143 28.5792 145.261 28.9272 145.261C29.1355 145.261 29.3474 145.208 29.5629 145.102C29.7807 144.995 29.9629 144.832 30.1097 144.612C30.2589 144.391 30.3335 144.111 30.3335 143.77ZM32.7065 146V140.545H33.5162V141.369H33.573C33.6724 141.099 33.8523 140.88 34.1127 140.712C34.3732 140.544 34.6667 140.46 34.9934 140.46C35.055 140.46 35.1319 140.461 35.2243 140.464C35.3166 140.466 35.3864 140.47 35.4338 140.474V141.327C35.4054 141.32 35.3403 141.309 35.2385 141.295C35.139 141.278 35.0337 141.27 34.9224 141.27C34.6573 141.27 34.4205 141.326 34.2122 141.437C34.0062 141.546 33.8429 141.697 33.7221 141.891C33.6038 142.083 33.5446 142.302 33.5446 142.548V146H32.7065ZM38.5481 146.114C38.0225 146.114 37.5692 145.998 37.188 145.766C36.8092 145.531 36.5169 145.205 36.3109 144.786C36.1073 144.364 36.0055 143.874 36.0055 143.315C36.0055 142.757 36.1073 142.264 36.3109 141.838C36.5169 141.41 36.8033 141.076 37.1703 140.837C37.5396 140.595 37.9705 140.474 38.4629 140.474C38.747 140.474 39.0275 140.522 39.3045 140.616C39.5815 140.711 39.8336 140.865 40.0609 141.078C40.2882 141.289 40.4693 141.568 40.6042 141.916C40.7392 142.264 40.8066 142.693 40.8066 143.202V143.557H36.6021V142.832H39.9544C39.9544 142.525 39.8928 142.25 39.7697 142.009C39.649 141.767 39.4761 141.576 39.2512 141.437C39.0287 141.297 38.7659 141.227 38.4629 141.227C38.1291 141.227 37.8403 141.31 37.5964 141.476C37.3549 141.639 37.1691 141.852 37.0389 142.115C36.9087 142.378 36.8436 142.66 36.8436 142.96V143.443C36.8436 143.855 36.9146 144.204 37.0566 144.491C37.2011 144.775 37.4011 144.991 37.6568 145.141C37.9125 145.287 38.2096 145.361 38.5481 145.361C38.7683 145.361 38.9672 145.33 39.1447 145.268C39.3246 145.205 39.4797 145.11 39.6099 144.984C39.7401 144.857 39.8407 144.698 39.9118 144.509L40.7214 144.736C40.6362 145.01 40.493 145.252 40.2917 145.46C40.0905 145.666 39.8419 145.827 39.546 145.943C39.2501 146.057 38.9174 146.114 38.5481 146.114ZM44.894 148.045V140.545H45.7037V141.412H45.8031C45.8646 141.317 45.9499 141.196 46.0588 141.05C46.17 140.901 46.3287 140.768 46.5346 140.652C46.743 140.534 47.0247 140.474 47.3798 140.474C47.8391 140.474 48.2439 140.589 48.5943 140.819C48.9447 141.049 49.2181 141.374 49.4146 141.795C49.6111 142.217 49.7093 142.714 49.7093 143.287C49.7093 143.865 49.6111 144.365 49.4146 144.789C49.2181 145.21 48.9458 145.537 48.5978 145.769C48.2498 145.999 47.8485 146.114 47.394 146.114C47.0436 146.114 46.7631 146.056 46.5524 145.94C46.3417 145.821 46.1795 145.687 46.0659 145.538C45.9522 145.387 45.8646 145.261 45.8031 145.162H45.7321V148.045H44.894ZM45.7179 143.273C45.7179 143.685 45.7782 144.048 45.899 144.363C46.0197 144.675 46.1961 144.92 46.4281 145.098C46.6601 145.273 46.9442 145.361 47.2804 145.361C47.6307 145.361 47.9231 145.268 48.1575 145.084C48.3942 144.897 48.5718 144.646 48.6902 144.331C48.8109 144.014 48.8713 143.661 48.8713 143.273C48.8713 142.889 48.8121 142.544 48.6937 142.236C48.5777 141.926 48.4013 141.681 48.1646 141.501C47.9302 141.318 47.6355 141.227 47.2804 141.227C46.9395 141.227 46.653 141.314 46.421 141.487C46.189 141.657 46.0138 141.896 45.8954 142.204C45.777 142.509 45.7179 142.866 45.7179 143.273ZM50.9877 146V140.545H51.7974V141.369H51.8542C51.9537 141.099 52.1336 140.88 52.394 140.712C52.6544 140.544 52.948 140.46 53.2747 140.46C53.3362 140.46 53.4132 140.461 53.5055 140.464C53.5978 140.466 53.6677 140.47 53.715 140.474V141.327C53.6866 141.32 53.6215 141.309 53.5197 141.295C53.4203 141.278 53.3149 141.27 53.2037 141.27C52.9385 141.27 52.7018 141.326 52.4934 141.437C52.2875 141.546 52.1241 141.697 52.0034 141.891C51.885 142.083 51.8258 142.302 51.8258 142.548V146H50.9877ZM54.7085 146V140.545H55.5465V146H54.7085ZM55.1346 139.636C54.9712 139.636 54.8304 139.581 54.712 139.469C54.596 139.358 54.538 139.224 54.538 139.068C54.538 138.912 54.596 138.778 54.712 138.667C54.8304 138.556 54.9712 138.5 55.1346 138.5C55.2979 138.5 55.4376 138.556 55.5536 138.667C55.672 138.778 55.7312 138.912 55.7312 139.068C55.7312 139.224 55.672 139.358 55.5536 139.469C55.4376 139.581 55.2979 139.636 55.1346 139.636ZM57.9196 142.719V146H57.0815V140.545H57.8912V141.398H57.9622C58.09 141.121 58.2842 140.898 58.5446 140.73C58.805 140.56 59.1412 140.474 59.5531 140.474C59.9224 140.474 60.2456 140.55 60.5225 140.702C60.7995 140.851 61.015 141.078 61.1689 141.384C61.3227 141.687 61.3997 142.07 61.3997 142.534V146H60.5616V142.591C60.5616 142.162 60.4503 141.829 60.2278 141.589C60.0053 141.348 59.6999 141.227 59.3116 141.227C59.0441 141.227 58.805 141.285 58.5943 141.401C58.3859 141.517 58.2214 141.687 58.1007 141.909C57.9799 142.132 57.9196 142.402 57.9196 142.719ZM65.3033 140.545V141.256H62.4766V140.545H65.3033ZM63.3004 139.239H64.1385V144.438C64.1385 144.674 64.1728 144.852 64.2415 144.97C64.3125 145.086 64.4025 145.164 64.5114 145.205C64.6226 145.242 64.7398 145.261 64.8629 145.261C64.9553 145.261 65.031 145.257 65.0902 145.247C65.1494 145.235 65.1967 145.226 65.2322 145.219L65.4027 145.972C65.3459 145.993 65.2666 146.014 65.1648 146.036C65.063 146.059 64.9339 146.071 64.7777 146.071C64.541 146.071 64.3089 146.02 64.0817 145.918C63.8568 145.817 63.6697 145.661 63.5206 145.453C63.3738 145.245 63.3004 144.982 63.3004 144.665V139.239ZM68.7212 146.114C68.2288 146.114 67.7968 145.996 67.4251 145.762C67.0558 145.528 66.7669 145.2 66.5586 144.778C66.3526 144.357 66.2496 143.865 66.2496 143.301C66.2496 142.733 66.3526 142.237 66.5586 141.813C66.7669 141.389 67.0558 141.06 67.4251 140.826C67.7968 140.592 68.2288 140.474 68.7212 140.474C69.2137 140.474 69.6445 140.592 70.0138 140.826C70.3855 141.06 70.6744 141.389 70.8803 141.813C71.0887 142.237 71.1928 142.733 71.1928 143.301C71.1928 143.865 71.0887 144.357 70.8803 144.778C70.6744 145.2 70.3855 145.528 70.0138 145.762C69.6445 145.996 69.2137 146.114 68.7212 146.114ZM68.7212 145.361C69.0953 145.361 69.4031 145.265 69.6445 145.073C69.886 144.881 70.0647 144.629 70.1808 144.317C70.2968 144.004 70.3548 143.666 70.3548 143.301C70.3548 142.937 70.2968 142.597 70.1808 142.282C70.0647 141.967 69.886 141.713 69.6445 141.518C69.4031 141.324 69.0953 141.227 68.7212 141.227C68.3472 141.227 68.0394 141.324 67.7979 141.518C67.5565 141.713 67.3777 141.967 67.2617 142.282C67.1457 142.597 67.0877 142.937 67.0877 143.301C67.0877 143.666 67.1457 144.004 67.2617 144.317C67.3777 144.629 67.5565 144.881 67.7979 145.073C68.0394 145.265 68.3472 145.361 68.7212 145.361ZM75.9096 143.77V140.545H76.7477V146H75.9096V145.077H75.8528C75.725 145.354 75.5261 145.589 75.2562 145.783C74.9863 145.975 74.6454 146.071 74.2335 146.071C73.8926 146.071 73.5895 145.996 73.3244 145.847C73.0592 145.696 72.8509 145.469 72.6994 145.165C72.5479 144.86 72.4721 144.475 72.4721 144.011V140.545H73.3102V143.955C73.3102 144.352 73.4215 144.67 73.644 144.906C73.8689 145.143 74.1554 145.261 74.5034 145.261C74.7117 145.261 74.9236 145.208 75.139 145.102C75.3568 144.995 75.5391 144.832 75.6859 144.612C75.835 144.391 75.9096 144.111 75.9096 143.77ZM80.6548 140.545V141.256H77.8281V140.545H80.6548ZM78.652 139.239H79.4901V144.438C79.4901 144.674 79.5244 144.852 79.593 144.97C79.6641 145.086 79.754 145.164 79.8629 145.205C79.9742 145.242 80.0914 145.261 80.2145 145.261C80.3068 145.261 80.3826 145.257 80.4418 145.247C80.5009 145.235 80.5483 145.226 80.5838 145.219L80.7543 145.972C80.6974 145.993 80.6181 146.014 80.5163 146.036C80.4145 146.059 80.2855 146.071 80.1293 146.071C79.8925 146.071 79.6605 146.02 79.4332 145.918C79.2083 145.817 79.0213 145.661 78.8722 145.453C78.7254 145.245 78.652 144.982 78.652 144.665V139.239ZM85.6815 141.767L84.9286 141.98C84.8813 141.855 84.8114 141.733 84.7191 141.614C84.6291 141.494 84.506 141.394 84.3498 141.316C84.1935 141.238 83.9935 141.199 83.7496 141.199C83.4158 141.199 83.1377 141.276 82.9151 141.43C82.695 141.581 82.5849 141.774 82.5849 142.009C82.5849 142.217 82.6606 142.381 82.8121 142.502C82.9637 142.623 83.2004 142.723 83.5224 142.804L84.332 143.003C84.8197 143.121 85.1831 143.302 85.4222 143.546C85.6613 143.788 85.7809 144.099 85.7809 144.48C85.7809 144.793 85.6909 145.072 85.511 145.318C85.3335 145.564 85.0849 145.759 84.7653 145.901C84.4457 146.043 84.074 146.114 83.6502 146.114C83.0939 146.114 82.6334 145.993 82.2688 145.751C81.9042 145.51 81.6734 145.157 81.5763 144.693L82.3718 144.494C82.4476 144.788 82.5908 145.008 82.8015 145.155C83.0146 145.302 83.2927 145.375 83.636 145.375C84.0266 145.375 84.3368 145.292 84.5664 145.126C84.7984 144.958 84.9144 144.757 84.9144 144.523C84.9144 144.333 84.8481 144.175 84.7156 144.047C84.583 143.917 84.3794 143.82 84.1048 143.756L83.1957 143.543C82.6961 143.424 82.3292 143.241 82.0948 142.992C81.8628 142.741 81.7468 142.428 81.7468 142.051C81.7468 141.743 81.8332 141.471 82.006 141.234C82.1812 140.998 82.4192 140.812 82.7198 140.677C83.0228 140.542 83.3661 140.474 83.7496 140.474C84.2894 140.474 84.7132 140.593 85.021 140.83C85.3311 141.066 85.5513 141.379 85.6815 141.767ZM91.0907 146L89.4288 140.545H90.3095L91.4885 144.722H91.5453L92.71 140.545H93.6049L94.7555 144.707H94.8123L95.9913 140.545H96.872L95.21 146H94.3862L93.193 141.81H93.1078L91.9146 146H91.0907ZM97.9799 146V140.545H98.818V146H97.9799ZM98.4061 139.636C98.2427 139.636 98.1019 139.581 97.9835 139.469C97.8675 139.358 97.8095 139.224 97.8095 139.068C97.8095 138.912 97.8675 138.778 97.9835 138.667C98.1019 138.556 98.2427 138.5 98.4061 138.5C98.5694 138.5 98.7091 138.556 98.8251 138.667C98.9435 138.778 99.0027 138.912 99.0027 139.068C99.0027 139.224 98.9435 139.358 98.8251 139.469C98.7091 139.581 98.5694 139.636 98.4061 139.636ZM102.725 140.545V141.256H99.8984V140.545H102.725ZM100.722 139.239H101.56V144.438C101.56 144.674 101.595 144.852 101.663 144.97C101.734 145.086 101.824 145.164 101.933 145.205C102.045 145.242 102.162 145.261 102.285 145.261C102.377 145.261 102.453 145.257 102.512 145.247C102.571 145.235 102.619 145.226 102.654 145.219L102.825 145.972C102.768 145.993 102.688 146.014 102.587 146.036C102.485 146.059 102.356 146.071 102.2 146.071C101.963 146.071 101.731 146.02 101.504 145.918C101.279 145.817 101.092 145.661 100.942 145.453C100.796 145.245 100.722 144.982 100.722 144.665V139.239ZM104.941 142.719V146H104.103V138.727H104.941V141.398H105.012C105.14 141.116 105.332 140.892 105.587 140.727C105.845 140.558 106.189 140.474 106.617 140.474C106.989 140.474 107.314 140.549 107.594 140.698C107.873 140.845 108.09 141.071 108.244 141.376C108.4 141.679 108.478 142.065 108.478 142.534V146H107.64V142.591C107.64 142.158 107.527 141.823 107.303 141.586C107.08 141.347 106.771 141.227 106.376 141.227C106.101 141.227 105.855 141.285 105.637 141.401C105.422 141.517 105.251 141.687 105.126 141.909C105.003 142.132 104.941 142.402 104.941 142.719ZM112.227 146.114C111.735 146.114 111.303 145.996 110.931 145.762C110.562 145.528 110.273 145.2 110.064 144.778C109.858 144.357 109.756 143.865 109.756 143.301C109.756 142.733 109.858 142.237 110.064 141.813C110.273 141.389 110.562 141.06 110.931 140.826C111.303 140.592 111.735 140.474 112.227 140.474C112.72 140.474 113.15 140.592 113.52 140.826C113.891 141.06 114.18 141.389 114.386 141.813C114.595 142.237 114.699 142.733 114.699 143.301C114.699 143.865 114.595 144.357 114.386 144.778C114.18 145.2 113.891 145.528 113.52 145.762C113.15 145.996 112.72 146.114 112.227 146.114ZM112.227 145.361C112.601 145.361 112.909 145.265 113.15 145.073C113.392 144.881 113.571 144.629 113.687 144.317C113.803 144.004 113.861 143.666 113.861 143.301C113.861 142.937 113.803 142.597 113.687 142.282C113.571 141.967 113.392 141.713 113.15 141.518C112.909 141.324 112.601 141.227 112.227 141.227C111.853 141.227 111.545 141.324 111.304 141.518C111.062 141.713 110.884 141.967 110.768 142.282C110.652 142.597 110.594 142.937 110.594 143.301C110.594 143.666 110.652 144.004 110.768 144.317C110.884 144.629 111.062 144.881 111.304 145.073C111.545 145.265 111.853 145.361 112.227 145.361ZM119.415 143.77V140.545H120.254V146H119.415V145.077H119.359C119.231 145.354 119.032 145.589 118.762 145.783C118.492 145.975 118.151 146.071 117.739 146.071C117.398 146.071 117.095 145.996 116.83 145.847C116.565 145.696 116.357 145.469 116.205 145.165C116.054 144.86 115.978 144.475 115.978 144.011V140.545H116.816V143.955C116.816 144.352 116.927 144.67 117.15 144.906C117.375 145.143 117.661 145.261 118.009 145.261C118.218 145.261 118.429 145.208 118.645 145.102C118.863 144.995 119.045 144.832 119.192 144.612C119.341 144.391 119.415 144.111 119.415 143.77ZM124.161 140.545V141.256H121.334V140.545H124.161ZM122.158 139.239H122.996V144.438C122.996 144.674 123.03 144.852 123.099 144.97C123.17 145.086 123.26 145.164 123.369 145.205C123.48 145.242 123.597 145.261 123.72 145.261C123.813 145.261 123.888 145.257 123.948 145.247C124.007 145.235 124.054 145.226 124.09 145.219L124.26 145.972C124.203 145.993 124.124 146.014 124.022 146.036C123.92 146.059 123.791 146.071 123.635 146.071C123.398 146.071 123.166 146.02 122.939 145.918C122.714 145.817 122.527 145.661 122.378 145.453C122.231 145.245 122.158 144.982 122.158 144.665V139.239ZM25.4946 160.045V152.545H26.3042V153.412H26.4037C26.4652 153.317 26.5505 153.196 26.6594 153.05C26.7706 152.901 26.9292 152.768 27.1352 152.652C27.3435 152.534 27.6253 152.474 27.9804 152.474C28.4397 152.474 28.8445 152.589 29.1949 152.819C29.5452 153.049 29.8187 153.374 30.0152 153.795C30.2117 154.217 30.3099 154.714 30.3099 155.287C30.3099 155.865 30.2117 156.365 30.0152 156.789C29.8187 157.21 29.5464 157.537 29.1984 157.769C28.8504 157.999 28.4491 158.114 27.9946 158.114C27.6442 158.114 27.3637 158.056 27.153 157.94C26.9423 157.821 26.7801 157.687 26.6665 157.538C26.5528 157.387 26.4652 157.261 26.4037 157.162H26.3327V160.045H25.4946ZM26.3184 155.273C26.3184 155.685 26.3788 156.048 26.4996 156.363C26.6203 156.675 26.7967 156.92 27.0287 157.098C27.2607 157.273 27.5448 157.361 27.8809 157.361C28.2313 157.361 28.5237 157.268 28.7581 157.084C28.9948 156.897 29.1724 156.646 29.2907 156.331C29.4115 156.014 29.4719 155.661 29.4719 155.273C29.4719 154.889 29.4127 154.544 29.2943 154.236C29.1783 153.926 29.0019 153.681 28.7652 153.501C28.5308 153.318 28.2361 153.227 27.8809 153.227C27.54 153.227 27.2536 153.314 27.0216 153.487C26.7896 153.657 26.6144 153.896 26.496 154.204C26.3776 154.509 26.3184 154.866 26.3184 155.273ZM31.5883 158V152.545H32.398V153.369H32.4548C32.5542 153.099 32.7342 152.88 32.9946 152.712C33.255 152.544 33.5486 152.46 33.8753 152.46C33.9368 152.46 34.0138 152.461 34.1061 152.464C34.1984 152.466 34.2683 152.47 34.3156 152.474V153.327C34.2872 153.32 34.2221 153.309 34.1203 153.295C34.0209 153.278 33.9155 153.27 33.8042 153.27C33.5391 153.27 33.3023 153.326 33.094 153.437C32.8881 153.546 32.7247 153.697 32.604 153.891C32.4856 154.083 32.4264 154.302 32.4264 154.548V158H31.5883ZM35.309 158V152.545H36.1471V158H35.309ZM35.7352 151.636C35.5718 151.636 35.431 151.581 35.3126 151.469C35.1966 151.358 35.1386 151.224 35.1386 151.068C35.1386 150.912 35.1966 150.778 35.3126 150.667C35.431 150.556 35.5718 150.5 35.7352 150.5C35.8985 150.5 36.0382 150.556 36.1542 150.667C36.2726 150.778 36.3318 150.912 36.3318 151.068C36.3318 151.224 36.2726 151.358 36.1542 151.469C36.0382 151.581 35.8985 151.636 35.7352 151.636ZM42.1423 152.545L40.1253 158H39.273L37.2559 152.545H38.165L39.6707 156.892H39.7275L41.2332 152.545H42.1423ZM44.6876 158.128C44.3419 158.128 44.0283 158.063 43.7465 157.933C43.4648 157.8 43.2411 157.609 43.0754 157.361C42.9097 157.11 42.8268 156.807 42.8268 156.452C42.8268 156.139 42.8883 155.886 43.0115 155.692C43.1346 155.495 43.2991 155.341 43.5051 155.23C43.711 155.119 43.9383 155.036 44.1869 154.982C44.4378 154.925 44.69 154.88 44.9433 154.847C45.2747 154.804 45.5434 154.772 45.7494 154.751C45.9577 154.727 46.1092 154.688 46.2039 154.634C46.301 154.579 46.3495 154.484 46.3495 154.349V154.321C46.3495 153.971 46.2536 153.698 46.0619 153.504C45.8725 153.31 45.5848 153.213 45.199 153.213C44.7989 153.213 44.4852 153.301 44.2579 153.476C44.0306 153.651 43.8708 153.838 43.7785 154.037L42.983 153.753C43.1251 153.421 43.3145 153.163 43.5512 152.979C43.7903 152.792 44.0508 152.661 44.3325 152.588C44.6166 152.512 44.8959 152.474 45.1705 152.474C45.3457 152.474 45.547 152.496 45.7742 152.538C46.0039 152.579 46.2252 152.663 46.4383 152.79C46.6537 152.918 46.8325 153.111 46.9745 153.369C47.1166 153.627 47.1876 153.973 47.1876 154.406V158H46.3495V157.261H46.3069C46.2501 157.38 46.1554 157.506 46.0228 157.641C45.8902 157.776 45.7139 157.891 45.4937 157.986C45.2735 158.08 45.0048 158.128 44.6876 158.128ZM44.8154 157.375C45.1469 157.375 45.4262 157.31 45.6535 157.18C45.8831 157.049 46.056 156.881 46.172 156.675C46.2903 156.469 46.3495 156.253 46.3495 156.026V155.259C46.314 155.301 46.2359 155.34 46.1151 155.376C45.9968 155.409 45.8595 155.438 45.7032 155.464C45.5493 155.488 45.399 155.509 45.2522 155.528C45.1078 155.545 44.9906 155.559 44.9007 155.571C44.6829 155.599 44.4793 155.646 44.2899 155.71C44.1028 155.771 43.9513 155.865 43.8353 155.99C43.7217 156.113 43.6649 156.281 43.6649 156.494C43.6649 156.786 43.7726 157.006 43.988 157.155C44.2058 157.302 44.4816 157.375 44.8154 157.375ZM50.9331 158.114C50.4218 158.114 49.9814 157.993 49.6121 157.751C49.2428 157.51 48.9587 157.177 48.7599 156.754C48.561 156.33 48.4616 155.846 48.4616 155.301C48.4616 154.747 48.5634 154.258 48.767 153.835C48.9729 153.408 49.2594 153.076 49.6263 152.837C49.9956 152.595 50.4265 152.474 50.9189 152.474C51.3025 152.474 51.6481 152.545 51.9559 152.688C52.2636 152.83 52.5158 153.028 52.7123 153.284C52.9088 153.54 53.0307 153.838 53.078 154.179H52.24C52.176 153.93 52.034 153.71 51.8138 153.518C51.596 153.324 51.3025 153.227 50.9331 153.227C50.6064 153.227 50.32 153.312 50.0738 153.483C49.8299 153.651 49.6394 153.889 49.502 154.197C49.3671 154.502 49.2996 154.861 49.2996 155.273C49.2996 155.694 49.3659 156.061 49.4985 156.374C49.6334 156.686 49.8228 156.929 50.0667 157.102C50.3129 157.274 50.6017 157.361 50.9331 157.361C51.151 157.361 51.3486 157.323 51.5262 157.247C51.7037 157.171 51.8541 157.062 51.9772 156.92C52.1003 156.778 52.1879 156.608 52.24 156.409H53.078C53.0307 156.731 52.9135 157.021 52.7265 157.279C52.5418 157.535 52.2968 157.738 51.9914 157.89C51.6884 158.039 51.3356 158.114 50.9331 158.114ZM54.843 160.045C54.7009 160.045 54.5742 160.034 54.463 160.01C54.3517 159.989 54.2748 159.967 54.2322 159.946L54.4452 159.207C54.6488 159.259 54.8287 159.278 54.985 159.264C55.1412 159.25 55.2797 159.18 55.4005 159.055C55.5236 158.932 55.636 158.732 55.7378 158.455L55.8941 158.028L53.877 152.545H54.7861L56.2918 156.892H56.3486L57.8543 152.545H58.7634L56.4481 158.795C56.3439 159.077 56.2149 159.31 56.061 159.495C55.9071 159.682 55.7284 159.821 55.5248 159.911C55.3235 160 55.0963 160.045 54.843 160.045ZM64.898 158.114C64.3866 158.114 63.9463 157.993 63.577 157.751C63.2077 157.51 62.9236 157.177 62.7247 156.754C62.5258 156.33 62.4264 155.846 62.4264 155.301C62.4264 154.747 62.5282 154.258 62.7318 153.835C62.9378 153.408 63.2242 153.076 63.5912 152.837C63.9605 152.595 64.3914 152.474 64.8838 152.474C65.2673 152.474 65.613 152.545 65.9207 152.688C66.2285 152.83 66.4806 153.028 66.6771 153.284C66.8736 153.54 66.9955 153.838 67.0429 154.179H66.2048C66.1409 153.93 65.9988 153.71 65.7787 153.518C65.5609 153.324 65.2673 153.227 64.898 153.227C64.5713 153.227 64.2848 153.312 64.0386 153.483C63.7948 153.651 63.6042 153.889 63.4669 154.197C63.3319 154.502 63.2645 154.861 63.2645 155.273C63.2645 155.694 63.3308 156.061 63.4633 156.374C63.5983 156.686 63.7877 156.929 64.0315 157.102C64.2777 157.274 64.5666 157.361 64.898 157.361C65.1158 157.361 65.3135 157.323 65.491 157.247C65.6686 157.171 65.8189 157.062 65.942 156.92C66.0651 156.778 66.1527 156.608 66.2048 156.409H67.0429C66.9955 156.731 66.8783 157.021 66.6913 157.279C66.5067 157.535 66.2616 157.738 65.9562 157.89C65.6532 158.039 65.3005 158.114 64.898 158.114ZM70.4839 158.114C69.9915 158.114 69.5595 157.996 69.1878 157.762C68.8184 157.528 68.5296 157.2 68.3213 156.778C68.1153 156.357 68.0123 155.865 68.0123 155.301C68.0123 154.733 68.1153 154.237 68.3213 153.813C68.5296 153.389 68.8184 153.06 69.1878 152.826C69.5595 152.592 69.9915 152.474 70.4839 152.474C70.9764 152.474 71.4072 152.592 71.7765 152.826C72.1482 153.06 72.4371 153.389 72.643 153.813C72.8514 154.237 72.9555 154.733 72.9555 155.301C72.9555 155.865 72.8514 156.357 72.643 156.778C72.4371 157.2 72.1482 157.528 71.7765 157.762C71.4072 157.996 70.9764 158.114 70.4839 158.114ZM70.4839 157.361C70.858 157.361 71.1657 157.265 71.4072 157.073C71.6487 156.881 71.8274 156.629 71.9434 156.317C72.0595 156.004 72.1175 155.666 72.1175 155.301C72.1175 154.937 72.0595 154.597 71.9434 154.282C71.8274 153.967 71.6487 153.713 71.4072 153.518C71.1657 153.324 70.858 153.227 70.4839 153.227C70.1099 153.227 69.8021 153.324 69.5606 153.518C69.3192 153.713 69.1404 153.967 69.0244 154.282C68.9084 154.597 68.8504 154.937 68.8504 155.301C68.8504 155.666 68.9084 156.004 69.0244 156.317C69.1404 156.629 69.3192 156.881 69.5606 157.073C69.8021 157.265 70.1099 157.361 70.4839 157.361ZM75.0729 154.719V158H74.2348V152.545H75.0445V153.398H75.1155C75.2433 153.121 75.4375 152.898 75.6979 152.73C75.9583 152.56 76.2945 152.474 76.7064 152.474C77.0757 152.474 77.3989 152.55 77.6759 152.702C77.9529 152.851 78.1683 153.078 78.3222 153.384C78.4761 153.687 78.553 154.07 78.553 154.534V158H77.7149V154.591C77.7149 154.162 77.6037 153.829 77.3811 153.589C77.1586 153.348 76.8532 153.227 76.4649 153.227C76.1974 153.227 75.9583 153.285 75.7476 153.401C75.5393 153.517 75.3747 153.687 75.254 153.909C75.1333 154.132 75.0729 154.402 75.0729 154.719ZM82.3003 158.114C81.789 158.114 81.3486 157.993 80.9793 157.751C80.61 157.51 80.3259 157.177 80.127 156.754C79.9282 156.33 79.8287 155.846 79.8287 155.301C79.8287 154.747 79.9305 154.258 80.1341 153.835C80.3401 153.408 80.6266 153.076 80.9935 152.837C81.3628 152.595 81.7937 152.474 82.2861 152.474C82.6697 152.474 83.0153 152.545 83.3231 152.688C83.6308 152.83 83.883 153.028 84.0795 153.284C84.276 153.54 84.3979 153.838 84.4452 154.179H83.6072C83.5432 153.93 83.4012 153.71 83.181 153.518C82.9632 153.324 82.6697 153.227 82.3003 153.227C81.9736 153.227 81.6872 153.312 81.441 153.483C81.1971 153.651 81.0065 153.889 80.8692 154.197C80.7343 154.502 80.6668 154.861 80.6668 155.273C80.6668 155.694 80.7331 156.061 80.8657 156.374C81.0006 156.686 81.19 156.929 81.4339 157.102C81.6801 157.274 81.9689 157.361 82.3003 157.361C82.5181 157.361 82.7158 157.323 82.8934 157.247C83.0709 157.171 83.2213 157.062 83.3444 156.92C83.4675 156.778 83.5551 156.608 83.6072 156.409H84.4452C84.3979 156.731 84.2807 157.021 84.0937 157.279C83.909 157.535 83.664 157.738 83.3586 157.89C83.0555 158.039 82.7028 158.114 82.3003 158.114ZM87.9573 158.114C87.4317 158.114 86.9784 157.998 86.5972 157.766C86.2184 157.531 85.926 157.205 85.7201 156.786C85.5165 156.364 85.4147 155.874 85.4147 155.315C85.4147 154.757 85.5165 154.264 85.7201 153.838C85.926 153.41 86.2125 153.076 86.5795 152.837C86.9488 152.595 87.3796 152.474 87.8721 152.474C88.1562 152.474 88.4367 152.522 88.7137 152.616C88.9907 152.711 89.2428 152.865 89.4701 153.078C89.6974 153.289 89.8785 153.568 90.0134 153.916C90.1483 154.264 90.2158 154.693 90.2158 155.202V155.557H86.0113V154.832H89.3635C89.3635 154.525 89.302 154.25 89.1789 154.009C89.0581 153.767 88.8853 153.576 88.6604 153.437C88.4379 153.297 88.1751 153.227 87.8721 153.227C87.5383 153.227 87.2494 153.31 87.0056 153.476C86.7641 153.639 86.5783 153.852 86.4481 154.115C86.3179 154.378 86.2528 154.66 86.2528 154.96V155.443C86.2528 155.855 86.3238 156.204 86.4658 156.491C86.6102 156.775 86.8103 156.991 87.066 157.141C87.3216 157.287 87.6188 157.361 87.9573 157.361C88.1775 157.361 88.3763 157.33 88.5539 157.268C88.7338 157.205 88.8889 157.11 89.0191 156.984C89.1493 156.857 89.2499 156.698 89.3209 156.509L90.1306 156.736C90.0454 157.01 89.9021 157.252 89.7009 157.46C89.4997 157.666 89.2511 157.827 88.9552 157.943C88.6592 158.057 88.3266 158.114 87.9573 158.114ZM91.4907 158V152.545H92.3003V153.369H92.3572C92.4566 153.099 92.6365 152.88 92.8969 152.712C93.1573 152.544 93.4509 152.46 93.7776 152.46C93.8392 152.46 93.9161 152.461 94.0084 152.464C94.1008 152.466 94.1706 152.47 94.218 152.474V153.327C94.1895 153.32 94.1244 153.309 94.0226 153.295C93.9232 153.278 93.8179 153.27 93.7066 153.27C93.4414 153.27 93.2047 153.326 92.9964 153.437C92.7904 153.546 92.627 153.697 92.5063 153.891C92.3879 154.083 92.3287 154.302 92.3287 154.548V158H91.4907ZM96.0494 154.719V158H95.2114V152.545H96.021V153.398H96.0921C96.2199 153.121 96.414 152.898 96.6744 152.73C96.9349 152.56 97.271 152.474 97.683 152.474C98.0523 152.474 98.3754 152.55 98.6524 152.702C98.9294 152.851 99.1449 153.078 99.2987 153.384C99.4526 153.687 99.5296 154.07 99.5296 154.534V158H98.6915V154.591C98.6915 154.162 98.5802 153.829 98.3577 153.589C98.1352 153.348 97.8298 153.227 97.4415 153.227C97.174 153.227 96.9349 153.285 96.7242 153.401C96.5158 153.517 96.3513 153.687 96.2306 153.909C96.1098 154.132 96.0494 154.402 96.0494 154.719ZM104.925 153.767L104.172 153.98C104.124 153.855 104.055 153.733 103.962 153.614C103.872 153.494 103.749 153.394 103.593 153.316C103.437 153.238 103.237 153.199 102.993 153.199C102.659 153.199 102.381 153.276 102.158 153.43C101.938 153.581 101.828 153.774 101.828 154.009C101.828 154.217 101.904 154.381 102.055 154.502C102.207 154.623 102.444 154.723 102.766 154.804L103.575 155.003C104.063 155.121 104.426 155.302 104.665 155.546C104.905 155.788 105.024 156.099 105.024 156.48C105.024 156.793 104.934 157.072 104.754 157.318C104.577 157.564 104.328 157.759 104.008 157.901C103.689 158.043 103.317 158.114 102.893 158.114C102.337 158.114 101.877 157.993 101.512 157.751C101.147 157.51 100.917 157.157 100.82 156.693L101.615 156.494C101.691 156.788 101.834 157.008 102.045 157.155C102.258 157.302 102.536 157.375 102.879 157.375C103.27 157.375 103.58 157.292 103.81 157.126C104.042 156.958 104.158 156.757 104.158 156.523C104.158 156.333 104.091 156.175 103.959 156.047C103.826 155.917 103.623 155.82 103.348 155.756L102.439 155.543C101.939 155.424 101.572 155.241 101.338 154.992C101.106 154.741 100.99 154.428 100.99 154.051C100.99 153.743 101.076 153.471 101.249 153.234C101.424 152.998 101.662 152.812 101.963 152.677C102.266 152.542 102.609 152.474 102.993 152.474C103.533 152.474 103.956 152.593 104.264 152.83C104.574 153.066 104.794 153.379 104.925 153.767ZM106.896 158.057C106.721 158.057 106.571 157.994 106.445 157.869C106.32 157.743 106.257 157.593 106.257 157.418C106.257 157.242 106.32 157.092 106.445 156.967C106.571 156.841 106.721 156.778 106.896 156.778C107.072 156.778 107.222 156.841 107.347 156.967C107.473 157.092 107.536 157.242 107.536 157.418C107.536 157.534 107.506 157.64 107.447 157.737C107.39 157.834 107.313 157.912 107.216 157.972C107.121 158.028 107.015 158.057 106.896 158.057Z" fill="black"/>
<defs>
<linearGradient id="paint0_linear_1_863" x1="42.6154" y1="27.3461" x2="92.4616" y2="25.2692" gradientUnits="userSpaceOnUse">
<stop stop-color="#3FF3FF"/>
<stop offset="1" stop-color="#00ABBB"/>
</linearGradient>
<linearGradient id="paint1_linear_1_863" x1="49.625" y1="115.5" x2="90.875" y2="115.5" gradientUnits="userSpaceOnUse">
<stop stop-color="#3FF3FF"/>
<stop offset="1" stop-color="#00ABBB"/>
</linearGradient>
<clipPath id="clip0_1_863">
<rect width="45" height="45" fill="white" transform="translate(44 93)"/>
</clipPath>
</defs>
</svg>
