<svg width="123" height="70" viewBox="0 0 123 70" fill="none" xmlns="http://www.w3.org/2000/svg">
<path d="M6.96831 50H6.08762C6.03554 49.7467 5.9444 49.5241 5.81419 49.3324C5.68635 49.1406 5.5301 48.9796 5.34544 48.8494C5.16315 48.7169 4.96073 48.6174 4.73819 48.5511C4.51565 48.4848 4.28365 48.4517 4.04217 48.4517C3.60183 48.4517 3.20292 48.563 2.84544 48.7855C2.49032 49.008 2.20742 49.3359 1.99672 49.7692C1.78838 50.2024 1.68422 50.7339 1.68422 51.3636C1.68422 51.9934 1.78838 52.5249 1.99672 52.9581C2.20742 53.3913 2.49032 53.7192 2.84544 53.9418C3.20292 54.1643 3.60183 54.2756 4.04217 54.2756C4.28365 54.2756 4.51565 54.2424 4.73819 54.1761C4.96073 54.1098 5.16315 54.0116 5.34544 53.8814C5.5301 53.7488 5.68635 53.5866 5.81419 53.3949C5.9444 53.2008 6.03554 52.9782 6.08762 52.7273H6.96831C6.90202 53.099 6.78128 53.4316 6.60609 53.7251C6.4309 54.0187 6.2131 54.2685 5.95268 54.4744C5.69226 54.678 5.39989 54.8331 5.07555 54.9396C4.75358 55.0462 4.40912 55.0994 4.04217 55.0994C3.4219 55.0994 2.87029 54.9479 2.38734 54.6449C1.90439 54.3419 1.52441 53.911 1.24743 53.3523C0.970437 52.7936 0.831942 52.1307 0.831942 51.3636C0.831942 50.5966 0.970437 49.9337 1.24743 49.375C1.52441 48.8163 1.90439 48.3854 2.38734 48.0824C2.87029 47.7794 3.4219 47.6278 4.04217 47.6278C4.40912 47.6278 4.75358 47.6811 5.07555 47.7876C5.39989 47.8942 5.69226 48.0504 5.95268 48.2564C6.2131 48.46 6.4309 48.7086 6.60609 49.0021C6.78128 49.2933 6.90202 49.6259 6.96831 50ZM10.5647 55.1136C10.0392 55.1136 9.58579 54.9976 9.20463 54.7656C8.82585 54.5312 8.53347 54.2045 8.3275 53.7855C8.12391 53.3641 8.02211 52.8741 8.02211 52.3153C8.02211 51.7566 8.12391 51.2642 8.3275 50.8381C8.53347 50.4096 8.81993 50.0758 9.18688 49.8366C9.5562 49.5952 9.98707 49.4744 10.4795 49.4744C10.7636 49.4744 11.0441 49.5218 11.3211 49.6165C11.5981 49.7112 11.8502 49.8651 12.0775 50.0781C12.3048 50.2888 12.4859 50.5682 12.6208 50.9162C12.7558 51.2642 12.8232 51.6927 12.8232 52.2017V52.5568H8.6187V51.8324H11.971C11.971 51.5246 11.9094 51.25 11.7863 51.0085C11.6656 50.767 11.4927 50.5765 11.2678 50.4368C11.0453 50.2971 10.7825 50.2273 10.4795 50.2273C10.1457 50.2273 9.85686 50.3101 9.61301 50.4759C9.37154 50.6392 9.18569 50.8523 9.05549 51.1151C8.92528 51.3778 8.86017 51.6596 8.86017 51.9602V52.4432C8.86017 52.8551 8.9312 53.2043 9.07324 53.4908C9.21766 53.7749 9.4177 53.9915 9.67338 54.1406C9.92907 54.2874 10.2262 54.3608 10.5647 54.3608C10.7849 54.3608 10.9838 54.33 11.1613 54.2685C11.3412 54.2045 11.4963 54.1098 11.6265 53.9844C11.7567 53.8565 11.8573 53.6979 11.9284 53.5085L12.738 53.7358C12.6528 54.0104 12.5096 54.2519 12.3083 54.4602C12.1071 54.6662 11.8585 54.8272 11.5626 54.9432C11.2667 55.0568 10.934 55.1136 10.5647 55.1136ZM14.9362 51.7188V55H14.0981V49.5455H14.9078V50.3977H14.9788C15.1066 50.1207 15.3008 49.8982 15.5612 49.7301C15.8216 49.5597 16.1578 49.4744 16.5697 49.4744C16.939 49.4744 17.2622 49.5502 17.5392 49.7017C17.8161 49.8509 18.0316 50.0781 18.1855 50.3835C18.3393 50.6866 18.4163 51.0701 18.4163 51.5341V55H17.5782V51.5909C17.5782 51.1624 17.4669 50.8286 17.2444 50.5895C17.0219 50.348 16.7165 50.2273 16.3282 50.2273C16.0607 50.2273 15.8216 50.2853 15.6109 50.4013C15.4026 50.5173 15.238 50.6866 15.1173 50.9091C14.9965 51.1316 14.9362 51.4015 14.9362 51.7188ZM22.3199 49.5455V50.2557H19.4932V49.5455H22.3199ZM20.317 48.2386H21.1551V53.4375C21.1551 53.6742 21.1894 53.8518 21.2581 53.9702C21.3291 54.0862 21.4191 54.1643 21.528 54.2045C21.6392 54.2424 21.7564 54.2614 21.8795 54.2614C21.9719 54.2614 22.0476 54.2566 22.1068 54.2472C22.166 54.2353 22.2133 54.2259 22.2488 54.2188L22.4193 54.9716C22.3625 54.9929 22.2832 55.0142 22.1814 55.0355C22.0796 55.0592 21.9506 55.071 21.7943 55.071C21.5576 55.071 21.3256 55.0201 21.0983 54.9183C20.8734 54.8165 20.6863 54.6615 20.5372 54.4531C20.3904 54.2448 20.317 53.982 20.317 53.6648V48.2386ZM23.5805 55V49.5455H24.3902V50.3693H24.447C24.5464 50.0994 24.7264 49.8804 24.9868 49.7124C25.2472 49.5443 25.5407 49.4602 25.8675 49.4602C25.929 49.4602 26.0059 49.4614 26.0983 49.4638C26.1906 49.4661 26.2604 49.4697 26.3078 49.4744V50.3267C26.2794 50.3196 26.2143 50.3089 26.1125 50.2947C26.0131 50.2782 25.9077 50.2699 25.7964 50.2699C25.5313 50.2699 25.2945 50.3255 25.0862 50.4368C24.8802 50.5457 24.7169 50.6972 24.5961 50.8913C24.4778 51.0831 24.4186 51.3021 24.4186 51.5483V55H23.5805ZM28.9063 55.1278C28.5607 55.1278 28.247 55.0627 27.9653 54.9325C27.6836 54.8 27.4598 54.6094 27.2941 54.3608C27.1284 54.1098 27.0455 53.8068 27.0455 53.4517C27.0455 53.1392 27.1071 52.8859 27.2302 52.6918C27.3533 52.4953 27.5178 52.3414 27.7238 52.2301C27.9298 52.1188 28.157 52.036 28.4056 51.9815C28.6566 51.9247 28.9087 51.8797 29.162 51.8466C29.4935 51.804 29.7622 51.772 29.9681 51.7507C30.1765 51.727 30.328 51.688 30.4227 51.6335C30.5197 51.5791 30.5683 51.4844 30.5683 51.3494V51.321C30.5683 50.9706 30.4724 50.6984 30.2806 50.5043C30.0912 50.3101 29.8036 50.2131 29.4177 50.2131C29.0176 50.2131 28.7039 50.3007 28.4767 50.4759C28.2494 50.651 28.0896 50.8381 27.9972 51.0369L27.2018 50.7528C27.3438 50.4214 27.5332 50.1634 27.77 49.9787C28.0091 49.7917 28.2695 49.6615 28.5512 49.5881C28.8353 49.5123 29.1147 49.4744 29.3893 49.4744C29.5645 49.4744 29.7657 49.4957 29.993 49.5384C30.2226 49.5786 30.444 49.6626 30.657 49.7905C30.8725 49.9183 31.0512 50.1113 31.1933 50.3693C31.3353 50.6274 31.4063 50.973 31.4063 51.4062V55H30.5683V54.2614H30.5257C30.4688 54.3797 30.3741 54.5064 30.2416 54.6413C30.109 54.7763 29.9326 54.8911 29.7124 54.9858C29.4923 55.0805 29.2236 55.1278 28.9063 55.1278ZM29.0342 54.375C29.3656 54.375 29.645 54.3099 29.8722 54.1797C30.1019 54.0495 30.2747 53.8814 30.3907 53.6754C30.5091 53.4695 30.5683 53.2528 30.5683 53.0256V52.2585C30.5328 52.3011 30.4546 52.3402 30.3339 52.3757C30.2155 52.4089 30.0782 52.4384 29.922 52.4645C29.7681 52.4882 29.6177 52.5095 29.471 52.5284C29.3266 52.545 29.2094 52.5592 29.1194 52.571C28.9016 52.5994 28.698 52.6456 28.5086 52.7095C28.3216 52.7711 28.1701 52.8646 28.0541 52.9901C27.9404 53.1132 27.8836 53.2812 27.8836 53.4943C27.8836 53.7855 27.9913 54.0057 28.2068 54.1548C28.4246 54.3016 28.7004 54.375 29.0342 54.375ZM33.7741 47.7273V55H32.936V47.7273H33.7741ZM35.309 55V49.5455H36.1471V55H35.309ZM35.7352 48.6364C35.5718 48.6364 35.431 48.5807 35.3126 48.4695C35.1966 48.3582 35.1386 48.2244 35.1386 48.0682C35.1386 47.9119 35.1966 47.7782 35.3126 47.6669C35.431 47.5556 35.5718 47.5 35.7352 47.5C35.8985 47.5 36.0382 47.5556 36.1542 47.6669C36.2726 47.7782 36.3318 47.9119 36.3318 48.0682C36.3318 48.2244 36.2726 48.3582 36.1542 48.4695C36.0382 48.5807 35.8985 48.6364 35.7352 48.6364ZM37.5258 55V54.3608L40.6224 50.3835V50.3267H37.6253V49.5455H41.702V50.2131L38.6906 54.1619V54.2188H41.8014V55H37.5258ZM45.2229 55.1136C44.6974 55.1136 44.244 54.9976 43.8628 54.7656C43.484 54.5312 43.1917 54.2045 42.9857 53.7855C42.7821 53.3641 42.6803 52.8741 42.6803 52.3153C42.6803 51.7566 42.7821 51.2642 42.9857 50.8381C43.1917 50.4096 43.4781 50.0758 43.8451 49.8366C44.2144 49.5952 44.6453 49.4744 45.1377 49.4744C45.4218 49.4744 45.7023 49.5218 45.9793 49.6165C46.2563 49.7112 46.5084 49.8651 46.7357 50.0781C46.963 50.2888 47.1441 50.5682 47.279 50.9162C47.414 51.2642 47.4814 51.6927 47.4814 52.2017V52.5568H43.2769V51.8324H46.6292C46.6292 51.5246 46.5676 51.25 46.4445 51.0085C46.3238 50.767 46.151 50.5765 45.926 50.4368C45.7035 50.2971 45.4407 50.2273 45.1377 50.2273C44.8039 50.2273 44.5151 50.3101 44.2712 50.4759C44.0297 50.6392 43.8439 50.8523 43.7137 51.1151C43.5835 51.3778 43.5184 51.6596 43.5184 51.9602V52.4432C43.5184 52.8551 43.5894 53.2043 43.7314 53.4908C43.8759 53.7749 44.0759 53.9915 44.3316 54.1406C44.5873 54.2874 44.8844 54.3608 45.2229 54.3608C45.4431 54.3608 45.642 54.33 45.8195 54.2685C45.9994 54.2045 46.1545 54.1098 46.2847 53.9844C46.4149 53.8565 46.5155 53.6979 46.5866 53.5085L47.3962 53.7358C47.311 54.0104 47.1678 54.2519 46.9665 54.4602C46.7653 54.6662 46.5167 54.8272 46.2208 54.9432C45.9249 55.0568 45.5922 55.1136 45.2229 55.1136ZM50.816 55.1136C50.3614 55.1136 49.9601 54.9988 49.6121 54.7692C49.2641 54.5372 48.9919 54.2105 48.7954 53.7891C48.5989 53.3653 48.5006 52.8646 48.5006 52.2869C48.5006 51.714 48.5989 51.2169 48.7954 50.7955C48.9919 50.3741 49.2653 50.0485 49.6157 49.8189C49.9661 49.5893 50.3709 49.4744 50.8302 49.4744C51.1853 49.4744 51.4658 49.5336 51.6718 49.652C51.8801 49.768 52.0387 49.9006 52.1476 50.0497C52.2589 50.1965 52.3453 50.3172 52.4069 50.4119H52.4779V47.7273H53.316V55H52.5063V54.1619H52.4069C52.3453 54.2614 52.2577 54.3868 52.1441 54.5384C52.0305 54.6875 51.8683 54.8213 51.6576 54.9396C51.4469 55.0556 51.1663 55.1136 50.816 55.1136ZM50.9296 54.3608C51.2658 54.3608 51.5499 54.2732 51.7819 54.098C52.0139 53.9205 52.1903 53.6754 52.311 53.3629C52.4317 53.0481 52.4921 52.6847 52.4921 52.2727C52.4921 51.8655 52.4329 51.5092 52.3145 51.2038C52.1962 50.8961 52.021 50.657 51.789 50.4865C51.557 50.3137 51.2705 50.2273 50.9296 50.2273C50.5745 50.2273 50.2786 50.3184 50.0418 50.5007C49.8074 50.6806 49.6311 50.9257 49.5127 51.2358C49.3967 51.5436 49.3387 51.8892 49.3387 52.2727C49.3387 52.661 49.3979 53.0137 49.5162 53.331C49.637 53.6458 49.8145 53.8968 50.0489 54.0838C50.2857 54.2685 50.5792 54.3608 50.9296 54.3608ZM57.7797 57.0455V49.5455H58.5894V50.4119H58.6888C58.7504 50.3172 58.8356 50.1965 58.9445 50.0497C59.0558 49.9006 59.2144 49.768 59.4204 49.652C59.6287 49.5336 59.9104 49.4744 60.2655 49.4744C60.7248 49.4744 61.1296 49.5893 61.48 49.8189C61.8304 50.0485 62.1038 50.3741 62.3003 50.7955C62.4968 51.2169 62.5951 51.714 62.5951 52.2869C62.5951 52.8646 62.4968 53.3653 62.3003 53.7891C62.1038 54.2105 61.8316 54.5372 61.4836 54.7692C61.1356 54.9988 60.7343 55.1136 60.2797 55.1136C59.9294 55.1136 59.6488 55.0556 59.4381 54.9396C59.2274 54.8213 59.0653 54.6875 58.9516 54.5384C58.838 54.3868 58.7504 54.2614 58.6888 54.1619H58.6178V57.0455H57.7797ZM58.6036 52.2727C58.6036 52.6847 58.664 53.0481 58.7847 53.3629C58.9055 53.6754 59.0818 53.9205 59.3138 54.098C59.5458 54.2732 59.8299 54.3608 60.1661 54.3608C60.5165 54.3608 60.8089 54.2685 61.0432 54.0838C61.28 53.8968 61.4575 53.6458 61.5759 53.331C61.6966 53.0137 61.757 52.661 61.757 52.2727C61.757 51.8892 61.6978 51.5436 61.5795 51.2358C61.4635 50.9257 61.2871 50.6806 61.0503 50.5007C60.816 50.3184 60.5212 50.2273 60.1661 50.2273C59.8252 50.2273 59.5387 50.3137 59.3067 50.4865C59.0747 50.657 58.8995 50.8961 58.7812 51.2038C58.6628 51.5092 58.6036 51.8655 58.6036 52.2727ZM63.8735 55V49.5455H64.6831V50.3693H64.74C64.8394 50.0994 65.0193 49.8804 65.2797 49.7124C65.5402 49.5443 65.8337 49.4602 66.1604 49.4602C66.222 49.4602 66.2989 49.4614 66.3912 49.4638C66.4836 49.4661 66.5534 49.4697 66.6008 49.4744V50.3267C66.5724 50.3196 66.5073 50.3089 66.4055 50.2947C66.306 50.2782 66.2007 50.2699 66.0894 50.2699C65.8242 50.2699 65.5875 50.3255 65.3792 50.4368C65.1732 50.5457 65.0099 50.6972 64.8891 50.8913C64.7707 51.0831 64.7116 51.3021 64.7116 51.5483V55H63.8735ZM67.5942 55V49.5455H68.4323V55H67.5942ZM68.0203 48.6364C67.857 48.6364 67.7161 48.5807 67.5977 48.4695C67.4817 48.3582 67.4237 48.2244 67.4237 48.0682C67.4237 47.9119 67.4817 47.7782 67.5977 47.6669C67.7161 47.5556 67.857 47.5 68.0203 47.5C68.1837 47.5 68.3234 47.5556 68.4394 47.6669C68.5577 47.7782 68.6169 47.9119 68.6169 48.0682C68.6169 48.2244 68.5577 48.3582 68.4394 48.4695C68.3234 48.5807 68.1837 48.6364 68.0203 48.6364ZM70.8053 51.7188V55H69.9672V49.5455H70.7769V50.3977H70.8479C70.9758 50.1207 71.1699 49.8982 71.4303 49.7301C71.6907 49.5597 72.0269 49.4744 72.4388 49.4744C72.8081 49.4744 73.1313 49.5502 73.4083 49.7017C73.6853 49.8509 73.9007 50.0781 74.0546 50.3835C74.2085 50.6866 74.2854 51.0701 74.2854 51.5341V55H73.4474V51.5909C73.4474 51.1624 73.3361 50.8286 73.1135 50.5895C72.891 50.348 72.5856 50.2273 72.1974 50.2273C71.9298 50.2273 71.6907 50.2853 71.48 50.4013C71.2717 50.5173 71.1072 50.6866 70.9864 50.9091C70.8657 51.1316 70.8053 51.4015 70.8053 51.7188ZM78.189 49.5455V50.2557H75.3623V49.5455H78.189ZM76.1862 48.2386H77.0242V53.4375C77.0242 53.6742 77.0586 53.8518 77.1272 53.9702C77.1982 54.0862 77.2882 54.1643 77.3971 54.2045C77.5084 54.2424 77.6256 54.2614 77.7487 54.2614C77.841 54.2614 77.9168 54.2566 77.9759 54.2472C78.0351 54.2353 78.0825 54.2259 78.118 54.2188L78.2884 54.9716C78.2316 54.9929 78.1523 55.0142 78.0505 55.0355C77.9487 55.0592 77.8197 55.071 77.6634 55.071C77.4267 55.071 77.1947 55.0201 76.9674 54.9183C76.7425 54.8165 76.5555 54.6615 76.4063 54.4531C76.2596 54.2448 76.1862 53.982 76.1862 53.6648V48.2386ZM79.4497 55V49.5455H80.2877V55H79.4497ZM79.8758 48.6364C79.7124 48.6364 79.5716 48.5807 79.4532 48.4695C79.3372 48.3582 79.2792 48.2244 79.2792 48.0682C79.2792 47.9119 79.3372 47.7782 79.4532 47.6669C79.5716 47.5556 79.7124 47.5 79.8758 47.5C80.0392 47.5 80.1788 47.5556 80.2948 47.6669C80.4132 47.7782 80.4724 47.9119 80.4724 48.0682C80.4724 48.2244 80.4132 48.3582 80.2948 48.4695C80.1788 48.5807 80.0392 48.6364 79.8758 48.6364ZM82.6608 51.7188V55H81.8227V49.5455H82.6324V50.3977H82.7034C82.8312 50.1207 83.0254 49.8982 83.2858 49.7301C83.5462 49.5597 83.8824 49.4744 84.2943 49.4744C84.6636 49.4744 84.9868 49.5502 85.2638 49.7017C85.5407 49.8509 85.7562 50.0781 85.9101 50.3835C86.064 50.6866 86.1409 51.0701 86.1409 51.5341V55H85.3028V51.5909C85.3028 51.1624 85.1916 50.8286 84.969 50.5895C84.7465 50.348 84.4411 50.2273 84.0528 50.2273C83.7853 50.2273 83.5462 50.2853 83.3355 50.4013C83.1272 50.5173 82.9626 50.6866 82.8419 50.9091C82.7211 51.1316 82.6608 51.4015 82.6608 51.7188ZM89.874 57.1591C89.4692 57.1591 89.1212 57.107 88.83 57.0028C88.5388 56.901 88.2961 56.7661 88.102 56.598C87.9102 56.4323 87.7575 56.2547 87.6439 56.0653L88.3115 55.5966C88.3873 55.696 88.4832 55.8097 88.5992 55.9375C88.7152 56.0677 88.8738 56.1802 89.075 56.2749C89.2786 56.3719 89.545 56.4205 89.874 56.4205C90.3144 56.4205 90.6778 56.3139 90.9642 56.1009C91.2507 55.8878 91.3939 55.554 91.3939 55.0994V53.9915H91.3229C91.2613 54.0909 91.1737 54.214 91.0601 54.3608C90.9488 54.5052 90.7878 54.6342 90.5771 54.7479C90.3688 54.8591 90.0871 54.9148 89.732 54.9148C89.2916 54.9148 88.8963 54.8106 88.5459 54.6023C88.1979 54.3939 87.9221 54.0909 87.7185 53.6932C87.5173 53.2955 87.4166 52.8125 87.4166 52.2443C87.4166 51.6856 87.5149 51.1991 87.7114 50.7848C87.9079 50.3681 88.1813 50.0462 88.5317 49.8189C88.8821 49.5893 89.2869 49.4744 89.7462 49.4744C90.1013 49.4744 90.383 49.5336 90.5914 49.652C90.8021 49.768 90.963 49.9006 91.0743 50.0497C91.1879 50.1965 91.2755 50.3172 91.3371 50.4119H91.4223V49.5455H92.232V55.1562C92.232 55.625 92.1254 56.0062 91.9124 56.2997C91.7017 56.5956 91.4176 56.8123 91.0601 56.9496C90.705 57.0893 90.3096 57.1591 89.874 57.1591ZM89.8456 54.1619C90.1818 54.1619 90.4659 54.085 90.6979 53.9311C90.9299 53.7772 91.1063 53.5559 91.227 53.267C91.3477 52.9782 91.4081 52.6326 91.4081 52.2301C91.4081 51.8371 91.3489 51.4903 91.2306 51.1896C91.1122 50.889 90.937 50.6534 90.705 50.483C90.473 50.3125 90.1865 50.2273 89.8456 50.2273C89.4905 50.2273 89.1946 50.3172 88.9578 50.4972C88.7235 50.6771 88.5471 50.9186 88.4287 51.2216C88.3127 51.5246 88.2547 51.8608 88.2547 52.2301C88.2547 52.6089 88.3139 52.9439 88.4323 53.2351C88.553 53.5239 88.7306 53.7512 88.9649 53.9169C89.2017 54.0803 89.4952 54.1619 89.8456 54.1619ZM100.442 50.767L99.6894 50.9801C99.642 50.8546 99.5722 50.7327 99.4798 50.6143C99.3899 50.4936 99.2668 50.3942 99.1105 50.3161C98.9543 50.2379 98.7542 50.1989 98.5104 50.1989C98.1766 50.1989 97.8984 50.2758 97.6759 50.4297C97.4557 50.5812 97.3456 50.7741 97.3456 51.0085C97.3456 51.2169 97.4214 51.3814 97.5729 51.5021C97.7244 51.6229 97.9611 51.7235 98.2831 51.804L99.0928 52.0028C99.5805 52.1212 99.9439 52.3023 100.183 52.5462C100.422 52.7876 100.542 53.099 100.542 53.4801C100.542 53.7926 100.452 54.072 100.272 54.3182C100.094 54.5644 99.8456 54.7585 99.526 54.9006C99.2064 55.0426 98.8347 55.1136 98.411 55.1136C97.8546 55.1136 97.3941 54.9929 97.0296 54.7514C96.665 54.5099 96.4342 54.1572 96.3371 53.6932L97.1325 53.4943C97.2083 53.7879 97.3515 54.008 97.5622 54.1548C97.7753 54.3016 98.0535 54.375 98.3968 54.375C98.7874 54.375 99.0975 54.2921 99.3271 54.1264C99.5592 53.9583 99.6752 53.7571 99.6752 53.5227C99.6752 53.3333 99.6089 53.1747 99.4763 53.0469C99.3437 52.9167 99.1401 52.8196 98.8655 52.7557L97.9564 52.5426C97.4569 52.4242 97.0899 52.2408 96.8556 51.9922C96.6235 51.7412 96.5075 51.4276 96.5075 51.0511C96.5075 50.7434 96.594 50.4711 96.7668 50.2344C96.942 49.9976 97.1799 49.8118 97.4806 49.6768C97.7836 49.5419 98.1269 49.4744 98.5104 49.4744C99.0502 49.4744 99.4739 49.5928 99.7817 49.8295C100.092 50.0663 100.312 50.3788 100.442 50.767ZM104.175 49.5455V50.2557H101.349V49.5455H104.175ZM102.172 48.2386H103.011V53.4375C103.011 53.6742 103.045 53.8518 103.114 53.9702C103.185 54.0862 103.275 54.1643 103.383 54.2045C103.495 54.2424 103.612 54.2614 103.735 54.2614C103.827 54.2614 103.903 54.2566 103.962 54.2472C104.021 54.2353 104.069 54.2259 104.104 54.2188L104.275 54.9716C104.218 54.9929 104.139 55.0142 104.037 55.0355C103.935 55.0592 103.806 55.071 103.65 55.071C103.413 55.071 103.181 55.0201 102.954 54.9183C102.729 54.8165 102.542 54.6615 102.393 54.4531C102.246 54.2448 102.172 53.982 102.172 53.6648V48.2386ZM107.593 55.1136C107.101 55.1136 106.669 54.9964 106.297 54.7621C105.928 54.5277 105.639 54.1998 105.431 53.7784C105.225 53.357 105.122 52.8646 105.122 52.3011C105.122 51.733 105.225 51.237 105.431 50.8132C105.639 50.3894 105.928 50.0604 106.297 49.826C106.669 49.5916 107.101 49.4744 107.593 49.4744C108.086 49.4744 108.517 49.5916 108.886 49.826C109.258 50.0604 109.546 50.3894 109.752 50.8132C109.961 51.237 110.065 51.733 110.065 52.3011C110.065 52.8646 109.961 53.357 109.752 53.7784C109.546 54.1998 109.258 54.5277 108.886 54.7621C108.517 54.9964 108.086 55.1136 107.593 55.1136ZM107.593 54.3608C107.967 54.3608 108.275 54.2649 108.517 54.0732C108.758 53.8814 108.937 53.6293 109.053 53.3168C109.169 53.0043 109.227 52.6657 109.227 52.3011C109.227 51.9366 109.169 51.5968 109.053 51.282C108.937 50.9671 108.758 50.7126 108.517 50.5185C108.275 50.3243 107.967 50.2273 107.593 50.2273C107.219 50.2273 106.911 50.3243 106.67 50.5185C106.429 50.7126 106.25 50.9671 106.134 51.282C106.018 51.5968 105.96 51.9366 105.96 52.3011C105.96 52.6657 106.018 53.0043 106.134 53.3168C106.25 53.6293 106.429 53.8814 106.67 54.0732C106.911 54.2649 107.219 54.3608 107.593 54.3608ZM111.344 55V49.5455H112.154V50.3693H112.211C112.31 50.0994 112.49 49.8804 112.75 49.7124C113.011 49.5443 113.304 49.4602 113.631 49.4602C113.693 49.4602 113.77 49.4614 113.862 49.4638C113.954 49.4661 114.024 49.4697 114.071 49.4744V50.3267C114.043 50.3196 113.978 50.3089 113.876 50.2947C113.777 50.2782 113.671 50.2699 113.56 50.2699C113.295 50.2699 113.058 50.3255 112.85 50.4368C112.644 50.5457 112.481 50.6972 112.36 50.8913C112.241 51.0831 112.182 51.3021 112.182 51.5483V55H111.344ZM117.186 55.1136C116.66 55.1136 116.207 54.9976 115.826 54.7656C115.447 54.5312 115.155 54.2045 114.949 53.7855C114.745 53.3641 114.643 52.8741 114.643 52.3153C114.643 51.7566 114.745 51.2642 114.949 50.8381C115.155 50.4096 115.441 50.0758 115.808 49.8366C116.177 49.5952 116.608 49.4744 117.101 49.4744C117.385 49.4744 117.665 49.5218 117.942 49.6165C118.219 49.7112 118.471 49.8651 118.699 50.0781C118.926 50.2888 119.107 50.5682 119.242 50.9162C119.377 51.2642 119.444 51.6927 119.444 52.2017V52.5568H115.24V51.8324H118.592C118.592 51.5246 118.531 51.25 118.407 51.0085C118.287 50.767 118.114 50.5765 117.889 50.4368C117.666 50.2971 117.404 50.2273 117.101 50.2273C116.767 50.2273 116.478 50.3101 116.234 50.4759C115.993 50.6392 115.807 50.8523 115.677 51.1151C115.546 51.3778 115.481 51.6596 115.481 51.9602V52.4432C115.481 52.8551 115.552 53.2043 115.694 53.4908C115.839 53.7749 116.039 53.9915 116.294 54.1406C116.55 54.2874 116.847 54.3608 117.186 54.3608C117.406 54.3608 117.605 54.33 117.782 54.2685C117.962 54.2045 118.117 54.1098 118.248 53.9844C118.378 53.8565 118.478 53.6979 118.549 53.5085L119.359 53.7358C119.274 54.0104 119.131 54.2519 118.929 54.4602C118.728 54.6662 118.48 54.8272 118.184 54.9432C117.888 55.0568 117.555 55.1136 117.186 55.1136ZM15.7134 67.1136C15.2021 67.1136 14.7617 66.9929 14.3924 66.7514C14.0231 66.5099 13.739 66.1773 13.5401 65.7536C13.3413 65.3298 13.2418 64.8456 13.2418 64.3011C13.2418 63.7472 13.3436 63.2583 13.5472 62.8345C13.7532 62.4084 14.0397 62.0758 14.4066 61.8366C14.7759 61.5952 15.2068 61.4744 15.6992 61.4744C16.0827 61.4744 16.4284 61.5455 16.7362 61.6875C17.0439 61.8295 17.296 62.0284 17.4925 62.2841C17.689 62.5398 17.811 62.8381 17.8583 63.179H17.0202C16.9563 62.9304 16.8143 62.7102 16.5941 62.5185C16.3763 62.3243 16.0827 62.2273 15.7134 62.2273C15.3867 62.2273 15.1003 62.3125 14.854 62.483C14.6102 62.651 14.4196 62.889 14.2823 63.1967C14.1474 63.5021 14.0799 63.8608 14.0799 64.2727C14.0799 64.6941 14.1462 65.0611 14.2788 65.3736C14.4137 65.6861 14.6031 65.9287 14.8469 66.1016C15.0932 66.2744 15.382 66.3608 15.7134 66.3608C15.9312 66.3608 16.1289 66.3229 16.3065 66.2472C16.484 66.1714 16.6344 66.0625 16.7575 65.9205C16.8806 65.7784 16.9682 65.608 17.0202 65.4091H17.8583C17.811 65.7311 17.6938 66.0211 17.5067 66.2791C17.3221 66.5348 17.0771 66.7384 16.7717 66.8899C16.4686 67.0391 16.1159 67.1136 15.7134 67.1136ZM21.2994 67.1136C20.8069 67.1136 20.3749 66.9964 20.0032 66.7621C19.6339 66.5277 19.3451 66.1998 19.1367 65.7784C18.9308 65.357 18.8278 64.8646 18.8278 64.3011C18.8278 63.733 18.9308 63.237 19.1367 62.8132C19.3451 62.3894 19.6339 62.0604 20.0032 61.826C20.3749 61.5916 20.8069 61.4744 21.2994 61.4744C21.7918 61.4744 22.2227 61.5916 22.592 61.826C22.9637 62.0604 23.2525 62.3894 23.4585 62.8132C23.6668 63.237 23.771 63.733 23.771 64.3011C23.771 64.8646 23.6668 65.357 23.4585 65.7784C23.2525 66.1998 22.9637 66.5277 22.592 66.7621C22.2227 66.9964 21.7918 67.1136 21.2994 67.1136ZM21.2994 66.3608C21.6734 66.3608 21.9812 66.2649 22.2227 66.0732C22.4641 65.8814 22.6429 65.6293 22.7589 65.3168C22.8749 65.0043 22.9329 64.6657 22.9329 64.3011C22.9329 63.9366 22.8749 63.5968 22.7589 63.282C22.6429 62.9671 22.4641 62.7126 22.2227 62.5185C21.9812 62.3243 21.6734 62.2273 21.2994 62.2273C20.9253 62.2273 20.6175 62.3243 20.3761 62.5185C20.1346 62.7126 19.9558 62.9671 19.8398 63.282C19.7238 63.5968 19.6658 63.9366 19.6658 64.3011C19.6658 64.6657 19.7238 65.0043 19.8398 65.3168C19.9558 65.6293 20.1346 65.8814 20.3761 66.0732C20.6175 66.2649 20.9253 66.3608 21.2994 66.3608ZM25.8883 63.7188V67H25.0502V61.5455H25.8599V62.3977H25.9309C26.0588 62.1207 26.2529 61.8982 26.5133 61.7301C26.7737 61.5597 27.1099 61.4744 27.5218 61.4744C27.8912 61.4744 28.2143 61.5502 28.4913 61.7017C28.7683 61.8509 28.9837 62.0781 29.1376 62.3835C29.2915 62.6866 29.3684 63.0701 29.3684 63.5341V67H28.5304V63.5909C28.5304 63.1624 28.4191 62.8286 28.1966 62.5895C27.974 62.348 27.6686 62.2273 27.2804 62.2273C27.0128 62.2273 26.7737 62.2853 26.563 62.4013C26.3547 62.5173 26.1902 62.6866 26.0694 62.9091C25.9487 63.1316 25.8883 63.4015 25.8883 63.7188ZM31.7379 63.7188V67H30.8999V61.5455H31.7095V62.3977H31.7805C31.9084 62.1207 32.1025 61.8982 32.3629 61.7301C32.6233 61.5597 32.9595 61.4744 33.3714 61.4744C33.7408 61.4744 34.0639 61.5502 34.3409 61.7017C34.6179 61.8509 34.8333 62.0781 34.9872 62.3835C35.1411 62.6866 35.218 63.0701 35.218 63.5341V67H34.38V63.5909C34.38 63.1624 34.2687 62.8286 34.0462 62.5895C33.8236 62.348 33.5182 62.2273 33.13 62.2273C32.8625 62.2273 32.6233 62.2853 32.4126 62.4013C32.2043 62.5173 32.0398 62.6866 31.919 62.9091C31.7983 63.1316 31.7379 63.4015 31.7379 63.7188ZM39.0364 67.1136C38.5108 67.1136 38.0575 66.9976 37.6763 66.7656C37.2975 66.5312 37.0051 66.2045 36.7992 65.7855C36.5956 65.3641 36.4938 64.8741 36.4938 64.3153C36.4938 63.7566 36.5956 63.2642 36.7992 62.8381C37.0051 62.4096 37.2916 62.0758 37.6586 61.8366C38.0279 61.5952 38.4587 61.4744 38.9512 61.4744C39.2353 61.4744 39.5158 61.5218 39.7928 61.6165C40.0698 61.7112 40.3219 61.8651 40.5492 62.0781C40.7765 62.2888 40.9576 62.5682 41.0925 62.9162C41.2275 63.2642 41.2949 63.6927 41.2949 64.2017V64.5568H37.0904V63.8324H40.4426C40.4426 63.5246 40.3811 63.25 40.258 63.0085C40.1373 62.767 39.9644 62.5765 39.7395 62.4368C39.517 62.2971 39.2542 62.2273 38.9512 62.2273C38.6174 62.2273 38.3285 62.3101 38.0847 62.4759C37.8432 62.6392 37.6574 62.8523 37.5272 63.1151C37.397 63.3778 37.3319 63.6596 37.3319 63.9602V64.4432C37.3319 64.8551 37.4029 65.2043 37.5449 65.4908C37.6893 65.7749 37.8894 65.9915 38.1451 66.1406C38.4007 66.2874 38.6979 66.3608 39.0364 66.3608C39.2566 66.3608 39.4554 66.33 39.633 66.2685C39.8129 66.2045 39.968 66.1098 40.0982 65.9844C40.2284 65.8565 40.329 65.6979 40.4 65.5085L41.2097 65.7358C41.1245 66.0104 40.9812 66.2519 40.78 66.4602C40.5788 66.6662 40.3302 66.8272 40.0343 66.9432C39.7383 67.0568 39.4057 67.1136 39.0364 67.1136ZM44.7857 67.1136C44.2743 67.1136 43.834 66.9929 43.4647 66.7514C43.0953 66.5099 42.8113 66.1773 42.6124 65.7536C42.4135 65.3298 42.3141 64.8456 42.3141 64.3011C42.3141 63.7472 42.4159 63.2583 42.6195 62.8345C42.8255 62.4084 43.1119 62.0758 43.4789 61.8366C43.8482 61.5952 44.2791 61.4744 44.7715 61.4744C45.155 61.4744 45.5007 61.5455 45.8084 61.6875C46.1162 61.8295 46.3683 62.0284 46.5648 62.2841C46.7613 62.5398 46.8832 62.8381 46.9306 63.179H46.0925C46.0286 62.9304 45.8865 62.7102 45.6664 62.5185C45.4486 62.3243 45.155 62.2273 44.7857 62.2273C44.459 62.2273 44.1725 62.3125 43.9263 62.483C43.6825 62.651 43.4919 62.889 43.3546 63.1967C43.2196 63.5021 43.1522 63.8608 43.1522 64.2727C43.1522 64.6941 43.2185 65.0611 43.351 65.3736C43.486 65.6861 43.6754 65.9287 43.9192 66.1016C44.1654 66.2744 44.4542 66.3608 44.7857 66.3608C45.0035 66.3608 45.2012 66.3229 45.3787 66.2472C45.5563 66.1714 45.7066 66.0625 45.8297 65.9205C45.9528 65.7784 46.0404 65.608 46.0925 65.4091H46.9306C46.8832 65.7311 46.766 66.0211 46.579 66.2791C46.3944 66.5348 46.1493 66.7384 45.8439 66.8899C45.5409 67.0391 45.1882 67.1136 44.7857 67.1136ZM50.5279 61.5455V62.2557H47.7012V61.5455H50.5279ZM48.525 60.2386H49.3631V65.4375C49.3631 65.6742 49.3974 65.8518 49.4661 65.9702C49.5371 66.0862 49.6271 66.1643 49.736 66.2045C49.8472 66.2424 49.9644 66.2614 50.0875 66.2614C50.1799 66.2614 50.2556 66.2566 50.3148 66.2472C50.374 66.2353 50.4213 66.2259 50.4569 66.2188L50.6273 66.9716C50.5705 66.9929 50.4912 67.0142 50.3894 67.0355C50.2876 67.0592 50.1586 67.071 50.0023 67.071C49.7656 67.071 49.5336 67.0201 49.3063 66.9183C49.0814 66.8165 48.8944 66.6615 48.7452 66.4531C48.5984 66.2448 48.525 65.982 48.525 65.6648V60.2386ZM51.7885 67V61.5455H52.6266V67H51.7885ZM52.2147 60.6364C52.0513 60.6364 51.9105 60.5807 51.7921 60.4695C51.6761 60.3582 51.6181 60.2244 51.6181 60.0682C51.6181 59.9119 51.6761 59.7782 51.7921 59.6669C51.9105 59.5556 52.0513 59.5 52.2147 59.5C52.378 59.5 52.5177 59.5556 52.6337 59.6669C52.7521 59.7782 52.8113 59.9119 52.8113 60.0682C52.8113 60.2244 52.7521 60.3582 52.6337 60.4695C52.5177 60.5807 52.378 60.6364 52.2147 60.6364ZM56.3775 67.1136C55.8851 67.1136 55.453 66.9964 55.0813 66.7621C54.712 66.5277 54.4232 66.1998 54.2148 65.7784C54.0089 65.357 53.9059 64.8646 53.9059 64.3011C53.9059 63.733 54.0089 63.237 54.2148 62.8132C54.4232 62.3894 54.712 62.0604 55.0813 61.826C55.453 61.5916 55.8851 61.4744 56.3775 61.4744C56.8699 61.4744 57.3008 61.5916 57.6701 61.826C58.0418 62.0604 58.3306 62.3894 58.5366 62.8132C58.7449 63.237 58.8491 63.733 58.8491 64.3011C58.8491 64.8646 58.7449 65.357 58.5366 65.7784C58.3306 66.1998 58.0418 66.5277 57.6701 66.7621C57.3008 66.9964 56.8699 67.1136 56.3775 67.1136ZM56.3775 66.3608C56.7515 66.3608 57.0593 66.2649 57.3008 66.0732C57.5423 65.8814 57.721 65.6293 57.837 65.3168C57.953 65.0043 58.011 64.6657 58.011 64.3011C58.011 63.9366 57.953 63.5968 57.837 63.282C57.721 62.9671 57.5423 62.7126 57.3008 62.5185C57.0593 62.3243 56.7515 62.2273 56.3775 62.2273C56.0034 62.2273 55.6957 62.3243 55.4542 62.5185C55.2127 62.7126 55.034 62.9671 54.918 63.282C54.802 63.5968 54.744 63.9366 54.744 64.3011C54.744 64.6657 54.802 65.0043 54.918 65.3168C55.034 65.6293 55.2127 65.8814 55.4542 66.0732C55.6957 66.2649 56.0034 66.3608 56.3775 66.3608ZM60.9664 63.7188V67H60.1284V61.5455H60.938V62.3977H61.0091C61.1369 62.1207 61.331 61.8982 61.5914 61.7301C61.8519 61.5597 62.188 61.4744 62.6 61.4744C62.9693 61.4744 63.2924 61.5502 63.5694 61.7017C63.8464 61.8509 64.0618 62.0781 64.2157 62.3835C64.3696 62.6866 64.4466 63.0701 64.4466 63.5341V67H63.6085V63.5909C63.6085 63.1624 63.4972 62.8286 63.2747 62.5895C63.0521 62.348 62.7467 62.2273 62.3585 62.2273C62.091 62.2273 61.8519 62.2853 61.6412 62.4013C61.4328 62.5173 61.2683 62.6866 61.1475 62.9091C61.0268 63.1316 60.9664 63.4015 60.9664 63.7188ZM68.7905 69.0455V61.5455H69.6001V62.4119H69.6996C69.7611 62.3172 69.8464 62.1965 69.9553 62.0497C70.0665 61.9006 70.2251 61.768 70.4311 61.652C70.6394 61.5336 70.9212 61.4744 71.2763 61.4744C71.7356 61.4744 72.1404 61.5893 72.4908 61.8189C72.8411 62.0485 73.1146 62.3741 73.3111 62.7955C73.5076 63.2169 73.6058 63.714 73.6058 64.2869C73.6058 64.8646 73.5076 65.3653 73.3111 65.7891C73.1146 66.2105 72.8423 66.5372 72.4943 66.7692C72.1463 66.9988 71.745 67.1136 71.2905 67.1136C70.9401 67.1136 70.6596 67.0556 70.4489 66.9396C70.2382 66.8213 70.076 66.6875 69.9624 66.5384C69.8487 66.3868 69.7611 66.2614 69.6996 66.1619H69.6286V69.0455H68.7905ZM69.6143 64.2727C69.6143 64.6847 69.6747 65.0481 69.7955 65.3629C69.9162 65.6754 70.0926 65.9205 70.3246 66.098C70.5566 66.2732 70.8407 66.3608 71.1768 66.3608C71.5272 66.3608 71.8196 66.2685 72.054 66.0838C72.2907 65.8968 72.4683 65.6458 72.5866 65.331C72.7074 65.0137 72.7678 64.661 72.7678 64.2727C72.7678 63.8892 72.7086 63.5436 72.5902 63.2358C72.4742 62.9257 72.2978 62.6806 72.0611 62.5007C71.8267 62.3184 71.532 62.2273 71.1768 62.2273C70.8359 62.2273 70.5495 62.3137 70.3175 62.4865C70.0855 62.657 69.9103 62.8961 69.7919 63.2038C69.6735 63.5092 69.6143 63.8655 69.6143 64.2727ZM75.7223 59.7273V67H74.8842V59.7273H75.7223ZM78.8624 67.1278C78.5167 67.1278 78.2031 67.0627 77.9213 66.9325C77.6396 66.8 77.4159 66.6094 77.2502 66.3608C77.0845 66.1098 77.0016 65.8068 77.0016 65.4517C77.0016 65.1392 77.0632 64.8859 77.1863 64.6918C77.3094 64.4953 77.4739 64.3414 77.6799 64.2301C77.8858 64.1188 78.1131 64.036 78.3617 63.9815C78.6126 63.9247 78.8648 63.8797 79.1181 63.8466C79.4495 63.804 79.7182 63.772 79.9242 63.7507C80.1325 63.727 80.284 63.688 80.3787 63.6335C80.4758 63.5791 80.5243 63.4844 80.5243 63.3494V63.321C80.5243 62.9706 80.4284 62.6984 80.2367 62.5043C80.0473 62.3101 79.7596 62.2131 79.3738 62.2131C78.9737 62.2131 78.66 62.3007 78.4327 62.4759C78.2054 62.651 78.0456 62.8381 77.9533 63.0369L77.1578 62.7528C77.2999 62.4214 77.4893 62.1634 77.726 61.9787C77.9651 61.7917 78.2256 61.6615 78.5073 61.5881C78.7914 61.5123 79.0707 61.4744 79.3453 61.4744C79.5205 61.4744 79.7218 61.4957 79.949 61.5384C80.1787 61.5786 80.4 61.6626 80.6131 61.7905C80.8285 61.9183 81.0073 62.1113 81.1493 62.3693C81.2914 62.6274 81.3624 62.973 81.3624 63.4062V67H80.5243V66.2614H80.4817C80.4249 66.3797 80.3302 66.5064 80.1976 66.6413C80.065 66.7763 79.8887 66.8911 79.6685 66.9858C79.4483 67.0805 79.1796 67.1278 78.8624 67.1278ZM78.9902 66.375C79.3217 66.375 79.601 66.3099 79.8283 66.1797C80.0579 66.0495 80.2308 65.8814 80.3468 65.6754C80.4651 65.4695 80.5243 65.2528 80.5243 65.0256V64.2585C80.4888 64.3011 80.4107 64.3402 80.29 64.3757C80.1716 64.4089 80.0343 64.4384 79.878 64.4645C79.7241 64.4882 79.5738 64.5095 79.427 64.5284C79.2826 64.545 79.1654 64.5592 79.0755 64.571C78.8577 64.5994 78.6541 64.6456 78.4647 64.7095C78.2776 64.7711 78.1261 64.8646 78.0101 64.9901C77.8965 65.1132 77.8397 65.2812 77.8397 65.4943C77.8397 65.7855 77.9474 66.0057 78.1628 66.1548C78.3806 66.3016 78.6564 66.375 78.9902 66.375ZM85.2642 61.5455V62.2557H82.4375V61.5455H85.2642ZM83.2614 60.2386H84.0994V65.4375C84.0994 65.6742 84.1338 65.8518 84.2024 65.9702C84.2734 66.0862 84.3634 66.1643 84.4723 66.2045C84.5836 66.2424 84.7008 66.2614 84.8239 66.2614C84.9162 66.2614 84.992 66.2566 85.0511 66.2472C85.1103 66.2353 85.1577 66.2259 85.1932 66.2188L85.3636 66.9716C85.3068 66.9929 85.2275 67.0142 85.1257 67.0355C85.0239 67.0592 84.8949 67.071 84.7386 67.071C84.5019 67.071 84.2699 67.0201 84.0426 66.9183C83.8177 66.8165 83.6307 66.6615 83.4815 66.4531C83.3348 66.2448 83.2614 65.982 83.2614 65.6648V60.2386ZM88.9538 61.5455V62.2557H86.0135V61.5455H88.9538ZM86.8942 67V60.7926C86.8942 60.4801 86.9676 60.2197 87.1143 60.0114C87.2611 59.803 87.4517 59.6468 87.6861 59.5426C87.9205 59.4384 88.1679 59.3864 88.4283 59.3864C88.6342 59.3864 88.8023 59.4029 88.9325 59.4361C89.0627 59.4692 89.1598 59.5 89.2237 59.5284L88.9822 60.2528C88.9396 60.2386 88.8804 60.2209 88.8047 60.1996C88.7313 60.1783 88.6342 60.1676 88.5135 60.1676C88.2365 60.1676 88.0365 60.2375 87.9134 60.3771C87.7926 60.5168 87.7322 60.7216 87.7322 60.9915V67H86.8942ZM92.1197 67.1136C91.6272 67.1136 91.1952 66.9964 90.8235 66.7621C90.4542 66.5277 90.1654 66.1998 89.957 65.7784C89.7511 65.357 89.6481 64.8646 89.6481 64.3011C89.6481 63.733 89.7511 63.237 89.957 62.8132C90.1654 62.3894 90.4542 62.0604 90.8235 61.826C91.1952 61.5916 91.6272 61.4744 92.1197 61.4744C92.6121 61.4744 93.043 61.5916 93.4123 61.826C93.784 62.0604 94.0728 62.3894 94.2788 62.8132C94.4871 63.237 94.5913 63.733 94.5913 64.3011C94.5913 64.8646 94.4871 65.357 94.2788 65.7784C94.0728 66.1998 93.784 66.5277 93.4123 66.7621C93.043 66.9964 92.6121 67.1136 92.1197 67.1136ZM92.1197 66.3608C92.4937 66.3608 92.8015 66.2649 93.043 66.0732C93.2844 65.8814 93.4632 65.6293 93.5792 65.3168C93.6952 65.0043 93.7532 64.6657 93.7532 64.3011C93.7532 63.9366 93.6952 63.5968 93.5792 63.282C93.4632 62.9671 93.2844 62.7126 93.043 62.5185C92.8015 62.3243 92.4937 62.2273 92.1197 62.2273C91.7456 62.2273 91.4379 62.3243 91.1964 62.5185C90.9549 62.7126 90.7762 62.9671 90.6602 63.282C90.5442 63.5968 90.4862 63.9366 90.4862 64.3011C90.4862 64.6657 90.5442 65.0043 90.6602 65.3168C90.7762 65.6293 90.9549 65.8814 91.1964 66.0732C91.4379 66.2649 91.7456 66.3608 92.1197 66.3608ZM95.8706 67V61.5455H96.6802V62.3693H96.737C96.8365 62.0994 97.0164 61.8804 97.2768 61.7124C97.5372 61.5443 97.8308 61.4602 98.1575 61.4602C98.219 61.4602 98.296 61.4614 98.3883 61.4638C98.4806 61.4661 98.5505 61.4697 98.5978 61.4744V62.3267C98.5694 62.3196 98.5043 62.3089 98.4025 62.2947C98.3031 62.2782 98.1977 62.2699 98.0865 62.2699C97.8213 62.2699 97.5846 62.3255 97.3762 62.4368C97.1703 62.5457 97.0069 62.6972 96.8862 62.8913C96.7678 63.0831 96.7086 63.3021 96.7086 63.5483V67H95.8706ZM99.5913 67V61.5455H100.401V62.3977H100.472C100.586 62.1065 100.769 61.8804 101.022 61.7195C101.276 61.5561 101.58 61.4744 101.935 61.4744C102.295 61.4744 102.594 61.5561 102.833 61.7195C103.075 61.8804 103.263 62.1065 103.398 62.3977H103.455C103.595 62.116 103.804 61.8923 104.083 61.7266C104.363 61.5585 104.698 61.4744 105.088 61.4744C105.576 61.4744 105.975 61.6271 106.285 61.9325C106.595 62.2356 106.75 62.7079 106.75 63.3494V67H105.912V63.3494C105.912 62.947 105.802 62.6593 105.582 62.4865C105.362 62.3137 105.103 62.2273 104.804 62.2273C104.421 62.2273 104.124 62.3433 103.913 62.5753C103.702 62.8049 103.597 63.0961 103.597 63.4489V67H102.745V63.2642C102.745 62.9541 102.644 62.7043 102.443 62.5149C102.242 62.3232 101.982 62.2273 101.665 62.2273C101.447 62.2273 101.244 62.2853 101.054 62.4013C100.867 62.5173 100.716 62.6783 100.6 62.8842C100.486 63.0878 100.429 63.3234 100.429 63.5909V67H99.5913ZM108.893 67.0568C108.718 67.0568 108.568 66.9941 108.442 66.8686C108.317 66.7431 108.254 66.5928 108.254 66.4176C108.254 66.2424 108.317 66.0921 108.442 65.9666C108.568 65.8411 108.718 65.7784 108.893 65.7784C109.069 65.7784 109.219 65.8411 109.344 65.9666C109.47 66.0921 109.533 66.2424 109.533 66.4176C109.533 66.5336 109.503 66.6402 109.444 66.7372C109.387 66.8343 109.31 66.9124 109.213 66.9716C109.118 67.0284 109.012 67.0568 108.893 67.0568Z" fill="black"/>
<path d="M63.1875 18.2812C63.75 19.9688 65.2969 21.0938 67.125 21.0938C69.5156 21.0938 71.3438 19.2656 71.3438 16.875C71.3438 14.4844 69.5156 12.6562 67.125 12.6562C65.2969 12.6562 63.75 13.7812 63.1875 15.4688H46.0312C44.4844 15.4688 43.2188 16.7344 43.2188 18.2812V26.7188H39V29.5312H43.2188V37.9688C43.2188 39.5156 44.4844 40.7812 46.0312 40.7812H65.7188C67.2656 40.7812 68.5312 39.5156 68.5312 37.9688V32.3438H65.7188V37.9688H46.0312V18.2812H63.1875ZM67.125 15.4688C67.9688 15.4688 68.5312 16.0312 68.5312 16.875C68.5312 17.7188 67.9688 18.2812 67.125 18.2812C66.2812 18.2812 65.7188 17.7188 65.7188 16.875C65.7188 16.0312 66.2812 15.4688 67.125 15.4688Z" fill="url(#paint0_linear_1_874)"/>
<path d="M79.7812 15.4688V7.03125C79.7812 5.48438 78.5156 4.21875 76.9688 4.21875H57.2812C55.7344 4.21875 54.4688 5.48438 54.4688 7.03125V12.6562H57.2812V7.03125H76.9688V26.7188H59.8125C59.25 25.0312 57.7031 23.9062 55.875 23.9062C53.4844 23.9062 51.6562 25.7344 51.6562 28.125C51.6562 30.5156 53.4844 32.3438 55.875 32.3438C57.7031 32.3438 59.25 31.2188 59.8125 29.5312H76.9688C78.5156 29.5312 79.7812 28.2656 79.7812 26.7188V18.2812H84V15.4688H79.7812ZM55.875 29.5312C55.0312 29.5312 54.4688 28.9688 54.4688 28.125C54.4688 27.2812 55.0312 26.7188 55.875 26.7188C56.7188 26.7188 57.2812 27.2812 57.2812 28.125C57.2812 28.9688 56.7188 29.5312 55.875 29.5312Z" fill="url(#paint1_linear_1_874)"/>
<defs>
<linearGradient id="paint0_linear_1_874" x1="39" y1="26.7188" x2="91.7344" y2="26.7188" gradientUnits="userSpaceOnUse">
<stop stop-color="#3FF3FF"/>
<stop offset="1" stop-color="#00ABBB"/>
</linearGradient>
<linearGradient id="paint1_linear_1_874" x1="38.2969" y1="16.875" x2="86.1094" y2="15.4687" gradientUnits="userSpaceOnUse">
<stop stop-color="#3FF3FF"/>
<stop offset="1" stop-color="#00ABBB"/>
</linearGradient>
</defs>
</svg>
