<svg width="133" height="164" viewBox="0 0 133 164" fill="none" xmlns="http://www.w3.org/2000/svg">
<path d="M11.9683 50H11.0876C11.0355 49.7467 10.9444 49.5241 10.8142 49.3324C10.6863 49.1406 10.5301 48.9796 10.3454 48.8494C10.1631 48.7169 9.96073 48.6174 9.73819 48.5511C9.51565 48.4848 9.28365 48.4517 9.04217 48.4517C8.60183 48.4517 8.20292 48.563 7.84544 48.7855C7.49032 49.008 7.20742 49.3359 6.99672 49.7692C6.78838 50.2024 6.68422 50.7339 6.68422 51.3636C6.68422 51.9934 6.78838 52.5249 6.99672 52.9581C7.20742 53.3913 7.49032 53.7192 7.84544 53.9418C8.20292 54.1643 8.60183 54.2756 9.04217 54.2756C9.28365 54.2756 9.51565 54.2424 9.73819 54.1761C9.96073 54.1098 10.1631 54.0116 10.3454 53.8814C10.5301 53.7488 10.6863 53.5866 10.8142 53.3949C10.9444 53.2008 11.0355 52.9782 11.0876 52.7273H11.9683C11.902 53.099 11.7813 53.4316 11.6061 53.7251C11.4309 54.0187 11.2131 54.2685 10.9527 54.4744C10.6923 54.678 10.3999 54.8331 10.0756 54.9396C9.75358 55.0462 9.40912 55.0994 9.04217 55.0994C8.4219 55.0994 7.87029 54.9479 7.38734 54.6449C6.90439 54.3419 6.52441 53.911 6.24743 53.3523C5.97044 52.7936 5.83194 52.1307 5.83194 51.3636C5.83194 50.5966 5.97044 49.9337 6.24743 49.375C6.52441 48.8163 6.90439 48.3854 7.38734 48.0824C7.87029 47.7794 8.4219 47.6278 9.04217 47.6278C9.40912 47.6278 9.75358 47.6811 10.0756 47.7876C10.3999 47.8942 10.6923 48.0504 10.9527 48.2564C11.2131 48.46 11.4309 48.7086 11.6061 49.0021C11.7813 49.2933 11.902 49.6259 11.9683 50ZM15.5647 55.1136C15.0392 55.1136 14.5858 54.9976 14.2046 54.7656C13.8258 54.5312 13.5335 54.2045 13.3275 53.7855C13.1239 53.3641 13.0221 52.8741 13.0221 52.3153C13.0221 51.7566 13.1239 51.2642 13.3275 50.8381C13.5335 50.4096 13.8199 50.0758 14.1869 49.8366C14.5562 49.5952 14.9871 49.4744 15.4795 49.4744C15.7636 49.4744 16.0441 49.5218 16.3211 49.6165C16.5981 49.7112 16.8502 49.8651 17.0775 50.0781C17.3048 50.2888 17.4859 50.5682 17.6208 50.9162C17.7558 51.2642 17.8232 51.6927 17.8232 52.2017V52.5568H13.6187V51.8324H16.971C16.971 51.5246 16.9094 51.25 16.7863 51.0085C16.6656 50.767 16.4927 50.5765 16.2678 50.4368C16.0453 50.2971 15.7825 50.2273 15.4795 50.2273C15.1457 50.2273 14.8569 50.3101 14.613 50.4759C14.3715 50.6392 14.1857 50.8523 14.0555 51.1151C13.9253 51.3778 13.8602 51.6596 13.8602 51.9602V52.4432C13.8602 52.8551 13.9312 53.2043 14.0732 53.4908C14.2177 53.7749 14.4177 53.9915 14.6734 54.1406C14.9291 54.2874 15.2262 54.3608 15.5647 54.3608C15.7849 54.3608 15.9838 54.33 16.1613 54.2685C16.3412 54.2045 16.4963 54.1098 16.6265 53.9844C16.7567 53.8565 16.8573 53.6979 16.9284 53.5085L17.738 53.7358C17.6528 54.0104 17.5096 54.2519 17.3083 54.4602C17.1071 54.6662 16.8585 54.8272 16.5626 54.9432C16.2667 55.0568 15.934 55.1136 15.5647 55.1136ZM19.9362 51.7188V55H19.0981V49.5455H19.9078V50.3977H19.9788C20.1066 50.1207 20.3008 49.8982 20.5612 49.7301C20.8216 49.5597 21.1578 49.4744 21.5697 49.4744C21.939 49.4744 22.2622 49.5502 22.5392 49.7017C22.8161 49.8509 23.0316 50.0781 23.1855 50.3835C23.3393 50.6866 23.4163 51.0701 23.4163 51.5341V55H22.5782V51.5909C22.5782 51.1624 22.4669 50.8286 22.2444 50.5895C22.0219 50.348 21.7165 50.2273 21.3282 50.2273C21.0607 50.2273 20.8216 50.2853 20.6109 50.4013C20.4026 50.5173 20.238 50.6866 20.1173 50.9091C19.9965 51.1316 19.9362 51.4015 19.9362 51.7188ZM27.3199 49.5455V50.2557H24.4932V49.5455H27.3199ZM25.317 48.2386H26.1551V53.4375C26.1551 53.6742 26.1894 53.8518 26.2581 53.9702C26.3291 54.0862 26.4191 54.1643 26.528 54.2045C26.6392 54.2424 26.7564 54.2614 26.8795 54.2614C26.9719 54.2614 27.0476 54.2566 27.1068 54.2472C27.166 54.2353 27.2133 54.2259 27.2488 54.2188L27.4193 54.9716C27.3625 54.9929 27.2832 55.0142 27.1814 55.0355C27.0796 55.0592 26.9506 55.071 26.7943 55.071C26.5576 55.071 26.3256 55.0201 26.0983 54.9183C25.8734 54.8165 25.6863 54.6615 25.5372 54.4531C25.3904 54.2448 25.317 53.982 25.317 53.6648V48.2386ZM28.5805 55V49.5455H29.3902V50.3693H29.447C29.5464 50.0994 29.7264 49.8804 29.9868 49.7124C30.2472 49.5443 30.5407 49.4602 30.8675 49.4602C30.929 49.4602 31.0059 49.4614 31.0983 49.4638C31.1906 49.4661 31.2604 49.4697 31.3078 49.4744V50.3267C31.2794 50.3196 31.2143 50.3089 31.1125 50.2947C31.0131 50.2782 30.9077 50.2699 30.7964 50.2699C30.5313 50.2699 30.2945 50.3255 30.0862 50.4368C29.8802 50.5457 29.7169 50.6972 29.5961 50.8913C29.4778 51.0831 29.4186 51.3021 29.4186 51.5483V55H28.5805ZM33.9063 55.1278C33.5607 55.1278 33.247 55.0627 32.9653 54.9325C32.6836 54.8 32.4598 54.6094 32.2941 54.3608C32.1284 54.1098 32.0455 53.8068 32.0455 53.4517C32.0455 53.1392 32.1071 52.8859 32.2302 52.6918C32.3533 52.4953 32.5178 52.3414 32.7238 52.2301C32.9298 52.1188 33.157 52.036 33.4056 51.9815C33.6566 51.9247 33.9087 51.8797 34.162 51.8466C34.4935 51.804 34.7622 51.772 34.9681 51.7507C35.1765 51.727 35.328 51.688 35.4227 51.6335C35.5197 51.5791 35.5683 51.4844 35.5683 51.3494V51.321C35.5683 50.9706 35.4724 50.6984 35.2806 50.5043C35.0912 50.3101 34.8036 50.2131 34.4177 50.2131C34.0176 50.2131 33.7039 50.3007 33.4767 50.4759C33.2494 50.651 33.0896 50.8381 32.9972 51.0369L32.2018 50.7528C32.3438 50.4214 32.5332 50.1634 32.77 49.9787C33.0091 49.7917 33.2695 49.6615 33.5512 49.5881C33.8353 49.5123 34.1147 49.4744 34.3893 49.4744C34.5645 49.4744 34.7657 49.4957 34.993 49.5384C35.2226 49.5786 35.444 49.6626 35.657 49.7905C35.8725 49.9183 36.0512 50.1113 36.1933 50.3693C36.3353 50.6274 36.4063 50.973 36.4063 51.4062V55H35.5683V54.2614H35.5257C35.4688 54.3797 35.3741 54.5064 35.2416 54.6413C35.109 54.7763 34.9326 54.8911 34.7124 54.9858C34.4923 55.0805 34.2236 55.1278 33.9063 55.1278ZM34.0342 54.375C34.3656 54.375 34.645 54.3099 34.8722 54.1797C35.1019 54.0495 35.2747 53.8814 35.3907 53.6754C35.5091 53.4695 35.5683 53.2528 35.5683 53.0256V52.2585C35.5328 52.3011 35.4546 52.3402 35.3339 52.3757C35.2155 52.4089 35.0782 52.4384 34.922 52.4645C34.7681 52.4882 34.6177 52.5095 34.471 52.5284C34.3266 52.545 34.2094 52.5592 34.1194 52.571C33.9016 52.5994 33.698 52.6456 33.5086 52.7095C33.3216 52.7711 33.1701 52.8646 33.0541 52.9901C32.9404 53.1132 32.8836 53.2812 32.8836 53.4943C32.8836 53.7855 32.9913 54.0057 33.2068 54.1548C33.4246 54.3016 33.7004 54.375 34.0342 54.375ZM38.7741 47.7273V55H37.936V47.7273H38.7741ZM40.309 55V49.5455H41.1471V55H40.309ZM40.7352 48.6364C40.5718 48.6364 40.431 48.5807 40.3126 48.4695C40.1966 48.3582 40.1386 48.2244 40.1386 48.0682C40.1386 47.9119 40.1966 47.7782 40.3126 47.6669C40.431 47.5556 40.5718 47.5 40.7352 47.5C40.8985 47.5 41.0382 47.5556 41.1542 47.6669C41.2726 47.7782 41.3318 47.9119 41.3318 48.0682C41.3318 48.2244 41.2726 48.3582 41.1542 48.4695C41.0382 48.5807 40.8985 48.6364 40.7352 48.6364ZM42.5258 55V54.3608L45.6224 50.3835V50.3267H42.6253V49.5455H46.702V50.2131L43.6906 54.1619V54.2188H46.8014V55H42.5258ZM50.2229 55.1136C49.6974 55.1136 49.244 54.9976 48.8628 54.7656C48.484 54.5312 48.1917 54.2045 47.9857 53.7855C47.7821 53.3641 47.6803 52.8741 47.6803 52.3153C47.6803 51.7566 47.7821 51.2642 47.9857 50.8381C48.1917 50.4096 48.4781 50.0758 48.8451 49.8366C49.2144 49.5952 49.6453 49.4744 50.1377 49.4744C50.4218 49.4744 50.7023 49.5218 50.9793 49.6165C51.2563 49.7112 51.5084 49.8651 51.7357 50.0781C51.963 50.2888 52.1441 50.5682 52.279 50.9162C52.414 51.2642 52.4814 51.6927 52.4814 52.2017V52.5568H48.2769V51.8324H51.6292C51.6292 51.5246 51.5676 51.25 51.4445 51.0085C51.3238 50.767 51.151 50.5765 50.926 50.4368C50.7035 50.2971 50.4407 50.2273 50.1377 50.2273C49.8039 50.2273 49.5151 50.3101 49.2712 50.4759C49.0297 50.6392 48.8439 50.8523 48.7137 51.1151C48.5835 51.3778 48.5184 51.6596 48.5184 51.9602V52.4432C48.5184 52.8551 48.5894 53.2043 48.7314 53.4908C48.8759 53.7749 49.0759 53.9915 49.3316 54.1406C49.5873 54.2874 49.8844 54.3608 50.2229 54.3608C50.4431 54.3608 50.642 54.33 50.8195 54.2685C50.9994 54.2045 51.1545 54.1098 51.2847 53.9844C51.4149 53.8565 51.5155 53.6979 51.5866 53.5085L52.3962 53.7358C52.311 54.0104 52.1678 54.2519 51.9665 54.4602C51.7653 54.6662 51.5167 54.8272 51.2208 54.9432C50.9249 55.0568 50.5922 55.1136 50.2229 55.1136ZM55.816 55.1136C55.3614 55.1136 54.9601 54.9988 54.6121 54.7692C54.2641 54.5372 53.9919 54.2105 53.7954 53.7891C53.5989 53.3653 53.5006 52.8646 53.5006 52.2869C53.5006 51.714 53.5989 51.2169 53.7954 50.7955C53.9919 50.3741 54.2653 50.0485 54.6157 49.8189C54.9661 49.5893 55.3709 49.4744 55.8302 49.4744C56.1853 49.4744 56.4658 49.5336 56.6718 49.652C56.8801 49.768 57.0387 49.9006 57.1476 50.0497C57.2589 50.1965 57.3453 50.3172 57.4069 50.4119H57.4779V47.7273H58.316V55H57.5063V54.1619H57.4069C57.3453 54.2614 57.2577 54.3868 57.1441 54.5384C57.0305 54.6875 56.8683 54.8213 56.6576 54.9396C56.4469 55.0556 56.1663 55.1136 55.816 55.1136ZM55.9296 54.3608C56.2658 54.3608 56.5499 54.2732 56.7819 54.098C57.0139 53.9205 57.1903 53.6754 57.311 53.3629C57.4317 53.0481 57.4921 52.6847 57.4921 52.2727C57.4921 51.8655 57.4329 51.5092 57.3145 51.2038C57.1962 50.8961 57.021 50.657 56.789 50.4865C56.557 50.3137 56.2705 50.2273 55.9296 50.2273C55.5745 50.2273 55.2786 50.3184 55.0418 50.5007C54.8074 50.6806 54.6311 50.9257 54.5127 51.2358C54.3967 51.5436 54.3387 51.8892 54.3387 52.2727C54.3387 52.661 54.3979 53.0137 54.5162 53.331C54.637 53.6458 54.8145 53.8968 55.0489 54.0838C55.2857 54.2685 55.5792 54.3608 55.9296 54.3608ZM62.7797 57.0455V49.5455H63.5894V50.4119H63.6888C63.7504 50.3172 63.8356 50.1965 63.9445 50.0497C64.0558 49.9006 64.2144 49.768 64.4204 49.652C64.6287 49.5336 64.9104 49.4744 65.2655 49.4744C65.7248 49.4744 66.1296 49.5893 66.48 49.8189C66.8304 50.0485 67.1038 50.3741 67.3003 50.7955C67.4968 51.2169 67.5951 51.714 67.5951 52.2869C67.5951 52.8646 67.4968 53.3653 67.3003 53.7891C67.1038 54.2105 66.8316 54.5372 66.4836 54.7692C66.1356 54.9988 65.7343 55.1136 65.2797 55.1136C64.9294 55.1136 64.6488 55.0556 64.4381 54.9396C64.2274 54.8213 64.0653 54.6875 63.9516 54.5384C63.838 54.3868 63.7504 54.2614 63.6888 54.1619H63.6178V57.0455H62.7797ZM63.6036 52.2727C63.6036 52.6847 63.664 53.0481 63.7847 53.3629C63.9055 53.6754 64.0818 53.9205 64.3138 54.098C64.5458 54.2732 64.8299 54.3608 65.1661 54.3608C65.5165 54.3608 65.8089 54.2685 66.0432 54.0838C66.28 53.8968 66.4575 53.6458 66.5759 53.331C66.6966 53.0137 66.757 52.661 66.757 52.2727C66.757 51.8892 66.6978 51.5436 66.5795 51.2358C66.4635 50.9257 66.2871 50.6806 66.0503 50.5007C65.816 50.3184 65.5212 50.2273 65.1661 50.2273C64.8252 50.2273 64.5387 50.3137 64.3067 50.4865C64.0747 50.657 63.8995 50.8961 63.7812 51.2038C63.6628 51.5092 63.6036 51.8655 63.6036 52.2727ZM68.8735 55V49.5455H69.6831V50.3693H69.74C69.8394 50.0994 70.0193 49.8804 70.2797 49.7124C70.5402 49.5443 70.8337 49.4602 71.1604 49.4602C71.222 49.4602 71.2989 49.4614 71.3912 49.4638C71.4836 49.4661 71.5534 49.4697 71.6008 49.4744V50.3267C71.5724 50.3196 71.5073 50.3089 71.4055 50.2947C71.306 50.2782 71.2007 50.2699 71.0894 50.2699C70.8242 50.2699 70.5875 50.3255 70.3792 50.4368C70.1732 50.5457 70.0099 50.6972 69.8891 50.8913C69.7707 51.0831 69.7116 51.3021 69.7116 51.5483V55H68.8735ZM72.5942 55V49.5455H73.4323V55H72.5942ZM73.0203 48.6364C72.857 48.6364 72.7161 48.5807 72.5977 48.4695C72.4817 48.3582 72.4237 48.2244 72.4237 48.0682C72.4237 47.9119 72.4817 47.7782 72.5977 47.6669C72.7161 47.5556 72.857 47.5 73.0203 47.5C73.1837 47.5 73.3234 47.5556 73.4394 47.6669C73.5577 47.7782 73.6169 47.9119 73.6169 48.0682C73.6169 48.2244 73.5577 48.3582 73.4394 48.4695C73.3234 48.5807 73.1837 48.6364 73.0203 48.6364ZM75.8053 51.7188V55H74.9672V49.5455H75.7769V50.3977H75.8479C75.9758 50.1207 76.1699 49.8982 76.4303 49.7301C76.6907 49.5597 77.0269 49.4744 77.4388 49.4744C77.8081 49.4744 78.1313 49.5502 78.4083 49.7017C78.6853 49.8509 78.9007 50.0781 79.0546 50.3835C79.2085 50.6866 79.2854 51.0701 79.2854 51.5341V55H78.4474V51.5909C78.4474 51.1624 78.3361 50.8286 78.1135 50.5895C77.891 50.348 77.5856 50.2273 77.1974 50.2273C76.9298 50.2273 76.6907 50.2853 76.48 50.4013C76.2717 50.5173 76.1072 50.6866 75.9864 50.9091C75.8657 51.1316 75.8053 51.4015 75.8053 51.7188ZM83.189 49.5455V50.2557H80.3623V49.5455H83.189ZM81.1862 48.2386H82.0242V53.4375C82.0242 53.6742 82.0586 53.8518 82.1272 53.9702C82.1982 54.0862 82.2882 54.1643 82.3971 54.2045C82.5084 54.2424 82.6256 54.2614 82.7487 54.2614C82.841 54.2614 82.9168 54.2566 82.9759 54.2472C83.0351 54.2353 83.0825 54.2259 83.118 54.2188L83.2884 54.9716C83.2316 54.9929 83.1523 55.0142 83.0505 55.0355C82.9487 55.0592 82.8197 55.071 82.6634 55.071C82.4267 55.071 82.1947 55.0201 81.9674 54.9183C81.7425 54.8165 81.5555 54.6615 81.4063 54.4531C81.2596 54.2448 81.1862 53.982 81.1862 53.6648V48.2386ZM84.4497 55V49.5455H85.2877V55H84.4497ZM84.8758 48.6364C84.7124 48.6364 84.5716 48.5807 84.4532 48.4695C84.3372 48.3582 84.2792 48.2244 84.2792 48.0682C84.2792 47.9119 84.3372 47.7782 84.4532 47.6669C84.5716 47.5556 84.7124 47.5 84.8758 47.5C85.0392 47.5 85.1788 47.5556 85.2948 47.6669C85.4132 47.7782 85.4724 47.9119 85.4724 48.0682C85.4724 48.2244 85.4132 48.3582 85.2948 48.4695C85.1788 48.5807 85.0392 48.6364 84.8758 48.6364ZM87.6608 51.7188V55H86.8227V49.5455H87.6324V50.3977H87.7034C87.8312 50.1207 88.0254 49.8982 88.2858 49.7301C88.5462 49.5597 88.8824 49.4744 89.2943 49.4744C89.6636 49.4744 89.9868 49.5502 90.2638 49.7017C90.5407 49.8509 90.7562 50.0781 90.9101 50.3835C91.064 50.6866 91.1409 51.0701 91.1409 51.5341V55H90.3028V51.5909C90.3028 51.1624 90.1916 50.8286 89.969 50.5895C89.7465 50.348 89.4411 50.2273 89.0528 50.2273C88.7853 50.2273 88.5462 50.2853 88.3355 50.4013C88.1272 50.5173 87.9626 50.6866 87.8419 50.9091C87.7211 51.1316 87.6608 51.4015 87.6608 51.7188ZM94.874 57.1591C94.4692 57.1591 94.1212 57.107 93.83 57.0028C93.5388 56.901 93.2961 56.7661 93.102 56.598C92.9102 56.4323 92.7575 56.2547 92.6439 56.0653L93.3115 55.5966C93.3873 55.696 93.4832 55.8097 93.5992 55.9375C93.7152 56.0677 93.8738 56.1802 94.075 56.2749C94.2786 56.3719 94.545 56.4205 94.874 56.4205C95.3144 56.4205 95.6778 56.3139 95.9642 56.1009C96.2507 55.8878 96.3939 55.554 96.3939 55.0994V53.9915H96.3229C96.2613 54.0909 96.1737 54.214 96.0601 54.3608C95.9488 54.5052 95.7878 54.6342 95.5771 54.7479C95.3688 54.8591 95.0871 54.9148 94.732 54.9148C94.2916 54.9148 93.8963 54.8106 93.5459 54.6023C93.1979 54.3939 92.9221 54.0909 92.7185 53.6932C92.5173 53.2955 92.4166 52.8125 92.4166 52.2443C92.4166 51.6856 92.5149 51.1991 92.7114 50.7848C92.9079 50.3681 93.1813 50.0462 93.5317 49.8189C93.8821 49.5893 94.2869 49.4744 94.7462 49.4744C95.1013 49.4744 95.383 49.5336 95.5914 49.652C95.8021 49.768 95.963 49.9006 96.0743 50.0497C96.1879 50.1965 96.2755 50.3172 96.3371 50.4119H96.4223V49.5455H97.232V55.1562C97.232 55.625 97.1254 56.0062 96.9124 56.2997C96.7017 56.5956 96.4176 56.8123 96.0601 56.9496C95.705 57.0893 95.3096 57.1591 94.874 57.1591ZM94.8456 54.1619C95.1818 54.1619 95.4659 54.085 95.6979 53.9311C95.9299 53.7772 96.1063 53.5559 96.227 53.267C96.3477 52.9782 96.4081 52.6326 96.4081 52.2301C96.4081 51.8371 96.3489 51.4903 96.2306 51.1896C96.1122 50.889 95.937 50.6534 95.705 50.483C95.473 50.3125 95.1865 50.2273 94.8456 50.2273C94.4905 50.2273 94.1946 50.3172 93.9578 50.4972C93.7235 50.6771 93.5471 50.9186 93.4287 51.2216C93.3127 51.5246 93.2547 51.8608 93.2547 52.2301C93.2547 52.6089 93.3139 52.9439 93.4323 53.2351C93.553 53.5239 93.7306 53.7512 93.9649 53.9169C94.2017 54.0803 94.4952 54.1619 94.8456 54.1619ZM105.442 50.767L104.689 50.9801C104.642 50.8546 104.572 50.7327 104.48 50.6143C104.39 50.4936 104.267 50.3942 104.111 50.3161C103.954 50.2379 103.754 50.1989 103.51 50.1989C103.177 50.1989 102.898 50.2758 102.676 50.4297C102.456 50.5812 102.346 50.7741 102.346 51.0085C102.346 51.2169 102.421 51.3814 102.573 51.5021C102.724 51.6229 102.961 51.7235 103.283 51.804L104.093 52.0028C104.58 52.1212 104.944 52.3023 105.183 52.5462C105.422 52.7876 105.542 53.099 105.542 53.4801C105.542 53.7926 105.452 54.072 105.272 54.3182C105.094 54.5644 104.846 54.7585 104.526 54.9006C104.206 55.0426 103.835 55.1136 103.411 55.1136C102.855 55.1136 102.394 54.9929 102.03 54.7514C101.665 54.5099 101.434 54.1572 101.337 53.6932L102.133 53.4943C102.208 53.7879 102.352 54.008 102.562 54.1548C102.775 54.3016 103.053 54.375 103.397 54.375C103.787 54.375 104.098 54.2921 104.327 54.1264C104.559 53.9583 104.675 53.7571 104.675 53.5227C104.675 53.3333 104.609 53.1747 104.476 53.0469C104.344 52.9167 104.14 52.8196 103.866 52.7557L102.956 52.5426C102.457 52.4242 102.09 52.2408 101.856 51.9922C101.624 51.7412 101.508 51.4276 101.508 51.0511C101.508 50.7434 101.594 50.4711 101.767 50.2344C101.942 49.9976 102.18 49.8118 102.481 49.6768C102.784 49.5419 103.127 49.4744 103.51 49.4744C104.05 49.4744 104.474 49.5928 104.782 49.8295C105.092 50.0663 105.312 50.3788 105.442 50.767ZM109.175 49.5455V50.2557H106.349V49.5455H109.175ZM107.172 48.2386H108.011V53.4375C108.011 53.6742 108.045 53.8518 108.114 53.9702C108.185 54.0862 108.275 54.1643 108.383 54.2045C108.495 54.2424 108.612 54.2614 108.735 54.2614C108.827 54.2614 108.903 54.2566 108.962 54.2472C109.021 54.2353 109.069 54.2259 109.104 54.2188L109.275 54.9716C109.218 54.9929 109.139 55.0142 109.037 55.0355C108.935 55.0592 108.806 55.071 108.65 55.071C108.413 55.071 108.181 55.0201 107.954 54.9183C107.729 54.8165 107.542 54.6615 107.393 54.4531C107.246 54.2448 107.172 53.982 107.172 53.6648V48.2386ZM112.593 55.1136C112.101 55.1136 111.669 54.9964 111.297 54.7621C110.928 54.5277 110.639 54.1998 110.431 53.7784C110.225 53.357 110.122 52.8646 110.122 52.3011C110.122 51.733 110.225 51.237 110.431 50.8132C110.639 50.3894 110.928 50.0604 111.297 49.826C111.669 49.5916 112.101 49.4744 112.593 49.4744C113.086 49.4744 113.517 49.5916 113.886 49.826C114.258 50.0604 114.546 50.3894 114.752 50.8132C114.961 51.237 115.065 51.733 115.065 52.3011C115.065 52.8646 114.961 53.357 114.752 53.7784C114.546 54.1998 114.258 54.5277 113.886 54.7621C113.517 54.9964 113.086 55.1136 112.593 55.1136ZM112.593 54.3608C112.967 54.3608 113.275 54.2649 113.517 54.0732C113.758 53.8814 113.937 53.6293 114.053 53.3168C114.169 53.0043 114.227 52.6657 114.227 52.3011C114.227 51.9366 114.169 51.5968 114.053 51.282C113.937 50.9671 113.758 50.7126 113.517 50.5185C113.275 50.3243 112.967 50.2273 112.593 50.2273C112.219 50.2273 111.911 50.3243 111.67 50.5185C111.429 50.7126 111.25 50.9671 111.134 51.282C111.018 51.5968 110.96 51.9366 110.96 52.3011C110.96 52.6657 111.018 53.0043 111.134 53.3168C111.25 53.6293 111.429 53.8814 111.67 54.0732C111.911 54.2649 112.219 54.3608 112.593 54.3608ZM116.344 55V49.5455H117.154V50.3693H117.211C117.31 50.0994 117.49 49.8804 117.75 49.7124C118.011 49.5443 118.304 49.4602 118.631 49.4602C118.693 49.4602 118.77 49.4614 118.862 49.4638C118.954 49.4661 119.024 49.4697 119.071 49.4744V50.3267C119.043 50.3196 118.978 50.3089 118.876 50.2947C118.777 50.2782 118.671 50.2699 118.56 50.2699C118.295 50.2699 118.058 50.3255 117.85 50.4368C117.644 50.5457 117.481 50.6972 117.36 50.8913C117.241 51.0831 117.182 51.3021 117.182 51.5483V55H116.344ZM122.186 55.1136C121.66 55.1136 121.207 54.9976 120.826 54.7656C120.447 54.5312 120.155 54.2045 119.949 53.7855C119.745 53.3641 119.643 52.8741 119.643 52.3153C119.643 51.7566 119.745 51.2642 119.949 50.8381C120.155 50.4096 120.441 50.0758 120.808 49.8366C121.177 49.5952 121.608 49.4744 122.101 49.4744C122.385 49.4744 122.665 49.5218 122.942 49.6165C123.219 49.7112 123.471 49.8651 123.699 50.0781C123.926 50.2888 124.107 50.5682 124.242 50.9162C124.377 51.2642 124.444 51.6927 124.444 52.2017V52.5568H120.24V51.8324H123.592C123.592 51.5246 123.531 51.25 123.407 51.0085C123.287 50.767 123.114 50.5765 122.889 50.4368C122.666 50.2971 122.404 50.2273 122.101 50.2273C121.767 50.2273 121.478 50.3101 121.234 50.4759C120.993 50.6392 120.807 50.8523 120.677 51.1151C120.546 51.3778 120.481 51.6596 120.481 51.9602V52.4432C120.481 52.8551 120.552 53.2043 120.694 53.4908C120.839 53.7749 121.039 53.9915 121.294 54.1406C121.55 54.2874 121.847 54.3608 122.186 54.3608C122.406 54.3608 122.605 54.33 122.782 54.2685C122.962 54.2045 123.117 54.1098 123.248 53.9844C123.378 53.8565 123.478 53.6979 123.549 53.5085L124.359 53.7358C124.274 54.0104 124.131 54.2519 123.929 54.4602C123.728 54.6662 123.48 54.8272 123.184 54.9432C122.888 55.0568 122.555 55.1136 122.186 55.1136ZM20.7134 67.1136C20.2021 67.1136 19.7617 66.9929 19.3924 66.7514C19.0231 66.5099 18.739 66.1773 18.5401 65.7536C18.3413 65.3298 18.2418 64.8456 18.2418 64.3011C18.2418 63.7472 18.3436 63.2583 18.5472 62.8345C18.7532 62.4084 19.0397 62.0758 19.4066 61.8366C19.7759 61.5952 20.2068 61.4744 20.6992 61.4744C21.0827 61.4744 21.4284 61.5455 21.7362 61.6875C22.0439 61.8295 22.296 62.0284 22.4925 62.2841C22.689 62.5398 22.811 62.8381 22.8583 63.179H22.0202C21.9563 62.9304 21.8143 62.7102 21.5941 62.5185C21.3763 62.3243 21.0827 62.2273 20.7134 62.2273C20.3867 62.2273 20.1003 62.3125 19.854 62.483C19.6102 62.651 19.4196 62.889 19.2823 63.1967C19.1474 63.5021 19.0799 63.8608 19.0799 64.2727C19.0799 64.6941 19.1462 65.0611 19.2788 65.3736C19.4137 65.6861 19.6031 65.9287 19.8469 66.1016C20.0932 66.2744 20.382 66.3608 20.7134 66.3608C20.9312 66.3608 21.1289 66.3229 21.3065 66.2472C21.484 66.1714 21.6344 66.0625 21.7575 65.9205C21.8806 65.7784 21.9682 65.608 22.0202 65.4091H22.8583C22.811 65.7311 22.6938 66.0211 22.5067 66.2791C22.3221 66.5348 22.0771 66.7384 21.7717 66.8899C21.4686 67.0391 21.1159 67.1136 20.7134 67.1136ZM26.2994 67.1136C25.8069 67.1136 25.3749 66.9964 25.0032 66.7621C24.6339 66.5277 24.3451 66.1998 24.1367 65.7784C23.9308 65.357 23.8278 64.8646 23.8278 64.3011C23.8278 63.733 23.9308 63.237 24.1367 62.8132C24.3451 62.3894 24.6339 62.0604 25.0032 61.826C25.3749 61.5916 25.8069 61.4744 26.2994 61.4744C26.7918 61.4744 27.2227 61.5916 27.592 61.826C27.9637 62.0604 28.2525 62.3894 28.4585 62.8132C28.6668 63.237 28.771 63.733 28.771 64.3011C28.771 64.8646 28.6668 65.357 28.4585 65.7784C28.2525 66.1998 27.9637 66.5277 27.592 66.7621C27.2227 66.9964 26.7918 67.1136 26.2994 67.1136ZM26.2994 66.3608C26.6734 66.3608 26.9812 66.2649 27.2227 66.0732C27.4641 65.8814 27.6429 65.6293 27.7589 65.3168C27.8749 65.0043 27.9329 64.6657 27.9329 64.3011C27.9329 63.9366 27.8749 63.5968 27.7589 63.282C27.6429 62.9671 27.4641 62.7126 27.2227 62.5185C26.9812 62.3243 26.6734 62.2273 26.2994 62.2273C25.9253 62.2273 25.6175 62.3243 25.3761 62.5185C25.1346 62.7126 24.9558 62.9671 24.8398 63.282C24.7238 63.5968 24.6658 63.9366 24.6658 64.3011C24.6658 64.6657 24.7238 65.0043 24.8398 65.3168C24.9558 65.6293 25.1346 65.8814 25.3761 66.0732C25.6175 66.2649 25.9253 66.3608 26.2994 66.3608ZM30.8883 63.7188V67H30.0502V61.5455H30.8599V62.3977H30.9309C31.0588 62.1207 31.2529 61.8982 31.5133 61.7301C31.7737 61.5597 32.1099 61.4744 32.5218 61.4744C32.8912 61.4744 33.2143 61.5502 33.4913 61.7017C33.7683 61.8509 33.9837 62.0781 34.1376 62.3835C34.2915 62.6866 34.3684 63.0701 34.3684 63.5341V67H33.5304V63.5909C33.5304 63.1624 33.4191 62.8286 33.1966 62.5895C32.974 62.348 32.6686 62.2273 32.2804 62.2273C32.0128 62.2273 31.7737 62.2853 31.563 62.4013C31.3547 62.5173 31.1902 62.6866 31.0694 62.9091C30.9487 63.1316 30.8883 63.4015 30.8883 63.7188ZM36.7379 63.7188V67H35.8999V61.5455H36.7095V62.3977H36.7805C36.9084 62.1207 37.1025 61.8982 37.3629 61.7301C37.6233 61.5597 37.9595 61.4744 38.3714 61.4744C38.7408 61.4744 39.0639 61.5502 39.3409 61.7017C39.6179 61.8509 39.8333 62.0781 39.9872 62.3835C40.1411 62.6866 40.218 63.0701 40.218 63.5341V67H39.38V63.5909C39.38 63.1624 39.2687 62.8286 39.0462 62.5895C38.8236 62.348 38.5182 62.2273 38.13 62.2273C37.8625 62.2273 37.6233 62.2853 37.4126 62.4013C37.2043 62.5173 37.0398 62.6866 36.919 62.9091C36.7983 63.1316 36.7379 63.4015 36.7379 63.7188ZM44.0364 67.1136C43.5108 67.1136 43.0575 66.9976 42.6763 66.7656C42.2975 66.5312 42.0051 66.2045 41.7992 65.7855C41.5956 65.3641 41.4938 64.8741 41.4938 64.3153C41.4938 63.7566 41.5956 63.2642 41.7992 62.8381C42.0051 62.4096 42.2916 62.0758 42.6586 61.8366C43.0279 61.5952 43.4587 61.4744 43.9512 61.4744C44.2353 61.4744 44.5158 61.5218 44.7928 61.6165C45.0698 61.7112 45.3219 61.8651 45.5492 62.0781C45.7765 62.2888 45.9576 62.5682 46.0925 62.9162C46.2275 63.2642 46.2949 63.6927 46.2949 64.2017V64.5568H42.0904V63.8324H45.4426C45.4426 63.5246 45.3811 63.25 45.258 63.0085C45.1373 62.767 44.9644 62.5765 44.7395 62.4368C44.517 62.2971 44.2542 62.2273 43.9512 62.2273C43.6174 62.2273 43.3285 62.3101 43.0847 62.4759C42.8432 62.6392 42.6574 62.8523 42.5272 63.1151C42.397 63.3778 42.3319 63.6596 42.3319 63.9602V64.4432C42.3319 64.8551 42.4029 65.2043 42.5449 65.4908C42.6893 65.7749 42.8894 65.9915 43.1451 66.1406C43.4007 66.2874 43.6979 66.3608 44.0364 66.3608C44.2566 66.3608 44.4554 66.33 44.633 66.2685C44.8129 66.2045 44.968 66.1098 45.0982 65.9844C45.2284 65.8565 45.329 65.6979 45.4 65.5085L46.2097 65.7358C46.1245 66.0104 45.9812 66.2519 45.78 66.4602C45.5788 66.6662 45.3302 66.8272 45.0343 66.9432C44.7383 67.0568 44.4057 67.1136 44.0364 67.1136ZM49.7857 67.1136C49.2743 67.1136 48.834 66.9929 48.4647 66.7514C48.0953 66.5099 47.8113 66.1773 47.6124 65.7536C47.4135 65.3298 47.3141 64.8456 47.3141 64.3011C47.3141 63.7472 47.4159 63.2583 47.6195 62.8345C47.8255 62.4084 48.1119 62.0758 48.4789 61.8366C48.8482 61.5952 49.2791 61.4744 49.7715 61.4744C50.155 61.4744 50.5007 61.5455 50.8084 61.6875C51.1162 61.8295 51.3683 62.0284 51.5648 62.2841C51.7613 62.5398 51.8832 62.8381 51.9306 63.179H51.0925C51.0286 62.9304 50.8865 62.7102 50.6664 62.5185C50.4486 62.3243 50.155 62.2273 49.7857 62.2273C49.459 62.2273 49.1725 62.3125 48.9263 62.483C48.6825 62.651 48.4919 62.889 48.3546 63.1967C48.2196 63.5021 48.1522 63.8608 48.1522 64.2727C48.1522 64.6941 48.2185 65.0611 48.351 65.3736C48.486 65.6861 48.6754 65.9287 48.9192 66.1016C49.1654 66.2744 49.4542 66.3608 49.7857 66.3608C50.0035 66.3608 50.2012 66.3229 50.3787 66.2472C50.5563 66.1714 50.7066 66.0625 50.8297 65.9205C50.9528 65.7784 51.0404 65.608 51.0925 65.4091H51.9306C51.8832 65.7311 51.766 66.0211 51.579 66.2791C51.3944 66.5348 51.1493 66.7384 50.8439 66.8899C50.5409 67.0391 50.1882 67.1136 49.7857 67.1136ZM55.5279 61.5455V62.2557H52.7012V61.5455H55.5279ZM53.525 60.2386H54.3631V65.4375C54.3631 65.6742 54.3974 65.8518 54.4661 65.9702C54.5371 66.0862 54.6271 66.1643 54.736 66.2045C54.8472 66.2424 54.9644 66.2614 55.0875 66.2614C55.1799 66.2614 55.2556 66.2566 55.3148 66.2472C55.374 66.2353 55.4213 66.2259 55.4569 66.2188L55.6273 66.9716C55.5705 66.9929 55.4912 67.0142 55.3894 67.0355C55.2876 67.0592 55.1586 67.071 55.0023 67.071C54.7656 67.071 54.5336 67.0201 54.3063 66.9183C54.0814 66.8165 53.8944 66.6615 53.7452 66.4531C53.5984 66.2448 53.525 65.982 53.525 65.6648V60.2386ZM56.7885 67V61.5455H57.6266V67H56.7885ZM57.2147 60.6364C57.0513 60.6364 56.9105 60.5807 56.7921 60.4695C56.6761 60.3582 56.6181 60.2244 56.6181 60.0682C56.6181 59.9119 56.6761 59.7782 56.7921 59.6669C56.9105 59.5556 57.0513 59.5 57.2147 59.5C57.378 59.5 57.5177 59.5556 57.6337 59.6669C57.7521 59.7782 57.8113 59.9119 57.8113 60.0682C57.8113 60.2244 57.7521 60.3582 57.6337 60.4695C57.5177 60.5807 57.378 60.6364 57.2147 60.6364ZM61.3775 67.1136C60.8851 67.1136 60.453 66.9964 60.0813 66.7621C59.712 66.5277 59.4232 66.1998 59.2148 65.7784C59.0089 65.357 58.9059 64.8646 58.9059 64.3011C58.9059 63.733 59.0089 63.237 59.2148 62.8132C59.4232 62.3894 59.712 62.0604 60.0813 61.826C60.453 61.5916 60.8851 61.4744 61.3775 61.4744C61.8699 61.4744 62.3008 61.5916 62.6701 61.826C63.0418 62.0604 63.3306 62.3894 63.5366 62.8132C63.7449 63.237 63.8491 63.733 63.8491 64.3011C63.8491 64.8646 63.7449 65.357 63.5366 65.7784C63.3306 66.1998 63.0418 66.5277 62.6701 66.7621C62.3008 66.9964 61.8699 67.1136 61.3775 67.1136ZM61.3775 66.3608C61.7515 66.3608 62.0593 66.2649 62.3008 66.0732C62.5423 65.8814 62.721 65.6293 62.837 65.3168C62.953 65.0043 63.011 64.6657 63.011 64.3011C63.011 63.9366 62.953 63.5968 62.837 63.282C62.721 62.9671 62.5423 62.7126 62.3008 62.5185C62.0593 62.3243 61.7515 62.2273 61.3775 62.2273C61.0034 62.2273 60.6957 62.3243 60.4542 62.5185C60.2127 62.7126 60.034 62.9671 59.918 63.282C59.802 63.5968 59.744 63.9366 59.744 64.3011C59.744 64.6657 59.802 65.0043 59.918 65.3168C60.034 65.6293 60.2127 65.8814 60.4542 66.0732C60.6957 66.2649 61.0034 66.3608 61.3775 66.3608ZM65.9664 63.7188V67H65.1284V61.5455H65.938V62.3977H66.0091C66.1369 62.1207 66.331 61.8982 66.5914 61.7301C66.8519 61.5597 67.188 61.4744 67.6 61.4744C67.9693 61.4744 68.2924 61.5502 68.5694 61.7017C68.8464 61.8509 69.0618 62.0781 69.2157 62.3835C69.3696 62.6866 69.4466 63.0701 69.4466 63.5341V67H68.6085V63.5909C68.6085 63.1624 68.4972 62.8286 68.2747 62.5895C68.0521 62.348 67.7467 62.2273 67.3585 62.2273C67.091 62.2273 66.8519 62.2853 66.6412 62.4013C66.4328 62.5173 66.2683 62.6866 66.1475 62.9091C66.0268 63.1316 65.9664 63.4015 65.9664 63.7188ZM73.7905 69.0455V61.5455H74.6001V62.4119H74.6996C74.7611 62.3172 74.8464 62.1965 74.9553 62.0497C75.0665 61.9006 75.2251 61.768 75.4311 61.652C75.6394 61.5336 75.9212 61.4744 76.2763 61.4744C76.7356 61.4744 77.1404 61.5893 77.4908 61.8189C77.8411 62.0485 78.1146 62.3741 78.3111 62.7955C78.5076 63.2169 78.6058 63.714 78.6058 64.2869C78.6058 64.8646 78.5076 65.3653 78.3111 65.7891C78.1146 66.2105 77.8423 66.5372 77.4943 66.7692C77.1463 66.9988 76.745 67.1136 76.2905 67.1136C75.9401 67.1136 75.6596 67.0556 75.4489 66.9396C75.2382 66.8213 75.076 66.6875 74.9624 66.5384C74.8487 66.3868 74.7611 66.2614 74.6996 66.1619H74.6286V69.0455H73.7905ZM74.6143 64.2727C74.6143 64.6847 74.6747 65.0481 74.7955 65.3629C74.9162 65.6754 75.0926 65.9205 75.3246 66.098C75.5566 66.2732 75.8407 66.3608 76.1768 66.3608C76.5272 66.3608 76.8196 66.2685 77.054 66.0838C77.2907 65.8968 77.4683 65.6458 77.5866 65.331C77.7074 65.0137 77.7678 64.661 77.7678 64.2727C77.7678 63.8892 77.7086 63.5436 77.5902 63.2358C77.4742 62.9257 77.2978 62.6806 77.0611 62.5007C76.8267 62.3184 76.532 62.2273 76.1768 62.2273C75.8359 62.2273 75.5495 62.3137 75.3175 62.4865C75.0855 62.657 74.9103 62.8961 74.7919 63.2038C74.6735 63.5092 74.6143 63.8655 74.6143 64.2727ZM80.7223 59.7273V67H79.8842V59.7273H80.7223ZM83.8624 67.1278C83.5167 67.1278 83.2031 67.0627 82.9213 66.9325C82.6396 66.8 82.4159 66.6094 82.2502 66.3608C82.0845 66.1098 82.0016 65.8068 82.0016 65.4517C82.0016 65.1392 82.0632 64.8859 82.1863 64.6918C82.3094 64.4953 82.4739 64.3414 82.6799 64.2301C82.8858 64.1188 83.1131 64.036 83.3617 63.9815C83.6126 63.9247 83.8648 63.8797 84.1181 63.8466C84.4495 63.804 84.7182 63.772 84.9242 63.7507C85.1325 63.727 85.284 63.688 85.3787 63.6335C85.4758 63.5791 85.5243 63.4844 85.5243 63.3494V63.321C85.5243 62.9706 85.4284 62.6984 85.2367 62.5043C85.0473 62.3101 84.7596 62.2131 84.3738 62.2131C83.9737 62.2131 83.66 62.3007 83.4327 62.4759C83.2054 62.651 83.0456 62.8381 82.9533 63.0369L82.1578 62.7528C82.2999 62.4214 82.4893 62.1634 82.726 61.9787C82.9651 61.7917 83.2256 61.6615 83.5073 61.5881C83.7914 61.5123 84.0707 61.4744 84.3453 61.4744C84.5205 61.4744 84.7218 61.4957 84.949 61.5384C85.1787 61.5786 85.4 61.6626 85.6131 61.7905C85.8285 61.9183 86.0073 62.1113 86.1493 62.3693C86.2914 62.6274 86.3624 62.973 86.3624 63.4062V67H85.5243V66.2614H85.4817C85.4249 66.3797 85.3302 66.5064 85.1976 66.6413C85.065 66.7763 84.8887 66.8911 84.6685 66.9858C84.4483 67.0805 84.1796 67.1278 83.8624 67.1278ZM83.9902 66.375C84.3217 66.375 84.601 66.3099 84.8283 66.1797C85.0579 66.0495 85.2308 65.8814 85.3468 65.6754C85.4651 65.4695 85.5243 65.2528 85.5243 65.0256V64.2585C85.4888 64.3011 85.4107 64.3402 85.29 64.3757C85.1716 64.4089 85.0343 64.4384 84.878 64.4645C84.7241 64.4882 84.5738 64.5095 84.427 64.5284C84.2826 64.545 84.1654 64.5592 84.0755 64.571C83.8577 64.5994 83.6541 64.6456 83.4647 64.7095C83.2776 64.7711 83.1261 64.8646 83.0101 64.9901C82.8965 65.1132 82.8397 65.2812 82.8397 65.4943C82.8397 65.7855 82.9474 66.0057 83.1628 66.1548C83.3806 66.3016 83.6564 66.375 83.9902 66.375ZM90.2642 61.5455V62.2557H87.4375V61.5455H90.2642ZM88.2614 60.2386H89.0994V65.4375C89.0994 65.6742 89.1338 65.8518 89.2024 65.9702C89.2734 66.0862 89.3634 66.1643 89.4723 66.2045C89.5836 66.2424 89.7008 66.2614 89.8239 66.2614C89.9162 66.2614 89.992 66.2566 90.0511 66.2472C90.1103 66.2353 90.1577 66.2259 90.1932 66.2188L90.3636 66.9716C90.3068 66.9929 90.2275 67.0142 90.1257 67.0355C90.0239 67.0592 89.8949 67.071 89.7386 67.071C89.5019 67.071 89.2699 67.0201 89.0426 66.9183C88.8177 66.8165 88.6307 66.6615 88.4815 66.4531C88.3348 66.2448 88.2614 65.982 88.2614 65.6648V60.2386ZM93.9538 61.5455V62.2557H91.0135V61.5455H93.9538ZM91.8942 67V60.7926C91.8942 60.4801 91.9676 60.2197 92.1143 60.0114C92.2611 59.803 92.4517 59.6468 92.6861 59.5426C92.9205 59.4384 93.1679 59.3864 93.4283 59.3864C93.6342 59.3864 93.8023 59.4029 93.9325 59.4361C94.0627 59.4692 94.1598 59.5 94.2237 59.5284L93.9822 60.2528C93.9396 60.2386 93.8804 60.2209 93.8047 60.1996C93.7313 60.1783 93.6342 60.1676 93.5135 60.1676C93.2365 60.1676 93.0365 60.2375 92.9134 60.3771C92.7926 60.5168 92.7322 60.7216 92.7322 60.9915V67H91.8942ZM97.1197 67.1136C96.6272 67.1136 96.1952 66.9964 95.8235 66.7621C95.4542 66.5277 95.1654 66.1998 94.957 65.7784C94.7511 65.357 94.6481 64.8646 94.6481 64.3011C94.6481 63.733 94.7511 63.237 94.957 62.8132C95.1654 62.3894 95.4542 62.0604 95.8235 61.826C96.1952 61.5916 96.6272 61.4744 97.1197 61.4744C97.6121 61.4744 98.043 61.5916 98.4123 61.826C98.784 62.0604 99.0728 62.3894 99.2788 62.8132C99.4871 63.237 99.5913 63.733 99.5913 64.3011C99.5913 64.8646 99.4871 65.357 99.2788 65.7784C99.0728 66.1998 98.784 66.5277 98.4123 66.7621C98.043 66.9964 97.6121 67.1136 97.1197 67.1136ZM97.1197 66.3608C97.4937 66.3608 97.8015 66.2649 98.043 66.0732C98.2844 65.8814 98.4632 65.6293 98.5792 65.3168C98.6952 65.0043 98.7532 64.6657 98.7532 64.3011C98.7532 63.9366 98.6952 63.5968 98.5792 63.282C98.4632 62.9671 98.2844 62.7126 98.043 62.5185C97.8015 62.3243 97.4937 62.2273 97.1197 62.2273C96.7456 62.2273 96.4379 62.3243 96.1964 62.5185C95.9549 62.7126 95.7762 62.9671 95.6602 63.282C95.5442 63.5968 95.4862 63.9366 95.4862 64.3011C95.4862 64.6657 95.5442 65.0043 95.6602 65.3168C95.7762 65.6293 95.9549 65.8814 96.1964 66.0732C96.4379 66.2649 96.7456 66.3608 97.1197 66.3608ZM100.871 67V61.5455H101.68V62.3693H101.737C101.836 62.0994 102.016 61.8804 102.277 61.7124C102.537 61.5443 102.831 61.4602 103.157 61.4602C103.219 61.4602 103.296 61.4614 103.388 61.4638C103.481 61.4661 103.55 61.4697 103.598 61.4744V62.3267C103.569 62.3196 103.504 62.3089 103.403 62.2947C103.303 62.2782 103.198 62.2699 103.086 62.2699C102.821 62.2699 102.585 62.3255 102.376 62.4368C102.17 62.5457 102.007 62.6972 101.886 62.8913C101.768 63.0831 101.709 63.3021 101.709 63.5483V67H100.871ZM104.591 67V61.5455H105.401V62.3977H105.472C105.586 62.1065 105.769 61.8804 106.022 61.7195C106.276 61.5561 106.58 61.4744 106.935 61.4744C107.295 61.4744 107.594 61.5561 107.833 61.7195C108.075 61.8804 108.263 62.1065 108.398 62.3977H108.455C108.595 62.116 108.804 61.8923 109.083 61.7266C109.363 61.5585 109.698 61.4744 110.088 61.4744C110.576 61.4744 110.975 61.6271 111.285 61.9325C111.595 62.2356 111.75 62.7079 111.75 63.3494V67H110.912V63.3494C110.912 62.947 110.802 62.6593 110.582 62.4865C110.362 62.3137 110.103 62.2273 109.804 62.2273C109.421 62.2273 109.124 62.3433 108.913 62.5753C108.702 62.8049 108.597 63.0961 108.597 63.4489V67H107.745V63.2642C107.745 62.9541 107.644 62.7043 107.443 62.5149C107.242 62.3232 106.982 62.2273 106.665 62.2273C106.447 62.2273 106.244 62.2853 106.054 62.4013C105.867 62.5173 105.716 62.6783 105.6 62.8842C105.486 63.0878 105.429 63.3234 105.429 63.5909V67H104.591ZM113.893 67.0568C113.718 67.0568 113.568 66.9941 113.442 66.8686C113.317 66.7431 113.254 66.5928 113.254 66.4176C113.254 66.2424 113.317 66.0921 113.442 65.9666C113.568 65.8411 113.718 65.7784 113.893 65.7784C114.069 65.7784 114.219 65.8411 114.344 65.9666C114.47 66.0921 114.533 66.2424 114.533 66.4176C114.533 66.5336 114.503 66.6402 114.444 66.7372C114.387 66.8343 114.31 66.9124 114.213 66.9716C114.118 67.0284 114.012 67.0568 113.893 67.0568Z" fill="black"/>
<path d="M68.1875 18.2812C68.75 19.9688 70.2969 21.0938 72.125 21.0938C74.5156 21.0938 76.3438 19.2656 76.3438 16.875C76.3438 14.4844 74.5156 12.6562 72.125 12.6562C70.2969 12.6562 68.75 13.7812 68.1875 15.4688H51.0312C49.4844 15.4688 48.2188 16.7344 48.2188 18.2812V26.7188H44V29.5312H48.2188V37.9688C48.2188 39.5156 49.4844 40.7812 51.0312 40.7812H70.7188C72.2656 40.7812 73.5312 39.5156 73.5312 37.9688V32.3438H70.7188V37.9688H51.0312V18.2812H68.1875ZM72.125 15.4688C72.9688 15.4688 73.5312 16.0312 73.5312 16.875C73.5312 17.7188 72.9688 18.2812 72.125 18.2812C71.2812 18.2812 70.7188 17.7188 70.7188 16.875C70.7188 16.0312 71.2812 15.4688 72.125 15.4688Z" fill="url(#paint0_linear_1_873)"/>
<path d="M84.7812 15.4688V7.03125C84.7812 5.48438 83.5156 4.21875 81.9688 4.21875H62.2812C60.7344 4.21875 59.4688 5.48438 59.4688 7.03125V12.6562H62.2812V7.03125H81.9688V26.7188H64.8125C64.25 25.0312 62.7031 23.9062 60.875 23.9062C58.4844 23.9062 56.6562 25.7344 56.6562 28.125C56.6562 30.5156 58.4844 32.3438 60.875 32.3438C62.7031 32.3438 64.25 31.2188 64.8125 29.5312H81.9688C83.5156 29.5312 84.7812 28.2656 84.7812 26.7188V18.2812H89V15.4688H84.7812ZM60.875 29.5312C60.0312 29.5312 59.4688 28.9688 59.4688 28.125C59.4688 27.2812 60.0312 26.7188 60.875 26.7188C61.7188 26.7188 62.2812 27.2812 62.2812 28.125C62.2812 28.9688 61.7188 29.5312 60.875 29.5312Z" fill="url(#paint1_linear_1_873)"/>
<path d="M12.7567 146V138.727H15.214C15.7846 138.727 16.251 138.83 16.6132 139.036C16.9778 139.24 17.2477 139.516 17.4229 139.864C17.598 140.212 17.6856 140.6 17.6856 141.028C17.6856 141.457 17.598 141.846 17.4229 142.197C17.25 142.547 16.9825 142.826 16.6203 143.035C16.2581 143.241 15.7941 143.344 15.2282 143.344H13.4669V142.562H15.1998C15.5905 142.562 15.9041 142.495 16.1409 142.36C16.3776 142.225 16.5493 142.043 16.6558 141.813C16.7647 141.581 16.8192 141.32 16.8192 141.028C16.8192 140.737 16.7647 140.477 16.6558 140.247C16.5493 140.018 16.3765 139.838 16.1373 139.707C15.8982 139.575 15.581 139.509 15.1856 139.509H13.6373V146H12.7567ZM18.9907 146V140.545H19.8003V141.369H19.8572C19.9566 141.099 20.1365 140.88 20.3969 140.712C20.6573 140.544 20.9509 140.46 21.2776 140.46C21.3392 140.46 21.4161 140.461 21.5084 140.464C21.6008 140.466 21.6706 140.47 21.718 140.474V141.327C21.6895 141.32 21.6244 141.309 21.5226 141.295C21.4232 141.278 21.3179 141.27 21.2066 141.27C20.9414 141.27 20.7047 141.326 20.4964 141.437C20.2904 141.546 20.127 141.697 20.0063 141.891C19.8879 142.083 19.8287 142.302 19.8287 142.548V146H18.9907ZM22.7114 146V140.545H23.5494V146H22.7114ZM23.1375 139.636C22.9742 139.636 22.8333 139.581 22.7149 139.469C22.5989 139.358 22.5409 139.224 22.5409 139.068C22.5409 138.912 22.5989 138.778 22.7149 138.667C22.8333 138.556 22.9742 138.5 23.1375 138.5C23.3009 138.5 23.4405 138.556 23.5566 138.667C23.6749 138.778 23.7341 138.912 23.7341 139.068C23.7341 139.224 23.6749 139.358 23.5566 139.469C23.4405 139.581 23.3009 139.636 23.1375 139.636ZM25.9225 142.719V146H25.0844V140.545H25.8941V141.398H25.9651C26.093 141.121 26.2871 140.898 26.5475 140.73C26.8079 140.56 27.1441 140.474 27.556 140.474C27.9253 140.474 28.2485 140.55 28.5255 140.702C28.8025 140.851 29.0179 141.078 29.1718 141.384C29.3257 141.687 29.4026 142.07 29.4026 142.534V146H28.5645V142.591C28.5645 142.162 28.4533 141.829 28.2307 141.589C28.0082 141.348 27.7028 141.227 27.3145 141.227C27.047 141.227 26.8079 141.285 26.5972 141.401C26.3889 141.517 26.2243 141.687 26.1036 141.909C25.9829 142.132 25.9225 142.402 25.9225 142.719ZM33.3062 140.545V141.256H30.4795V140.545H33.3062ZM31.3034 139.239H32.1414V144.438C32.1414 144.674 32.1758 144.852 32.2444 144.97C32.3154 145.086 32.4054 145.164 32.5143 145.205C32.6256 145.242 32.7427 145.261 32.8659 145.261C32.9582 145.261 33.0339 145.257 33.0931 145.247C33.1523 145.235 33.1997 145.226 33.2352 145.219L33.4056 145.972C33.3488 145.993 33.2695 146.014 33.1677 146.036C33.0659 146.059 32.9369 146.071 32.7806 146.071C32.5439 146.071 32.3119 146.02 32.0846 145.918C31.8597 145.817 31.6727 145.661 31.5235 145.453C31.3767 145.245 31.3034 144.982 31.3034 144.665V139.239ZM34.5669 146V140.545H35.4049V146H34.5669ZM34.993 139.636C34.8296 139.636 34.6888 139.581 34.5704 139.469C34.4544 139.358 34.3964 139.224 34.3964 139.068C34.3964 138.912 34.4544 138.778 34.5704 138.667C34.6888 138.556 34.8296 138.5 34.993 138.5C35.1563 138.5 35.296 138.556 35.412 138.667C35.5304 138.778 35.5896 138.912 35.5896 139.068C35.5896 139.224 35.5304 139.358 35.412 139.469C35.296 139.581 35.1563 139.636 34.993 139.636ZM37.778 142.719V146H36.9399V140.545H37.7496V141.398H37.8206C37.9484 141.121 38.1425 140.898 38.403 140.73C38.6634 140.56 38.9996 140.474 39.4115 140.474C39.7808 140.474 40.104 140.55 40.3809 140.702C40.6579 140.851 40.8734 141.078 41.0273 141.384C41.1811 141.687 41.2581 142.07 41.2581 142.534V146H40.42V142.591C40.42 142.162 40.3087 141.829 40.0862 141.589C39.8637 141.348 39.5583 141.227 39.17 141.227C38.9025 141.227 38.6634 141.285 38.4527 141.401C38.2443 141.517 38.0798 141.687 37.9591 141.909C37.8383 142.132 37.778 142.402 37.778 142.719ZM44.9912 148.159C44.5864 148.159 44.2384 148.107 43.9472 148.003C43.656 147.901 43.4133 147.766 43.2192 147.598C43.0274 147.432 42.8747 147.255 42.7611 147.065L43.4287 146.597C43.5045 146.696 43.6003 146.81 43.7164 146.938C43.8324 147.068 43.991 147.18 44.1922 147.275C44.3958 147.372 44.6621 147.42 44.9912 147.42C45.4316 147.42 45.795 147.314 46.0814 147.101C46.3679 146.888 46.5111 146.554 46.5111 146.099V144.991H46.4401C46.3785 145.091 46.2909 145.214 46.1773 145.361C46.066 145.505 45.905 145.634 45.6943 145.748C45.486 145.859 45.2043 145.915 44.8492 145.915C44.4088 145.915 44.0135 145.811 43.6631 145.602C43.3151 145.394 43.0393 145.091 42.8357 144.693C42.6344 144.295 42.5338 143.812 42.5338 143.244C42.5338 142.686 42.6321 142.199 42.8286 141.785C43.0251 141.368 43.2985 141.046 43.6489 140.819C43.9993 140.589 44.4041 140.474 44.8634 140.474C45.2185 140.474 45.5002 140.534 45.7085 140.652C45.9192 140.768 46.0802 140.901 46.1915 141.05C46.3051 141.196 46.3927 141.317 46.4543 141.412H46.5395V140.545H47.3492V146.156C47.3492 146.625 47.2426 147.006 47.0296 147.3C46.8189 147.596 46.5348 147.812 46.1773 147.95C45.8222 148.089 45.4268 148.159 44.9912 148.159ZM44.9628 145.162C45.299 145.162 45.5831 145.085 45.8151 144.931C46.0471 144.777 46.2235 144.556 46.3442 144.267C46.4649 143.978 46.5253 143.633 46.5253 143.23C46.5253 142.837 46.4661 142.49 46.3477 142.19C46.2294 141.889 46.0542 141.653 45.8222 141.483C45.5902 141.312 45.3037 141.227 44.9628 141.227C44.6077 141.227 44.3118 141.317 44.075 141.497C43.8406 141.677 43.6643 141.919 43.5459 142.222C43.4299 142.525 43.3719 142.861 43.3719 143.23C43.3719 143.609 43.4311 143.944 43.5494 144.235C43.6702 144.524 43.8477 144.751 44.0821 144.917C44.3189 145.08 44.6124 145.162 44.9628 145.162ZM54.0679 140.545V141.256H51.2412V140.545H54.0679ZM52.0651 139.239H52.9031V144.438C52.9031 144.674 52.9375 144.852 53.0061 144.97C53.0771 145.086 53.1671 145.164 53.276 145.205C53.3873 145.242 53.5045 145.261 53.6276 145.261C53.7199 145.261 53.7957 145.257 53.8548 145.247C53.914 145.235 53.9614 145.226 53.9969 145.219L54.1673 145.972C54.1105 145.993 54.0312 146.014 53.9294 146.036C53.8276 146.059 53.6986 146.071 53.5423 146.071C53.3056 146.071 53.0736 146.02 52.8463 145.918C52.6214 145.817 52.4344 145.661 52.2852 145.453C52.1385 145.245 52.0651 144.982 52.0651 144.665V139.239ZM55.3286 146V140.545H56.1666V146H55.3286ZM55.7547 139.636C55.5914 139.636 55.4505 139.581 55.3321 139.469C55.2161 139.358 55.1581 139.224 55.1581 139.068C55.1581 138.912 55.2161 138.778 55.3321 138.667C55.4505 138.556 55.5914 138.5 55.7547 138.5C55.9181 138.5 56.0577 138.556 56.1737 138.667C56.2921 138.778 56.3513 138.912 56.3513 139.068C56.3513 139.224 56.2921 139.358 56.1737 139.469C56.0577 139.581 55.9181 139.636 55.7547 139.636ZM57.7016 146V140.545H58.5113V141.398H58.5823C58.6959 141.107 58.8794 140.88 59.1327 140.719C59.386 140.556 59.6903 140.474 60.0454 140.474C60.4052 140.474 60.7047 140.556 60.9438 140.719C61.1853 140.88 61.3735 141.107 61.5084 141.398H61.5653C61.7049 141.116 61.9144 140.892 62.1938 140.727C62.4732 140.558 62.8082 140.474 63.1988 140.474C63.6865 140.474 64.0854 140.627 64.3955 140.933C64.7056 141.236 64.8607 141.708 64.8607 142.349V146H64.0226V142.349C64.0226 141.947 63.9126 141.659 63.6924 141.487C63.4722 141.314 63.213 141.227 62.9147 141.227C62.5312 141.227 62.234 141.343 62.0233 141.575C61.8126 141.805 61.7073 142.096 61.7073 142.449V146H60.855V142.264C60.855 141.954 60.7544 141.704 60.5532 141.515C60.3519 141.323 60.0927 141.227 59.7755 141.227C59.5577 141.227 59.3541 141.285 59.1647 141.401C58.9777 141.517 58.8261 141.678 58.7101 141.884C58.5965 142.088 58.5397 142.323 58.5397 142.591V146H57.7016ZM68.68 146.114C68.1544 146.114 67.701 145.998 67.3199 145.766C66.9411 145.531 66.6487 145.205 66.4427 144.786C66.2391 144.364 66.1373 143.874 66.1373 143.315C66.1373 142.757 66.2391 142.264 66.4427 141.838C66.6487 141.41 66.9352 141.076 67.3021 140.837C67.6714 140.595 68.1023 140.474 68.5947 140.474C68.8788 140.474 69.1594 140.522 69.4363 140.616C69.7133 140.711 69.9655 140.865 70.1927 141.078C70.42 141.289 70.6011 141.568 70.7361 141.916C70.871 142.264 70.9385 142.693 70.9385 143.202V143.557H66.7339V142.832H70.0862C70.0862 142.525 70.0247 142.25 69.9015 142.009C69.7808 141.767 69.608 141.576 69.3831 141.437C69.1605 141.297 68.8978 141.227 68.5947 141.227C68.2609 141.227 67.9721 141.31 67.7282 141.476C67.4868 141.639 67.3009 141.852 67.1707 142.115C67.0405 142.378 66.9754 142.66 66.9754 142.96V143.443C66.9754 143.855 67.0464 144.204 67.1885 144.491C67.3329 144.775 67.5329 144.991 67.7886 145.141C68.0443 145.287 68.3414 145.361 68.68 145.361C68.9001 145.361 69.099 145.33 69.2765 145.268C69.4565 145.205 69.6115 145.11 69.7417 144.984C69.872 144.857 69.9726 144.698 70.0436 144.509L70.8532 144.736C70.768 145.01 70.6248 145.252 70.4236 145.46C70.2223 145.666 69.9738 145.827 69.6778 145.943C69.3819 146.057 69.0493 146.114 68.68 146.114ZM76.6309 146.128C76.2853 146.128 75.9716 146.063 75.6899 145.933C75.4082 145.8 75.1845 145.609 75.0187 145.361C74.853 145.11 74.7702 144.807 74.7702 144.452C74.7702 144.139 74.8317 143.886 74.9548 143.692C75.0779 143.495 75.2425 143.341 75.4484 143.23C75.6544 143.119 75.8817 143.036 76.1302 142.982C76.3812 142.925 76.6333 142.88 76.8866 142.847C77.2181 142.804 77.4868 142.772 77.6927 142.751C77.9011 142.727 78.0526 142.688 78.1473 142.634C78.2443 142.579 78.2929 142.484 78.2929 142.349V142.321C78.2929 141.971 78.197 141.698 78.0052 141.504C77.8158 141.31 77.5282 141.213 77.1423 141.213C76.7422 141.213 76.4285 141.301 76.2013 141.476C75.974 141.651 75.8142 141.838 75.7219 142.037L74.9264 141.753C75.0684 141.421 75.2578 141.163 75.4946 140.979C75.7337 140.792 75.9941 140.661 76.2758 140.588C76.5599 140.512 76.8393 140.474 77.1139 140.474C77.2891 140.474 77.4903 140.496 77.7176 140.538C77.9472 140.579 78.1686 140.663 78.3817 140.79C78.5971 140.918 78.7758 141.111 78.9179 141.369C79.0599 141.627 79.1309 141.973 79.1309 142.406V146H78.2929V145.261H78.2503C78.1934 145.38 78.0988 145.506 77.9662 145.641C77.8336 145.776 77.6572 145.891 77.4371 145.986C77.2169 146.08 76.9482 146.128 76.6309 146.128ZM76.7588 145.375C77.0902 145.375 77.3696 145.31 77.5969 145.18C77.8265 145.049 77.9993 144.881 78.1153 144.675C78.2337 144.469 78.2929 144.253 78.2929 144.026V143.259C78.2574 143.301 78.1792 143.34 78.0585 143.376C77.9401 143.409 77.8028 143.438 77.6466 143.464C77.4927 143.488 77.3424 143.509 77.1956 143.528C77.0512 143.545 76.934 143.559 76.844 143.571C76.6262 143.599 76.4226 143.646 76.2332 143.71C76.0462 143.771 75.8947 143.865 75.7787 143.99C75.665 144.113 75.6082 144.281 75.6082 144.494C75.6082 144.786 75.7159 145.006 75.9314 145.155C76.1492 145.302 76.425 145.375 76.7588 145.375ZM81.4987 142.719V146H80.6606V140.545H81.4703V141.398H81.5413C81.6691 141.121 81.8633 140.898 82.1237 140.73C82.3841 140.56 82.7203 140.474 83.1322 140.474C83.5015 140.474 83.8247 140.55 84.1017 140.702C84.3786 140.851 84.5941 141.078 84.748 141.384C84.9018 141.687 84.9788 142.07 84.9788 142.534V146H84.1407V142.591C84.1407 142.162 84.0294 141.829 83.8069 141.589C83.5844 141.348 83.279 141.227 82.8907 141.227C82.6232 141.227 82.3841 141.285 82.1734 141.401C81.9651 141.517 81.8005 141.687 81.6798 141.909C81.559 142.132 81.4987 142.402 81.4987 142.719ZM88.5699 146.114C88.1153 146.114 87.714 145.999 87.366 145.769C87.018 145.537 86.7458 145.21 86.5493 144.789C86.3528 144.365 86.2545 143.865 86.2545 143.287C86.2545 142.714 86.3528 142.217 86.5493 141.795C86.7458 141.374 87.0192 141.049 87.3696 140.819C87.72 140.589 88.1248 140.474 88.5841 140.474C88.9392 140.474 89.2197 140.534 89.4257 140.652C89.634 140.768 89.7926 140.901 89.9015 141.05C90.0128 141.196 90.0992 141.317 90.1608 141.412H90.2318V138.727H91.0699V146H90.2602V145.162H90.1608C90.0992 145.261 90.0116 145.387 89.898 145.538C89.7844 145.687 89.6222 145.821 89.4115 145.94C89.2008 146.056 88.9202 146.114 88.5699 146.114ZM88.6835 145.361C89.0197 145.361 89.3038 145.273 89.5358 145.098C89.7678 144.92 89.9442 144.675 90.0649 144.363C90.1856 144.048 90.246 143.685 90.246 143.273C90.246 142.866 90.1868 142.509 90.0684 142.204C89.9501 141.896 89.7749 141.657 89.5429 141.487C89.3109 141.314 89.0244 141.227 88.6835 141.227C88.3284 141.227 88.0325 141.318 87.7957 141.501C87.5613 141.681 87.385 141.926 87.2666 142.236C87.1506 142.544 87.0926 142.889 87.0926 143.273C87.0926 143.661 87.1518 144.014 87.2702 144.331C87.3909 144.646 87.5684 144.897 87.8028 145.084C88.0396 145.268 88.3331 145.361 88.6835 145.361ZM97.9058 140.545V141.256H95.0791V140.545H97.9058ZM95.903 139.239H96.741V144.438C96.741 144.674 96.7754 144.852 96.844 144.97C96.915 145.086 97.005 145.164 97.1139 145.205C97.2252 145.242 97.3424 145.261 97.4655 145.261C97.5578 145.261 97.6336 145.257 97.6927 145.247C97.7519 145.235 97.7993 145.226 97.8348 145.219L98.0052 145.972C97.9484 145.993 97.8691 146.014 97.7673 146.036C97.6655 146.059 97.5365 146.071 97.3802 146.071C97.1435 146.071 96.9115 146.02 96.6842 145.918C96.4593 145.817 96.2723 145.661 96.1231 145.453C95.9764 145.245 95.903 144.982 95.903 144.665V139.239ZM99.1665 146V140.545H99.9761V141.369H100.033C100.132 141.099 100.312 140.88 100.573 140.712C100.833 140.544 101.127 140.46 101.453 140.46C101.515 140.46 101.592 140.461 101.684 140.464C101.777 140.466 101.846 140.47 101.894 140.474V141.327C101.865 141.32 101.8 141.309 101.698 141.295C101.599 141.278 101.494 141.27 101.382 141.27C101.117 141.27 100.88 141.326 100.672 141.437C100.466 141.546 100.303 141.697 100.182 141.891C100.064 142.083 100.005 142.302 100.005 142.548V146H99.1665ZM104.492 146.128C104.147 146.128 103.833 146.063 103.551 145.933C103.27 145.8 103.046 145.609 102.88 145.361C102.714 145.11 102.631 144.807 102.631 144.452C102.631 144.139 102.693 143.886 102.816 143.692C102.939 143.495 103.104 143.341 103.31 143.23C103.516 143.119 103.743 143.036 103.992 142.982C104.243 142.925 104.495 142.88 104.748 142.847C105.079 142.804 105.348 142.772 105.554 142.751C105.762 142.727 105.914 142.688 106.009 142.634C106.106 142.579 106.154 142.484 106.154 142.349V142.321C106.154 141.971 106.058 141.698 105.867 141.504C105.677 141.31 105.39 141.213 105.004 141.213C104.604 141.213 104.29 141.301 104.063 141.476C103.835 141.651 103.676 141.838 103.583 142.037L102.788 141.753C102.93 141.421 103.119 141.163 103.356 140.979C103.595 140.792 103.855 140.661 104.137 140.588C104.421 140.512 104.701 140.474 104.975 140.474C105.15 140.474 105.352 140.496 105.579 140.538C105.809 140.579 106.03 140.663 106.243 140.79C106.458 140.918 106.637 141.111 106.779 141.369C106.921 141.627 106.992 141.973 106.992 142.406V146H106.154V145.261H106.112C106.055 145.38 105.96 145.506 105.828 145.641C105.695 145.776 105.519 145.891 105.298 145.986C105.078 146.08 104.81 146.128 104.492 146.128ZM104.62 145.375C104.952 145.375 105.231 145.31 105.458 145.18C105.688 145.049 105.861 144.881 105.977 144.675C106.095 144.469 106.154 144.253 106.154 144.026V143.259C106.119 143.301 106.041 143.34 105.92 143.376C105.801 143.409 105.664 143.438 105.508 143.464C105.354 143.488 105.204 143.509 105.057 143.528C104.912 143.545 104.795 143.559 104.705 143.571C104.488 143.599 104.284 143.646 104.095 143.71C103.908 143.771 103.756 143.865 103.64 143.99C103.526 144.113 103.47 144.281 103.47 144.494C103.47 144.786 103.577 145.006 103.793 145.155C104.011 145.302 104.286 145.375 104.62 145.375ZM112.787 140.545L110.77 146H109.918L107.9 140.545H108.81L110.315 144.892H110.372L111.878 140.545H112.787ZM115.985 146.114C115.459 146.114 115.006 145.998 114.625 145.766C114.246 145.531 113.953 145.205 113.747 144.786C113.544 144.364 113.442 143.874 113.442 143.315C113.442 142.757 113.544 142.264 113.747 141.838C113.953 141.41 114.24 141.076 114.607 140.837C114.976 140.595 115.407 140.474 115.899 140.474C116.184 140.474 116.464 140.522 116.741 140.616C117.018 140.711 117.27 140.865 117.497 141.078C117.725 141.289 117.906 141.568 118.041 141.916C118.176 142.264 118.243 142.693 118.243 143.202V143.557H114.039V142.832H117.391C117.391 142.525 117.329 142.25 117.206 142.009C117.085 141.767 116.913 141.576 116.688 141.437C116.465 141.297 116.202 141.227 115.899 141.227C115.566 141.227 115.277 141.31 115.033 141.476C114.791 141.639 114.606 141.852 114.475 142.115C114.345 142.378 114.28 142.66 114.28 142.96V143.443C114.28 143.855 114.351 144.204 114.493 144.491C114.638 144.775 114.838 144.991 115.093 145.141C115.349 145.287 115.646 145.361 115.985 145.361C116.205 145.361 116.404 145.33 116.581 145.268C116.761 145.205 116.916 145.11 117.046 144.984C117.177 144.857 117.277 144.698 117.348 144.509L118.158 144.736C118.073 145.01 117.929 145.252 117.728 145.46C117.527 145.666 117.278 145.827 116.983 145.943C116.687 146.057 116.354 146.114 115.985 146.114ZM120.356 138.727V146H119.518V138.727H120.356ZM21.7779 158.114C21.3233 158.114 20.9221 157.999 20.574 157.769C20.226 157.537 19.9538 157.21 19.7573 156.789C19.5608 156.365 19.4625 155.865 19.4625 155.287C19.4625 154.714 19.5608 154.217 19.7573 153.795C19.9538 153.374 20.2272 153.049 20.5776 152.819C20.928 152.589 21.3328 152.474 21.7921 152.474C22.1472 152.474 22.4277 152.534 22.6337 152.652C22.842 152.768 23.0007 152.901 23.1096 153.05C23.2208 153.196 23.3072 153.317 23.3688 153.412H23.4398V150.727H24.2779V158H23.4682V157.162H23.3688C23.3072 157.261 23.2196 157.387 23.106 157.538C22.9924 157.687 22.8302 157.821 22.6195 157.94C22.4088 158.056 22.1283 158.114 21.7779 158.114ZM21.8915 157.361C22.2277 157.361 22.5118 157.273 22.7438 157.098C22.9758 156.92 23.1522 156.675 23.2729 156.363C23.3936 156.048 23.454 155.685 23.454 155.273C23.454 154.866 23.3948 154.509 23.2765 154.204C23.1581 153.896 22.9829 153.657 22.7509 153.487C22.5189 153.314 22.2324 153.227 21.8915 153.227C21.5364 153.227 21.2405 153.318 21.0037 153.501C20.7694 153.681 20.593 153.926 20.4746 154.236C20.3586 154.544 20.3006 154.889 20.3006 155.273C20.3006 155.661 20.3598 156.014 20.4782 156.331C20.5989 156.646 20.7765 156.897 21.0108 157.084C21.2476 157.268 21.5411 157.361 21.8915 157.361ZM25.9292 158V152.545H26.7672V158H25.9292ZM26.3553 151.636C26.1919 151.636 26.0511 151.581 25.9327 151.469C25.8167 151.358 25.7587 151.224 25.7587 151.068C25.7587 150.912 25.8167 150.778 25.9327 150.667C26.0511 150.556 26.1919 150.5 26.3553 150.5C26.5186 150.5 26.6583 150.556 26.7743 150.667C26.8927 150.778 26.9519 150.912 26.9519 151.068C26.9519 151.224 26.8927 151.358 26.7743 151.469C26.6583 151.581 26.5186 151.636 26.3553 151.636ZM32.1658 153.767L31.413 153.98C31.3656 153.855 31.2958 153.733 31.2035 153.614C31.1135 153.494 30.9904 153.394 30.8342 153.316C30.6779 153.238 30.4779 153.199 30.234 153.199C29.9002 153.199 29.622 153.276 29.3995 153.43C29.1793 153.581 29.0692 153.774 29.0692 154.009C29.0692 154.217 29.145 154.381 29.2965 154.502C29.448 154.623 29.6848 154.723 30.0067 154.804L30.8164 155.003C31.3041 155.121 31.6675 155.302 31.9066 155.546C32.1457 155.788 32.2653 156.099 32.2653 156.48C32.2653 156.793 32.1753 157.072 31.9954 157.318C31.8178 157.564 31.5692 157.759 31.2496 157.901C30.93 158.043 30.5584 158.114 30.1346 158.114C29.5782 158.114 29.1178 157.993 28.7532 157.751C28.3886 157.51 28.1578 157.157 28.0607 156.693L28.8562 156.494C28.9319 156.788 29.0752 157.008 29.2859 157.155C29.4989 157.302 29.7771 157.375 30.1204 157.375C30.511 157.375 30.8211 157.292 31.0508 157.126C31.2828 156.958 31.3988 156.757 31.3988 156.523C31.3988 156.333 31.3325 156.175 31.1999 156.047C31.0674 155.917 30.8638 155.82 30.5891 155.756L29.68 155.543C29.1805 155.424 28.8136 155.241 28.5792 154.992C28.3472 154.741 28.2312 154.428 28.2312 154.051C28.2312 153.743 28.3176 153.471 28.4904 153.234C28.6656 152.998 28.9035 152.812 29.2042 152.677C29.5072 152.542 29.8505 152.474 30.234 152.474C30.7738 152.474 31.1976 152.593 31.5053 152.83C31.8155 153.066 32.0356 153.379 32.1658 153.767ZM35.899 152.545V153.256H33.0723V152.545H35.899ZM33.8961 151.239H34.7342V156.438C34.7342 156.674 34.7685 156.852 34.8372 156.97C34.9082 157.086 34.9982 157.164 35.1071 157.205C35.2183 157.242 35.3355 157.261 35.4586 157.261C35.551 157.261 35.6267 157.257 35.6859 157.247C35.7451 157.235 35.7924 157.226 35.8279 157.219L35.9984 157.972C35.9416 157.993 35.8623 158.014 35.7605 158.036C35.6587 158.059 35.5297 158.071 35.3734 158.071C35.1367 158.071 34.9047 158.02 34.6774 157.918C34.4525 157.817 34.2654 157.661 34.1163 157.453C33.9695 157.245 33.8961 156.982 33.8961 156.665V151.239ZM38.7647 158.128C38.4191 158.128 38.1054 158.063 37.8237 157.933C37.542 157.8 37.3182 157.609 37.1525 157.361C36.9868 157.11 36.9039 156.807 36.9039 156.452C36.9039 156.139 36.9655 155.886 37.0886 155.692C37.2117 155.495 37.3762 155.341 37.5822 155.23C37.7882 155.119 38.0154 155.036 38.264 154.982C38.515 154.925 38.7671 154.88 39.0204 154.847C39.3519 154.804 39.6206 154.772 39.8265 154.751C40.0349 154.727 40.1864 154.688 40.2811 154.634C40.3781 154.579 40.4267 154.484 40.4267 154.349V154.321C40.4267 153.971 40.3308 153.698 40.139 153.504C39.9496 153.31 39.662 153.213 39.2761 153.213C38.876 153.213 38.5623 153.301 38.335 153.476C38.1078 153.651 37.948 153.838 37.8556 154.037L37.0602 153.753C37.2022 153.421 37.3916 153.163 37.6284 152.979C37.8675 152.792 38.1279 152.661 38.4096 152.588C38.6937 152.512 38.9731 152.474 39.2477 152.474C39.4229 152.474 39.6241 152.496 39.8514 152.538C40.081 152.579 40.3024 152.663 40.5154 152.79C40.7309 152.918 40.9096 153.111 41.0517 153.369C41.1937 153.627 41.2647 153.973 41.2647 154.406V158H40.4267V157.261H40.3841C40.3272 157.38 40.2325 157.506 40.1 157.641C39.9674 157.776 39.791 157.891 39.5708 157.986C39.3507 158.08 39.082 158.128 38.7647 158.128ZM38.8926 157.375C39.224 157.375 39.5034 157.31 39.7306 157.18C39.9603 157.049 40.1331 156.881 40.2491 156.675C40.3675 156.469 40.4267 156.253 40.4267 156.026V155.259C40.3912 155.301 40.313 155.34 40.1923 155.376C40.0739 155.409 39.9366 155.438 39.7804 155.464C39.6265 155.488 39.4761 155.509 39.3294 155.528C39.185 155.545 39.0678 155.559 38.9778 155.571C38.76 155.599 38.5564 155.646 38.367 155.71C38.18 155.771 38.0285 155.865 37.9125 155.99C37.7988 156.113 37.742 156.281 37.742 156.494C37.742 156.786 37.8497 157.006 38.0652 157.155C38.283 157.302 38.5588 157.375 38.8926 157.375ZM43.6325 154.719V158H42.7944V152.545H43.604V153.398H43.6751C43.8029 153.121 43.997 152.898 44.2575 152.73C44.5179 152.56 44.854 152.474 45.266 152.474C45.6353 152.474 45.9585 152.55 46.2354 152.702C46.5124 152.851 46.7279 153.078 46.8817 153.384C47.0356 153.687 47.1126 154.07 47.1126 154.534V158H46.2745V154.591C46.2745 154.162 46.1632 153.829 45.9407 153.589C45.7182 153.348 45.4128 153.227 45.0245 153.227C44.757 153.227 44.5179 153.285 44.3072 153.401C44.0988 153.517 43.9343 153.687 43.8136 153.909C43.6928 154.132 43.6325 154.402 43.6325 154.719ZM50.8599 158.114C50.3485 158.114 49.9082 157.993 49.5389 157.751C49.1696 157.51 48.8855 157.177 48.6866 156.754C48.4877 156.33 48.3883 155.846 48.3883 155.301C48.3883 154.747 48.4901 154.258 48.6937 153.835C48.8997 153.408 49.1861 153.076 49.5531 152.837C49.9224 152.595 50.3533 152.474 50.8457 152.474C51.2292 152.474 51.5749 152.545 51.8826 152.688C52.1904 152.83 52.4425 153.028 52.639 153.284C52.8355 153.54 52.9574 153.838 53.0048 154.179H52.1667C52.1028 153.93 51.9608 153.71 51.7406 153.518C51.5228 153.324 51.2292 153.227 50.8599 153.227C50.5332 153.227 50.2467 153.312 50.0005 153.483C49.7567 153.651 49.5661 153.889 49.4288 154.197C49.2939 154.502 49.2264 154.861 49.2264 155.273C49.2264 155.694 49.2927 156.061 49.4252 156.374C49.5602 156.686 49.7496 156.929 49.9934 157.102C50.2396 157.274 50.5285 157.361 50.8599 157.361C51.0777 157.361 51.2754 157.323 51.4529 157.247C51.6305 157.171 51.7808 157.062 51.9039 156.92C52.027 156.778 52.1146 156.608 52.1667 156.409H53.0048C52.9574 156.731 52.8403 157.021 52.6532 157.279C52.4686 157.535 52.2235 157.738 51.9181 157.89C51.6151 158.039 51.2624 158.114 50.8599 158.114ZM56.5169 158.114C55.9913 158.114 55.5379 157.998 55.1568 157.766C54.778 157.531 54.4856 157.205 54.2797 156.786C54.0761 156.364 53.9743 155.874 53.9743 155.315C53.9743 154.757 54.0761 154.264 54.2797 153.838C54.4856 153.41 54.7721 153.076 55.139 152.837C55.5083 152.595 55.9392 152.474 56.4316 152.474C56.7157 152.474 56.9963 152.522 57.2733 152.616C57.5502 152.711 57.8024 152.865 58.0297 153.078C58.2569 153.289 58.438 153.568 58.573 153.916C58.7079 154.264 58.7754 154.693 58.7754 155.202V155.557H54.5708V154.832H57.9231C57.9231 154.525 57.8616 154.25 57.7385 154.009C57.6177 153.767 57.4449 153.576 57.22 153.437C56.9975 153.297 56.7347 153.227 56.4316 153.227C56.0978 153.227 55.809 153.31 55.5652 153.476C55.3237 153.639 55.1378 153.852 55.0076 154.115C54.8774 154.378 54.8123 154.66 54.8123 154.96V155.443C54.8123 155.855 54.8833 156.204 55.0254 156.491C55.1698 156.775 55.3699 156.991 55.6255 157.141C55.8812 157.287 56.1783 157.361 56.5169 157.361C56.737 157.361 56.9359 157.33 57.1135 157.268C57.2934 157.205 57.4484 157.11 57.5787 156.984C57.7089 156.857 57.8095 156.698 57.8805 156.509L58.6902 156.736C58.6049 157.01 58.4617 157.252 58.2605 157.46C58.0592 157.666 57.8107 157.827 57.5147 157.943C57.2188 158.057 56.8862 158.114 56.5169 158.114ZM65.1497 158.114C64.6241 158.114 64.1708 157.998 63.7896 157.766C63.4108 157.531 63.1184 157.205 62.9125 156.786C62.7089 156.364 62.6071 155.874 62.6071 155.315C62.6071 154.757 62.7089 154.264 62.9125 153.838C63.1184 153.41 63.4049 153.076 63.7718 152.837C64.1412 152.595 64.572 152.474 65.0645 152.474C65.3485 152.474 65.6291 152.522 65.9061 152.616C66.1831 152.711 66.4352 152.865 66.6625 153.078C66.8897 153.289 67.0708 153.568 67.2058 153.916C67.3407 154.264 67.4082 154.693 67.4082 155.202V155.557H63.2037V154.832H66.5559C66.5559 154.525 66.4944 154.25 66.3713 154.009C66.2505 153.767 66.0777 153.576 65.8528 153.437C65.6303 153.297 65.3675 153.227 65.0645 153.227C64.7306 153.227 64.4418 153.31 64.198 153.476C63.9565 153.639 63.7707 153.852 63.6404 154.115C63.5102 154.378 63.4451 154.66 63.4451 154.96V155.443C63.4451 155.855 63.5162 156.204 63.6582 156.491C63.8026 156.775 64.0027 156.991 64.2583 157.141C64.514 157.287 64.8111 157.361 65.1497 157.361C65.3699 157.361 65.5687 157.33 65.7463 157.268C65.9262 157.205 66.0813 157.11 66.2115 156.984C66.3417 156.857 66.4423 156.698 66.5133 156.509L67.323 156.736C67.2377 157.01 67.0945 157.252 66.8933 157.46C66.6921 157.666 66.4435 157.827 66.1475 157.943C65.8516 158.057 65.519 158.114 65.1497 158.114ZM72.5467 153.767L71.7939 153.98C71.7465 153.855 71.6767 153.733 71.5843 153.614C71.4944 153.494 71.3713 153.394 71.215 153.316C71.0588 153.238 70.8587 153.199 70.6149 153.199C70.2811 153.199 70.0029 153.276 69.7804 153.43C69.5602 153.581 69.4501 153.774 69.4501 154.009C69.4501 154.217 69.5259 154.381 69.6774 154.502C69.8289 154.623 70.0656 154.723 70.3876 154.804L71.1973 155.003C71.685 155.121 72.0484 155.302 72.2875 155.546C72.5266 155.788 72.6461 156.099 72.6461 156.48C72.6461 156.793 72.5562 157.072 72.3762 157.318C72.1987 157.564 71.9501 157.759 71.6305 157.901C71.3109 158.043 70.9392 158.114 70.5154 158.114C69.9591 158.114 69.4986 157.993 69.1341 157.751C68.7695 157.51 68.5386 157.157 68.4416 156.693L69.237 156.494C69.3128 156.788 69.456 157.008 69.6667 157.155C69.8798 157.302 70.158 157.375 70.5012 157.375C70.8919 157.375 71.202 157.292 71.4316 157.126C71.6636 156.958 71.7797 156.757 71.7797 156.523C71.7797 156.333 71.7134 156.175 71.5808 156.047C71.4482 155.917 71.2446 155.82 70.97 155.756L70.0609 155.543C69.5614 155.424 69.1944 155.241 68.96 154.992C68.728 154.741 68.612 154.428 68.612 154.051C68.612 153.743 68.6984 153.471 68.8713 153.234C69.0465 152.998 69.2844 152.812 69.585 152.677C69.8881 152.542 70.2314 152.474 70.6149 152.474C71.1547 152.474 71.5784 152.593 71.8862 152.83C72.1963 153.066 72.4165 153.379 72.5467 153.767ZM76.2798 152.545V153.256H73.4531V152.545H76.2798ZM74.277 151.239H75.1151V156.438C75.1151 156.674 75.1494 156.852 75.218 156.97C75.2891 157.086 75.379 157.164 75.4879 157.205C75.5992 157.242 75.7164 157.261 75.8395 157.261C75.9318 157.261 76.0076 157.257 76.0668 157.247C76.1259 157.235 76.1733 157.226 76.2088 157.219L76.3793 157.972C76.3224 157.993 76.2431 158.014 76.1413 158.036C76.0395 158.059 75.9105 158.071 75.7543 158.071C75.5175 158.071 75.2855 158.02 75.0582 157.918C74.8333 157.817 74.6463 157.661 74.4972 157.453C74.3504 157.245 74.277 156.982 74.277 156.665V151.239ZM77.5405 158V152.545H78.3786V158H77.5405ZM77.9666 151.636C77.8033 151.636 77.6624 151.581 77.544 151.469C77.428 151.358 77.37 151.224 77.37 151.068C77.37 150.912 77.428 150.778 77.544 150.667C77.6624 150.556 77.8033 150.5 77.9666 150.5C78.13 150.5 78.2696 150.556 78.3857 150.667C78.504 150.778 78.5632 150.912 78.5632 151.068C78.5632 151.224 78.504 151.358 78.3857 151.469C78.2696 151.581 78.13 151.636 77.9666 151.636ZM79.9135 158V152.545H80.7232V153.398H80.7942C80.9078 153.107 81.0913 152.88 81.3446 152.719C81.598 152.556 81.9022 152.474 82.2573 152.474C82.6171 152.474 82.9166 152.556 83.1557 152.719C83.3972 152.88 83.5854 153.107 83.7203 153.398H83.7772C83.9168 153.116 84.1264 152.892 84.4057 152.727C84.6851 152.558 85.0201 152.474 85.4107 152.474C85.8984 152.474 86.2973 152.627 86.6074 152.933C86.9176 153.236 87.0726 153.708 87.0726 154.349V158H86.2346V154.349C86.2346 153.947 86.1245 153.659 85.9043 153.487C85.6841 153.314 85.4249 153.227 85.1266 153.227C84.7431 153.227 84.446 153.343 84.2353 153.575C84.0246 153.805 83.9192 154.096 83.9192 154.449V158H83.0669V154.264C83.0669 153.954 82.9663 153.704 82.7651 153.515C82.5639 153.323 82.3046 153.227 81.9874 153.227C81.7696 153.227 81.566 153.285 81.3766 153.401C81.1896 153.517 81.0381 153.678 80.9221 153.884C80.8084 154.088 80.7516 154.323 80.7516 154.591V158H79.9135ZM90.21 158.128C89.8644 158.128 89.5507 158.063 89.269 157.933C88.9873 157.8 88.7636 157.609 88.5978 157.361C88.4321 157.11 88.3493 156.807 88.3493 156.452C88.3493 156.139 88.4108 155.886 88.5339 155.692C88.657 155.495 88.8216 155.341 89.0275 155.23C89.2335 155.119 89.4608 155.036 89.7093 154.982C89.9603 154.925 90.2124 154.88 90.4657 154.847C90.7972 154.804 91.0659 154.772 91.2718 154.751C91.4802 154.727 91.6317 154.688 91.7264 154.634C91.8234 154.579 91.872 154.484 91.872 154.349V154.321C91.872 153.971 91.7761 153.698 91.5843 153.504C91.3949 153.31 91.1073 153.213 90.7214 153.213C90.3213 153.213 90.0076 153.301 89.7804 153.476C89.5531 153.651 89.3933 153.838 89.301 154.037L88.5055 153.753C88.6475 153.421 88.8369 153.163 89.0737 152.979C89.3128 152.792 89.5732 152.661 89.8549 152.588C90.139 152.512 90.4184 152.474 90.693 152.474C90.8682 152.474 91.0694 152.496 91.2967 152.538C91.5263 152.579 91.7477 152.663 91.9608 152.79C92.1762 152.918 92.3549 153.111 92.497 153.369C92.639 153.627 92.71 153.973 92.71 154.406V158H91.872V157.261H91.8294C91.7725 157.38 91.6779 157.506 91.5453 157.641C91.4127 157.776 91.2363 157.891 91.0162 157.986C90.796 158.08 90.5273 158.128 90.21 158.128ZM90.3379 157.375C90.6693 157.375 90.9487 157.31 91.176 157.18C91.4056 157.049 91.5784 156.881 91.6944 156.675C91.8128 156.469 91.872 156.253 91.872 156.026V155.259C91.8365 155.301 91.7583 155.34 91.6376 155.376C91.5192 155.409 91.3819 155.438 91.2257 155.464C91.0718 155.488 90.9215 155.509 90.7747 155.528C90.6303 155.545 90.5131 155.559 90.4231 155.571C90.2053 155.599 90.0017 155.646 89.8123 155.71C89.6253 155.771 89.4738 155.865 89.3578 155.99C89.2441 156.113 89.1873 156.281 89.1873 156.494C89.1873 156.786 89.295 157.006 89.5105 157.155C89.7283 157.302 90.0041 157.375 90.3379 157.375ZM96.6119 152.545V153.256H93.7852V152.545H96.6119ZM94.609 151.239H95.4471V156.438C95.4471 156.674 95.4814 156.852 95.5501 156.97C95.6211 157.086 95.7111 157.164 95.82 157.205C95.9312 157.242 96.0484 157.261 96.1715 157.261C96.2638 157.261 96.3396 157.257 96.3988 157.247C96.458 157.235 96.5053 157.226 96.5408 157.219L96.7113 157.972C96.6545 157.993 96.5752 158.014 96.4734 158.036C96.3716 158.059 96.2425 158.071 96.0863 158.071C95.8496 158.071 95.6175 158.02 95.3903 157.918C95.1654 157.817 94.9783 157.661 94.8292 157.453C94.6824 157.245 94.609 156.982 94.609 156.665V151.239ZM97.8725 158V152.545H98.7106V158H97.8725ZM98.2987 151.636C98.1353 151.636 97.9944 151.581 97.8761 151.469C97.7601 151.358 97.7021 151.224 97.7021 151.068C97.7021 150.912 97.7601 150.778 97.8761 150.667C97.9944 150.556 98.1353 150.5 98.2987 150.5C98.462 150.5 98.6017 150.556 98.7177 150.667C98.8361 150.778 98.8952 150.912 98.8952 151.068C98.8952 151.224 98.8361 151.358 98.7177 151.469C98.6017 151.581 98.462 151.636 98.2987 151.636ZM102.461 158.114C101.969 158.114 101.537 157.996 101.165 157.762C100.796 157.528 100.507 157.2 100.299 156.778C100.093 156.357 99.9899 155.865 99.9899 155.301C99.9899 154.733 100.093 154.237 100.299 153.813C100.507 153.389 100.796 153.06 101.165 152.826C101.537 152.592 101.969 152.474 102.461 152.474C102.954 152.474 103.385 152.592 103.754 152.826C104.126 153.06 104.415 153.389 104.621 153.813C104.829 154.237 104.933 154.733 104.933 155.301C104.933 155.865 104.829 156.357 104.621 156.778C104.415 157.2 104.126 157.528 103.754 157.762C103.385 157.996 102.954 158.114 102.461 158.114ZM102.461 157.361C102.836 157.361 103.143 157.265 103.385 157.073C103.626 156.881 103.805 156.629 103.921 156.317C104.037 156.004 104.095 155.666 104.095 155.301C104.095 154.937 104.037 154.597 103.921 154.282C103.805 153.967 103.626 153.713 103.385 153.518C103.143 153.324 102.836 153.227 102.461 153.227C102.087 153.227 101.78 153.324 101.538 153.518C101.297 153.713 101.118 153.967 101.002 154.282C100.886 154.597 100.828 154.937 100.828 155.301C100.828 155.666 100.886 156.004 101.002 156.317C101.118 156.629 101.297 156.881 101.538 157.073C101.78 157.265 102.087 157.361 102.461 157.361ZM107.05 154.719V158H106.212V152.545H107.022V153.398H107.093C107.221 153.121 107.415 152.898 107.675 152.73C107.936 152.56 108.272 152.474 108.684 152.474C109.053 152.474 109.376 152.55 109.653 152.702C109.93 152.851 110.146 153.078 110.3 153.384C110.454 153.687 110.531 154.07 110.531 154.534V158H109.692V154.591C109.692 154.162 109.581 153.829 109.359 153.589C109.136 153.348 108.831 153.227 108.442 153.227C108.175 153.227 107.936 153.285 107.725 153.401C107.517 153.517 107.352 153.687 107.232 153.909C107.111 154.132 107.05 154.402 107.05 154.719ZM112.673 158.057C112.498 158.057 112.347 157.994 112.222 157.869C112.096 157.743 112.034 157.593 112.034 157.418C112.034 157.242 112.096 157.092 112.222 156.967C112.347 156.841 112.498 156.778 112.673 156.778C112.848 156.778 112.998 156.841 113.124 156.967C113.249 157.092 113.312 157.242 113.312 157.418C113.312 157.534 113.282 157.64 113.223 157.737C113.166 157.834 113.089 157.912 112.992 157.972C112.898 158.028 112.791 158.057 112.673 158.057Z" fill="black"/>
<path fill-rule="evenodd" clip-rule="evenodd" d="M53.415 94.8954C53.415 90.2985 56.4834 88 59.5481 88C62.6127 88 65.6774 90.2985 65.6774 94.8954L59.5481 107.154L53.415 94.8954ZM84.7452 92.0032C85.2815 91.8883 85.9232 91.7628 86.584 91.735L86.6702 93.4589C86.2009 93.4934 85.6454 93.569 85.1091 93.6887L84.7452 92.0032ZM62.6127 94.8954C62.6127 93.2032 61.2432 91.8308 59.5481 91.8308C57.8558 91.8308 56.4834 93.2032 56.4834 94.8954C56.4834 96.5906 57.8558 97.9601 59.5481 97.9601C61.2432 97.9601 62.6127 96.5906 62.6127 94.8954ZM88.2025 93.5451L88.4898 91.85C89.1506 91.9103 89.8019 92.1899 90.3861 92.5012L89.5529 94.0144C89.141 93.7673 88.6718 93.6437 88.2025 93.5451ZM82.1863 92.7925C82.4463 92.696 82.7147 92.5963 82.983 92.4916L83.5481 94.1197C83.0788 94.2844 82.5233 94.4798 81.9966 94.7039L81.3166 93.1237C81.5859 93.0155 81.8803 92.9062 82.1863 92.7925ZM90.6446 94.8954L91.9567 93.7749C92.3972 94.2911 92.6845 94.7662 93.0102 95.3935L91.4683 96.1692C91.2576 95.7765 90.9894 95.29 90.6446 94.8954ZM78.9324 94.2709C79.1803 94.1398 79.4367 94.0042 79.7173 93.8611L80.4643 95.4126C80.0237 95.6329 79.4778 95.9106 78.9798 96.1979L78.1371 94.6848C78.4058 94.5494 78.6642 94.4127 78.9324 94.2709ZM75.1299 96.4948C75.6183 96.1692 76.1163 95.8723 76.6239 95.5754L77.505 97.0503C77.4295 97.0956 77.3537 97.1409 77.2778 97.1863C76.8725 97.4287 76.4637 97.6732 76.0684 97.9314L75.1299 96.4948ZM91.9613 97.5122C92.5063 97.4476 93.0596 97.382 93.6039 97.2897C93.671 97.9122 93.5848 98.6209 93.489 99.3104L91.813 98.9178C91.9088 98.5156 91.9375 97.9984 91.8992 97.5195L91.9613 97.5122ZM72.9607 97.9457C73.1977 97.7805 73.4348 97.6153 73.6742 97.4525L74.6415 98.8699C74.5142 98.9582 74.387 99.0458 74.2599 99.1332C73.9184 99.3683 73.5783 99.6025 73.2432 99.8468L72.2472 98.4389C72.4866 98.2761 72.7237 98.1109 72.9607 97.9457ZM69.4956 100.483C69.8984 100.174 70.3778 99.8056 70.8394 99.4733L71.8641 100.862C71.6627 101.011 71.4815 101.148 71.3001 101.286C71.0502 101.475 70.7997 101.665 70.4946 101.887L69.4507 100.517L69.4956 100.483ZM90.2807 101.456C90.6159 101.121 90.9511 100.68 91.2384 100.239L92.6941 101.168C92.4285 101.6 92.0621 102.032 91.701 102.457C91.6455 102.523 91.5901 102.588 91.5353 102.653L90.2807 101.456ZM66.7308 102.672C67.1427 102.327 67.6119 101.954 68.0812 101.59L69.1538 102.94C68.7472 103.236 68.305 103.603 67.8701 103.964L67.8226 104.003L66.7308 102.672ZM87.7715 103.543C88.1929 103.256 88.6526 102.911 89.0932 102.557L90.1945 103.898C89.7636 104.243 89.2655 104.616 88.758 104.961L87.7715 103.543ZM64.5164 104.537C64.808 104.286 65.0996 104.035 65.3996 103.792L66.501 105.114C66.0605 105.478 65.6297 105.851 65.1988 106.225L65.1985 106.225L64.078 104.913C64.2249 104.788 64.3706 104.663 64.5164 104.537ZM84.908 105.296C85.3677 105.047 85.8753 104.75 86.3637 104.463L87.264 105.938C87.0249 106.097 86.7388 106.253 86.4431 106.415C86.2056 106.545 85.962 106.678 85.7316 106.819L84.908 105.296ZM61.4826 107.211C61.9136 106.819 62.335 106.436 62.766 106.053L63.9152 107.346C63.7045 107.537 63.4914 107.729 63.2783 107.92C63.0652 108.112 62.8522 108.303 62.6415 108.495L61.4826 107.211ZM82.643 106.469C82.8968 106.342 83.1506 106.215 83.4044 106.091L84.1897 107.623C83.8852 107.765 83.6116 107.903 83.3233 108.049C83.1038 108.16 82.8757 108.275 82.6191 108.399L81.8817 106.848C82.1354 106.723 82.3892 106.596 82.643 106.469ZM78.7691 108.255C79.3055 108.035 79.813 107.805 80.3398 107.566L81.0485 109.127L81.0482 109.127C80.5215 109.366 79.9949 109.606 79.4683 109.836L78.7691 108.255ZM59.0966 109.449C59.4714 109.086 59.787 108.78 60.2185 108.399L61.3964 109.673C61.0964 109.932 60.8255 110.196 60.5319 110.482C60.4132 110.598 60.2907 110.717 60.161 110.841L58.9447 109.596C58.9967 109.546 59.0471 109.497 59.0966 109.449ZM76.4084 109.29C76.6718 109.177 76.9351 109.065 77.1985 108.954L77.8785 110.544L77.8783 110.544C77.3516 110.774 76.8249 111.004 76.2887 111.224L75.6183 109.625C75.8817 109.515 76.145 109.402 76.4084 109.29ZM72.4387 110.966C72.9751 110.755 73.5018 110.525 74.0285 110.295L74.6989 111.895C74.4355 112.005 74.1698 112.117 73.904 112.23C73.6383 112.342 73.3725 112.455 73.1091 112.565L72.4387 110.966ZM85.5976 117.88C85.5976 113.283 88.6622 110.985 91.7268 110.985C94.7915 110.985 97.8561 113.283 97.8561 117.88L91.7268 130.139L85.5976 117.88ZM69.7521 112.108C70.1036 111.962 70.4828 111.803 70.849 111.636L71.5193 113.226C71.0405 113.437 70.5042 113.666 69.9391 113.906L69.2592 112.316C69.4137 112.25 69.5795 112.181 69.7521 112.108ZM66.7288 113.424C67.0415 113.283 67.3699 113.135 67.6694 112.996L68.3589 114.576C68.0845 114.692 67.81 114.82 67.5244 114.953C67.2917 115.061 67.0515 115.173 66.7979 115.285L66.0892 113.714C66.2827 113.626 66.5016 113.527 66.7288 113.424ZM62.9383 115.199C63.4172 114.959 63.9727 114.691 64.509 114.433L65.2368 115.994C65.0887 116.066 64.9338 116.141 64.775 116.217C64.4308 116.383 64.068 116.557 63.7141 116.741L62.9383 115.199ZM94.7915 117.88C94.7915 116.185 93.422 114.816 91.7268 114.816C90.0317 114.816 88.6622 116.185 88.6622 117.88C88.6622 119.575 90.0317 120.945 91.7268 120.945C93.422 120.945 94.7915 119.575 94.7915 117.88ZM59.8545 116.856C60.3717 116.559 60.8793 116.271 61.3869 115.994L62.2009 117.526C61.7029 117.794 61.2049 118.062 60.7165 118.35L59.8545 116.856ZM58.0866 117.944C58.174 117.889 58.2623 117.835 58.351 117.785L59.2895 119.231C58.9558 119.433 58.5542 119.706 58.1596 119.986C57.9953 122.96 56.6591 125.621 54.6051 127.516C54.6519 127.631 54.7007 127.746 54.75 127.86L53.2778 128.566C51.51 129.758 49.3804 130.453 47.0884 130.453C40.9647 130.453 36 125.488 36 119.365C36 113.241 40.9647 108.276 47.0884 108.276C52.7306 108.276 57.389 112.491 58.0866 117.944ZM76.4994 121.788L76.3462 120.073C76.9878 119.978 77.6582 120.045 78.2903 120.14L77.9934 121.836C77.4954 121.759 76.9974 121.701 76.4994 121.788ZM73.4347 122.63L72.7835 121.031C73.3102 120.82 73.9136 120.591 74.517 120.418C74.5399 120.507 74.5626 120.596 74.5853 120.684C74.7047 121.151 74.8238 121.616 74.9766 122.075C74.4499 122.238 73.9328 122.41 73.4347 122.63ZM79.2288 122.362L80.2057 120.945C80.6615 121.203 80.9908 121.552 81.3512 121.934C81.4452 122.033 81.5413 122.135 81.6422 122.238L80.3398 123.368C80.0237 122.975 79.6311 122.659 79.2288 122.362ZM69.8602 122.534C70.286 122.283 70.714 122.032 71.1554 121.807L71.9599 123.32C71.707 123.454 71.4542 123.603 71.2 123.753C70.9632 123.893 70.7252 124.033 70.485 124.163L69.6135 122.678C69.6957 122.63 69.778 122.582 69.8602 122.534ZM66.6734 124.565C67.1522 124.239 67.6311 123.923 68.1195 123.607L69.0581 125.044C68.8186 125.202 68.5816 125.362 68.3445 125.523C68.1075 125.683 67.8705 125.844 67.6311 126.002L66.6734 124.565ZM81.2975 124.661L82.7436 123.722C82.9694 124.033 83.1485 124.341 83.3354 124.661C83.4419 124.844 83.5509 125.031 83.6726 125.226L82.1786 126.088C81.9008 125.599 81.6039 125.12 81.2975 124.661ZM64.9379 125.745C65.0407 125.677 65.1436 125.61 65.2464 125.542L66.2137 126.959C66.1158 127.025 66.0178 127.089 65.9202 127.154C65.5306 127.412 65.1447 127.668 64.7771 127.936L63.8194 126.5C64.1879 126.236 64.5623 125.991 64.9379 125.745ZM83.0309 127.582L84.5249 126.72L84.5642 126.787C84.8203 127.226 85.0867 127.683 85.3964 128.166L83.9503 129.095C83.6726 128.654 83.3278 128.099 83.0309 127.582ZM60.9559 128.3C61.4539 128.022 61.9232 127.735 62.402 127.438L63.3118 128.894C62.8234 129.21 62.3159 129.507 61.8083 129.804L61.8083 129.804L60.9559 128.3ZM54.3957 130.263L55.5736 128.999C55.8619 129.286 56.2593 129.497 56.6846 129.583L56.3015 131.259C55.5851 131.106 54.9281 130.771 54.3957 130.263ZM58.0062 129.526C58.5224 129.421 59.0204 129.248 59.5002 129.028L60.1706 130.618C59.5921 130.857 59.0137 131.087 58.3988 131.211L58.0062 129.526ZM85.0134 130.57L86.3446 129.488C86.651 129.832 87.0149 130.225 87.4363 130.551L86.3733 131.911C85.9328 131.566 85.4252 131.077 85.0134 130.57ZM88.2217 132.84L88.6526 131.164C89.1123 131.279 89.572 131.326 90.0413 131.25L90.252 132.964C89.5433 133.041 88.9782 132.993 88.2217 132.84ZM47.0884 121.071H52.2061C52.4323 121.071 52.6493 120.981 52.8092 120.821C52.9692 120.661 53.059 120.444 53.059 120.218C53.059 119.992 52.9692 119.775 52.8092 119.615C52.6493 119.455 52.4323 119.365 52.2061 119.365H47.9413V112.541C47.9413 112.315 47.8515 112.098 47.6915 111.938C47.5315 111.778 47.3146 111.688 47.0884 111.688C46.8622 111.688 46.6452 111.778 46.4853 111.938C46.3253 112.098 46.2354 112.315 46.2354 112.541V120.218C46.2354 120.444 46.3253 120.661 46.4853 120.821C46.6452 120.981 46.8622 121.071 47.0884 121.071Z" fill="url(#paint2_linear_1_873)"/>
<defs>
<linearGradient id="paint0_linear_1_873" x1="44" y1="26.7188" x2="96.7344" y2="26.7188" gradientUnits="userSpaceOnUse">
<stop stop-color="#3FF3FF"/>
<stop offset="1" stop-color="#00ABBB"/>
</linearGradient>
<linearGradient id="paint1_linear_1_873" x1="43.2969" y1="16.875" x2="91.1094" y2="15.4687" gradientUnits="userSpaceOnUse">
<stop stop-color="#3FF3FF"/>
<stop offset="1" stop-color="#00ABBB"/>
</linearGradient>
<linearGradient id="paint2_linear_1_873" x1="36.0524" y1="111.957" x2="97.853" y2="113.988" gradientUnits="userSpaceOnUse">
<stop stop-color="#3FF3FF"/>
<stop offset="1" stop-color="#00ABBB"/>
</linearGradient>
</defs>
</svg>
