<svg width="133" height="76" viewBox="0 0 133 76" fill="none" xmlns="http://www.w3.org/2000/svg">
<path d="M12.7567 58V50.7273H15.214C15.7846 50.7273 16.251 50.8303 16.6132 51.0362C16.9778 51.2398 17.2477 51.5156 17.4229 51.8636C17.598 52.2116 17.6856 52.5999 17.6856 53.0284C17.6856 53.4569 17.598 53.8464 17.4229 54.1967C17.25 54.5471 16.9825 54.8265 16.6203 55.0348C16.2581 55.2408 15.7941 55.3438 15.2282 55.3438H13.4669V54.5625H15.1998C15.5905 54.5625 15.9041 54.495 16.1409 54.3601C16.3776 54.2251 16.5493 54.0429 16.6558 53.8132C16.7647 53.5812 16.8192 53.3196 16.8192 53.0284C16.8192 52.7372 16.7647 52.4768 16.6558 52.2472C16.5493 52.0175 16.3765 51.8376 16.1373 51.7074C15.8982 51.5748 15.581 51.5085 15.1856 51.5085H13.6373V58H12.7567ZM18.9907 58V52.5455H19.8003V53.3693H19.8572C19.9566 53.0994 20.1365 52.8804 20.3969 52.7124C20.6573 52.5443 20.9509 52.4602 21.2776 52.4602C21.3392 52.4602 21.4161 52.4614 21.5084 52.4638C21.6008 52.4661 21.6706 52.4697 21.718 52.4744V53.3267C21.6895 53.3196 21.6244 53.3089 21.5226 53.2947C21.4232 53.2782 21.3179 53.2699 21.2066 53.2699C20.9414 53.2699 20.7047 53.3255 20.4964 53.4368C20.2904 53.5457 20.127 53.6972 20.0063 53.8913C19.8879 54.0831 19.8287 54.3021 19.8287 54.5483V58H18.9907ZM22.7114 58V52.5455H23.5494V58H22.7114ZM23.1375 51.6364C22.9742 51.6364 22.8333 51.5807 22.7149 51.4695C22.5989 51.3582 22.5409 51.2244 22.5409 51.0682C22.5409 50.9119 22.5989 50.7782 22.7149 50.6669C22.8333 50.5556 22.9742 50.5 23.1375 50.5C23.3009 50.5 23.4405 50.5556 23.5566 50.6669C23.6749 50.7782 23.7341 50.9119 23.7341 51.0682C23.7341 51.2244 23.6749 51.3582 23.5566 51.4695C23.4405 51.5807 23.3009 51.6364 23.1375 51.6364ZM25.9225 54.7188V58H25.0844V52.5455H25.8941V53.3977H25.9651C26.093 53.1207 26.2871 52.8982 26.5475 52.7301C26.8079 52.5597 27.1441 52.4744 27.556 52.4744C27.9253 52.4744 28.2485 52.5502 28.5255 52.7017C28.8025 52.8509 29.0179 53.0781 29.1718 53.3835C29.3257 53.6866 29.4026 54.0701 29.4026 54.5341V58H28.5645V54.5909C28.5645 54.1624 28.4533 53.8286 28.2307 53.5895C28.0082 53.348 27.7028 53.2273 27.3145 53.2273C27.047 53.2273 26.8079 53.2853 26.5972 53.4013C26.3889 53.5173 26.2243 53.6866 26.1036 53.9091C25.9829 54.1316 25.9225 54.4015 25.9225 54.7188ZM33.3062 52.5455V53.2557H30.4795V52.5455H33.3062ZM31.3034 51.2386H32.1414V56.4375C32.1414 56.6742 32.1758 56.8518 32.2444 56.9702C32.3154 57.0862 32.4054 57.1643 32.5143 57.2045C32.6256 57.2424 32.7427 57.2614 32.8659 57.2614C32.9582 57.2614 33.0339 57.2566 33.0931 57.2472C33.1523 57.2353 33.1997 57.2259 33.2352 57.2188L33.4056 57.9716C33.3488 57.9929 33.2695 58.0142 33.1677 58.0355C33.0659 58.0592 32.9369 58.071 32.7806 58.071C32.5439 58.071 32.3119 58.0201 32.0846 57.9183C31.8597 57.8165 31.6727 57.6615 31.5235 57.4531C31.3767 57.2448 31.3034 56.982 31.3034 56.6648V51.2386ZM34.5669 58V52.5455H35.4049V58H34.5669ZM34.993 51.6364C34.8296 51.6364 34.6888 51.5807 34.5704 51.4695C34.4544 51.3582 34.3964 51.2244 34.3964 51.0682C34.3964 50.9119 34.4544 50.7782 34.5704 50.6669C34.6888 50.5556 34.8296 50.5 34.993 50.5C35.1563 50.5 35.296 50.5556 35.412 50.6669C35.5304 50.7782 35.5896 50.9119 35.5896 51.0682C35.5896 51.2244 35.5304 51.3582 35.412 51.4695C35.296 51.5807 35.1563 51.6364 34.993 51.6364ZM37.778 54.7188V58H36.9399V52.5455H37.7496V53.3977H37.8206C37.9484 53.1207 38.1425 52.8982 38.403 52.7301C38.6634 52.5597 38.9996 52.4744 39.4115 52.4744C39.7808 52.4744 40.104 52.5502 40.3809 52.7017C40.6579 52.8509 40.8734 53.0781 41.0273 53.3835C41.1811 53.6866 41.2581 54.0701 41.2581 54.5341V58H40.42V54.5909C40.42 54.1624 40.3087 53.8286 40.0862 53.5895C39.8637 53.348 39.5583 53.2273 39.17 53.2273C38.9025 53.2273 38.6634 53.2853 38.4527 53.4013C38.2443 53.5173 38.0798 53.6866 37.9591 53.9091C37.8383 54.1316 37.778 54.4015 37.778 54.7188ZM44.9912 60.1591C44.5864 60.1591 44.2384 60.107 43.9472 60.0028C43.656 59.901 43.4133 59.7661 43.2192 59.598C43.0274 59.4323 42.8747 59.2547 42.7611 59.0653L43.4287 58.5966C43.5045 58.696 43.6003 58.8097 43.7164 58.9375C43.8324 59.0677 43.991 59.1802 44.1922 59.2749C44.3958 59.3719 44.6621 59.4205 44.9912 59.4205C45.4316 59.4205 45.795 59.3139 46.0814 59.1009C46.3679 58.8878 46.5111 58.554 46.5111 58.0994V56.9915H46.4401C46.3785 57.0909 46.2909 57.214 46.1773 57.3608C46.066 57.5052 45.905 57.6342 45.6943 57.7479C45.486 57.8591 45.2043 57.9148 44.8492 57.9148C44.4088 57.9148 44.0135 57.8106 43.6631 57.6023C43.3151 57.3939 43.0393 57.0909 42.8357 56.6932C42.6344 56.2955 42.5338 55.8125 42.5338 55.2443C42.5338 54.6856 42.6321 54.1991 42.8286 53.7848C43.0251 53.3681 43.2985 53.0462 43.6489 52.8189C43.9993 52.5893 44.4041 52.4744 44.8634 52.4744C45.2185 52.4744 45.5002 52.5336 45.7085 52.652C45.9192 52.768 46.0802 52.9006 46.1915 53.0497C46.3051 53.1965 46.3927 53.3172 46.4543 53.4119H46.5395V52.5455H47.3492V58.1562C47.3492 58.625 47.2426 59.0062 47.0296 59.2997C46.8189 59.5956 46.5348 59.8123 46.1773 59.9496C45.8222 60.0893 45.4268 60.1591 44.9912 60.1591ZM44.9628 57.1619C45.299 57.1619 45.5831 57.085 45.8151 56.9311C46.0471 56.7772 46.2235 56.5559 46.3442 56.267C46.4649 55.9782 46.5253 55.6326 46.5253 55.2301C46.5253 54.8371 46.4661 54.4903 46.3477 54.1896C46.2294 53.889 46.0542 53.6534 45.8222 53.483C45.5902 53.3125 45.3037 53.2273 44.9628 53.2273C44.6077 53.2273 44.3118 53.3172 44.075 53.4972C43.8406 53.6771 43.6643 53.9186 43.5459 54.2216C43.4299 54.5246 43.3719 54.8608 43.3719 55.2301C43.3719 55.6089 43.4311 55.9439 43.5494 56.2351C43.6702 56.5239 43.8477 56.7512 44.0821 56.9169C44.3189 57.0803 44.6124 57.1619 44.9628 57.1619ZM54.0679 52.5455V53.2557H51.2412V52.5455H54.0679ZM52.0651 51.2386H52.9031V56.4375C52.9031 56.6742 52.9375 56.8518 53.0061 56.9702C53.0771 57.0862 53.1671 57.1643 53.276 57.2045C53.3873 57.2424 53.5045 57.2614 53.6276 57.2614C53.7199 57.2614 53.7957 57.2566 53.8548 57.2472C53.914 57.2353 53.9614 57.2259 53.9969 57.2188L54.1673 57.9716C54.1105 57.9929 54.0312 58.0142 53.9294 58.0355C53.8276 58.0592 53.6986 58.071 53.5423 58.071C53.3056 58.071 53.0736 58.0201 52.8463 57.9183C52.6214 57.8165 52.4344 57.6615 52.2852 57.4531C52.1385 57.2448 52.0651 56.982 52.0651 56.6648V51.2386ZM55.3286 58V52.5455H56.1666V58H55.3286ZM55.7547 51.6364C55.5914 51.6364 55.4505 51.5807 55.3321 51.4695C55.2161 51.3582 55.1581 51.2244 55.1581 51.0682C55.1581 50.9119 55.2161 50.7782 55.3321 50.6669C55.4505 50.5556 55.5914 50.5 55.7547 50.5C55.9181 50.5 56.0577 50.5556 56.1737 50.6669C56.2921 50.7782 56.3513 50.9119 56.3513 51.0682C56.3513 51.2244 56.2921 51.3582 56.1737 51.4695C56.0577 51.5807 55.9181 51.6364 55.7547 51.6364ZM57.7016 58V52.5455H58.5113V53.3977H58.5823C58.6959 53.1065 58.8794 52.8804 59.1327 52.7195C59.386 52.5561 59.6903 52.4744 60.0454 52.4744C60.4052 52.4744 60.7047 52.5561 60.9438 52.7195C61.1853 52.8804 61.3735 53.1065 61.5084 53.3977H61.5653C61.7049 53.116 61.9144 52.8923 62.1938 52.7266C62.4732 52.5585 62.8082 52.4744 63.1988 52.4744C63.6865 52.4744 64.0854 52.6271 64.3955 52.9325C64.7056 53.2356 64.8607 53.7079 64.8607 54.3494V58H64.0226V54.3494C64.0226 53.947 63.9126 53.6593 63.6924 53.4865C63.4722 53.3137 63.213 53.2273 62.9147 53.2273C62.5312 53.2273 62.234 53.3433 62.0233 53.5753C61.8126 53.8049 61.7073 54.0961 61.7073 54.4489V58H60.855V54.2642C60.855 53.9541 60.7544 53.7043 60.5532 53.5149C60.3519 53.3232 60.0927 53.2273 59.7755 53.2273C59.5577 53.2273 59.3541 53.2853 59.1647 53.4013C58.9777 53.5173 58.8261 53.6783 58.7101 53.8842C58.5965 54.0878 58.5397 54.3234 58.5397 54.5909V58H57.7016ZM68.68 58.1136C68.1544 58.1136 67.701 57.9976 67.3199 57.7656C66.9411 57.5312 66.6487 57.2045 66.4427 56.7855C66.2391 56.3641 66.1373 55.8741 66.1373 55.3153C66.1373 54.7566 66.2391 54.2642 66.4427 53.8381C66.6487 53.4096 66.9352 53.0758 67.3021 52.8366C67.6714 52.5952 68.1023 52.4744 68.5947 52.4744C68.8788 52.4744 69.1594 52.5218 69.4363 52.6165C69.7133 52.7112 69.9655 52.8651 70.1927 53.0781C70.42 53.2888 70.6011 53.5682 70.7361 53.9162C70.871 54.2642 70.9385 54.6927 70.9385 55.2017V55.5568H66.7339V54.8324H70.0862C70.0862 54.5246 70.0247 54.25 69.9015 54.0085C69.7808 53.767 69.608 53.5765 69.3831 53.4368C69.1605 53.2971 68.8978 53.2273 68.5947 53.2273C68.2609 53.2273 67.9721 53.3101 67.7282 53.4759C67.4868 53.6392 67.3009 53.8523 67.1707 54.1151C67.0405 54.3778 66.9754 54.6596 66.9754 54.9602V55.4432C66.9754 55.8551 67.0464 56.2043 67.1885 56.4908C67.3329 56.7749 67.5329 56.9915 67.7886 57.1406C68.0443 57.2874 68.3414 57.3608 68.68 57.3608C68.9001 57.3608 69.099 57.33 69.2765 57.2685C69.4565 57.2045 69.6115 57.1098 69.7417 56.9844C69.872 56.8565 69.9726 56.6979 70.0436 56.5085L70.8532 56.7358C70.768 57.0104 70.6248 57.2519 70.4236 57.4602C70.2223 57.6662 69.9738 57.8272 69.6778 57.9432C69.3819 58.0568 69.0493 58.1136 68.68 58.1136ZM76.6309 58.1278C76.2853 58.1278 75.9716 58.0627 75.6899 57.9325C75.4082 57.8 75.1845 57.6094 75.0187 57.3608C74.853 57.1098 74.7702 56.8068 74.7702 56.4517C74.7702 56.1392 74.8317 55.8859 74.9548 55.6918C75.0779 55.4953 75.2425 55.3414 75.4484 55.2301C75.6544 55.1188 75.8817 55.036 76.1302 54.9815C76.3812 54.9247 76.6333 54.8797 76.8866 54.8466C77.2181 54.804 77.4868 54.772 77.6927 54.7507C77.9011 54.727 78.0526 54.688 78.1473 54.6335C78.2443 54.5791 78.2929 54.4844 78.2929 54.3494V54.321C78.2929 53.9706 78.197 53.6984 78.0052 53.5043C77.8158 53.3101 77.5282 53.2131 77.1423 53.2131C76.7422 53.2131 76.4285 53.3007 76.2013 53.4759C75.974 53.651 75.8142 53.8381 75.7219 54.0369L74.9264 53.7528C75.0684 53.4214 75.2578 53.1634 75.4946 52.9787C75.7337 52.7917 75.9941 52.6615 76.2758 52.5881C76.5599 52.5123 76.8393 52.4744 77.1139 52.4744C77.2891 52.4744 77.4903 52.4957 77.7176 52.5384C77.9472 52.5786 78.1686 52.6626 78.3817 52.7905C78.5971 52.9183 78.7758 53.1113 78.9179 53.3693C79.0599 53.6274 79.1309 53.973 79.1309 54.4062V58H78.2929V57.2614H78.2503C78.1934 57.3797 78.0988 57.5064 77.9662 57.6413C77.8336 57.7763 77.6572 57.8911 77.4371 57.9858C77.2169 58.0805 76.9482 58.1278 76.6309 58.1278ZM76.7588 57.375C77.0902 57.375 77.3696 57.3099 77.5969 57.1797C77.8265 57.0495 77.9993 56.8814 78.1153 56.6754C78.2337 56.4695 78.2929 56.2528 78.2929 56.0256V55.2585C78.2574 55.3011 78.1792 55.3402 78.0585 55.3757C77.9401 55.4089 77.8028 55.4384 77.6466 55.4645C77.4927 55.4882 77.3424 55.5095 77.1956 55.5284C77.0512 55.545 76.934 55.5592 76.844 55.571C76.6262 55.5994 76.4226 55.6456 76.2332 55.7095C76.0462 55.7711 75.8947 55.8646 75.7787 55.9901C75.665 56.1132 75.6082 56.2812 75.6082 56.4943C75.6082 56.7855 75.7159 57.0057 75.9314 57.1548C76.1492 57.3016 76.425 57.375 76.7588 57.375ZM81.4987 54.7188V58H80.6606V52.5455H81.4703V53.3977H81.5413C81.6691 53.1207 81.8633 52.8982 82.1237 52.7301C82.3841 52.5597 82.7203 52.4744 83.1322 52.4744C83.5015 52.4744 83.8247 52.5502 84.1017 52.7017C84.3786 52.8509 84.5941 53.0781 84.748 53.3835C84.9018 53.6866 84.9788 54.0701 84.9788 54.5341V58H84.1407V54.5909C84.1407 54.1624 84.0294 53.8286 83.8069 53.5895C83.5844 53.348 83.279 53.2273 82.8907 53.2273C82.6232 53.2273 82.3841 53.2853 82.1734 53.4013C81.9651 53.5173 81.8005 53.6866 81.6798 53.9091C81.559 54.1316 81.4987 54.4015 81.4987 54.7188ZM88.5699 58.1136C88.1153 58.1136 87.714 57.9988 87.366 57.7692C87.018 57.5372 86.7458 57.2105 86.5493 56.7891C86.3528 56.3653 86.2545 55.8646 86.2545 55.2869C86.2545 54.714 86.3528 54.2169 86.5493 53.7955C86.7458 53.3741 87.0192 53.0485 87.3696 52.8189C87.72 52.5893 88.1248 52.4744 88.5841 52.4744C88.9392 52.4744 89.2197 52.5336 89.4257 52.652C89.634 52.768 89.7926 52.9006 89.9015 53.0497C90.0128 53.1965 90.0992 53.3172 90.1608 53.4119H90.2318V50.7273H91.0699V58H90.2602V57.1619H90.1608C90.0992 57.2614 90.0116 57.3868 89.898 57.5384C89.7844 57.6875 89.6222 57.8213 89.4115 57.9396C89.2008 58.0556 88.9202 58.1136 88.5699 58.1136ZM88.6835 57.3608C89.0197 57.3608 89.3038 57.2732 89.5358 57.098C89.7678 56.9205 89.9442 56.6754 90.0649 56.3629C90.1856 56.0481 90.246 55.6847 90.246 55.2727C90.246 54.8655 90.1868 54.5092 90.0684 54.2038C89.9501 53.8961 89.7749 53.657 89.5429 53.4865C89.3109 53.3137 89.0244 53.2273 88.6835 53.2273C88.3284 53.2273 88.0325 53.3184 87.7957 53.5007C87.5613 53.6806 87.385 53.9257 87.2666 54.2358C87.1506 54.5436 87.0926 54.8892 87.0926 55.2727C87.0926 55.661 87.1518 56.0137 87.2702 56.331C87.3909 56.6458 87.5684 56.8968 87.8028 57.0838C88.0396 57.2685 88.3331 57.3608 88.6835 57.3608ZM97.9058 52.5455V53.2557H95.0791V52.5455H97.9058ZM95.903 51.2386H96.741V56.4375C96.741 56.6742 96.7754 56.8518 96.844 56.9702C96.915 57.0862 97.005 57.1643 97.1139 57.2045C97.2252 57.2424 97.3424 57.2614 97.4655 57.2614C97.5578 57.2614 97.6336 57.2566 97.6927 57.2472C97.7519 57.2353 97.7993 57.2259 97.8348 57.2188L98.0052 57.9716C97.9484 57.9929 97.8691 58.0142 97.7673 58.0355C97.6655 58.0592 97.5365 58.071 97.3802 58.071C97.1435 58.071 96.9115 58.0201 96.6842 57.9183C96.4593 57.8165 96.2723 57.6615 96.1231 57.4531C95.9764 57.2448 95.903 56.982 95.903 56.6648V51.2386ZM99.1665 58V52.5455H99.9761V53.3693H100.033C100.132 53.0994 100.312 52.8804 100.573 52.7124C100.833 52.5443 101.127 52.4602 101.453 52.4602C101.515 52.4602 101.592 52.4614 101.684 52.4638C101.777 52.4661 101.846 52.4697 101.894 52.4744V53.3267C101.865 53.3196 101.8 53.3089 101.698 53.2947C101.599 53.2782 101.494 53.2699 101.382 53.2699C101.117 53.2699 100.88 53.3255 100.672 53.4368C100.466 53.5457 100.303 53.6972 100.182 53.8913C100.064 54.0831 100.005 54.3021 100.005 54.5483V58H99.1665ZM104.492 58.1278C104.147 58.1278 103.833 58.0627 103.551 57.9325C103.27 57.8 103.046 57.6094 102.88 57.3608C102.714 57.1098 102.631 56.8068 102.631 56.4517C102.631 56.1392 102.693 55.8859 102.816 55.6918C102.939 55.4953 103.104 55.3414 103.31 55.2301C103.516 55.1188 103.743 55.036 103.992 54.9815C104.243 54.9247 104.495 54.8797 104.748 54.8466C105.079 54.804 105.348 54.772 105.554 54.7507C105.762 54.727 105.914 54.688 106.009 54.6335C106.106 54.5791 106.154 54.4844 106.154 54.3494V54.321C106.154 53.9706 106.058 53.6984 105.867 53.5043C105.677 53.3101 105.39 53.2131 105.004 53.2131C104.604 53.2131 104.29 53.3007 104.063 53.4759C103.835 53.651 103.676 53.8381 103.583 54.0369L102.788 53.7528C102.93 53.4214 103.119 53.1634 103.356 52.9787C103.595 52.7917 103.855 52.6615 104.137 52.5881C104.421 52.5123 104.701 52.4744 104.975 52.4744C105.15 52.4744 105.352 52.4957 105.579 52.5384C105.809 52.5786 106.03 52.6626 106.243 52.7905C106.458 52.9183 106.637 53.1113 106.779 53.3693C106.921 53.6274 106.992 53.973 106.992 54.4062V58H106.154V57.2614H106.112C106.055 57.3797 105.96 57.5064 105.828 57.6413C105.695 57.7763 105.519 57.8911 105.298 57.9858C105.078 58.0805 104.81 58.1278 104.492 58.1278ZM104.62 57.375C104.952 57.375 105.231 57.3099 105.458 57.1797C105.688 57.0495 105.861 56.8814 105.977 56.6754C106.095 56.4695 106.154 56.2528 106.154 56.0256V55.2585C106.119 55.3011 106.041 55.3402 105.92 55.3757C105.801 55.4089 105.664 55.4384 105.508 55.4645C105.354 55.4882 105.204 55.5095 105.057 55.5284C104.912 55.545 104.795 55.5592 104.705 55.571C104.488 55.5994 104.284 55.6456 104.095 55.7095C103.908 55.7711 103.756 55.8646 103.64 55.9901C103.526 56.1132 103.47 56.2812 103.47 56.4943C103.47 56.7855 103.577 57.0057 103.793 57.1548C104.011 57.3016 104.286 57.375 104.62 57.375ZM112.787 52.5455L110.77 58H109.918L107.9 52.5455H108.81L110.315 56.892H110.372L111.878 52.5455H112.787ZM115.985 58.1136C115.459 58.1136 115.006 57.9976 114.625 57.7656C114.246 57.5312 113.953 57.2045 113.747 56.7855C113.544 56.3641 113.442 55.8741 113.442 55.3153C113.442 54.7566 113.544 54.2642 113.747 53.8381C113.953 53.4096 114.24 53.0758 114.607 52.8366C114.976 52.5952 115.407 52.4744 115.899 52.4744C116.184 52.4744 116.464 52.5218 116.741 52.6165C117.018 52.7112 117.27 52.8651 117.497 53.0781C117.725 53.2888 117.906 53.5682 118.041 53.9162C118.176 54.2642 118.243 54.6927 118.243 55.2017V55.5568H114.039V54.8324H117.391C117.391 54.5246 117.329 54.25 117.206 54.0085C117.085 53.767 116.913 53.5765 116.688 53.4368C116.465 53.2971 116.202 53.2273 115.899 53.2273C115.566 53.2273 115.277 53.3101 115.033 53.4759C114.791 53.6392 114.606 53.8523 114.475 54.1151C114.345 54.3778 114.28 54.6596 114.28 54.9602V55.4432C114.28 55.8551 114.351 56.2043 114.493 56.4908C114.638 56.7749 114.838 56.9915 115.093 57.1406C115.349 57.2874 115.646 57.3608 115.985 57.3608C116.205 57.3608 116.404 57.33 116.581 57.2685C116.761 57.2045 116.916 57.1098 117.046 56.9844C117.177 56.8565 117.277 56.6979 117.348 56.5085L118.158 56.7358C118.073 57.0104 117.929 57.2519 117.728 57.4602C117.527 57.6662 117.278 57.8272 116.983 57.9432C116.687 58.0568 116.354 58.1136 115.985 58.1136ZM120.356 50.7273V58H119.518V50.7273H120.356ZM21.7779 70.1136C21.3233 70.1136 20.9221 69.9988 20.574 69.7692C20.226 69.5372 19.9538 69.2105 19.7573 68.7891C19.5608 68.3653 19.4625 67.8646 19.4625 67.2869C19.4625 66.714 19.5608 66.2169 19.7573 65.7955C19.9538 65.3741 20.2272 65.0485 20.5776 64.8189C20.928 64.5893 21.3328 64.4744 21.7921 64.4744C22.1472 64.4744 22.4277 64.5336 22.6337 64.652C22.842 64.768 23.0007 64.9006 23.1096 65.0497C23.2208 65.1965 23.3072 65.3172 23.3688 65.4119H23.4398V62.7273H24.2779V70H23.4682V69.1619H23.3688C23.3072 69.2614 23.2196 69.3868 23.106 69.5384C22.9924 69.6875 22.8302 69.8213 22.6195 69.9396C22.4088 70.0556 22.1283 70.1136 21.7779 70.1136ZM21.8915 69.3608C22.2277 69.3608 22.5118 69.2732 22.7438 69.098C22.9758 68.9205 23.1522 68.6754 23.2729 68.3629C23.3936 68.0481 23.454 67.6847 23.454 67.2727C23.454 66.8655 23.3948 66.5092 23.2765 66.2038C23.1581 65.8961 22.9829 65.657 22.7509 65.4865C22.5189 65.3137 22.2324 65.2273 21.8915 65.2273C21.5364 65.2273 21.2405 65.3184 21.0037 65.5007C20.7694 65.6806 20.593 65.9257 20.4746 66.2358C20.3586 66.5436 20.3006 66.8892 20.3006 67.2727C20.3006 67.661 20.3598 68.0137 20.4782 68.331C20.5989 68.6458 20.7765 68.8968 21.0108 69.0838C21.2476 69.2685 21.5411 69.3608 21.8915 69.3608ZM25.9292 70V64.5455H26.7672V70H25.9292ZM26.3553 63.6364C26.1919 63.6364 26.0511 63.5807 25.9327 63.4695C25.8167 63.3582 25.7587 63.2244 25.7587 63.0682C25.7587 62.9119 25.8167 62.7782 25.9327 62.6669C26.0511 62.5556 26.1919 62.5 26.3553 62.5C26.5186 62.5 26.6583 62.5556 26.7743 62.6669C26.8927 62.7782 26.9519 62.9119 26.9519 63.0682C26.9519 63.2244 26.8927 63.3582 26.7743 63.4695C26.6583 63.5807 26.5186 63.6364 26.3553 63.6364ZM32.1658 65.767L31.413 65.9801C31.3656 65.8546 31.2958 65.7327 31.2035 65.6143C31.1135 65.4936 30.9904 65.3942 30.8342 65.3161C30.6779 65.2379 30.4779 65.1989 30.234 65.1989C29.9002 65.1989 29.622 65.2758 29.3995 65.4297C29.1793 65.5812 29.0692 65.7741 29.0692 66.0085C29.0692 66.2169 29.145 66.3814 29.2965 66.5021C29.448 66.6229 29.6848 66.7235 30.0067 66.804L30.8164 67.0028C31.3041 67.1212 31.6675 67.3023 31.9066 67.5462C32.1457 67.7876 32.2653 68.099 32.2653 68.4801C32.2653 68.7926 32.1753 69.072 31.9954 69.3182C31.8178 69.5644 31.5692 69.7585 31.2496 69.9006C30.93 70.0426 30.5584 70.1136 30.1346 70.1136C29.5782 70.1136 29.1178 69.9929 28.7532 69.7514C28.3886 69.5099 28.1578 69.1572 28.0607 68.6932L28.8562 68.4943C28.9319 68.7879 29.0752 69.008 29.2859 69.1548C29.4989 69.3016 29.7771 69.375 30.1204 69.375C30.511 69.375 30.8211 69.2921 31.0508 69.1264C31.2828 68.9583 31.3988 68.7571 31.3988 68.5227C31.3988 68.3333 31.3325 68.1747 31.1999 68.0469C31.0674 67.9167 30.8638 67.8196 30.5891 67.7557L29.68 67.5426C29.1805 67.4242 28.8136 67.2408 28.5792 66.9922C28.3472 66.7412 28.2312 66.4276 28.2312 66.0511C28.2312 65.7434 28.3176 65.4711 28.4904 65.2344C28.6656 64.9976 28.9035 64.8118 29.2042 64.6768C29.5072 64.5419 29.8505 64.4744 30.234 64.4744C30.7738 64.4744 31.1976 64.5928 31.5053 64.8295C31.8155 65.0663 32.0356 65.3788 32.1658 65.767ZM35.899 64.5455V65.2557H33.0723V64.5455H35.899ZM33.8961 63.2386H34.7342V68.4375C34.7342 68.6742 34.7685 68.8518 34.8372 68.9702C34.9082 69.0862 34.9982 69.1643 35.1071 69.2045C35.2183 69.2424 35.3355 69.2614 35.4586 69.2614C35.551 69.2614 35.6267 69.2566 35.6859 69.2472C35.7451 69.2353 35.7924 69.2259 35.8279 69.2188L35.9984 69.9716C35.9416 69.9929 35.8623 70.0142 35.7605 70.0355C35.6587 70.0592 35.5297 70.071 35.3734 70.071C35.1367 70.071 34.9047 70.0201 34.6774 69.9183C34.4525 69.8165 34.2654 69.6615 34.1163 69.4531C33.9695 69.2448 33.8961 68.982 33.8961 68.6648V63.2386ZM38.7647 70.1278C38.4191 70.1278 38.1054 70.0627 37.8237 69.9325C37.542 69.8 37.3182 69.6094 37.1525 69.3608C36.9868 69.1098 36.9039 68.8068 36.9039 68.4517C36.9039 68.1392 36.9655 67.8859 37.0886 67.6918C37.2117 67.4953 37.3762 67.3414 37.5822 67.2301C37.7882 67.1188 38.0154 67.036 38.264 66.9815C38.515 66.9247 38.7671 66.8797 39.0204 66.8466C39.3519 66.804 39.6206 66.772 39.8265 66.7507C40.0349 66.727 40.1864 66.688 40.2811 66.6335C40.3781 66.5791 40.4267 66.4844 40.4267 66.3494V66.321C40.4267 65.9706 40.3308 65.6984 40.139 65.5043C39.9496 65.3101 39.662 65.2131 39.2761 65.2131C38.876 65.2131 38.5623 65.3007 38.335 65.4759C38.1078 65.651 37.948 65.8381 37.8556 66.0369L37.0602 65.7528C37.2022 65.4214 37.3916 65.1634 37.6284 64.9787C37.8675 64.7917 38.1279 64.6615 38.4096 64.5881C38.6937 64.5123 38.9731 64.4744 39.2477 64.4744C39.4229 64.4744 39.6241 64.4957 39.8514 64.5384C40.081 64.5786 40.3024 64.6626 40.5154 64.7905C40.7309 64.9183 40.9096 65.1113 41.0517 65.3693C41.1937 65.6274 41.2647 65.973 41.2647 66.4062V70H40.4267V69.2614H40.3841C40.3272 69.3797 40.2325 69.5064 40.1 69.6413C39.9674 69.7763 39.791 69.8911 39.5708 69.9858C39.3507 70.0805 39.082 70.1278 38.7647 70.1278ZM38.8926 69.375C39.224 69.375 39.5034 69.3099 39.7306 69.1797C39.9603 69.0495 40.1331 68.8814 40.2491 68.6754C40.3675 68.4695 40.4267 68.2528 40.4267 68.0256V67.2585C40.3912 67.3011 40.313 67.3402 40.1923 67.3757C40.0739 67.4089 39.9366 67.4384 39.7804 67.4645C39.6265 67.4882 39.4761 67.5095 39.3294 67.5284C39.185 67.545 39.0678 67.5592 38.9778 67.571C38.76 67.5994 38.5564 67.6456 38.367 67.7095C38.18 67.7711 38.0285 67.8646 37.9125 67.9901C37.7988 68.1132 37.742 68.2812 37.742 68.4943C37.742 68.7855 37.8497 69.0057 38.0652 69.1548C38.283 69.3016 38.5588 69.375 38.8926 69.375ZM43.6325 66.7188V70H42.7944V64.5455H43.604V65.3977H43.6751C43.8029 65.1207 43.997 64.8982 44.2575 64.7301C44.5179 64.5597 44.854 64.4744 45.266 64.4744C45.6353 64.4744 45.9585 64.5502 46.2354 64.7017C46.5124 64.8509 46.7279 65.0781 46.8817 65.3835C47.0356 65.6866 47.1126 66.0701 47.1126 66.5341V70H46.2745V66.5909C46.2745 66.1624 46.1632 65.8286 45.9407 65.5895C45.7182 65.348 45.4128 65.2273 45.0245 65.2273C44.757 65.2273 44.5179 65.2853 44.3072 65.4013C44.0988 65.5173 43.9343 65.6866 43.8136 65.9091C43.6928 66.1316 43.6325 66.4015 43.6325 66.7188ZM50.8599 70.1136C50.3485 70.1136 49.9082 69.9929 49.5389 69.7514C49.1696 69.5099 48.8855 69.1773 48.6866 68.7536C48.4877 68.3298 48.3883 67.8456 48.3883 67.3011C48.3883 66.7472 48.4901 66.2583 48.6937 65.8345C48.8997 65.4084 49.1861 65.0758 49.5531 64.8366C49.9224 64.5952 50.3533 64.4744 50.8457 64.4744C51.2292 64.4744 51.5749 64.5455 51.8826 64.6875C52.1904 64.8295 52.4425 65.0284 52.639 65.2841C52.8355 65.5398 52.9574 65.8381 53.0048 66.179H52.1667C52.1028 65.9304 51.9608 65.7102 51.7406 65.5185C51.5228 65.3243 51.2292 65.2273 50.8599 65.2273C50.5332 65.2273 50.2467 65.3125 50.0005 65.483C49.7567 65.651 49.5661 65.889 49.4288 66.1967C49.2939 66.5021 49.2264 66.8608 49.2264 67.2727C49.2264 67.6941 49.2927 68.0611 49.4252 68.3736C49.5602 68.6861 49.7496 68.9287 49.9934 69.1016C50.2396 69.2744 50.5285 69.3608 50.8599 69.3608C51.0777 69.3608 51.2754 69.3229 51.4529 69.2472C51.6305 69.1714 51.7808 69.0625 51.9039 68.9205C52.027 68.7784 52.1146 68.608 52.1667 68.4091H53.0048C52.9574 68.7311 52.8403 69.0211 52.6532 69.2791C52.4686 69.5348 52.2235 69.7384 51.9181 69.8899C51.6151 70.0391 51.2624 70.1136 50.8599 70.1136ZM56.5169 70.1136C55.9913 70.1136 55.5379 69.9976 55.1568 69.7656C54.778 69.5312 54.4856 69.2045 54.2797 68.7855C54.0761 68.3641 53.9743 67.8741 53.9743 67.3153C53.9743 66.7566 54.0761 66.2642 54.2797 65.8381C54.4856 65.4096 54.7721 65.0758 55.139 64.8366C55.5083 64.5952 55.9392 64.4744 56.4316 64.4744C56.7157 64.4744 56.9963 64.5218 57.2733 64.6165C57.5502 64.7112 57.8024 64.8651 58.0297 65.0781C58.2569 65.2888 58.438 65.5682 58.573 65.9162C58.7079 66.2642 58.7754 66.6927 58.7754 67.2017V67.5568H54.5708V66.8324H57.9231C57.9231 66.5246 57.8616 66.25 57.7385 66.0085C57.6177 65.767 57.4449 65.5765 57.22 65.4368C56.9975 65.2971 56.7347 65.2273 56.4316 65.2273C56.0978 65.2273 55.809 65.3101 55.5652 65.4759C55.3237 65.6392 55.1378 65.8523 55.0076 66.1151C54.8774 66.3778 54.8123 66.6596 54.8123 66.9602V67.4432C54.8123 67.8551 54.8833 68.2043 55.0254 68.4908C55.1698 68.7749 55.3699 68.9915 55.6255 69.1406C55.8812 69.2874 56.1783 69.3608 56.5169 69.3608C56.737 69.3608 56.9359 69.33 57.1135 69.2685C57.2934 69.2045 57.4484 69.1098 57.5787 68.9844C57.7089 68.8565 57.8095 68.6979 57.8805 68.5085L58.6902 68.7358C58.6049 69.0104 58.4617 69.2519 58.2605 69.4602C58.0592 69.6662 57.8107 69.8272 57.5147 69.9432C57.2188 70.0568 56.8862 70.1136 56.5169 70.1136ZM65.1497 70.1136C64.6241 70.1136 64.1708 69.9976 63.7896 69.7656C63.4108 69.5312 63.1184 69.2045 62.9125 68.7855C62.7089 68.3641 62.6071 67.8741 62.6071 67.3153C62.6071 66.7566 62.7089 66.2642 62.9125 65.8381C63.1184 65.4096 63.4049 65.0758 63.7718 64.8366C64.1412 64.5952 64.572 64.4744 65.0645 64.4744C65.3485 64.4744 65.6291 64.5218 65.9061 64.6165C66.1831 64.7112 66.4352 64.8651 66.6625 65.0781C66.8897 65.2888 67.0708 65.5682 67.2058 65.9162C67.3407 66.2642 67.4082 66.6927 67.4082 67.2017V67.5568H63.2037V66.8324H66.5559C66.5559 66.5246 66.4944 66.25 66.3713 66.0085C66.2505 65.767 66.0777 65.5765 65.8528 65.4368C65.6303 65.2971 65.3675 65.2273 65.0645 65.2273C64.7306 65.2273 64.4418 65.3101 64.198 65.4759C63.9565 65.6392 63.7707 65.8523 63.6404 66.1151C63.5102 66.3778 63.4451 66.6596 63.4451 66.9602V67.4432C63.4451 67.8551 63.5162 68.2043 63.6582 68.4908C63.8026 68.7749 64.0027 68.9915 64.2583 69.1406C64.514 69.2874 64.8111 69.3608 65.1497 69.3608C65.3699 69.3608 65.5687 69.33 65.7463 69.2685C65.9262 69.2045 66.0813 69.1098 66.2115 68.9844C66.3417 68.8565 66.4423 68.6979 66.5133 68.5085L67.323 68.7358C67.2377 69.0104 67.0945 69.2519 66.8933 69.4602C66.6921 69.6662 66.4435 69.8272 66.1475 69.9432C65.8516 70.0568 65.519 70.1136 65.1497 70.1136ZM72.5467 65.767L71.7939 65.9801C71.7465 65.8546 71.6767 65.7327 71.5843 65.6143C71.4944 65.4936 71.3713 65.3942 71.215 65.3161C71.0588 65.2379 70.8587 65.1989 70.6149 65.1989C70.2811 65.1989 70.0029 65.2758 69.7804 65.4297C69.5602 65.5812 69.4501 65.7741 69.4501 66.0085C69.4501 66.2169 69.5259 66.3814 69.6774 66.5021C69.8289 66.6229 70.0656 66.7235 70.3876 66.804L71.1973 67.0028C71.685 67.1212 72.0484 67.3023 72.2875 67.5462C72.5266 67.7876 72.6461 68.099 72.6461 68.4801C72.6461 68.7926 72.5562 69.072 72.3762 69.3182C72.1987 69.5644 71.9501 69.7585 71.6305 69.9006C71.3109 70.0426 70.9392 70.1136 70.5154 70.1136C69.9591 70.1136 69.4986 69.9929 69.1341 69.7514C68.7695 69.5099 68.5386 69.1572 68.4416 68.6932L69.237 68.4943C69.3128 68.7879 69.456 69.008 69.6667 69.1548C69.8798 69.3016 70.158 69.375 70.5012 69.375C70.8919 69.375 71.202 69.2921 71.4316 69.1264C71.6636 68.9583 71.7797 68.7571 71.7797 68.5227C71.7797 68.3333 71.7134 68.1747 71.5808 68.0469C71.4482 67.9167 71.2446 67.8196 70.97 67.7557L70.0609 67.5426C69.5614 67.4242 69.1944 67.2408 68.96 66.9922C68.728 66.7412 68.612 66.4276 68.612 66.0511C68.612 65.7434 68.6984 65.4711 68.8713 65.2344C69.0465 64.9976 69.2844 64.8118 69.585 64.6768C69.8881 64.5419 70.2314 64.4744 70.6149 64.4744C71.1547 64.4744 71.5784 64.5928 71.8862 64.8295C72.1963 65.0663 72.4165 65.3788 72.5467 65.767ZM76.2798 64.5455V65.2557H73.4531V64.5455H76.2798ZM74.277 63.2386H75.1151V68.4375C75.1151 68.6742 75.1494 68.8518 75.218 68.9702C75.2891 69.0862 75.379 69.1643 75.4879 69.2045C75.5992 69.2424 75.7164 69.2614 75.8395 69.2614C75.9318 69.2614 76.0076 69.2566 76.0668 69.2472C76.1259 69.2353 76.1733 69.2259 76.2088 69.2188L76.3793 69.9716C76.3224 69.9929 76.2431 70.0142 76.1413 70.0355C76.0395 70.0592 75.9105 70.071 75.7543 70.071C75.5175 70.071 75.2855 70.0201 75.0582 69.9183C74.8333 69.8165 74.6463 69.6615 74.4972 69.4531C74.3504 69.2448 74.277 68.982 74.277 68.6648V63.2386ZM77.5405 70V64.5455H78.3786V70H77.5405ZM77.9666 63.6364C77.8033 63.6364 77.6624 63.5807 77.544 63.4695C77.428 63.3582 77.37 63.2244 77.37 63.0682C77.37 62.9119 77.428 62.7782 77.544 62.6669C77.6624 62.5556 77.8033 62.5 77.9666 62.5C78.13 62.5 78.2696 62.5556 78.3857 62.6669C78.504 62.7782 78.5632 62.9119 78.5632 63.0682C78.5632 63.2244 78.504 63.3582 78.3857 63.4695C78.2696 63.5807 78.13 63.6364 77.9666 63.6364ZM79.9135 70V64.5455H80.7232V65.3977H80.7942C80.9078 65.1065 81.0913 64.8804 81.3446 64.7195C81.598 64.5561 81.9022 64.4744 82.2573 64.4744C82.6171 64.4744 82.9166 64.5561 83.1557 64.7195C83.3972 64.8804 83.5854 65.1065 83.7203 65.3977H83.7772C83.9168 65.116 84.1264 64.8923 84.4057 64.7266C84.6851 64.5585 85.0201 64.4744 85.4107 64.4744C85.8984 64.4744 86.2973 64.6271 86.6074 64.9325C86.9176 65.2356 87.0726 65.7079 87.0726 66.3494V70H86.2346V66.3494C86.2346 65.947 86.1245 65.6593 85.9043 65.4865C85.6841 65.3137 85.4249 65.2273 85.1266 65.2273C84.7431 65.2273 84.446 65.3433 84.2353 65.5753C84.0246 65.8049 83.9192 66.0961 83.9192 66.4489V70H83.0669V66.2642C83.0669 65.9541 82.9663 65.7043 82.7651 65.5149C82.5639 65.3232 82.3046 65.2273 81.9874 65.2273C81.7696 65.2273 81.566 65.2853 81.3766 65.4013C81.1896 65.5173 81.0381 65.6783 80.9221 65.8842C80.8084 66.0878 80.7516 66.3234 80.7516 66.5909V70H79.9135ZM90.21 70.1278C89.8644 70.1278 89.5507 70.0627 89.269 69.9325C88.9873 69.8 88.7636 69.6094 88.5978 69.3608C88.4321 69.1098 88.3493 68.8068 88.3493 68.4517C88.3493 68.1392 88.4108 67.8859 88.5339 67.6918C88.657 67.4953 88.8216 67.3414 89.0275 67.2301C89.2335 67.1188 89.4608 67.036 89.7093 66.9815C89.9603 66.9247 90.2124 66.8797 90.4657 66.8466C90.7972 66.804 91.0659 66.772 91.2718 66.7507C91.4802 66.727 91.6317 66.688 91.7264 66.6335C91.8234 66.5791 91.872 66.4844 91.872 66.3494V66.321C91.872 65.9706 91.7761 65.6984 91.5843 65.5043C91.3949 65.3101 91.1073 65.2131 90.7214 65.2131C90.3213 65.2131 90.0076 65.3007 89.7804 65.4759C89.5531 65.651 89.3933 65.8381 89.301 66.0369L88.5055 65.7528C88.6475 65.4214 88.8369 65.1634 89.0737 64.9787C89.3128 64.7917 89.5732 64.6615 89.8549 64.5881C90.139 64.5123 90.4184 64.4744 90.693 64.4744C90.8682 64.4744 91.0694 64.4957 91.2967 64.5384C91.5263 64.5786 91.7477 64.6626 91.9608 64.7905C92.1762 64.9183 92.3549 65.1113 92.497 65.3693C92.639 65.6274 92.71 65.973 92.71 66.4062V70H91.872V69.2614H91.8294C91.7725 69.3797 91.6779 69.5064 91.5453 69.6413C91.4127 69.7763 91.2363 69.8911 91.0162 69.9858C90.796 70.0805 90.5273 70.1278 90.21 70.1278ZM90.3379 69.375C90.6693 69.375 90.9487 69.3099 91.176 69.1797C91.4056 69.0495 91.5784 68.8814 91.6944 68.6754C91.8128 68.4695 91.872 68.2528 91.872 68.0256V67.2585C91.8365 67.3011 91.7583 67.3402 91.6376 67.3757C91.5192 67.4089 91.3819 67.4384 91.2257 67.4645C91.0718 67.4882 90.9215 67.5095 90.7747 67.5284C90.6303 67.545 90.5131 67.5592 90.4231 67.571C90.2053 67.5994 90.0017 67.6456 89.8123 67.7095C89.6253 67.7711 89.4738 67.8646 89.3578 67.9901C89.2441 68.1132 89.1873 68.2812 89.1873 68.4943C89.1873 68.7855 89.295 69.0057 89.5105 69.1548C89.7283 69.3016 90.0041 69.375 90.3379 69.375ZM96.6119 64.5455V65.2557H93.7852V64.5455H96.6119ZM94.609 63.2386H95.4471V68.4375C95.4471 68.6742 95.4814 68.8518 95.5501 68.9702C95.6211 69.0862 95.7111 69.1643 95.82 69.2045C95.9312 69.2424 96.0484 69.2614 96.1715 69.2614C96.2638 69.2614 96.3396 69.2566 96.3988 69.2472C96.458 69.2353 96.5053 69.2259 96.5408 69.2188L96.7113 69.9716C96.6545 69.9929 96.5752 70.0142 96.4734 70.0355C96.3716 70.0592 96.2425 70.071 96.0863 70.071C95.8496 70.071 95.6175 70.0201 95.3903 69.9183C95.1654 69.8165 94.9783 69.6615 94.8292 69.4531C94.6824 69.2448 94.609 68.982 94.609 68.6648V63.2386ZM97.8725 70V64.5455H98.7106V70H97.8725ZM98.2987 63.6364C98.1353 63.6364 97.9944 63.5807 97.8761 63.4695C97.7601 63.3582 97.7021 63.2244 97.7021 63.0682C97.7021 62.9119 97.7601 62.7782 97.8761 62.6669C97.9944 62.5556 98.1353 62.5 98.2987 62.5C98.462 62.5 98.6017 62.5556 98.7177 62.6669C98.8361 62.7782 98.8952 62.9119 98.8952 63.0682C98.8952 63.2244 98.8361 63.3582 98.7177 63.4695C98.6017 63.5807 98.462 63.6364 98.2987 63.6364ZM102.461 70.1136C101.969 70.1136 101.537 69.9964 101.165 69.7621C100.796 69.5277 100.507 69.1998 100.299 68.7784C100.093 68.357 99.9899 67.8646 99.9899 67.3011C99.9899 66.733 100.093 66.237 100.299 65.8132C100.507 65.3894 100.796 65.0604 101.165 64.826C101.537 64.5916 101.969 64.4744 102.461 64.4744C102.954 64.4744 103.385 64.5916 103.754 64.826C104.126 65.0604 104.415 65.3894 104.621 65.8132C104.829 66.237 104.933 66.733 104.933 67.3011C104.933 67.8646 104.829 68.357 104.621 68.7784C104.415 69.1998 104.126 69.5277 103.754 69.7621C103.385 69.9964 102.954 70.1136 102.461 70.1136ZM102.461 69.3608C102.836 69.3608 103.143 69.2649 103.385 69.0732C103.626 68.8814 103.805 68.6293 103.921 68.3168C104.037 68.0043 104.095 67.6657 104.095 67.3011C104.095 66.9366 104.037 66.5968 103.921 66.282C103.805 65.9671 103.626 65.7126 103.385 65.5185C103.143 65.3243 102.836 65.2273 102.461 65.2273C102.087 65.2273 101.78 65.3243 101.538 65.5185C101.297 65.7126 101.118 65.9671 101.002 66.282C100.886 66.5968 100.828 66.9366 100.828 67.3011C100.828 67.6657 100.886 68.0043 101.002 68.3168C101.118 68.6293 101.297 68.8814 101.538 69.0732C101.78 69.2649 102.087 69.3608 102.461 69.3608ZM107.05 66.7188V70H106.212V64.5455H107.022V65.3977H107.093C107.221 65.1207 107.415 64.8982 107.675 64.7301C107.936 64.5597 108.272 64.4744 108.684 64.4744C109.053 64.4744 109.376 64.5502 109.653 64.7017C109.93 64.8509 110.146 65.0781 110.3 65.3835C110.454 65.6866 110.531 66.0701 110.531 66.5341V70H109.692V66.5909C109.692 66.1624 109.581 65.8286 109.359 65.5895C109.136 65.348 108.831 65.2273 108.442 65.2273C108.175 65.2273 107.936 65.2853 107.725 65.4013C107.517 65.5173 107.352 65.6866 107.232 65.9091C107.111 66.1316 107.05 66.4015 107.05 66.7188ZM112.673 70.0568C112.498 70.0568 112.347 69.9941 112.222 69.8686C112.096 69.7431 112.034 69.5928 112.034 69.4176C112.034 69.2424 112.096 69.0921 112.222 68.9666C112.347 68.8411 112.498 68.7784 112.673 68.7784C112.848 68.7784 112.998 68.8411 113.124 68.9666C113.249 69.0921 113.312 69.2424 113.312 69.4176C113.312 69.5336 113.282 69.6402 113.223 69.7372C113.166 69.8343 113.089 69.9124 112.992 69.9716C112.898 70.0284 112.791 70.0568 112.673 70.0568Z" fill="black"/>
<path fill-rule="evenodd" clip-rule="evenodd" d="M53.415 6.89545C53.415 2.29848 56.4834 0 59.5481 0C62.6127 0 65.6774 2.29848 65.6774 6.89545L59.5481 19.154L53.415 6.89545ZM84.7452 4.00319C85.2815 3.88827 85.9232 3.76281 86.584 3.73503L86.6702 5.4589C86.2009 5.49337 85.6454 5.56903 85.1091 5.68874L84.7452 4.00319ZM62.6127 6.89545C62.6127 5.20319 61.2432 3.8308 59.5481 3.8308C57.8558 3.8308 56.4834 5.20319 56.4834 6.89545C56.4834 8.59058 57.8558 9.96009 59.5481 9.96009C61.2432 9.96009 62.6127 8.59058 62.6127 6.89545ZM88.2025 5.54509L88.4898 3.84996C89.1506 3.91029 89.8019 4.18994 90.3861 4.50119L89.5529 6.01436C89.141 5.76728 88.6718 5.64373 88.2025 5.54509ZM82.1863 4.79253C82.4463 4.69598 82.7147 4.59633 82.983 4.49162L83.5481 6.11971C83.0788 6.28443 82.5233 6.4798 81.9966 6.70391L81.3166 5.1237C81.5859 5.01549 81.8803 4.90616 82.1863 4.79253ZM90.6446 6.89545L91.9567 5.77494C92.3972 6.29114 92.6845 6.76616 93.0102 7.39345L91.4683 8.16919C91.2576 7.77653 90.9894 7.29002 90.6446 6.89545ZM78.9324 6.27087C79.1803 6.13975 79.4367 6.0042 79.7173 5.86113L80.4643 7.41261C80.0237 7.63288 79.4778 7.91061 78.9798 8.19792L78.1371 6.68475C78.4058 6.54939 78.6642 6.41272 78.9324 6.27087ZM75.1299 8.49481C75.6183 8.16919 76.1163 7.8723 76.6239 7.57541L77.505 9.05027C77.4295 9.09559 77.3537 9.1409 77.2778 9.18629C76.8725 9.42869 76.4637 9.67323 76.0684 9.93136L75.1299 8.49481ZM91.9613 9.51218C92.5063 9.44756 93.0596 9.38196 93.6039 9.2897C93.671 9.9122 93.5848 10.6209 93.489 11.3104L91.813 10.9178C91.9088 10.5156 91.9375 9.9984 91.8992 9.51955L91.9613 9.51218ZM72.9607 9.94571C73.1977 9.78051 73.4348 9.61531 73.6742 9.45251L74.6415 10.8699C74.5142 10.9582 74.387 11.0458 74.2599 11.1332C73.9184 11.3683 73.5783 11.6025 73.2432 11.8468L72.2472 10.4389C72.4866 10.2761 72.7237 10.1109 72.9607 9.94571ZM69.4956 12.4827C69.8984 12.1735 70.3778 11.8056 70.8394 11.4733L71.8641 12.8619C71.6627 13.011 71.4815 13.1482 71.3001 13.2857C71.0502 13.475 70.7997 13.6648 70.4946 13.8867L69.4507 12.5172L69.4956 12.4827ZM90.2807 13.4557C90.6159 13.1205 90.9511 12.68 91.2384 12.2394L92.6941 13.1684C92.4285 13.6001 92.0621 14.0317 91.701 14.4572C91.6455 14.5225 91.5901 14.5878 91.5353 14.6528L90.2807 13.4557ZM66.7308 14.672C67.1427 14.3272 67.6119 13.9537 68.0812 13.5898L69.1538 14.9401C68.7472 15.2358 68.305 15.6028 67.8701 15.9638L67.8226 16.0032L66.7308 14.672ZM87.7715 15.5435C88.1929 15.2562 88.6526 14.9114 89.0932 14.5571L90.1945 15.8978C89.7636 16.2426 89.2655 16.6161 88.758 16.9609L87.7715 15.5435ZM64.5164 16.5374C64.808 16.2862 65.0996 16.0351 65.3996 15.7925L66.501 17.1141C66.0605 17.478 65.6297 17.8514 65.1988 18.2248L65.1985 18.225L64.078 16.913C64.2249 16.7885 64.3706 16.6629 64.5164 16.5374ZM84.908 17.2961C85.3677 17.0471 85.8753 16.7502 86.3637 16.4629L87.264 17.9377C87.0249 18.0971 86.7388 18.2535 86.4431 18.4151C86.2056 18.5449 85.962 18.6781 85.7316 18.8188L84.908 17.2961ZM61.4826 19.2115C61.9136 18.8188 62.335 18.4357 62.766 18.0527L63.9152 19.3456C63.7045 19.5371 63.4914 19.7286 63.2783 19.9202C63.0652 20.1117 62.8522 20.3033 62.6415 20.4948L61.4826 19.2115ZM82.643 18.4693C82.8968 18.3424 83.1506 18.2155 83.4044 18.091L84.1897 19.6233C83.8852 19.7647 83.6116 19.903 83.3233 20.0487C83.1038 20.1596 82.8757 20.2749 82.6191 20.399L81.8817 18.8476C82.1354 18.7231 82.3892 18.5962 82.643 18.4693ZM78.7691 20.2554C79.3055 20.0351 79.813 19.8053 80.3398 19.5658L81.0485 21.1269L81.0482 21.127C80.5215 21.3664 79.9949 21.6058 79.4683 21.8356L78.7691 20.2554ZM59.0966 21.449C59.4714 21.0857 59.787 20.7798 60.2185 20.399L61.3964 21.6728C61.0964 21.9319 60.8255 22.1958 60.5319 22.4819C60.4132 22.5977 60.2907 22.717 60.161 22.8412L58.9447 21.5962C58.9967 21.5459 59.0471 21.497 59.0966 21.449ZM76.4084 21.2897C76.6718 21.1772 76.9351 21.0646 77.1985 20.9545L77.8785 22.5443L77.8783 22.5444C77.3516 22.7742 76.8249 23.004 76.2887 23.2242L75.6183 21.6249C75.8817 21.5148 76.145 21.4022 76.4084 21.2897ZM72.4387 22.9657C72.9751 22.755 73.5018 22.5251 74.0285 22.2953L74.6989 23.8946C74.4355 24.0048 74.1698 24.1173 73.904 24.2298C73.6383 24.3424 73.3725 24.4549 73.1091 24.565L72.4387 22.9657ZM85.5976 29.8803C85.5976 25.2833 88.6622 22.9848 91.7268 22.9848C94.7915 22.9848 97.8561 25.2833 97.8561 29.8803L91.7268 42.1388L85.5976 29.8803ZM69.7521 24.1084C70.1036 23.9615 70.4828 23.8031 70.849 23.6361L71.5193 25.2258C71.0405 25.4365 70.5042 25.6664 69.9391 25.9058L69.2592 24.316C69.4137 24.2498 69.5795 24.1805 69.7521 24.1084ZM66.7288 25.4241C67.0415 25.283 67.3699 25.1347 67.6694 24.996L68.3589 26.5762C68.0845 26.6923 67.81 26.8201 67.5244 26.953C67.2917 27.0613 67.0515 27.1731 66.7979 27.2849L66.0892 25.7143C66.2827 25.6256 66.5016 25.5267 66.7288 25.4241ZM62.9383 27.1987C63.4172 26.9593 63.9727 26.6911 64.509 26.4325L65.2368 27.9936C65.0887 28.0662 64.9338 28.1407 64.775 28.2171C64.4308 28.3826 64.068 28.5571 63.7141 28.7406L62.9383 27.1987ZM94.7915 29.8803C94.7915 28.1851 93.422 26.8156 91.7268 26.8156C90.0317 26.8156 88.6622 28.1851 88.6622 29.8803C88.6622 31.5754 90.0317 32.9449 91.7268 32.9449C93.422 32.9449 94.7915 31.5754 94.7915 29.8803ZM59.8545 28.8555C60.3717 28.5586 60.8793 28.2713 61.3869 27.9936L62.2009 29.5259C61.7029 29.7941 61.2049 30.0622 60.7165 30.3495L59.8545 28.8555ZM58.0866 29.9439C58.174 29.8886 58.2623 29.8351 58.351 29.7845L59.2895 31.2306C58.9558 31.4333 58.5542 31.7059 58.1596 31.9862C57.9953 34.96 56.6591 37.6214 54.6051 39.5165C54.6519 39.6311 54.7007 39.7459 54.75 39.8595L53.2778 40.5662C51.51 41.7577 49.3804 42.4532 47.0884 42.4532C40.9647 42.4532 36 37.4884 36 31.3648C36 25.2411 40.9647 20.2764 47.0884 20.2764C52.7306 20.2764 57.389 24.4912 58.0866 29.9439ZM76.4994 33.7877L76.3462 32.0734C76.9878 31.9776 77.6582 32.0447 78.2903 32.1404L77.9934 33.8356C77.4954 33.759 76.9974 33.7015 76.4994 33.7877ZM73.4347 34.6305L72.7835 33.0311C73.3102 32.8204 73.9136 32.5906 74.517 32.4182C74.5399 32.507 74.5626 32.5957 74.5853 32.6845C74.7047 33.151 74.8238 33.6164 74.9766 34.075C74.4499 34.2378 73.9328 34.4102 73.4347 34.6305ZM79.2288 34.3623L80.2057 32.9449C80.6615 33.2032 80.9908 33.5519 81.3512 33.9336C81.4452 34.0331 81.5413 34.1348 81.6422 34.2378L80.3398 35.3679C80.0237 34.9752 79.6311 34.6592 79.2288 34.3623ZM69.8602 34.5335C70.286 34.2832 70.714 34.0316 71.1554 33.8068L71.9599 35.32C71.707 35.4539 71.4542 35.6031 71.2 35.7532C70.9632 35.893 70.7252 36.0335 70.485 36.1628L69.6135 34.6784C69.6957 34.6303 69.778 34.5819 69.8602 34.5335ZM66.6734 36.565C67.1522 36.2394 67.6311 35.9234 68.1195 35.6073L69.0581 37.0439C68.8186 37.2019 68.5816 37.3623 68.3445 37.5227C68.1075 37.6832 67.8705 37.8436 67.6311 38.0016L66.6734 36.565ZM81.2975 36.6608L82.7436 35.7222C82.9694 36.0334 83.1485 36.3407 83.3354 36.6615C83.4419 36.8442 83.5509 37.0312 83.6726 37.2258L82.1786 38.0878C81.9008 37.5993 81.6039 37.1205 81.2975 36.6608ZM64.9379 37.7446C65.0407 37.6772 65.1436 37.6098 65.2464 37.5419L66.2137 38.9593C66.1158 39.0246 66.0178 39.0895 65.9202 39.1542C65.5306 39.4124 65.1447 39.6681 64.7771 39.9361L63.8194 38.4996C64.1879 38.2364 64.5623 37.9909 64.9379 37.7446ZM83.0309 39.5818L84.5249 38.7198L84.5642 38.7872C84.8203 39.2263 85.0867 39.6831 85.3964 40.166L83.9503 41.0949C83.6726 40.6544 83.3278 40.0989 83.0309 39.5818ZM60.9559 40.3001C61.4539 40.0223 61.9232 39.735 62.402 39.4381L63.3118 40.8938C62.8234 41.2099 62.3159 41.5067 61.8083 41.8036L61.8083 41.8036L60.9559 40.3001ZM54.3957 42.2633L55.5736 40.9992C55.8619 41.2865 56.2593 41.4972 56.6846 41.5834L56.3015 43.2594C55.5851 43.1061 54.9281 42.7709 54.3957 42.2633ZM58.0062 41.5259C58.5224 41.4206 59.0204 41.2482 59.5002 41.0279L60.1706 42.6177C59.5921 42.8571 59.0137 43.087 58.3988 43.2115L58.0062 41.5259ZM85.0134 42.5698L86.3446 41.4876C86.651 41.8324 87.0149 42.225 87.4363 42.5507L86.3733 43.9106C85.9328 43.5658 85.4252 43.0774 85.0134 42.5698ZM88.2217 44.8396L88.6526 43.1636C89.1123 43.2785 89.572 43.3264 90.0413 43.2498L90.252 44.9641C89.5433 45.0407 88.9782 44.9928 88.2217 44.8396ZM47.0884 33.0707H52.2061C52.4323 33.0707 52.6493 32.9808 52.8092 32.8209C52.9692 32.6609 53.059 32.444 53.059 32.2177C53.059 31.9915 52.9692 31.7746 52.8092 31.6146C52.6493 31.4546 52.4323 31.3648 52.2061 31.3648H47.9413V24.5412C47.9413 24.3149 47.8515 24.098 47.6915 23.938C47.5315 23.7781 47.3146 23.6882 47.0884 23.6882C46.8622 23.6882 46.6452 23.7781 46.4853 23.938C46.3253 24.098 46.2354 24.3149 46.2354 24.5412V32.2177C46.2354 32.444 46.3253 32.6609 46.4853 32.8209C46.6452 32.9808 46.8622 33.0707 47.0884 33.0707Z" fill="url(#paint0_linear_83_298)"/>
<defs>
<linearGradient id="paint0_linear_83_298" x1="36.0524" y1="23.9567" x2="97.853" y2="25.9877" gradientUnits="userSpaceOnUse">
<stop stop-color="#3FF3FF"/>
<stop offset="1" stop-color="#00ABBB"/>
</linearGradient>
</defs>
</svg>
