<svg width="139" height="154" viewBox="0 0 139 154" fill="none" xmlns="http://www.w3.org/2000/svg">
<g filter="url(#filter0_dd_1_674)">
<path d="M109.541 109.603L25.7993 60.2197C25.7993 60.2197 17.5169 64.0001 16.7936 73.9322C16.0708 83.8643 21.489 92.9773 21.489 92.9773L100.428 138.296L110.156 109.725L109.541 109.603Z" fill="white"/>
<path d="M101.032 145.492L16.8412 96.5649L16.7937 73.9321L100.985 122.858L101.032 145.492Z" fill="#E2E2E2"/>
<path d="M100.954 145.368L16.9548 96.5528L16.9078 73.9717L100.907 122.786L100.954 145.368Z" fill="#E3E3E3"/>
<path d="M100.875 145.244L17.0683 96.5409L17.0211 74.0117L100.828 122.714L100.875 145.244Z" fill="#E4E4E4"/>
<path d="M100.797 145.121L17.1825 96.529L17.1354 74.0513L100.75 122.642L100.797 145.121Z" fill="#E5E5E5"/>
<path d="M100.718 144.996L17.2956 96.5169L17.2489 74.0908L100.671 122.57L100.718 144.996Z" fill="#E6E6E6"/>
<path d="M100.639 144.873L17.4086 96.505L17.362 74.1304L100.592 122.498L100.639 144.873Z" fill="#E7E7E7"/>
<path d="M100.56 144.749L17.522 96.4925L17.4752 74.1699L100.513 122.426L100.56 144.749Z" fill="#E8E8E8"/>
<path d="M100.481 144.625L17.6358 96.4804L17.5892 74.2095L100.435 122.354L100.481 144.625Z" fill="#E9E9E9"/>
<path d="M100.402 144.501L17.7489 96.4684L17.7025 74.249L100.356 122.282L100.402 144.501Z" fill="#EAEAEA"/>
<path d="M100.324 144.378L17.8631 96.4568L17.8169 74.2891L100.278 122.21L100.324 144.378Z" fill="#EBEBEB"/>
<path d="M100.245 144.254L17.9764 96.4447L17.9302 74.3286L100.199 122.138L100.245 144.254Z" fill="#ECECEC"/>
<path d="M100.167 144.13L18.0902 96.4321L18.0441 74.3677L100.121 122.065L100.167 144.13Z" fill="#EDEDED"/>
<path d="M100.088 144.006L18.2035 96.4203L18.1573 74.4077L100.042 121.993L100.088 144.006Z" fill="#EEEEEE"/>
<path d="M100.009 143.883L18.3163 96.408L18.2706 74.4473L99.9629 121.921L100.009 143.883Z" fill="#EFEFEF"/>
<path d="M99.9307 143.759L18.4306 96.3961L18.3848 74.4868L99.8847 121.849L99.9307 143.759Z" fill="#F0F0F0"/>
<path d="M99.8516 143.635L18.5439 96.3842L18.4982 74.5264L99.8059 121.777L99.8516 143.635Z" fill="#F1F1F1"/>
<path d="M99.7734 143.511L18.658 96.3718L18.6125 74.5659L99.728 121.705L99.7734 143.511Z" fill="#F1F1F1"/>
<path d="M99.6943 143.388L18.7714 96.3602L18.7257 74.606L99.6491 121.633L99.6943 143.388Z" fill="#F2F2F2"/>
<path d="M99.6162 143.264L18.8852 96.348L18.8399 74.6455L99.5709 121.561L99.6162 143.264Z" fill="#F3F3F3"/>
<path d="M99.5371 143.14L18.9984 96.3361L18.9531 74.6851L99.4918 121.489L99.5371 143.14Z" fill="#F4F4F4"/>
<path d="M99.458 143.016L19.1112 96.324L19.0663 74.7246L99.4128 121.417L99.458 143.016Z" fill="#F5F5F5"/>
<path d="M99.3789 142.892L19.2246 96.3115L19.1795 74.7642L99.334 121.344L99.3789 142.892Z" fill="#F6F6F6"/>
<path d="M99.3008 142.769L19.3387 96.2995L19.2936 74.8037L99.2557 121.272L99.3008 142.769Z" fill="#F7F7F7"/>
<path d="M99.2217 142.645L19.4517 96.2877L19.4071 74.8433L99.1768 121.2L99.2217 142.645Z" fill="#F8F8F8"/>
<path d="M99.1436 142.521L19.5656 96.2758L19.521 74.8833L99.0987 121.128L99.1436 142.521Z" fill="#F9F9F9"/>
<path d="M99.0645 142.398L19.6791 96.2636L19.6345 74.9229L99.0197 121.056L99.0645 142.398Z" fill="#FAFAFA"/>
<path d="M98.9854 142.274L19.7922 96.2514L19.7477 74.9624L98.9409 120.984L98.9854 142.274Z" fill="#FBFBFB"/>
<path d="M98.9072 142.15L19.9062 96.2396L19.8617 75.002L98.8626 120.912L98.9072 142.15Z" fill="#FCFCFC"/>
<path d="M98.8281 142.026L20.0193 96.2274L19.9751 75.0415L98.7838 120.84L98.8281 142.026Z" fill="#FDFDFD"/>
<path d="M98.75 141.902L20.1336 96.2153L20.0894 75.0811L98.7058 120.768L98.75 141.902Z" fill="#FEFEFE"/>
<path d="M98.6709 141.778L20.2466 96.2031L20.2028 75.1206L98.6269 120.695L98.6709 141.778Z" fill="white"/>
<path d="M162.929 78.6911L108.283 110.241L24.0918 61.3146L78.7376 29.7646L162.929 78.6911Z" fill="#F2F2F2"/>
<path d="M16.862 73.0907L16.8276 73.0709C16.8516 72.7707 16.8883 72.4689 16.9357 72.1649L16.9372 72.1574L16.9408 72.1407C16.9929 71.8231 17.0526 71.5109 17.1263 71.1984C17.1817 70.9638 17.2541 70.7285 17.3221 70.494C17.346 70.4115 17.3649 70.3299 17.3911 70.247C17.4053 70.1984 17.4155 70.1513 17.4309 70.1032C17.5759 69.6468 17.7443 69.1927 17.9323 68.7429C17.9443 68.7143 17.9651 68.6888 17.9774 68.6599C18.3387 67.8129 18.7855 66.9969 19.2803 66.2095C19.3898 66.0361 19.4975 65.8716 19.612 65.7022C20.1354 64.9308 20.6992 64.1958 21.3234 63.5426L21.3675 63.4879C21.695 63.1472 22.035 62.8263 22.3843 62.5292C22.4345 62.4859 22.4884 62.4493 22.5392 62.4071C22.6095 62.35 22.6803 62.2983 22.7508 62.2415C22.9103 62.1167 23.0664 61.985 23.2286 61.8697C23.4883 61.6847 23.7524 61.513 24.0194 61.3553L24.0257 61.3589C24.0485 61.3457 24.069 61.3264 24.0919 61.3125L108.283 110.24C107.824 110.505 107.378 110.824 106.942 111.169C106.872 111.224 106.8 111.276 106.73 111.333C106.311 111.681 105.904 112.061 105.514 112.469C104.892 113.122 104.326 113.858 103.804 114.628C103.69 114.796 103.579 114.964 103.471 115.136C102.978 115.922 102.529 116.741 102.168 117.586C101.945 118.11 101.746 118.64 101.581 119.173C101.556 119.255 101.537 119.338 101.513 119.42C101.354 119.968 101.221 120.516 101.133 121.059L101.129 121.083C101.033 121.686 100.983 122.279 100.985 122.858L16.794 73.9317C16.7936 73.6481 16.8045 73.3609 16.8278 73.0708L16.8621 73.0905L16.862 73.0907Z" fill="#E6E6E6"/>
<path d="M16.9542 73.1247L16.9201 73.1049C16.9442 72.8047 16.9805 72.5033 17.0277 72.1997L17.0296 72.192L17.0329 72.1755C17.0846 71.858 17.1444 71.5461 17.2178 71.2337C17.2731 70.9993 17.3454 70.7644 17.4131 70.5301C17.437 70.4477 17.4568 70.3662 17.4819 70.2834C17.4969 70.235 17.5065 70.1875 17.5217 70.1398C17.6674 69.6839 17.8342 69.23 18.0221 68.7807C18.0341 68.7521 18.0546 68.7265 18.0672 68.6975C18.4293 67.8521 18.8734 67.0363 19.3666 66.2494C19.4759 66.0759 19.5834 65.9119 19.6977 65.7427C20.2199 64.9718 20.7837 64.2386 21.4049 63.5846L21.4491 63.53C21.7798 63.1936 22.116 62.8704 22.4633 62.5721C22.5135 62.5288 22.5672 62.4921 22.6182 62.45C22.6878 62.3925 22.7587 62.3409 22.8292 62.2846C22.9876 62.1591 23.1442 62.0281 23.306 61.9129C23.5649 61.7283 23.8283 61.5566 24.0948 61.3993L24.101 61.4025C24.1239 61.3895 24.1443 61.3702 24.167 61.3564L108.216 110.201C107.758 110.466 107.254 110.827 106.82 111.171C106.75 111.227 106.678 111.279 106.609 111.336C106.189 111.682 105.785 112.063 105.396 112.47C104.775 113.123 104.211 113.859 103.689 114.628C103.576 114.796 103.465 114.964 103.358 115.135C102.865 115.92 102.418 116.739 102.058 117.583C101.834 118.107 101.636 118.636 101.472 119.169C101.447 119.251 101.428 119.334 101.404 119.416C101.246 119.963 101.108 120.511 101.025 121.053L101.02 121.078C100.925 121.679 100.875 122.273 100.878 122.851L16.8873 73.984C16.8868 73.7004 16.8971 73.3949 16.9202 73.1049L16.9543 73.1247H16.9542Z" fill="#E7E7E7"/>
<path d="M17.0457 73.158L17.0116 73.1383C17.0356 72.8383 17.0717 72.5371 17.1191 72.2336L17.1207 72.2259L17.1239 72.2095C17.1757 71.8925 17.2352 71.5807 17.3086 71.2688C17.3636 71.0344 17.4357 70.7998 17.5034 70.5657C17.5274 70.4832 17.5468 70.4019 17.572 70.3191C17.5869 70.2707 17.5965 70.2235 17.6117 70.1757C17.757 69.7201 17.9237 69.2664 18.111 68.8173C18.1227 68.789 18.1435 68.7634 18.1557 68.7343C18.5175 67.8898 18.96 67.0744 19.4524 66.2884C19.5612 66.1151 19.6687 65.951 19.7826 65.7818C20.3038 65.0119 20.8661 64.2791 21.4857 63.6259L21.5297 63.571C21.8601 63.2351 22.1951 62.9121 22.5417 62.6142C22.5917 62.5709 22.6452 62.5342 22.6961 62.4921C22.7656 62.4346 22.836 62.383 22.9067 62.3268C23.0645 62.2014 23.2209 62.0705 23.3822 61.9556C23.6406 61.7709 23.9031 61.5995 24.169 61.4423L24.1753 61.4455C24.1981 61.4325 24.2186 61.413 24.2412 61.3994L108.147 110.161C107.69 110.425 107.131 110.829 106.697 111.173C106.627 111.228 106.556 111.28 106.487 111.337C106.067 111.683 105.664 112.064 105.276 112.471C104.656 113.122 104.093 113.858 103.573 114.627C103.46 114.794 103.35 114.962 103.243 115.133C102.752 115.918 102.305 116.736 101.946 117.579C101.723 118.103 101.526 118.632 101.362 119.164C101.337 119.246 101.318 119.329 101.294 119.411C101.136 119.957 100.999 120.504 100.916 121.047L100.911 121.071C100.816 121.672 100.767 122.265 100.769 122.843L16.9797 74.035C16.9791 73.7519 16.9883 73.4277 17.0117 73.1381L17.0458 73.1579L17.0457 73.158Z" fill="#E8E8E8"/>
<path d="M17.1382 73.1913L17.1043 73.1716C17.128 72.8719 17.1644 72.571 17.2114 72.2677L17.213 72.2601L17.2162 72.2437C17.2678 71.9268 17.3273 71.6155 17.4005 71.3033C17.4554 71.0696 17.5274 70.8352 17.5948 70.6009C17.6186 70.5184 17.6382 70.4374 17.6635 70.3548C17.6781 70.3062 17.6879 70.2591 17.703 70.2112C17.8479 69.7559 18.0139 69.3029 18.2008 68.8542C18.2128 68.8259 18.2333 68.8003 18.2457 68.7713C18.6062 67.9272 19.0479 67.1127 19.539 66.3271C19.6477 66.1541 19.7546 65.9902 19.8686 65.8211C20.3882 65.0515 20.9492 64.3197 21.5675 63.6668L21.6113 63.6121C21.9408 63.2766 22.2754 62.9537 22.6208 62.656C22.671 62.6127 22.7242 62.576 22.7749 62.5342C22.844 62.4767 22.9144 62.4251 22.9849 62.3691C23.1426 62.2438 23.2983 62.1129 23.4592 61.9979C23.717 61.8135 23.9792 61.6423 24.2445 61.4851L24.2505 61.4883C24.2734 61.4756 24.2935 61.456 24.3163 61.4424L108.08 110.121C107.624 110.385 107.007 110.831 106.575 111.175C106.505 111.23 106.434 111.282 106.365 111.339C105.947 111.684 105.545 112.064 105.157 112.471C104.539 113.122 103.978 113.857 103.459 114.626C103.346 114.793 103.236 114.961 103.129 115.131C102.639 115.916 102.194 116.733 101.835 117.576C101.613 118.099 101.416 118.627 101.253 119.159C101.227 119.241 101.209 119.324 101.185 119.405C101.028 119.952 100.891 120.498 100.808 121.04L100.803 121.064C100.708 121.665 100.659 122.257 100.661 122.835L17.0732 74.0861C17.0726 73.8032 17.0811 73.4605 17.1045 73.171L17.1384 73.1907L17.1382 73.1913Z" fill="#E9E9E9"/>
<path d="M17.2303 73.2248L17.1963 73.2051C17.22 72.9057 17.2564 72.6051 17.3031 72.3019L17.3047 72.2943L17.3082 72.2781C17.3594 71.9615 17.4188 71.6502 17.4919 71.3385C17.5467 71.1048 17.6184 70.8706 17.6858 70.6366C17.7095 70.5544 17.7291 70.4735 17.7541 70.3905C17.7687 70.3424 17.7785 70.2951 17.7937 70.2473C17.9383 69.7925 18.104 69.3396 18.2903 68.8914C18.3023 68.8632 18.3228 68.8376 18.3352 68.8085C18.695 67.9654 19.1357 67.1513 19.6256 66.3665C19.7341 66.1935 19.8407 66.03 19.9544 65.8609C20.4726 65.092 21.0323 64.3608 21.6491 63.7083L21.6928 63.6536C22.0216 63.3183 22.3551 62.9959 22.6998 62.6983C22.75 62.6553 22.803 62.6184 22.8533 62.5766C22.9227 62.5191 22.9929 62.4678 23.0632 62.4117C23.2204 62.2863 23.376 62.1557 23.5364 62.041C23.7935 61.8565 24.055 61.6855 24.3197 61.5282L24.3258 61.5318C24.3488 61.5187 24.3688 61.4994 24.3916 61.4858L108.013 110.081C107.558 110.345 106.884 110.833 106.453 111.177C106.384 111.232 106.312 111.284 106.243 111.341C105.826 111.686 105.425 112.066 105.039 112.473C104.422 113.123 103.862 113.857 103.344 114.625C103.232 114.792 103.122 114.96 103.015 115.131C102.527 115.914 102.082 116.731 101.725 117.572C101.503 118.095 101.306 118.623 101.144 119.154C101.118 119.236 101.1 119.319 101.076 119.401C100.919 119.947 100.782 120.493 100.699 121.034L100.695 121.058C100.6 121.658 100.551 122.25 100.553 122.827L17.1661 74.1378C17.1656 73.8553 17.1734 73.4943 17.1966 73.2049L17.2306 73.2247L17.2303 73.2248Z" fill="#EAEAEA"/>
<path d="M17.3219 73.2583L17.288 73.2386C17.3117 72.9394 17.3478 72.639 17.3946 72.3361L17.3962 72.3285L17.3997 72.3121C17.4512 71.9958 17.5102 71.6846 17.5829 71.3736C17.6378 71.1401 17.7093 70.9058 17.7762 70.6722C17.8001 70.5901 17.8195 70.5089 17.8445 70.4263C17.8592 70.3782 17.869 70.3308 17.8839 70.2831C18.0281 69.8289 18.1936 69.3763 18.3795 68.9284C18.3915 68.9 18.4118 68.8743 18.4242 68.8455C18.7831 68.003 19.2227 67.1898 19.7115 66.4055C19.8196 66.2329 19.9261 66.069 20.0395 65.9004C20.5566 65.1322 21.115 64.4015 21.7302 63.7496L21.7738 63.6952C22.1016 63.36 22.4344 63.038 22.7784 62.7405C22.8281 62.6975 22.8812 62.6607 22.9315 62.6189C23.0005 62.5617 23.0709 62.5101 23.1406 62.4542C23.2977 62.329 23.4524 62.1986 23.6127 62.0838C23.8692 61.8998 24.1299 61.7287 24.394 61.5717L24.4002 61.5752C24.423 61.5621 24.443 61.5428 24.4657 61.5288L107.944 110.042C107.49 110.305 106.76 110.836 106.33 111.179C106.261 111.234 106.19 111.286 106.121 111.343C105.705 111.687 105.304 112.067 104.919 112.474C104.304 113.124 103.745 113.857 103.229 114.624C103.116 114.791 103.007 114.959 102.9 115.13C102.413 115.912 101.97 116.728 101.613 117.569C101.392 118.092 101.196 118.619 101.033 119.15C101.008 119.232 100.989 119.314 100.965 119.396C100.809 119.942 100.673 120.487 100.59 121.028L100.585 121.052C100.491 121.652 100.442 122.243 100.444 122.819L17.2583 74.1894C17.2577 73.9073 17.2647 73.5278 17.2878 73.2387L17.3217 73.2584L17.3219 73.2583Z" fill="#EBEBEB"/>
<path d="M17.4145 73.2918L17.3807 73.2719C17.4043 72.9731 17.4404 72.6729 17.4869 72.3704L17.4885 72.3628L17.492 72.3465C17.5432 72.0305 17.6023 71.7196 17.6748 71.4086C17.7295 71.1752 17.8007 70.9412 17.8677 70.7079C17.8915 70.6259 17.9107 70.5449 17.9357 70.4621C17.9503 70.414 17.9601 70.3666 17.975 70.3191C18.1188 69.8652 18.2837 69.413 18.4695 68.9655C18.4812 68.9372 18.5018 68.9116 18.5139 68.8825C18.872 68.0407 19.3103 67.2281 19.798 66.4447C19.9061 66.2722 20.0122 66.1084 20.1254 65.9398C20.6413 65.1723 21.1982 64.4423 21.8118 63.791L21.8554 63.7366C22.1827 63.4015 22.5145 63.0797 22.8577 62.7828C22.9073 62.7398 22.9602 62.703 23.0104 62.6614C23.0793 62.604 23.149 62.5526 23.2189 62.4968C23.3755 62.3716 23.5301 62.2413 23.6897 62.1266C23.9459 61.9427 24.206 61.7719 24.4692 61.6148L24.4755 61.6183C24.4981 61.6053 24.5184 61.5863 24.5409 61.5723L107.877 110.002C107.424 110.265 106.637 110.838 106.208 111.181C106.139 111.236 106.068 111.288 105.999 111.345C105.584 111.689 105.185 112.068 104.8 112.474C104.187 113.124 103.629 113.857 103.114 114.623C103.002 114.79 102.893 114.958 102.787 115.128C102.3 115.91 101.858 116.726 101.502 117.566C101.282 118.088 101.086 118.615 100.924 119.146C100.899 119.227 100.88 119.31 100.857 119.391C100.7 119.936 100.564 120.481 100.482 121.022L100.477 121.046C100.383 121.645 100.334 122.236 100.336 122.812L17.3518 74.2413C17.3512 73.9592 17.3575 73.5613 17.3804 73.2723L17.4142 73.2922L17.4145 73.2918Z" fill="#ECECEC"/>
<path d="M17.5066 73.3254L17.4729 73.3055C17.4964 73.0071 17.5327 72.707 17.579 72.4049L17.5805 72.3973L17.584 72.3807C17.6352 72.065 17.6941 71.7544 17.7664 71.4438C17.8208 71.2104 17.8921 70.9769 17.959 70.7438C17.9825 70.6614 18.0018 70.5807 18.0268 70.4981C18.0414 70.4498 18.0512 70.4026 18.066 70.3551C18.2096 69.9014 18.3743 69.4496 18.5593 69.0024C18.571 68.9743 18.5914 68.9487 18.6037 68.9199C18.9605 68.0786 19.3981 67.2665 19.8845 66.4837C19.9921 66.3113 20.0981 66.148 20.211 65.9797C20.7255 65.2125 21.2812 64.4829 21.8936 63.8322L21.937 63.7779C22.2633 63.4432 22.5945 63.1218 22.9367 62.8249C22.9863 62.7819 23.0388 62.7451 23.0891 62.7034C23.1578 62.6462 23.2276 62.5946 23.2975 62.5389C23.4535 62.414 23.6076 62.2835 23.767 62.169C24.0224 61.9852 24.2821 61.8146 24.5446 61.6578L24.5509 61.6613C24.5734 61.6481 24.5936 61.6291 24.6161 61.6152L107.81 109.962C107.358 110.225 106.514 110.84 106.086 111.183C106.017 111.238 105.947 111.289 105.878 111.346C105.464 111.69 105.066 112.069 104.682 112.475C104.07 113.124 103.514 113.856 103 114.622C102.888 114.789 102.779 114.956 102.673 115.126C102.188 115.908 101.747 116.723 101.392 117.562C101.172 118.084 100.977 118.611 100.815 119.14C100.79 119.222 100.771 119.304 100.748 119.386C100.592 119.931 100.456 120.475 100.374 121.015L100.369 121.04C100.275 121.638 100.226 122.229 100.229 122.804L17.4451 74.292C17.4446 74.0104 17.4502 73.5939 17.4729 73.3051L17.5066 73.325V73.3254Z" fill="#EDEDED"/>
<path d="M17.5984 73.3589L17.5649 73.339C17.5884 73.0407 17.6242 72.7411 17.6708 72.4388L17.6724 72.4315L17.6756 72.4151C17.7265 72.0992 17.7853 71.7894 17.8578 71.4788C17.912 71.2457 17.9831 71.0121 18.0498 70.779C18.0732 70.6973 18.0925 70.6164 18.1175 70.5336C18.1318 70.4857 18.1416 70.4386 18.1567 70.3909C18.2997 69.938 18.4641 69.4863 18.6486 69.0395C18.6603 69.0113 18.6807 68.9857 18.6929 68.9571C19.0492 68.1166 19.4854 67.3052 19.9709 66.5231C20.0784 66.3508 20.184 66.1876 20.2964 66.0192C20.8099 65.2529 21.3641 64.524 21.9749 63.8737L22.0184 63.8195C22.3439 63.485 22.6742 63.1636 23.0155 62.867C23.065 62.8242 23.1178 62.7875 23.1678 62.7458C23.2364 62.6885 23.3058 62.6372 23.3756 62.5814C23.5312 62.4566 23.6852 62.3264 23.844 62.212C24.0989 62.0282 24.358 61.8579 24.6199 61.7012L24.6261 61.7048C24.6486 61.6916 24.6688 61.6723 24.691 61.6587L107.742 109.922C107.292 110.185 106.391 110.842 105.964 111.185C105.895 111.24 105.825 111.291 105.756 111.348C105.343 111.692 104.946 112.071 104.563 112.476C103.952 113.124 103.398 113.856 102.885 114.621C102.774 114.788 102.665 114.955 102.559 115.125C102.075 115.906 101.635 116.72 101.281 117.559C101.062 118.08 100.867 118.606 100.705 119.136C100.68 119.218 100.662 119.3 100.638 119.381C100.483 119.925 100.347 120.469 100.266 121.009L100.261 121.033C100.167 121.631 100.118 122.222 100.12 122.796L17.5381 74.3438C17.5377 74.0622 17.5424 73.6273 17.5652 73.3389L17.5987 73.3588L17.5984 73.3589Z" fill="#EEEEEE"/>
<path d="M17.6901 73.3923L17.6567 73.3726C17.6805 73.0744 17.716 72.775 17.7625 72.4732L17.7641 72.4656L17.7672 72.4494C17.8183 72.1338 17.8767 71.8241 17.949 71.5139C18.0029 71.2809 18.0739 71.0478 18.1403 70.8147C18.1638 70.7327 18.183 70.6518 18.2078 70.5696C18.2225 70.5217 18.2318 70.4744 18.247 70.4271C18.3897 69.9743 18.5535 69.523 18.7378 69.0769C18.7495 69.0485 18.7697 69.023 18.782 68.9942C19.1375 68.1545 19.5727 67.3438 20.0568 66.5625C20.1639 66.3902 20.2695 66.2271 20.3816 66.059C20.8939 65.2934 21.447 64.5652 22.0562 63.9151L22.099 63.8612C22.424 63.5269 22.7534 63.2059 23.0943 62.9096C23.1436 62.8668 23.1961 62.8301 23.246 62.7884C23.3144 62.7314 23.3839 62.6797 23.4529 62.624C23.6083 62.4996 23.762 62.3693 23.9204 62.2549C24.1744 62.0713 24.4331 61.9009 24.6943 61.7446L24.7003 61.7481C24.7228 61.7351 24.7428 61.7157 24.7652 61.7021L107.674 109.883C107.225 110.145 106.267 110.845 105.841 111.187C105.772 111.242 105.702 111.293 105.634 111.35C105.222 111.694 104.825 112.072 104.443 112.477C103.834 113.125 103.281 113.856 102.769 114.621C102.658 114.787 102.55 114.954 102.444 115.124C101.961 115.904 101.523 116.718 101.169 117.556C100.95 118.076 100.756 118.602 100.595 119.132C100.57 119.213 100.552 119.295 100.528 119.377C100.373 119.92 100.238 120.464 100.157 121.003L100.152 121.028C100.058 121.625 100.01 122.215 100.012 122.789L17.6306 74.3955C17.6301 74.114 17.6338 73.6608 17.6567 73.3727L17.6901 73.3924V73.3923Z" fill="#EFEFEF"/>
<path d="M17.7825 73.4256L17.749 73.4057C17.7725 73.108 17.8081 72.8088 17.8544 72.5072L17.856 72.4999L17.8591 72.4834C17.9098 72.1681 17.9685 71.8587 18.0403 71.5485C18.0944 71.316 18.165 71.083 18.2314 70.8502C18.255 70.7683 18.2738 70.6878 18.2988 70.6053C18.3133 70.5573 18.3229 70.5102 18.3379 70.4629C18.4803 70.0104 18.6438 69.5597 18.8273 69.1137C18.839 69.0855 18.8592 69.06 18.8716 69.0312C19.2261 68.1922 19.6603 67.3822 20.1433 66.6015C20.2502 66.4292 20.3553 66.2663 20.4672 66.0984C20.9782 65.3333 21.5299 64.6058 22.1375 63.9567L22.1805 63.9022C22.5047 63.5684 22.8333 63.2477 23.1733 62.9517C23.2225 62.9089 23.2748 62.8722 23.3247 62.8306C23.393 62.7733 23.462 62.722 23.5313 62.6663C23.6863 62.5418 23.8394 62.4118 23.9977 62.2976C24.2511 62.1139 24.5089 61.9439 24.7696 61.7877L24.7755 61.7909C24.798 61.7779 24.8179 61.7587 24.8404 61.7451L107.606 109.842C107.158 110.105 106.144 110.847 105.719 111.188C105.651 111.243 105.58 111.295 105.512 111.351C105.101 111.695 104.706 112.073 104.325 112.477C103.717 113.125 103.165 113.855 102.655 114.619C102.544 114.785 102.436 114.953 102.331 115.122C101.849 115.902 101.411 116.715 101.058 117.552C100.84 118.072 100.646 118.598 100.486 119.126C100.461 119.208 100.442 119.29 100.419 119.371C100.264 119.914 100.13 120.458 100.048 120.996L100.044 121.021C99.9498 121.617 99.9017 122.206 99.9037 122.78L17.7237 74.4466C17.7232 74.1653 17.7262 73.6935 17.7488 73.4054L17.7823 73.4253L17.7825 73.4256Z" fill="#F0F0F0"/>
<path d="M17.8742 73.4588L17.8409 73.439C17.8643 73.1414 17.9 72.8425 17.9459 72.5413L17.9475 72.5338L17.9507 72.5176C18.0014 72.2026 18.0598 71.8932 18.1313 71.5834C18.1853 71.3511 18.2561 71.1181 18.322 70.8859C18.3453 70.8039 18.3644 70.7234 18.3891 70.6411C18.4036 70.5928 18.4131 70.546 18.4279 70.4987C18.569 70.0462 18.7329 69.5961 18.9162 69.1506C18.928 69.1223 18.9482 69.0968 18.9602 69.0682C19.3138 68.2299 19.7471 67.4204 20.2288 66.6402C20.3357 66.4684 20.4404 66.3055 20.5521 66.1377C21.0617 65.3732 21.6122 64.6461 22.2183 63.9976L22.2612 63.9435C22.5845 63.61 22.9124 63.2895 23.2515 62.9938C23.3005 62.951 23.3527 62.9143 23.4024 62.8727C23.4704 62.8157 23.5394 62.7642 23.6086 62.7086C23.7632 62.5843 23.9161 62.4543 24.0736 62.3401C24.3265 62.1567 24.5838 61.9867 24.8438 61.8305L24.8498 61.834C24.8722 61.821 24.892 61.8017 24.9145 61.7881L107.538 109.802C107.091 110.065 106.02 110.849 105.596 111.19C105.527 111.245 105.457 111.296 105.39 111.353C104.98 111.696 104.585 112.074 104.205 112.478C103.599 113.125 103.048 113.855 102.539 114.618C102.429 114.784 102.321 114.951 102.216 115.121C101.735 115.9 101.299 116.712 100.947 117.548C100.729 118.068 100.536 118.593 100.376 119.122C100.351 119.203 100.332 119.285 100.309 119.366C100.154 119.909 100.02 120.452 99.9388 120.99L99.9344 121.014C99.8409 121.611 99.7928 122.199 99.7949 122.773L17.8159 74.4981C17.8157 74.2172 17.8178 73.7268 17.8404 73.439L17.8738 73.4588H17.8742Z" fill="#F1F1F1"/>
<path d="M17.9669 73.4924L17.9339 73.4726C17.957 73.1754 17.9925 72.8767 18.0384 72.5755L18.04 72.5682L18.0436 72.5517C18.0939 72.2371 18.1521 71.9281 18.2236 71.6184C18.2774 71.3863 18.3479 71.1535 18.4138 70.9213C18.4369 70.8394 18.4561 70.7589 18.4808 70.6765C18.495 70.6288 18.5046 70.5818 18.5194 70.5343C18.6605 70.0824 18.8239 69.6328 19.0068 69.1873C19.0184 69.1593 19.0385 69.134 19.0507 69.105C19.4035 68.2674 19.8355 67.459 20.3161 66.6794C20.4225 66.5076 20.5271 66.3449 20.6387 66.1771C21.147 65.4134 21.6961 64.6869 22.3009 64.0389L22.3438 63.9847C22.6661 63.6516 22.9934 63.3312 23.3315 63.0356C23.3805 62.9929 23.4325 62.9563 23.4821 62.9148C23.5499 62.8578 23.6188 62.8063 23.6877 62.7509C23.8421 62.6266 23.9943 62.4969 24.1518 62.3828C24.4041 62.1996 24.6606 62.0296 24.92 61.8736L24.9262 61.8768C24.9485 61.8641 24.9681 61.8448 24.9907 61.8311L107.472 109.763C107.026 110.024 105.898 110.851 105.475 111.192C105.407 111.247 105.337 111.298 105.269 111.355C104.86 111.697 104.467 112.075 104.087 112.479C103.483 113.125 102.934 113.854 102.426 114.617C102.316 114.783 102.208 114.95 102.103 115.119C101.624 115.898 101.188 116.709 100.837 117.545C100.62 118.064 100.427 118.589 100.267 119.117C100.242 119.198 100.224 119.28 100.201 119.361C100.047 119.903 99.913 120.446 99.8317 120.983L99.8272 121.008C99.734 121.604 99.6858 122.192 99.6881 122.765L17.9102 74.5494C17.9098 74.2685 17.9111 73.7597 17.934 73.4724L17.9671 73.4921L17.9669 73.4924Z" fill="#F2F2F2"/>
<path d="M18.0252 73.5065C18.0483 73.2093 18.084 72.911 18.1296 72.6102L18.1312 72.6028L18.1346 72.5865C18.1849 72.2721 18.243 71.9634 18.3145 71.6541C18.3681 71.4219 18.4382 71.1895 18.504 70.9575C18.5274 70.8759 18.5462 70.7954 18.5708 70.7131C18.5854 70.6651 18.5948 70.6183 18.6099 70.5709C18.7502 70.1192 18.9133 69.67 19.0956 69.2251C19.1072 69.1969 19.1275 69.1715 19.1394 69.1428C19.4915 68.306 19.9226 67.4981 20.4018 66.7191C20.5079 66.5473 20.6123 66.3849 20.7236 66.2172C21.2307 65.4543 21.7782 64.7282 22.3817 64.0807L22.4244 64.0267C22.7461 63.6939 23.0724 63.3738 23.4099 63.0784C23.4586 63.0357 23.5107 62.9991 23.5602 62.9576C23.628 62.9007 23.6965 62.8492 23.7654 62.7938C23.919 62.6695 24.0711 62.5399 24.2283 62.4257C24.4798 62.2429 24.7357 62.0731 24.9944 61.9174L25.0007 61.9206C25.0229 61.9079 25.0428 61.8886 25.0649 61.875L107.403 109.723C106.958 109.985 105.774 110.853 105.352 111.194C105.284 111.249 105.214 111.3 105.147 111.357C104.739 111.7 104.346 112.077 103.968 112.48C103.365 113.126 102.816 113.854 102.31 114.617C102.2 114.782 102.093 114.949 101.988 115.118C101.51 115.896 101.075 116.707 100.726 117.542C100.509 118.061 100.316 118.585 100.157 119.112C100.132 119.194 100.114 119.276 100.091 119.357C99.9368 119.899 99.8034 120.441 99.7224 120.978L99.7179 121.002C99.625 121.598 99.5769 122.185 99.5789 122.758L18.0024 74.6015C18.002 74.321 18.0024 73.7937 18.0252 73.5065Z" fill="#F3F3F3"/>
<path d="M18.15 73.5594L18.117 73.5397C18.1401 73.243 18.1758 72.9448 18.2214 72.6441L18.2228 72.6368L18.2263 72.6206C18.2765 72.3063 18.3344 71.9976 18.4056 71.6889C18.4593 71.4568 18.5291 71.2246 18.5947 70.9927C18.6181 70.9112 18.637 70.8305 18.6615 70.7485C18.6757 70.7008 18.6854 70.6538 18.7002 70.6065C18.8404 70.1552 19.003 69.7062 19.1849 69.262C19.1965 69.2337 19.2164 69.2083 19.2287 69.1798C19.5796 68.3436 20.0096 67.5364 20.4879 66.7581C20.5938 66.5867 20.6979 66.424 20.8087 66.2567C21.3146 65.4942 21.861 64.7691 22.4625 64.122L22.5052 64.0678C22.8261 63.7352 23.1517 63.4156 23.4882 63.1205C23.5368 63.0779 23.5887 63.0414 23.6383 62.9998C23.7057 62.9428 23.7741 62.8916 23.8426 62.8362C23.9961 62.712 24.1476 62.5825 24.3044 62.4685C24.5555 62.2858 24.8108 62.1163 25.0686 61.9602L25.0749 61.9637C25.0971 61.951 25.1167 61.9319 25.1388 61.918L107.335 109.683C106.891 109.945 105.65 110.856 105.229 111.196C105.161 111.251 105.091 111.302 105.024 111.359C104.617 111.701 104.226 112.078 103.848 112.481C103.247 113.126 102.7 113.854 102.195 114.616C102.085 114.781 101.978 114.948 101.874 115.117C101.397 115.894 100.963 116.704 100.614 117.539C100.398 118.057 100.206 118.581 100.047 119.108C100.022 119.189 100.004 119.271 99.9807 119.352C99.8276 119.893 99.6943 120.435 99.6135 120.971L99.6088 120.996C99.5163 121.591 99.4685 122.178 99.4705 122.75L18.095 74.6528C18.0946 74.3725 18.0944 73.8269 18.1167 73.5398L18.1497 73.5596L18.15 73.5594Z" fill="#F3F3F3"/>
<path d="M18.2427 73.5927L18.2098 73.573C18.2329 73.2764 18.268 72.9785 18.3138 72.6783L18.3154 72.6709L18.3186 72.6546C18.3685 72.3408 18.4264 72.0322 18.4976 71.7238C18.551 71.4921 18.6206 71.2601 18.6863 71.0283C18.7094 70.9467 18.7282 70.8663 18.7529 70.7844C18.7671 70.7364 18.7765 70.6898 18.7914 70.6424C18.9313 70.1916 19.0937 69.7431 19.275 69.2988C19.2868 69.2709 19.3064 69.2456 19.3187 69.2168C19.6688 68.3812 20.0979 67.5747 20.5749 66.797C20.6803 66.6257 20.7843 66.4633 20.895 66.2961C21.3995 65.5342 21.9447 64.8096 22.545 64.1631L22.5874 64.1093C22.9075 63.7768 23.2323 63.4575 23.5681 63.1626C23.6166 63.1199 23.6682 63.0833 23.7174 63.0419C23.7848 62.985 23.8532 62.9339 23.9215 62.8784C24.0746 62.7543 24.226 62.625 24.3825 62.5109C24.6327 62.3284 24.8874 62.1589 25.1449 62.0032L25.1511 62.0067C25.173 61.9938 25.1929 61.9748 25.2148 61.9609L107.269 109.643C106.826 109.905 105.527 110.858 105.108 111.198C105.04 111.253 104.971 111.304 104.904 111.36C104.498 111.702 104.107 112.079 103.731 112.482C103.13 113.126 102.585 113.854 102.081 114.615C101.972 114.78 101.865 114.946 101.761 115.115C101.285 115.892 100.853 116.701 100.504 117.535C100.289 118.053 100.097 118.576 99.9387 119.103C99.9139 119.184 99.8959 119.266 99.8725 119.347C99.7195 119.888 99.5867 120.429 99.5063 120.965L99.5016 120.989C99.4092 121.584 99.3615 122.17 99.3637 122.741L18.1892 74.704C18.1888 74.4239 18.1879 73.8596 18.2101 73.5728L18.243 73.5926L18.2427 73.5927Z" fill="#F4F4F4"/>
<path d="M18.3345 73.6264L18.3016 73.6066C18.3247 73.3104 18.3598 73.0125 18.4056 72.7126L18.407 72.7052L18.4102 72.689C18.4603 72.3755 18.5179 72.0672 18.5888 71.7589C18.642 71.5272 18.7116 71.2952 18.777 71.0639C18.8 70.9823 18.8188 70.9022 18.8433 70.8204C18.8574 70.7724 18.8668 70.7256 18.8819 70.6783C19.0212 70.228 19.1832 69.7798 19.3641 69.3361C19.3757 69.3079 19.3956 69.2827 19.4074 69.2541C19.7569 68.4191 20.185 67.6131 20.6605 66.8363C20.766 66.6654 20.8698 66.5031 20.98 66.3356C21.4834 65.5746 22.0268 64.8504 22.6258 64.2047L22.6682 64.1509C22.9874 63.8186 23.3113 63.4995 23.6464 63.2047C23.6949 63.1621 23.7466 63.1257 23.7954 63.0843C23.8627 63.0275 23.9308 62.9763 23.9991 62.921C24.1518 62.7971 24.3027 62.6677 24.4584 62.5539C24.7084 62.3716 24.9621 62.2021 25.2192 62.0467L25.2253 62.0502C25.2472 62.0371 25.267 62.0181 25.2891 62.0044L107.2 109.604C106.758 109.865 105.404 110.86 104.985 111.2C104.917 111.255 104.848 111.306 104.781 111.362C104.376 111.704 103.987 112.08 103.611 112.482C103.012 113.126 102.468 113.854 101.966 114.614C101.856 114.779 101.75 114.945 101.646 115.114C101.171 115.89 100.74 116.698 100.393 117.532C100.177 118.049 99.9865 118.572 99.8284 119.098C99.8036 119.179 99.7857 119.261 99.7623 119.342C99.6098 119.882 99.4774 120.423 99.3972 120.959L99.3925 120.983C99.3004 121.577 99.2527 122.163 99.2547 122.734L18.2816 74.7556C18.281 74.4759 18.2791 73.893 18.3014 73.6066L18.3343 73.6264H18.3345Z" fill="#F5F5F5"/>
<path d="M18.4264 73.6594L18.3936 73.6397C18.4169 73.3437 18.4517 73.0461 18.4973 72.7466L18.4986 72.739L18.5018 72.7228C18.5518 72.4095 18.6093 72.1017 18.6798 71.7936C18.733 71.5622 18.8026 71.3305 18.8677 71.0994C18.8908 71.0178 18.9095 70.9377 18.934 70.8556C18.9484 70.8079 18.9578 70.761 18.9724 70.7141C19.1116 70.2637 19.2731 69.816 19.4538 69.3728C19.4654 69.3447 19.4851 69.3196 19.4971 69.2907C19.8456 68.4568 20.2725 67.6514 20.747 66.8752C20.8523 66.7043 20.9555 66.5421 21.0656 66.3752C21.5677 65.6145 22.1099 64.8911 22.7076 64.2456L22.7498 64.1919C23.0683 63.8598 23.3914 63.5412 23.7254 63.2466C23.7739 63.2039 23.8251 63.1677 23.8743 63.1262C23.9414 63.0696 24.0094 63.0184 24.0774 62.9631C24.2298 62.8392 24.3802 62.7101 24.5358 62.5963C24.7849 62.4141 25.0383 62.2449 25.2947 62.0893L25.3005 62.0928C25.3227 62.0798 25.3422 62.061 25.3643 62.0474L107.133 109.563C106.692 109.825 105.28 110.862 104.863 111.202C104.796 111.256 104.726 111.307 104.66 111.364C104.255 111.705 103.867 112.081 103.492 112.483C102.895 113.126 102.352 113.853 101.851 114.612C101.742 114.777 101.636 114.944 101.532 115.112C101.059 115.887 100.628 116.695 100.282 117.528C100.067 118.045 99.8766 118.567 99.7189 119.093C99.6942 119.174 99.6762 119.256 99.6531 119.337C99.501 119.877 99.3688 120.417 99.2885 120.952L99.284 120.976C99.192 121.57 99.1445 122.155 99.1465 122.726L18.3747 74.8066C18.3742 74.527 18.3715 73.9262 18.3938 73.6397L18.4265 73.6594H18.4264Z" fill="#F6F6F6"/>
<path d="M18.519 73.6931L18.4861 73.6733C18.5093 73.3776 18.5441 73.0802 18.5895 72.7809L18.591 72.7735L18.5943 72.7573C18.644 72.4444 18.7013 72.1367 18.7718 71.8287C18.8246 71.5977 18.8941 71.366 18.9591 71.135C18.9822 71.0537 19.001 70.9735 19.0254 70.8918C19.0394 70.8441 19.0486 70.7972 19.0636 70.7502C19.2022 70.3004 19.3635 69.8531 19.5435 69.41C19.555 69.3819 19.5748 69.3567 19.5868 69.3281C19.9342 68.4945 20.3602 67.6901 20.8336 66.9146C20.9384 66.7435 21.0413 66.5817 21.1512 66.4147C21.6521 65.6549 22.193 64.9321 22.7891 64.2873L22.8313 64.2335C23.1489 63.9018 23.4713 63.5833 23.8047 63.2892C23.8528 63.2465 23.9041 63.2103 23.953 63.169C24.0199 63.1121 24.0876 63.0611 24.1556 63.006C24.3076 62.8823 24.4579 62.7531 24.6128 62.6395C24.8614 62.4573 25.1141 62.2882 25.3697 62.1329L25.3755 62.1364C25.3978 62.1234 25.4169 62.1044 25.4392 62.0908L107.065 109.524C106.626 109.785 105.157 110.864 104.74 111.204C104.673 111.258 104.604 111.309 104.538 111.366C104.135 111.707 103.747 112.083 103.373 112.484C102.777 113.127 102.236 113.853 101.736 114.612C101.627 114.777 101.521 114.943 101.419 115.111C100.946 115.886 100.517 116.693 100.171 117.525C99.9569 118.042 99.7669 118.564 99.6094 119.089C99.5849 119.17 99.5667 119.251 99.5439 119.332C99.3923 119.871 99.2603 120.411 99.1804 120.946L99.176 120.971C99.0841 121.563 99.0368 122.149 99.0388 122.718L18.4678 74.8584C18.4673 74.5791 18.464 73.9597 18.4861 73.6735L18.519 73.6932V73.6931Z" fill="#F7F7F7"/>
<path d="M18.6109 73.7265L18.5781 73.7068C18.6011 73.4113 18.636 73.1141 18.6811 72.8152L18.6827 72.8079L18.6859 72.7917C18.7355 72.4789 18.7925 72.1713 18.863 71.8636C18.9159 71.6329 18.9848 71.4017 19.0499 71.1706C19.0728 71.0893 19.0915 71.0092 19.1157 70.9276C19.1299 70.8799 19.1392 70.8331 19.1538 70.7862C19.2923 70.3366 19.453 69.8897 19.6328 69.4471C19.6443 69.419 19.6639 69.3938 19.6758 69.365C20.0226 68.5325 20.4473 67.7285 20.9196 66.9535C21.0241 66.7828 21.127 66.6209 21.2365 66.4542C21.7362 65.6949 22.2758 64.9727 22.8703 64.3285L22.9123 64.2747C23.2293 63.9435 23.5509 63.6253 23.8833 63.3313C23.9312 63.2886 23.9824 63.2524 24.0311 63.2111C24.0978 63.1545 24.1657 63.1035 24.2332 63.0482C24.3847 62.9245 24.5346 62.7955 24.6892 62.682C24.9372 62.5003 25.1893 62.3312 25.4444 62.1761L25.4502 62.1796C25.4721 62.1666 25.4919 62.1474 25.5135 62.1338L106.997 109.484C106.559 109.745 105.033 110.866 104.618 111.205C104.551 111.26 104.482 111.311 104.416 111.367C104.014 111.708 103.627 112.084 103.254 112.485C102.66 113.127 102.12 113.853 101.621 114.611C101.513 114.776 101.407 114.941 101.304 115.11C100.833 115.884 100.404 116.69 100.06 117.521C99.846 118.037 99.6564 118.559 99.4994 119.084C99.475 119.165 99.457 119.246 99.4342 119.327C99.2827 119.866 99.1512 120.405 99.0713 120.94L99.067 120.964C98.9754 121.556 98.928 122.141 98.9302 122.71L18.5603 74.9099C18.5598 74.6309 18.5554 73.9928 18.5777 73.7069L18.6104 73.7267L18.6109 73.7265Z" fill="#F8F8F8"/>
<path d="M18.7029 73.7599L18.6704 73.7405C18.6932 73.4452 18.728 73.1483 18.7729 72.8494L18.7745 72.8421L18.7778 72.8259C18.8273 72.5134 18.8842 72.2064 18.9544 71.8989C19.0072 71.6681 19.0762 71.4369 19.1409 71.2063C19.1637 71.1253 19.1822 71.045 19.2064 70.9636C19.2206 70.9156 19.2298 70.8691 19.2445 70.822C19.3824 70.3729 19.5427 69.9265 19.722 69.4842C19.7336 69.4563 19.7533 69.4312 19.765 69.4026C20.1108 68.5704 20.5346 67.7673 21.0058 66.993C21.1101 66.8223 21.2126 66.6607 21.3218 66.4941C21.8204 65.7356 22.3585 65.0139 22.9515 64.3702L22.9936 64.3164C23.3096 63.9853 23.6303 63.6673 23.962 63.3736C24.0099 63.3312 24.0611 63.2948 24.1097 63.2535C24.1761 63.197 24.2438 63.1459 24.3112 63.0908C24.4623 62.9671 24.6119 62.8384 24.7661 62.725C25.0136 62.5433 25.265 62.3745 25.5193 62.2194L25.5254 62.2226C25.5472 62.2099 25.5666 62.1907 25.5886 62.1772L106.93 109.445C106.492 109.705 104.91 110.868 104.496 111.208C104.429 111.262 104.36 111.313 104.294 111.369C103.893 111.71 103.507 112.085 103.136 112.486C102.543 113.128 102.004 113.852 101.506 114.61C101.398 114.775 101.293 114.941 101.19 115.109C100.72 115.882 100.293 116.688 99.9491 117.518C99.736 118.034 99.5469 118.555 99.3903 119.079C99.3659 119.16 99.3479 119.241 99.3251 119.322C99.174 119.861 99.0429 120.4 98.9633 120.934L98.9586 120.958C98.8674 121.55 98.8203 122.134 98.8222 122.703L18.6537 74.9615C18.6532 74.6827 18.648 74.0262 18.6704 73.7407L18.7029 73.7602V73.7599Z" fill="#F9F9F9"/>
<path d="M18.7949 73.7934L18.7624 73.7739C18.7852 73.4788 18.82 73.1823 18.8649 72.8838L18.8664 72.8765L18.8696 72.8602C18.9191 72.5479 18.9758 72.2412 19.046 71.9338C19.0985 71.7034 19.1674 71.4723 19.2317 71.2421C19.2547 71.1607 19.2731 71.0808 19.2975 70.9992C19.3115 70.9517 19.3208 70.9052 19.3354 70.8581C19.4733 70.4095 19.6331 69.9631 19.8118 69.5214C19.8232 69.4934 19.843 69.4681 19.8548 69.4398C20.1996 68.6083 20.6223 67.8057 21.0921 67.0321C21.1964 66.8615 21.2988 66.7 21.4076 66.5338C21.9048 65.7758 22.4414 65.0547 23.0333 64.4114L23.0751 64.3578C23.3905 64.0268 23.7103 63.7092 24.0411 63.4157C24.0888 63.3733 24.1398 63.3369 24.1885 63.2956C24.2548 63.2392 24.3222 63.1882 24.3896 63.1332C24.5404 63.0095 24.6894 62.8809 24.8434 62.7677C25.0902 62.586 25.3409 62.4172 25.5944 62.2623L25.6006 62.2655C25.6222 62.2527 25.6418 62.2337 25.6636 62.2202L106.862 109.404C106.426 109.664 104.787 110.871 104.374 111.209C104.307 111.264 104.238 111.315 104.172 111.371C103.772 111.711 103.388 112.085 103.017 112.486C102.425 113.128 101.888 113.852 101.392 114.609C101.284 114.773 101.179 114.939 101.076 115.107C100.607 115.879 100.181 116.685 99.838 117.515C99.6258 118.03 99.437 118.55 99.2807 119.074C99.2565 119.155 99.2387 119.236 99.2157 119.317C99.0653 119.855 98.9342 120.394 98.8548 120.927L98.8503 120.951C98.7593 121.543 98.7123 122.127 98.7143 122.695L18.7469 75.0128C18.7463 74.7341 18.7405 74.0594 18.7626 73.7739L18.795 73.7934H18.7949Z" fill="#FAFAFA"/>
<path d="M18.8864 73.8271L18.8541 73.8076C18.8769 73.5127 18.9114 73.2164 18.9563 72.9181L18.9579 72.9108L18.961 72.8945C19.0102 72.5826 19.0671 72.2761 19.1369 71.9691C19.1892 71.7388 19.258 71.5079 19.3225 71.2777C19.345 71.1964 19.3637 71.1169 19.3877 71.0353C19.4017 70.9878 19.4111 70.9411 19.4254 70.8942C19.5629 70.4461 19.7224 69.9999 19.9007 69.5586C19.9122 69.5307 19.9318 69.5057 19.9435 69.477C20.2876 68.6464 20.7095 67.8447 21.178 67.0717C21.2819 66.9013 21.384 66.74 21.4928 66.5735C21.9885 65.8162 22.5242 65.0959 23.1141 64.4533L23.156 64.3995C23.4705 64.069 23.7897 63.7515 24.1196 63.4585C24.1673 63.4162 24.2182 63.3797 24.2664 63.3386C24.3327 63.282 24.3998 63.2311 24.4671 63.1761C24.6174 63.0527 24.766 62.924 24.9195 62.8109C25.1656 62.6292 25.4157 62.4609 25.669 62.3063L25.675 62.3095C25.6966 62.2968 25.7162 62.2776 25.7377 62.2642L106.794 109.365C106.359 109.625 104.663 110.874 104.25 111.212C104.184 111.266 104.116 111.317 104.05 111.373C103.651 111.713 103.267 112.087 102.897 112.488C102.307 113.129 101.771 113.852 101.276 114.608C101.169 114.773 101.064 114.938 100.962 115.107C100.494 115.878 100.069 116.683 99.7268 117.512C99.5147 118.026 99.3265 118.547 99.1706 119.07C99.1465 119.151 99.1287 119.232 99.1059 119.313C98.9555 119.851 98.8249 120.388 98.7455 120.922L98.7413 120.946C98.6505 121.537 98.6035 122.12 98.6056 122.688L18.839 75.065C18.8386 74.7865 18.832 74.0931 18.8541 73.8082L18.8864 73.8277V73.8271Z" fill="#FBFBFB"/>
<path d="M18.9784 73.8602L18.9461 73.8409C18.9689 73.5462 19.0034 73.2501 19.048 72.9521L19.0496 72.9445L19.0527 72.9282C19.102 72.6166 19.1586 72.3102 19.2282 72.0037C19.2804 71.7735 19.349 71.5431 19.4132 71.3129C19.436 71.2319 19.4544 71.1521 19.4784 71.0706C19.4924 71.0232 19.5015 70.9766 19.5163 70.9296C19.6531 70.4817 19.8124 70.0361 19.9904 69.5949C20.0015 69.5671 20.0211 69.5421 20.0331 69.5135C20.3763 68.6836 20.7967 67.8825 21.2644 67.1101C21.3679 66.9397 21.4697 66.7786 21.5782 66.6124C22.0728 65.8557 22.607 65.1359 23.1957 64.4938L23.2374 64.4399C23.5512 64.1097 23.8694 63.7927 24.1985 63.4998C24.2461 63.4575 24.297 63.4213 24.3451 63.38C24.4111 63.3236 24.4782 63.2725 24.545 63.2177C24.6954 63.0943 24.8436 62.9659 24.9968 62.853C25.2423 62.6715 25.4919 62.503 25.7445 62.3485L25.7502 62.3517C25.7718 62.339 25.7911 62.3199 25.8129 62.3066L106.727 109.324C106.292 109.584 104.54 110.875 104.128 111.213C104.062 111.267 103.994 111.318 103.928 111.374C103.53 111.714 103.147 112.088 102.778 112.488C102.19 113.128 101.656 113.851 101.161 114.606C101.054 114.771 100.949 114.936 100.848 115.104C100.381 115.875 99.9568 116.679 99.6157 117.507C99.4042 118.022 99.2166 118.542 99.061 119.065C99.0369 119.145 99.0192 119.226 98.9965 119.307C98.8466 119.844 98.7165 120.381 98.6372 120.914L98.633 120.938C98.5423 121.529 98.4955 122.112 98.4977 122.679L18.9323 75.1152C18.9317 74.8372 18.9244 74.1253 18.9464 73.8405L18.9787 73.8598L18.9784 73.8602Z" fill="#FCFCFC"/>
<path d="M19.071 73.8939L19.039 73.8746C19.0615 73.58 19.096 73.2843 19.1407 72.9863L19.1421 72.9789L19.1453 72.9628C19.1944 72.6511 19.2507 72.3454 19.3202 72.039C19.3725 71.8091 19.4408 71.5788 19.5049 71.3486C19.5274 71.2677 19.5458 71.1879 19.5698 71.1067C19.5838 71.0591 19.5931 71.0127 19.6075 70.9656C19.7443 70.5184 19.9028 70.0731 20.0803 69.6324C20.0917 69.6043 20.1109 69.5793 20.1227 69.5509C20.4654 68.7218 20.8846 67.9213 21.3511 67.1494C21.4545 66.9794 21.556 66.8182 21.6641 66.6522C22.1576 65.8963 22.6903 65.1768 23.2773 64.5355L23.319 64.4821C23.6321 64.152 23.9497 63.835 24.2779 63.5425C24.3253 63.5002 24.3759 63.464 24.4241 63.4227C24.4899 63.3663 24.5568 63.3156 24.6236 63.2607C24.773 63.1374 24.9212 63.0092 25.0741 62.8961C25.3189 62.7148 25.5678 62.5466 25.8197 62.3921L25.8254 62.3956C25.8471 62.3829 25.8665 62.3638 25.8881 62.3501L106.659 109.285C106.226 109.545 104.417 110.878 104.006 111.215C103.94 111.27 103.872 111.32 103.807 111.376C103.41 111.716 103.028 112.09 102.66 112.489C102.073 113.129 101.539 113.851 101.047 114.606C100.94 114.77 100.835 114.936 100.734 115.103C100.268 115.874 99.8457 116.677 99.5051 117.505C99.2943 118.019 99.1068 118.538 98.9519 119.06C98.9278 119.141 98.9101 119.222 98.8876 119.303C98.7378 119.839 98.6081 120.377 98.529 120.909L98.5248 120.933C98.4343 121.523 98.3877 122.105 98.3897 122.672L19.0255 75.1676C19.0249 74.8897 19.0167 74.1591 19.0387 73.8747L19.0707 73.894L19.071 73.8939Z" fill="#FDFDFD"/>
<path d="M19.1623 73.927L19.1301 73.9077C19.153 73.6137 19.187 73.3181 19.2316 73.0205L19.2331 73.0131L19.2366 72.9968C19.2853 72.6856 19.3416 72.38 19.4109 72.0739C19.4631 71.8443 19.5311 71.6142 19.5949 71.3844C19.6177 71.3034 19.6358 71.2237 19.6598 71.1422C19.6739 71.0949 19.6829 71.0485 19.6974 71.0014C19.8338 70.5545 19.9921 70.1095 20.169 69.6695C20.1804 69.6414 20.1999 69.6164 20.2114 69.5878C20.553 68.7593 20.9714 67.9597 21.4367 67.1885C21.5395 67.0187 21.6409 66.8575 21.7489 66.6917C22.2413 65.9364 22.7726 65.2178 23.3584 64.5767L23.3998 64.5233C23.712 64.1934 24.0286 63.8768 24.3561 63.5846C24.4034 63.5423 24.4539 63.5061 24.5017 63.465C24.5678 63.4085 24.6343 63.3578 24.701 63.303C24.8503 63.1797 24.998 63.0517 25.1503 62.9388C25.3945 62.7573 25.6428 62.5895 25.894 62.4352L25.9 62.4384C25.9215 62.4257 25.9407 62.4067 25.9623 62.3931L106.591 109.245C106.159 109.504 104.293 110.88 103.883 111.217C103.818 111.271 103.75 111.322 103.684 111.378C103.289 111.717 102.907 112.09 102.54 112.49C101.955 113.129 101.423 113.85 100.931 114.605C100.825 114.769 100.72 114.934 100.619 115.102C100.155 115.871 99.7332 116.674 99.3934 117.501C99.1832 118.014 98.9963 118.534 98.8418 119.056C98.8176 119.136 98.7999 119.217 98.7774 119.297C98.6281 119.834 98.4987 120.37 98.42 120.902L98.4156 120.926C98.3257 121.516 98.2792 122.097 98.2809 122.664L19.1179 75.2186C19.1174 74.941 19.1085 74.1922 19.1303 73.9077L19.1625 73.927H19.1623Z" fill="#FEFEFE"/>
<path d="M19.2229 73.9414C19.2454 73.6474 19.2798 73.3522 19.3241 73.0548L19.3257 73.0473L19.3289 73.0312C19.3775 72.7203 19.4338 72.4148 19.5028 72.1089C19.5548 71.8795 19.6226 71.6497 19.6866 71.42C19.709 71.3391 19.7267 71.2594 19.7512 71.1783C19.7646 71.1307 19.7742 71.0844 19.7887 71.0377C19.9247 70.5911 20.0828 70.1466 20.2593 69.7065C20.2707 69.6784 20.2897 69.6534 20.3017 69.6251C20.6405 68.7966 21.0595 67.9982 21.5236 67.2278C21.6264 67.058 21.7275 66.8972 21.8353 66.7315C22.3262 65.9768 22.8551 65.2576 23.4403 64.6181L23.4817 64.5647C23.7891 64.2314 24.1079 63.9176 24.4355 63.627C24.4826 63.5845 24.5333 63.5487 24.5808 63.5074C24.6468 63.4516 24.7135 63.4005 24.7796 63.3455C24.9289 63.2231 25.0756 63.0943 25.2277 62.9815C25.4711 62.8007 25.7189 62.6326 25.9694 62.4784L25.9752 62.4819C25.9967 62.469 26.016 62.4501 26.0374 62.4365L106.523 109.206C106.093 109.465 104.17 110.882 103.761 111.219C103.696 111.273 103.629 111.324 103.563 111.38C103.169 111.72 102.788 112.092 102.422 112.491C101.838 113.13 101.307 113.85 100.817 114.604C100.711 114.768 100.607 114.933 100.506 115.1C100.043 115.87 99.622 116.671 99.2831 117.498C99.0733 118.011 98.8871 118.529 98.7327 119.051C98.7087 119.131 98.691 119.212 98.6685 119.293C98.5196 119.828 98.3944 120.365 98.312 120.896L98.3076 120.92C98.2178 121.509 98.1713 122.09 98.1733 122.656L19.2113 75.2702C19.2109 74.9928 19.201 74.2252 19.2229 73.9414Z" fill="white"/>
<path d="M88.0234 129.493L29.837 95.6795L29.8038 84.0806L87.9901 117.894L88.0234 129.493Z" fill="#353535"/>
<path d="M108.283 110.241L162.929 78.6909L163 109.715L101.032 145.492L100.985 122.858C100.797 117.238 104.24 112.574 108.283 110.241H108.283Z" fill="#E3E6E3"/>
<path d="M87.9336 124.611L58.8213 141.816L58.8156 139.705L87.9279 122.5L87.9336 124.611Z" fill="#222323"/>
<path d="M58.8213 141.817L4.00602 109.962L4.00031 107.85L58.8156 139.705L58.8213 141.817Z" fill="#48494A"/>
<path d="M148.414 79.6385L134.082 87.8598L62.5387 46.2836L76.8717 38.062L148.414 79.6385Z" fill="#353535"/>
<path d="M126.211 92.7156L111.878 100.938L40.335 59.3606L54.6672 51.1396L126.211 92.7156Z" fill="#4D4D4F"/>
<path d="M154.838 37.7859L152.803 38.0618L87.7823 0.276239L89.8171 0L154.838 37.7859Z" fill="#38393A"/>
<path d="M87.9902 122.463L58.8158 139.705L4.00048 107.85L33.1748 90.6079L87.9902 122.463Z" fill="#7A7A7D"/>
<path d="M126.211 92.7154L111.878 100.938L85.177 85.4314L99.5087 77.21L126.211 92.7154Z" fill="#8E8E91"/>
<path d="M98.7578 76.7428L84.4256 84.9639L80.5625 82.7255L94.8951 74.5039L98.7578 76.7428Z" fill="#8E8E91"/>
<path d="M152.803 38.062L140.981 79.1418L75.9618 41.3559L87.7818 0.276367L152.803 38.062Z" fill="#7A7A7D"/>
<path d="M140.981 79.1418L139.307 84.9641L134.081 87.8597L72.8244 52.261L75.9618 41.356L140.981 79.1418Z" fill="#434345"/>
<path d="M144.11 43.0161L131.758 86.5087L130.307 85.9124L142.425 43.2453L144.11 43.0161Z" fill="#F1F1F2"/>
<path d="M144.11 43.0164L142.425 43.2455L88.5681 11.9476L90.2531 11.7183L144.11 43.0164Z" fill="#D8D8D8"/>
<path d="M142.424 43.2457L130.352 85.8042L76.1361 54.2165L88.5673 11.9478L142.424 43.2457Z" fill="white"/>
<path d="M137.441 78.0229L134.644 76.3969L144.11 43.0161L137.441 78.0229Z" fill="#434345"/>
<path d="M8.69634 106.507L38.1763 88.9136L88.1133 117.976L58.6883 137.106C58.6447 137.058 8.78189 106.456 8.69634 106.508V106.507Z" fill="white"/>
<path d="M8.68385 106.486L37.9221 88.9458L37.9733 88.9739L8.7441 106.508C8.97618 106.63 10.1636 107.339 16.5489 111.238C20.7663 113.814 26.7037 117.448 33.7195 121.747C44.1652 128.149 58.1175 136.714 58.6872 137.076L87.9902 118.1V117.976L58.7008 137.127L58.6884 137.14L58.6749 137.125C58.5661 137.048 45.9888 129.324 33.7557 121.827C17.9944 112.167 8.8589 106.592 8.69219 106.532L8.69643 106.507L8.684 106.486H8.68385Z" fill="#F1F1F2"/>
<path d="M30.6077 108.173L29.5045 108.78L60.0663 126.448L61.2031 125.759L30.6077 108.173Z" fill="#DBDBDB"/>
<path d="M23.7199 106.332L22.6181 106.929L58.0911 127.648L59.2363 126.953L23.7199 106.332Z" fill="#DBDBDB"/>
<path d="M21.8128 107.365L20.7036 107.967L56.1047 128.854L57.2559 128.154L21.8128 107.365Z" fill="#DBDBDB"/>
<path d="M50.7515 107.447C52.8731 109.267 56.0887 110.463 59.1522 111.603C59.845 111.861 60.558 112.126 61.2278 112.389C61.6628 112.56 62.1042 112.738 62.5293 112.91C63.5165 113.309 64.5301 113.719 65.5516 114.064C70.6972 115.803 71.3327 118.852 71.3387 118.882L71.4238 118.875C71.418 118.845 70.7783 115.768 65.5916 114.014C64.5738 113.67 63.5622 113.261 62.577 112.862C62.1514 112.69 61.7101 112.511 61.2744 112.34C60.6039 112.077 59.8907 111.812 59.1979 111.554C55.3946 110.138 51.3552 108.634 49.5006 105.969C49.0162 105.274 48.8786 104.41 49.1428 103.716C49.4853 102.818 50.1951 101.476 50.8343 100.759C50.8343 100.759 51.2626 100.334 51.5368 99.7213C51.7898 99.1556 51.9627 98.3064 51.3485 97.467C50.5506 96.3754 48.638 95.5503 45.6252 95.0117L45.6086 95.0712C48.5871 95.603 50.475 96.4144 51.259 97.4857C51.8608 98.3077 51.6908 99.142 51.4422 99.698C51.1717 100.304 50.7517 100.721 50.7473 100.725C50.1027 101.447 49.3894 102.795 49.0455 103.698C48.7765 104.403 48.9166 105.282 49.4091 105.989C49.7769 106.517 50.2308 107.001 50.7518 107.447L50.7515 107.447Z" fill="#7F8081"/>
<path d="M67.8342 122.154L68.2413 122.413L68.3242 122.36L67.9172 122.101L67.8342 122.154Z" fill="#7F8081"/>
<path d="M59.8529 119.196L59.9398 119.251L60.375 118.984L60.2886 118.93L59.8529 119.196Z" fill="#7F8081"/>
<path d="M68.4846 122.697L68.5347 122.729L68.8591 122.522C68.8595 122.537 68.8636 122.554 68.8715 122.574C68.8794 122.594 68.8883 122.611 68.898 122.625L68.9473 122.593C68.9322 122.567 68.9242 122.541 68.9223 122.516C68.9205 122.49 68.9239 122.469 68.9331 122.452L68.9008 122.431L68.4846 122.697Z" fill="#7F8081"/>
<path d="M69.1538 121.315L69.5573 121.575L69.6396 121.522L69.2363 121.263L69.1538 121.315Z" fill="#7F8081"/>
<path d="M70.462 120.483L70.8618 120.743L70.9434 120.69L70.5437 120.431L70.462 120.483Z" fill="#7F8081"/>
<path d="M71.7587 119.656L72.1555 119.916L72.2363 119.865L71.84 119.605L71.7587 119.656Z" fill="#7F8081"/>
<path d="M73.0463 118.837L73.4395 119.097L73.5195 119.046L73.127 118.786L73.0463 118.837Z" fill="#7F8081"/>
<path d="M74.3235 118.025L74.713 118.285L74.793 118.234L74.4034 117.974L74.3235 118.025Z" fill="#7F8081"/>
<path d="M75.5905 117.218L75.9766 117.479L76.0557 117.428L75.6695 117.168L75.5905 117.218Z" fill="#7F8081"/>
<path d="M76.8474 116.418L77.2302 116.679L77.3086 116.629L76.926 116.368L76.8474 116.418Z" fill="#7F8081"/>
<path d="M78.0946 115.625L78.474 115.885L78.5518 115.836L78.1726 115.575L78.0946 115.625Z" fill="#7F8081"/>
<path d="M53.4565 115.174L53.5474 115.231L54.001 114.963L53.9103 114.906L53.4565 115.174Z" fill="#7F8081"/>
<path d="M46.7577 110.96L46.8528 111.02L47.3262 110.753L47.2316 110.693L46.7577 110.96Z" fill="#7F8081"/>
<path d="M39.7356 106.544L39.8356 106.607L40.3301 106.339L40.2305 106.276L39.7356 106.544Z" fill="#7F8081"/>
<path d="M39.9146 98.0568C41.9365 99.3081 44.2706 100.195 46.657 100.629C47.5626 100.794 48.5518 100.826 49.5921 100.861C51.4432 100.921 53.3347 100.983 54.6311 101.854C55.4272 102.389 55.9932 103.235 56.1118 104.065C56.2957 105.351 56.512 106.51 57.3017 107.696C58.7228 109.83 61.2144 111.441 64.2791 112.238C65.0458 112.438 65.9334 112.577 67.0691 112.678C68.5207 112.807 70.0289 112.836 71.9515 112.773L72.0365 112.77C73.2492 112.73 74.8935 112.676 75.4907 113.625C75.9449 114.347 74.5156 116.572 74.0684 117.14L74.1436 117.165C74.5943 116.592 76.0328 114.346 75.5678 113.605C74.9488 112.619 73.2681 112.674 72.0293 112.715L71.9443 112.718C70.0275 112.78 68.5243 112.751 67.0779 112.622C65.95 112.522 65.0696 112.383 64.3105 112.185C61.2706 111.395 58.7992 109.795 57.3888 107.676C56.605 106.499 56.3898 105.345 56.207 104.065C56.1125 103.404 55.6674 102.467 54.6991 101.816C53.3731 100.925 51.4598 100.862 49.5868 100.8C48.5529 100.766 47.5704 100.733 46.6767 100.57C44.3095 100.139 41.9939 99.2588 39.987 98.0161L39.9148 98.0565L39.9146 98.0568Z" fill="#7F8081"/>
<path fill-rule="evenodd" clip-rule="evenodd" d="M67.3496 121.432L71.3804 118.879L71.3382 118.882C71.3324 118.852 70.6982 115.804 65.551 114.064C64.5297 113.719 63.5163 113.31 62.5293 112.91C62.1038 112.738 61.6627 112.559 61.2272 112.389C60.5572 112.126 59.8443 111.861 59.1517 111.603C56.6481 110.671 54.0433 109.702 52.0143 108.384C50.9515 107.694 50.0495 106.91 49.4082 105.989C48.9156 105.282 48.7759 104.403 49.0447 103.698C49.3204 102.975 49.8332 101.965 50.3579 101.221C50.1903 101.211 50.0218 101.202 49.8525 101.195C49.4654 101.701 49.0665 102.202 48.7921 102.709C48.482 103.281 48.293 103.876 48.2925 104.477C48.2919 105.059 48.4685 105.646 48.8837 106.223C51.239 109.496 56.2762 110.965 60.7012 112.691C62.1469 113.254 63.5708 113.87 65.0374 114.363C70.2813 116.126 70.8619 119.172 70.8677 119.203L67.3493 121.431L67.3496 121.432ZM71.4186 118.855L73.2815 117.675C74.0586 116.689 74.5388 115.67 74.8018 114.799L71.7997 113.055C71.3591 113.07 70.9537 113.096 70.6479 113.109C70.3389 113.122 69.9976 113.129 69.6344 113.129C67.7542 113.129 65.2911 112.95 63.7353 112.548C60.5323 111.72 58.1225 110.062 56.7598 108.022C55.9583 106.822 55.7455 105.631 55.5684 104.397C55.5238 104.086 55.4108 103.753 55.2315 103.426L51.6506 101.345C51.2663 101.29 50.8691 101.253 50.4652 101.228C49.9383 101.969 49.4198 102.988 49.1422 103.717C48.878 104.41 49.0157 105.274 49.5001 105.97C51.3555 108.634 55.3943 110.138 59.1972 111.554C59.8902 111.812 60.6034 112.077 61.2739 112.34C61.7098 112.511 62.1513 112.69 62.5768 112.862C63.562 113.261 64.5734 113.67 65.5912 114.014C70.5537 115.692 71.3538 118.582 71.4187 118.855H71.4186Z" fill="url(#paint0_linear_1_674)"/>
<path d="M74.9291 113.064C74.8408 113.119 74.8394 113.212 74.9261 113.271C75.0126 113.331 75.1538 113.334 75.2419 113.279C75.3297 113.225 75.331 113.132 75.2447 113.073C75.1586 113.013 75.017 113.009 74.9291 113.064Z" fill="#6D6E6F"/>
<path d="M59.3172 111.557C59.2196 111.615 59.2189 111.712 59.3159 111.776C59.4122 111.839 59.5696 111.844 59.6668 111.786C59.7641 111.729 59.7648 111.631 59.6684 111.568C59.5719 111.505 59.4147 111.5 59.3172 111.557V111.557Z" fill="#6D6E6F"/>
<path d="M51.5856 108.061C51.4831 108.119 51.4827 108.219 51.5847 108.286C51.6867 108.352 51.8522 108.358 51.9546 108.301C52.0565 108.243 52.0569 108.142 51.9552 108.076C51.8534 108.01 51.6878 108.003 51.5855 108.061H51.5856Z" fill="#6D6E6F"/>
<path d="M50.5251 100.638C50.4217 100.694 50.4214 100.796 50.5242 100.866C50.6275 100.935 50.7948 100.946 50.8982 100.889C51.0011 100.833 51.0015 100.732 50.8986 100.662C50.7958 100.593 50.6285 100.583 50.5251 100.638Z" fill="#6D6E6F"/>
<path d="M50.6446 96.8255C50.5412 96.8804 50.5408 96.9827 50.6442 97.0536C50.7471 97.1242 50.9144 97.1371 51.0179 97.0818C51.1213 97.027 51.1216 96.925 51.0188 96.8543C50.9159 96.7836 50.7484 96.7706 50.6447 96.8255H50.6446Z" fill="#6D6E6F"/>
<path d="M52.0142 108.385C54.0432 109.703 56.6478 110.672 59.1516 111.603C59.8441 111.861 60.557 112.127 61.2271 112.389C61.6626 112.56 62.1036 112.738 62.5292 112.91C63.5161 113.31 64.5296 113.719 65.5509 114.064C70.6981 115.804 71.3323 118.852 71.338 118.882L71.4229 118.876C71.4171 118.845 70.7774 115.768 65.5909 114.015C64.5731 113.671 63.5619 113.261 62.5766 112.862C62.151 112.69 61.7095 112.511 61.2736 112.341C60.603 112.078 59.8899 111.812 59.1969 111.554C55.3939 110.138 51.3551 108.634 49.4998 105.97C49.0153 105.274 48.8777 104.41 49.142 103.717C49.4845 102.818 50.1938 101.477 50.8335 100.76C50.8335 100.76 51.2621 100.334 51.536 99.7218C51.789 99.1563 51.9618 98.3069 51.3477 97.4675C50.5498 96.376 48.6375 95.5506 45.6244 95.0122L45.6077 95.0717C48.5861 95.6033 50.4742 96.4146 51.2582 97.4862C51.8599 98.3082 51.69 99.1425 51.4414 99.6987C51.1708 100.304 50.7509 100.721 50.7465 100.726C50.1019 101.448 49.3885 102.796 49.0447 103.699C48.7758 104.403 48.9157 105.282 49.4083 105.99C50.0497 106.91 50.9515 107.694 52.0143 108.385L52.0142 108.385Z" fill="#7F8081"/>
<path d="M32.7034 101.468L66.623 122.873L78.5449 115.288L78.6211 115.34L66.6218 122.978L32.5995 101.522L32.7034 101.468Z" fill="#7F8081"/>
<path d="M67.8342 122.154L68.2413 122.413L68.3242 122.36L67.9172 122.101L67.8342 122.154Z" fill="#7F8081"/>
<path d="M59.8529 119.196L59.9398 119.251L60.375 118.984L60.2886 118.93L59.8529 119.196Z" fill="#7F8081"/>
<path d="M69.1538 121.315L69.5573 121.575L69.6396 121.522L69.2363 121.263L69.1538 121.315Z" fill="#7F8081"/>
<path d="M70.462 120.483L70.8618 120.743L70.9434 120.69L70.5437 120.431L70.462 120.483Z" fill="#7F8081"/>
<path d="M71.7587 119.656L72.1555 119.916L72.2363 119.865L71.84 119.605L71.7587 119.656Z" fill="#7F8081"/>
<path d="M73.0463 118.837L73.4395 119.097L73.5195 119.046L73.127 118.786L73.0463 118.837Z" fill="#7F8081"/>
<path d="M74.3235 118.025L74.713 118.285L74.793 118.234L74.4034 117.974L74.3235 118.025Z" fill="#7F8081"/>
<path d="M75.5905 117.218L75.9766 117.479L76.0557 117.428L75.6695 117.168L75.5905 117.218Z" fill="#7F8081"/>
<path d="M76.8474 116.418L77.2302 116.679L77.3086 116.629L76.926 116.368L76.8474 116.418Z" fill="#7F8081"/>
<path d="M78.0946 115.625L78.474 115.885L78.5518 115.836L78.1726 115.575L78.0946 115.625Z" fill="#7F8081"/>
<path d="M53.4565 115.174L53.5474 115.231L54.001 114.963L53.9103 114.906L53.4565 115.174Z" fill="#7F8081"/>
<path d="M46.7577 110.96L46.8528 111.02L47.3262 110.753L47.2316 110.693L46.7577 110.96Z" fill="#7F8081"/>
<path d="M39.7356 106.544L39.8356 106.607L40.3301 106.339L40.2305 106.276L39.7356 106.544Z" fill="#7F8081"/>
<path d="M39.9146 98.0568C41.9365 99.3081 44.2706 100.195 46.657 100.629C47.5626 100.794 48.5518 100.826 49.592 100.861C51.4432 100.921 53.3347 100.983 54.6311 101.854C55.4239 102.386 55.9932 103.236 56.1118 104.065C56.2957 105.351 56.5119 106.509 57.3017 107.696C58.7233 109.83 61.2145 111.441 64.2791 112.238C65.0456 112.438 65.9332 112.577 67.0691 112.678C68.5205 112.807 70.0288 112.836 71.9515 112.773L72.0365 112.77C73.2492 112.73 74.8939 112.676 75.4907 113.625C75.9449 114.348 74.5158 116.572 74.0684 117.14L74.1436 117.166C74.5943 116.593 76.0328 114.346 75.5678 113.605C74.9485 112.619 73.2682 112.674 72.0293 112.715L71.9443 112.718C70.0273 112.78 68.524 112.751 67.0779 112.622C65.95 112.522 65.0696 112.383 64.3105 112.186C61.2706 111.395 58.799 109.795 57.3888 107.676C56.6049 106.498 56.3898 105.345 56.207 104.065C56.1125 103.404 55.6712 102.466 54.6991 101.816C53.3731 100.925 51.4598 100.862 49.5868 100.8C48.5529 100.766 47.5701 100.733 46.6767 100.571C44.3095 100.139 41.9939 99.2587 39.987 98.0161L39.9148 98.0568H39.9146Z" fill="#7F8081"/>
<path d="M74.9291 113.064C74.8408 113.119 74.8394 113.212 74.9261 113.271C75.0126 113.331 75.1538 113.334 75.2419 113.279C75.3297 113.225 75.331 113.132 75.2447 113.073C75.1586 113.013 75.017 113.009 74.9291 113.064Z" fill="#6D6E6F"/>
<path d="M59.3172 111.557C59.2196 111.615 59.2189 111.712 59.3159 111.776C59.4122 111.839 59.5696 111.844 59.6668 111.786C59.7641 111.729 59.7648 111.631 59.6684 111.568C59.5719 111.505 59.4147 111.5 59.3172 111.557V111.557Z" fill="#6D6E6F"/>
<path d="M51.5856 108.061C51.4831 108.119 51.4827 108.219 51.5847 108.286C51.6867 108.352 51.8522 108.358 51.9546 108.301C52.0565 108.243 52.0569 108.142 51.9552 108.076C51.8534 108.01 51.6878 108.003 51.5855 108.061H51.5856Z" fill="#6D6E6F"/>
<path d="M50.5251 100.638C50.4217 100.694 50.4214 100.796 50.5242 100.866C50.6275 100.935 50.7948 100.946 50.8982 100.889C51.0011 100.833 51.0015 100.732 50.8986 100.662C50.7958 100.593 50.6285 100.583 50.5251 100.638Z" fill="#6D6E6F"/>
<path d="M50.6446 96.8255C50.5412 96.8804 50.5408 96.9827 50.6442 97.0536C50.7471 97.1242 50.9144 97.1371 51.0179 97.0818C51.1213 97.027 51.1216 96.925 51.0188 96.8543C50.9159 96.7836 50.7484 96.7706 50.6447 96.8255H50.6446Z" fill="#6D6E6F"/>
<path fill-rule="evenodd" clip-rule="evenodd" d="M66.4829 121.98L67.3496 121.432L66.4829 121.98Z" fill="url(#paint1_linear_1_674)"/>
<path d="M62.6889 122.408L65.0025 123.85L65.9092 123.274L63.6095 121.83L62.6889 122.408Z" fill="#A7A7A7"/>
<path d="M57.5327 119.192L59.9337 120.689L60.8711 120.111L58.4851 118.612L57.5327 119.192Z" fill="#A7A7A7"/>
<path d="M51.0229 115.131L53.5362 116.699L54.5137 116.119L52.0161 114.55L51.0229 115.131Z" fill="#A7A7A7"/>
<path d="M44.2765 110.923L46.9092 112.566L47.9287 111.984L45.313 110.341L44.2765 110.923Z" fill="#A7A7A7"/>
<path d="M37.1726 106.492L39.9341 108.215L40.999 107.632L38.2559 105.91L37.1726 106.492Z" fill="#A7A7A7"/>
<path d="M29.572 101.752L32.4742 103.563L33.5889 102.98L30.706 101.169L29.572 101.752Z" fill="#A7A7A7"/>
<path d="M67.0029 114.526C66.8467 114.621 66.8451 114.782 66.9993 114.884C67.1533 114.985 67.4043 114.99 67.5601 114.895C67.7154 114.799 67.7173 114.64 67.5637 114.538C67.4102 114.436 67.1594 114.43 67.0029 114.526Z" fill="white"/>
<path d="M67.0856 114.581C66.9756 114.648 66.9744 114.76 67.0826 114.832C67.191 114.904 67.3672 114.907 67.4766 114.84C67.5861 114.773 67.5873 114.661 67.4795 114.589C67.3716 114.517 67.1952 114.514 67.0856 114.581Z" fill="#6D6E6F"/>
<path d="M59.1969 111.479C59.0324 111.576 59.0312 111.741 59.1942 111.847C59.3571 111.954 59.622 111.961 59.7856 111.865C59.9493 111.768 59.9506 111.604 59.7883 111.497C59.6259 111.391 59.3611 111.382 59.1969 111.479V111.479Z" fill="white"/>
<path d="M59.2843 111.536C59.1687 111.604 59.1679 111.72 59.2827 111.795C59.3969 111.87 59.583 111.876 59.6983 111.807C59.8134 111.74 59.8142 111.624 59.7002 111.549C59.586 111.474 59.3999 111.468 59.2844 111.536L59.2843 111.536Z" fill="#6D6E6F"/>
<path d="M51.4592 107.979C51.2864 108.076 51.2859 108.246 51.4577 108.358C51.6297 108.469 51.9085 108.48 52.0807 108.383C52.2526 108.285 52.2531 108.116 52.0819 108.004C51.9107 107.893 51.6318 107.881 51.4592 107.979Z" fill="white"/>
<path d="M51.5521 108.039C51.4306 108.107 51.4304 108.227 51.5511 108.305C51.6719 108.383 51.868 108.391 51.9892 108.323C52.11 108.254 52.1104 108.135 51.9901 108.057C51.8696 107.978 51.6736 107.97 51.5523 108.039H51.5521Z" fill="#6D6E6F"/>
<path d="M50.3985 100.552C50.2239 100.647 50.2235 100.818 50.3975 100.935C50.571 101.052 50.8529 101.07 51.0265 100.975C51.2004 100.88 51.2008 100.71 51.0278 100.593C50.8548 100.476 50.5729 100.458 50.3985 100.552Z" fill="white"/>
<path d="M50.4919 100.615C50.3695 100.682 50.3693 100.802 50.4911 100.884C50.6133 100.966 50.8113 100.979 50.9336 100.913C51.0557 100.846 51.056 100.726 50.9345 100.644C50.8128 100.562 50.6146 100.549 50.4919 100.615V100.615Z" fill="#6D6E6F"/>
<path d="M50.5168 96.7377C50.3419 96.8303 50.3414 97.0025 50.5156 97.1217C50.6895 97.2409 50.9716 97.2621 51.1454 97.1694C51.3195 97.0768 51.3201 96.9051 51.1469 96.786C50.9733 96.6668 50.6914 96.645 50.5169 96.7375L50.5168 96.7377Z" fill="white"/>
<path d="M50.6105 96.8021C50.4878 96.8673 50.4875 96.9881 50.6099 97.072C50.732 97.1559 50.9302 97.1709 51.0524 97.1058C51.1748 97.0406 51.1753 96.9202 51.0535 96.8361C50.9314 96.7522 50.7331 96.737 50.6104 96.8022L50.6105 96.8021Z" fill="#6D6E6F"/>
<path d="M74.9304 112.961C74.7817 113.053 74.7795 113.21 74.9253 113.31C75.071 113.41 75.309 113.416 75.457 113.323C75.6047 113.231 75.6071 113.075 75.4621 112.975C75.3169 112.875 75.0787 112.868 74.9304 112.961V112.961Z" fill="white"/>
<path d="M75.0087 113.015C74.9044 113.079 74.9028 113.189 75.0052 113.26C75.1076 113.33 75.2747 113.334 75.379 113.269C75.4829 113.205 75.4846 113.095 75.3825 113.025C75.2806 112.954 75.1131 112.95 75.0087 113.015Z" fill="#6D6E6F"/>
<path d="M88.0031 122.455L88.0234 122.444L87.9911 118.056L87.9905 118.056L88.0031 122.455Z" fill="#DBDBDC"/>
<path d="M87.9899 122.463L88.0029 122.455L87.9903 118.056L87.9899 118.056V118.099L84.4389 120.399L87.9899 122.463Z" fill="#2E2E2E"/>
<path d="M87.9902 117.895L75.9713 110.91L75.9946 110.924L87.9902 117.895Z" fill="#DBDBDC"/>
<path d="M87.9902 117.905V117.894L75.9946 110.923L87.9902 117.905Z" fill="#2E2E2E"/>
<path d="M38.1482 88.9299H38.1484L37.0713 88.3042L38.1482 88.9299Z" fill="#DBDBDC"/>
<path d="M34.2701 91.2446L38.1484 88.9299L37.0715 88.3042L33.1745 90.6079L34.1785 91.1915L37.9221 88.9459L37.9732 88.9738L34.2286 91.2204L34.2701 91.2446Z" fill="#2E2E2E"/>
<path d="M84.3564 120.352L87.9892 117.977V118.057L87.9896 118.057L87.9902 118.056L87.9892 117.905L75.9936 110.924L75.9703 110.91L38.1479 88.9302H38.1476L34.2692 91.2448L43.0717 96.3602L45.0064 95.3574C46.9548 95.5174 49.2042 95.9407 50.3012 97.0769C50.8453 97.6407 51.0575 98.1788 51.0578 98.6995C51.0582 99.3443 50.734 99.9623 50.3136 100.569L50.345 100.587C50.3602 100.575 50.3778 100.563 50.3977 100.552C50.4725 100.511 50.5674 100.492 50.665 100.492C50.7501 100.492 50.837 100.507 50.9146 100.536C51.0625 100.357 51.2786 100.061 51.4406 99.6981C51.5639 99.4223 51.6679 99.0781 51.6679 98.7008C51.6679 98.3175 51.5607 97.9003 51.2574 97.486C51.1891 97.3929 51.1123 97.3016 51.0275 97.2123C50.9822 97.2224 50.9339 97.2275 50.8849 97.2275C50.753 97.2275 50.6156 97.1914 50.5147 97.122C50.3491 97.0086 50.3414 96.8473 50.4914 96.7521C49.4926 96.0373 47.8624 95.4741 45.607 95.0715L45.6236 95.012C47.5405 95.3546 49.0118 95.8132 50.0341 96.3825C50.2269 96.49 50.4034 96.601 50.5642 96.7162C50.6274 96.6923 50.7004 96.6806 50.7751 96.6806C50.9071 96.6806 51.0448 96.7168 51.146 96.7864C51.3192 96.9056 51.3185 97.0773 51.1445 97.1699C51.1337 97.1756 51.1226 97.1808 51.111 97.1857C51.1983 97.2775 51.277 97.3714 51.347 97.4673C51.6566 97.8904 51.7663 98.3159 51.7664 98.7062C51.7667 99.0907 51.6609 99.4411 51.5354 99.7215C51.3698 100.092 51.1476 100.394 50.998 100.575C51.0079 100.581 51.0177 100.587 51.0271 100.593C51.1465 100.674 51.1832 100.78 51.1373 100.869C52.4733 100.96 53.7395 101.172 54.6986 101.817C54.7133 101.826 54.7279 101.836 54.7423 101.846C55.6464 102.468 56.0784 103.342 56.1937 103.986L71.2524 112.737C71.4771 112.732 71.7074 112.726 71.9439 112.718L72.0288 112.716C72.1411 112.712 72.2574 112.708 72.3757 112.705C72.5325 112.701 72.6936 112.698 72.8567 112.698C73.5628 112.698 74.3029 112.754 74.8655 113.015C74.8826 112.996 74.9041 112.977 74.9303 112.961C75.0003 112.917 75.0906 112.896 75.1814 112.896C75.2829 112.896 75.3855 112.923 75.462 112.976C75.6071 113.076 75.6046 113.231 75.4569 113.324C75.4315 113.34 75.4035 113.353 75.3738 113.362C75.3944 113.383 75.4146 113.405 75.4339 113.427C75.4826 113.483 75.5271 113.542 75.5672 113.606C75.6308 113.707 75.6587 113.837 75.6586 113.986C75.6581 114.3 75.5331 114.704 75.3519 115.12L77.1589 116.17L78.5441 115.289L78.6203 115.341L78.2102 115.602L78.5514 115.837L78.4736 115.886L78.1321 115.652L77.2422 116.218L84.3564 120.353V120.352ZM75.2851 115.08C75.5334 114.506 75.6701 113.963 75.5079 113.656C75.5024 113.645 75.4965 113.635 75.4902 113.625C75.4338 113.535 75.368 113.455 75.2938 113.382C75.2649 113.387 75.2349 113.389 75.2051 113.389C75.1039 113.389 75.0017 113.362 74.9252 113.31C74.8272 113.242 74.796 113.149 74.8316 113.067C74.2836 112.809 73.5545 112.753 72.857 112.753C72.5733 112.753 72.2948 112.762 72.036 112.771L71.951 112.773C71.7442 112.78 71.5426 112.786 71.345 112.791L71.7989 113.054C72.0148 113.047 72.2391 113.041 72.4643 113.041C73.793 113.041 75.1486 113.224 74.9622 114.159C74.922 114.361 74.8687 114.575 74.801 114.799L75.2851 115.08V115.08ZM56.0867 103.924C55.9437 103.222 55.488 102.519 54.8567 102.019C54.7836 101.962 54.7083 101.907 54.6306 101.854C53.6858 101.22 52.4246 101.015 51.0936 100.927C51.0752 100.944 51.0527 100.961 51.0259 100.975C51.0237 100.976 51.0215 100.977 51.0192 100.979L51.6499 101.345C52.5557 101.476 53.3897 101.712 54.0675 102.165C54.5857 102.512 54.9756 102.962 55.2309 103.426L56.0868 103.924H56.0867Z" fill="#DBDBDC"/>
<path d="M84.4392 120.4L87.9902 118.1V117.977L84.3574 120.352L84.439 120.4H84.4392ZM34.2289 91.2205L37.9736 88.9739L37.9224 88.9458L34.1789 91.1914L34.2289 91.2204V91.2205Z" fill="#CFCFD1"/>
<path d="M50.9148 100.536C51.0626 100.357 51.2788 100.061 51.4408 99.6982C51.5641 99.4224 51.668 99.0779 51.668 98.7006C51.668 99.0779 51.5641 99.4223 51.4408 99.6979C51.2786 100.061 51.0626 100.356 50.9148 100.536V100.536ZM51.7666 98.706C51.7665 98.3155 51.6568 97.8901 51.3472 97.4671C51.2771 97.371 51.1985 97.2773 51.1112 97.1854C51.1985 97.2773 51.2771 97.3712 51.3472 97.4671C51.6568 97.8901 51.7665 98.3157 51.7666 98.706ZM51.2577 97.4858C51.1894 97.3926 51.1126 97.3011 51.0278 97.212C51.1128 97.3014 51.1895 97.3926 51.2577 97.4858ZM50.4917 96.7518C49.4929 96.0369 47.8625 95.4739 45.6073 95.0713C47.8628 95.4739 49.4929 96.037 50.4917 96.7518Z" fill="#6D6E6F"/>
<path d="M75.2857 115.08C75.534 114.506 75.6707 113.963 75.5085 113.655C75.6707 113.963 75.5341 114.506 75.2857 115.08ZM75.6592 113.985C75.6595 113.836 75.6314 113.707 75.5678 113.605C75.5277 113.541 75.4832 113.482 75.4346 113.426C75.4832 113.482 75.5277 113.541 75.5678 113.605C75.6314 113.707 75.6593 113.836 75.6592 113.985ZM75.4908 113.625C75.4344 113.535 75.3686 113.454 75.2946 113.382C75.2943 113.382 75.2943 113.382 75.2943 113.382C75.3685 113.454 75.4343 113.535 75.4907 113.625H75.4908ZM74.8322 113.067C74.8322 113.067 74.8322 113.067 74.8322 113.067C74.2844 112.808 73.5551 112.753 72.8576 112.753C73.5551 112.753 74.2843 112.808 74.8322 113.067ZM72.0294 112.715C72.1419 112.711 72.258 112.707 72.3763 112.704C72.258 112.708 72.1418 112.711 72.0294 112.715ZM54.8573 102.019C54.7842 101.961 54.7089 101.906 54.6312 101.854C54.7089 101.906 54.7842 101.961 54.8573 102.019ZM54.743 101.846C54.7285 101.836 54.7139 101.826 54.6992 101.816C53.7402 101.172 52.474 100.96 51.1379 100.869C52.474 100.96 53.7401 101.172 54.6992 101.816C54.7139 101.826 54.7285 101.836 54.743 101.846V101.846Z" fill="#6D6E6F"/>
<path fill-rule="evenodd" clip-rule="evenodd" d="M78.474 115.885L78.5518 115.836L78.2106 115.601L78.1726 115.575L78.0946 115.625L78.1326 115.651L78.474 115.885Z" fill="url(#paint2_linear_1_674)"/>
<path fill-rule="evenodd" clip-rule="evenodd" d="M43.0721 96.3602L45.0068 95.3574L43.0721 96.3602Z" fill="url(#paint3_linear_1_674)"/>
<path d="M51.0198 100.979C51.022 100.977 51.0243 100.976 51.0265 100.975C51.0531 100.961 51.0756 100.944 51.0942 100.927C51.1131 100.909 51.1277 100.889 51.1381 100.869C51.184 100.78 51.1473 100.674 51.0278 100.593C51.0185 100.587 51.0087 100.58 50.9987 100.575C50.9727 100.56 50.9448 100.547 50.9155 100.536V100.536C50.8379 100.507 50.751 100.492 50.6659 100.492C50.5684 100.492 50.4736 100.511 50.3986 100.552C50.3787 100.563 50.3611 100.574 50.3459 100.587L50.4474 100.646C50.4599 100.635 50.4746 100.624 50.4917 100.615C50.5445 100.586 50.6112 100.573 50.6798 100.573C50.7707 100.573 50.8651 100.597 50.9344 100.644C51.0561 100.726 51.0556 100.846 50.9335 100.912C50.9287 100.915 50.9237 100.918 50.9186 100.92L51.0198 100.979Z" fill="#DBDBDC"/>
<path d="M50.9187 100.92C50.9238 100.917 50.9286 100.915 50.9336 100.912C51.0557 100.846 51.056 100.726 50.9345 100.643C50.8652 100.597 50.771 100.572 50.6799 100.572C50.6113 100.572 50.5446 100.586 50.4918 100.615C50.4747 100.624 50.4599 100.634 50.4475 100.646L50.9187 100.92Z" fill="#5E5F60"/>
<path d="M50.8859 97.2271C50.9349 97.2271 50.9831 97.222 51.0285 97.2119C51.0577 97.2052 51.0858 97.1964 51.112 97.1853C51.1235 97.1805 51.1348 97.1752 51.1454 97.1695C51.3195 97.0769 51.3201 96.9052 51.1469 96.7861C51.0457 96.7166 50.9081 96.6802 50.7761 96.6802C50.7013 96.6802 50.6284 96.6919 50.5652 96.7159C50.5484 96.7222 50.5321 96.7295 50.5169 96.7375C50.5084 96.742 50.5003 96.7467 50.4925 96.7515C50.3425 96.8467 50.3501 97.008 50.5158 97.1215C50.6167 97.1908 50.7541 97.227 50.886 97.227L50.8859 97.2271ZM50.7926 96.7613C50.8854 96.7613 50.9822 96.7869 51.0532 96.8356C51.175 96.9197 51.1745 97.0402 51.0521 97.1053C51.001 97.1325 50.9363 97.1456 50.8698 97.1456C50.7772 97.1456 50.6806 97.1202 50.6096 97.0715C50.4872 96.9876 50.4875 96.8668 50.6102 96.8015C50.6617 96.7743 50.726 96.7612 50.7926 96.7612V96.7613Z" fill="#DBDBDC"/>
<path d="M50.8701 97.146C50.9368 97.146 51.0013 97.1329 51.0524 97.1057C51.1748 97.0404 51.1753 96.9201 51.0535 96.836C50.9825 96.7873 50.8857 96.7617 50.7929 96.7617C50.7262 96.7617 50.6618 96.7749 50.6105 96.8021C50.4878 96.8673 50.4875 96.9881 50.6099 97.072C50.6809 97.1207 50.7775 97.1462 50.8701 97.1462V97.146Z" fill="#5E5F60"/>
<path d="M75.206 113.389C75.2359 113.389 75.2657 113.387 75.2948 113.382C75.2948 113.382 75.2948 113.382 75.2951 113.382C75.3225 113.377 75.3494 113.371 75.3749 113.362C75.4046 113.352 75.4326 113.339 75.458 113.324C75.6057 113.231 75.608 113.076 75.4631 112.975C75.3865 112.923 75.284 112.896 75.1825 112.896C75.0917 112.896 75.0016 112.917 74.9314 112.961C74.9052 112.977 74.8837 112.995 74.8666 113.015C74.852 113.032 74.8406 113.049 74.8327 113.067C74.8327 113.068 74.8327 113.068 74.8327 113.068C74.7972 113.149 74.8283 113.242 74.9263 113.31C75.0029 113.362 75.105 113.389 75.2062 113.389L75.206 113.389ZM75.1862 112.969C75.2574 112.969 75.3293 112.988 75.3831 113.025C75.4852 113.095 75.4836 113.205 75.3796 113.27C75.3303 113.3 75.2667 113.315 75.2027 113.315C75.1316 113.315 75.0597 113.297 75.0058 113.26C74.9035 113.189 74.9051 113.08 75.0094 113.015C75.0586 112.984 75.1221 112.969 75.186 112.969L75.1862 112.969Z" fill="#DBDBDC"/>
<path d="M75.202 113.315C75.2661 113.315 75.3295 113.3 75.379 113.27C75.4829 113.205 75.4846 113.095 75.3825 113.025C75.3287 112.988 75.2567 112.969 75.1855 112.969C75.1216 112.969 75.0581 112.984 75.0089 113.015C74.9046 113.08 74.903 113.189 75.0053 113.26C75.0592 113.297 75.1311 113.315 75.2022 113.315L75.202 113.315Z" fill="#5E5F60"/>
<path d="M103.127 69.9415L76.1368 54.2164L76.1444 54.1904L75.9647 54.0859L75.9521 54.124L103.127 69.9415Z" fill="#D0D0D1"/>
<path d="M76.1445 54.1905V54.1904L75.9648 54.0859V54.0861L76.1445 54.1905Z" fill="#2E2E2E"/>
<path d="M76.1448 54.1901L78.0186 47.8188L75.9651 54.0857L76.1448 54.1901Z" fill="#3A3A3B"/>
<path d="M130.538 85.8961L132.478 78.6916L132.385 78.6387L130.357 85.7907L130.538 85.8961Z" fill="#CFCFD1"/>
<path d="M130.357 85.7907L132.386 78.6387L78.1934 47.2852L78.0185 47.8188L76.1448 54.19V54.1901L76.1372 54.2162L103.127 69.9413L130.357 85.7907Z" fill="#DBDBDC"/>
</g>
<defs>
<filter id="filter0_dd_1_674" x="0" y="0" width="167" height="153.492" filterUnits="userSpaceOnUse" color-interpolation-filters="sRGB">
<feFlood flood-opacity="0" result="BackgroundImageFix"/>
<feColorMatrix in="SourceAlpha" type="matrix" values="0 0 0 0 0 0 0 0 0 0 0 0 0 0 0 0 0 0 127 0" result="hardAlpha"/>
<feOffset dy="4"/>
<feGaussianBlur stdDeviation="2"/>
<feComposite in2="hardAlpha" operator="out"/>
<feColorMatrix type="matrix" values="0 0 0 0 0 0 0 0 0 0 0 0 0 0 0 0 0 0 0.25 0"/>
<feBlend mode="normal" in2="BackgroundImageFix" result="effect1_dropShadow_1_674"/>
<feColorMatrix in="SourceAlpha" type="matrix" values="0 0 0 0 0 0 0 0 0 0 0 0 0 0 0 0 0 0 127 0" result="hardAlpha"/>
<feOffset dy="4"/>
<feGaussianBlur stdDeviation="2"/>
<feComposite in2="hardAlpha" operator="out"/>
<feColorMatrix type="matrix" values="0 0 0 0 0 0 0 0 0 0 0 0 0 0 0 0 0 0 0.25 0"/>
<feBlend mode="normal" in2="effect1_dropShadow_1_674" result="effect2_dropShadow_1_674"/>
<feBlend mode="normal" in="SourceGraphic" in2="effect2_dropShadow_1_674" result="shape"/>
</filter>
<linearGradient id="paint0_linear_1_674" x1="54.2435" y1="122.135" x2="54.2033" y2="98.3504" gradientUnits="userSpaceOnUse">
<stop stop-color="#009BE3"/>
<stop offset="0.364706" stop-color="#3BA7DE"/>
<stop offset="0.988235" stop-color="#77B4D8"/>
<stop offset="1" stop-color="#77B4D8"/>
</linearGradient>
<linearGradient id="paint1_linear_1_674" x1="70.8503" y1="108.643" x2="33.7323" y2="108.706" gradientUnits="userSpaceOnUse">
<stop stop-color="white"/>
<stop offset="1" stop-color="white"/>
</linearGradient>
<linearGradient id="paint2_linear_1_674" x1="54.2428" y1="122.135" x2="54.2026" y2="98.35" gradientUnits="userSpaceOnUse">
<stop stop-color="#0085C4"/>
<stop offset="0.988235" stop-color="#669BBA"/>
<stop offset="1" stop-color="#669BBA"/>
</linearGradient>
<linearGradient id="paint3_linear_1_674" x1="70.8499" y1="108.723" x2="33.4208" y2="108.786" gradientUnits="userSpaceOnUse">
<stop stop-color="#DBDB64"/>
<stop offset="1" stop-color="#DBB6DC"/>
</linearGradient>
</defs>
</svg>
