<svg width="258" height="116" viewBox="0 0 258 116" fill="none" xmlns="http://www.w3.org/2000/svg">
<path d="M95.7548 94.0483L82.3804 69.9317H78.6245V94.0483H62.96V30.162H89.2508C94.3196 30.162 98.6251 31.0417 102.167 32.8012C105.77 34.5606 108.457 36.9875 110.228 40.0817C112 43.1152 112.885 46.5128 112.885 50.2743C112.885 54.5213 111.664 58.3132 109.221 61.6501C106.839 64.987 103.297 67.3532 98.5946 68.7486L113.435 94.0483H95.7548ZM78.6245 58.9199H88.3347C91.2051 58.9199 93.3425 58.2222 94.7471 56.8268C96.2128 55.4314 96.9457 53.4596 96.9457 50.9114C96.9457 48.4846 96.2128 46.5734 94.7471 45.178C93.3425 43.7826 91.2051 43.0849 88.3347 43.0849H78.6245V58.9199ZM153.132 94.6853C147.086 94.6853 141.528 93.2899 136.46 90.499C131.452 87.7082 127.452 83.8252 124.459 78.8503C121.527 73.8146 120.062 68.1722 120.062 61.9231C120.062 55.674 121.527 50.062 124.459 45.087C127.452 40.112 131.452 36.2291 136.46 33.4382C141.528 30.6474 147.086 29.252 153.132 29.252C159.178 29.252 164.705 30.6474 169.712 33.4382C174.781 36.2291 178.751 40.112 181.621 45.087C184.553 50.062 186.018 55.674 186.018 61.9231C186.018 68.1722 184.553 73.8146 181.621 78.8503C178.69 83.8252 174.72 87.7082 169.712 90.499C164.705 93.2899 159.178 94.6853 153.132 94.6853ZM153.132 80.4884C158.262 80.4884 162.353 78.7896 165.407 75.392C168.522 71.9945 170.079 67.5048 170.079 61.9231C170.079 56.2808 168.522 51.7911 165.407 48.4542C162.353 45.0567 158.262 43.3579 153.132 43.3579C147.941 43.3579 143.788 45.0263 140.673 48.3632C137.62 51.7001 136.093 56.2201 136.093 61.9231C136.093 67.5655 137.62 72.0855 140.673 75.483C143.788 78.8199 147.941 80.4884 153.132 80.4884ZM234.123 94.0483L221.023 74.482L209.481 94.0483H191.709L212.32 61.5591L191.251 30.162H209.481L222.397 49.4553L233.756 30.162H251.528L231.1 62.3782L252.352 94.0483H234.123Z" fill="black"/>
<path fill-rule="evenodd" clip-rule="evenodd" d="M254.455 7.0548H58.2665H58.0627H55.0857V7.06744H52.9735H6.0892H3.5446V9.59539V88.8338V91.3618H6.0892H52.9735H55.5181V88.8338V77.4391V74.9112H52.9735H26.7577H24.2131V72.3832V58.9472V56.4193H26.7577H49.3474H51.892V53.8913V43.097V40.569H49.3474H26.7577H24.2131V38.0411V26.046V23.518H26.7577H52.9735H55.0857H55.2127H58.0627H58.2665H254.455V7.0548ZM55.2127 4.52686V4.5395H3.5446H1V7.06744V91.3618V93.8897H3.5446H55.5181H58.0627V91.3618V74.9112V72.3832H55.5181H26.7577V58.9472H51.892H54.4366V56.4193V40.569V38.0411H51.892H26.7577V26.046H55.2127H55.5181H57.7573H58.0627H254.455H257V23.518V7.0548V4.52686H254.455H57.7573H55.2127Z" fill="black" stroke="black" stroke-width="0.5"/>
<path d="M1.22106 113V102.818H7.84322V104.364H3.06552V107.129H7.50018V108.675H3.06552V111.454H7.88299V113H1.22106ZM9.72496 113V102.818H11.5694V111.454H16.0538V113H9.72496ZM17.6547 113V102.818H24.2768V104.364H19.4991V107.129H23.9338V108.675H19.4991V111.454H24.3166V113H17.6547ZM34.8738 106.254H33.0144C32.9614 105.949 32.8636 105.679 32.7211 105.443C32.5785 105.205 32.4012 105.002 32.1891 104.837C31.977 104.671 31.735 104.547 31.4632 104.464C31.1948 104.378 30.9048 104.335 30.5932 104.335C30.0397 104.335 29.5492 104.474 29.1216 104.752C28.6941 105.027 28.3593 105.432 28.1174 105.965C27.8754 106.496 27.7544 107.143 27.7544 107.909C27.7544 108.688 27.8754 109.344 28.1174 109.878C28.3626 110.408 28.6974 110.809 29.1216 111.081C29.5492 111.349 30.0381 111.484 30.5882 111.484C30.8932 111.484 31.1782 111.444 31.4434 111.364C31.7118 111.281 31.9521 111.161 32.1642 111.001C32.3797 110.842 32.5603 110.647 32.7061 110.415C32.8553 110.183 32.958 109.918 33.0144 109.619L34.8738 109.629C34.8042 110.113 34.6534 110.567 34.4213 110.991C34.1926 111.416 33.8927 111.79 33.5215 112.115C33.1503 112.437 32.7161 112.688 32.2189 112.871C31.7218 113.05 31.1699 113.139 30.5634 113.139C29.6685 113.139 28.8697 112.932 28.1671 112.518C27.4644 112.103 26.9109 111.505 26.5066 110.723C26.1022 109.941 25.9 109.003 25.9 107.909C25.9 106.812 26.1039 105.874 26.5115 105.095C26.9192 104.313 27.4744 103.715 28.177 103.3C28.8797 102.886 29.6751 102.679 30.5634 102.679C31.1301 102.679 31.6571 102.759 32.1444 102.918C32.6316 103.077 33.0658 103.31 33.4469 103.619C33.8281 103.924 34.1413 104.298 34.3865 104.742C34.6351 105.183 34.7975 105.687 34.8738 106.254ZM36.1154 104.364V102.818H44.239V104.364H41.092V113H39.2624V104.364H36.1154ZM45.805 113V102.818H49.6232C50.4054 102.818 51.0617 102.954 51.592 103.226C52.1256 103.498 52.5283 103.879 52.8001 104.369C53.0752 104.857 53.2127 105.425 53.2127 106.075C53.2127 106.728 53.0735 107.294 52.7951 107.775C52.52 108.252 52.114 108.622 51.5771 108.884C51.0401 109.142 50.3806 109.271 49.5984 109.271H46.8789V107.74H49.3498C49.8072 107.74 50.1817 107.677 50.4734 107.551C50.765 107.422 50.9805 107.235 51.1197 106.989C51.2622 106.741 51.3335 106.436 51.3335 106.075C51.3335 105.713 51.2622 105.405 51.1197 105.15C50.9772 104.891 50.7601 104.696 50.4684 104.563C50.1767 104.427 49.8005 104.359 49.3398 104.359H47.6495V113H45.805ZM51.065 108.386L53.5856 113H51.5273L49.0515 108.386H51.065ZM64.0085 107.909C64.0085 109.006 63.803 109.946 63.392 110.728C62.9844 111.507 62.4276 112.103 61.7216 112.518C61.0189 112.932 60.2218 113.139 59.3303 113.139C58.4387 113.139 57.6399 112.932 56.9339 112.518C56.2313 112.1 55.6745 111.502 55.2635 110.723C54.8558 109.941 54.652 109.003 54.652 107.909C54.652 106.812 54.8558 105.874 55.2635 105.095C55.6745 104.313 56.2313 103.715 56.9339 103.3C57.6399 102.886 58.4387 102.679 59.3303 102.679C60.2218 102.679 61.0189 102.886 61.7216 103.3C62.4276 103.715 62.9844 104.313 63.392 105.095C63.803 105.874 64.0085 106.812 64.0085 107.909ZM62.1541 107.909C62.1541 107.137 62.0331 106.486 61.7912 105.955C61.5526 105.422 61.2211 105.019 60.7969 104.747C60.3726 104.472 59.8838 104.335 59.3303 104.335C58.7768 104.335 58.2879 104.472 57.8636 104.747C57.4394 105.019 57.1063 105.422 56.8643 105.955C56.6257 106.486 56.5064 107.137 56.5064 107.909C56.5064 108.681 56.6257 109.334 56.8643 109.868C57.1063 110.398 57.4394 110.801 57.8636 111.076C58.2879 111.348 58.7768 111.484 59.3303 111.484C59.8838 111.484 60.3726 111.348 60.7969 111.076C61.2211 110.801 61.5526 110.398 61.7912 109.868C62.0331 109.334 62.1541 108.681 62.1541 107.909ZM74.1195 102.818V113H72.4789L67.6813 106.065H67.5968V113H65.7523V102.818H67.4029L72.1955 109.759H72.285V102.818H74.1195ZM77.9737 102.818V113H76.1293V102.818H77.9737ZM88.6863 106.254H86.8269C86.7739 105.949 86.6761 105.679 86.5336 105.443C86.391 105.205 86.2137 105.002 86.0016 104.837C85.7895 104.671 85.5475 104.547 85.2757 104.464C85.0073 104.378 84.7173 104.335 84.4057 104.335C83.8522 104.335 83.3617 104.474 82.9341 104.752C82.5066 105.027 82.1718 105.432 81.9299 105.965C81.6879 106.496 81.5669 107.143 81.5669 107.909C81.5669 108.688 81.6879 109.344 81.9299 109.878C82.1751 110.408 82.5099 110.809 82.9341 111.081C83.3617 111.349 83.8506 111.484 84.4007 111.484C84.7057 111.484 84.9907 111.444 85.2559 111.364C85.5243 111.281 85.7646 111.161 85.9767 111.001C86.1922 110.842 86.3728 110.647 86.5186 110.415C86.6678 110.183 86.7705 109.918 86.8269 109.619L88.6863 109.629C88.6167 110.113 88.4659 110.567 88.2338 110.991C88.0051 111.416 87.7052 111.79 87.334 112.115C86.9628 112.437 86.5286 112.688 86.0314 112.871C85.5343 113.05 84.9824 113.139 84.3759 113.139C83.481 113.139 82.6822 112.932 81.9796 112.518C81.2769 112.103 80.7234 111.505 80.3191 110.723C79.9147 109.941 79.7125 109.003 79.7125 107.909C79.7125 106.812 79.9164 105.874 80.324 105.095C80.7317 104.313 81.2869 103.715 81.9895 103.3C82.6922 102.886 83.4876 102.679 84.3759 102.679C84.9426 102.679 85.4696 102.759 85.9569 102.918C86.4441 103.077 86.8783 103.31 87.2594 103.619C87.6406 103.924 87.9538 104.298 88.199 104.742C88.4476 105.183 88.61 105.687 88.6863 106.254ZM93.848 113V102.818H97.6662C98.4484 102.818 99.1046 102.954 99.6349 103.226C100.169 103.498 100.571 103.879 100.843 104.369C101.118 104.857 101.256 105.425 101.256 106.075C101.256 106.728 101.116 107.294 100.838 107.775C100.563 108.252 100.157 108.622 99.62 108.884C99.0831 109.142 98.4235 109.271 97.6413 109.271H94.9219V107.74H97.3928C97.8501 107.74 98.2247 107.677 98.5163 107.551C98.808 107.422 99.0234 107.235 99.1626 106.989C99.3052 106.741 99.3764 106.436 99.3764 106.075C99.3764 105.713 99.3052 105.405 99.1626 105.15C99.0201 104.891 98.803 104.696 98.5114 104.563C98.2197 104.427 97.8435 104.359 97.3828 104.359H95.6925V113H93.848ZM99.108 108.386L101.629 113H99.5703L97.0945 108.386H99.108ZM102.953 113V102.818H109.576V104.364H104.798V107.129H109.233V108.675H104.798V111.454H109.615V113H102.953ZM112.82 102.818L115.469 110.832H115.574L118.219 102.818H120.247L116.658 113H114.381L110.796 102.818H112.82ZM130.139 107.909C130.139 109.006 129.934 109.946 129.523 110.728C129.115 111.507 128.558 112.103 127.852 112.518C127.15 112.932 126.353 113.139 125.461 113.139C124.57 113.139 123.771 112.932 123.065 112.518C122.362 112.1 121.805 111.502 121.394 110.723C120.987 109.941 120.783 109.003 120.783 107.909C120.783 106.812 120.987 105.874 121.394 105.095C121.805 104.313 122.362 103.715 123.065 103.3C123.771 102.886 124.57 102.679 125.461 102.679C126.353 102.679 127.15 102.886 127.852 103.3C128.558 103.715 129.115 104.313 129.523 105.095C129.934 105.874 130.139 106.812 130.139 107.909ZM128.285 107.909C128.285 107.137 128.164 106.486 127.922 105.955C127.683 105.422 127.352 105.019 126.928 104.747C126.503 104.472 126.015 104.335 125.461 104.335C124.908 104.335 124.419 104.472 123.994 104.747C123.57 105.019 123.237 105.422 122.995 105.955C122.757 106.486 122.637 107.137 122.637 107.909C122.637 108.681 122.757 109.334 122.995 109.868C123.237 110.398 123.57 110.801 123.994 111.076C124.419 111.348 124.908 111.484 125.461 111.484C126.015 111.484 126.503 111.348 126.928 111.076C127.352 110.801 127.683 110.398 127.922 109.868C128.164 109.334 128.285 108.681 128.285 107.909ZM131.883 113V102.818H133.728V111.454H138.212V113H131.883ZM146.231 102.818H148.076V109.47C148.076 110.199 147.903 110.841 147.559 111.394C147.217 111.948 146.737 112.38 146.117 112.692C145.497 113 144.773 113.154 143.944 113.154C143.112 113.154 142.386 113 141.767 112.692C141.147 112.38 140.666 111.948 140.325 111.394C139.984 110.841 139.813 110.199 139.813 109.47V102.818H141.657V109.316C141.657 109.74 141.75 110.118 141.936 110.45C142.125 110.781 142.39 111.041 142.731 111.23C143.073 111.416 143.477 111.509 143.944 111.509C144.412 111.509 144.816 111.416 145.157 111.23C145.502 111.041 145.767 110.781 145.953 110.45C146.138 110.118 146.231 109.74 146.231 109.316V102.818ZM149.633 104.364V102.818H157.757V104.364H154.61V113H152.78V104.364H149.633ZM161.167 102.818V113H159.323V102.818H161.167ZM172.262 107.909C172.262 109.006 172.057 109.946 171.646 110.728C171.238 111.507 170.681 112.103 169.975 112.518C169.273 112.932 168.476 113.139 167.584 113.139C166.693 113.139 165.894 112.932 165.188 112.518C164.485 112.1 163.928 111.502 163.517 110.723C163.11 109.941 162.906 109.003 162.906 107.909C162.906 106.812 163.11 105.874 163.517 105.095C163.928 104.313 164.485 103.715 165.188 103.3C165.894 102.886 166.693 102.679 167.584 102.679C168.476 102.679 169.273 102.886 169.975 103.3C170.681 103.715 171.238 104.313 171.646 105.095C172.057 105.874 172.262 106.812 172.262 107.909ZM170.408 107.909C170.408 107.137 170.287 106.486 170.045 105.955C169.806 105.422 169.475 105.019 169.051 104.747C168.627 104.472 168.138 104.335 167.584 104.335C167.031 104.335 166.542 104.472 166.118 104.747C165.693 105.019 165.36 105.422 165.118 105.955C164.88 106.486 164.76 107.137 164.76 107.909C164.76 108.681 164.88 109.334 165.118 109.868C165.36 110.398 165.693 110.801 166.118 111.076C166.542 111.348 167.031 111.484 167.584 111.484C168.138 111.484 168.627 111.348 169.051 111.076C169.475 110.801 169.806 110.398 170.045 109.868C170.287 109.334 170.408 108.681 170.408 107.909ZM182.373 102.818V113H180.733L175.935 106.065H175.851V113H174.006V102.818H175.657L180.449 109.759H180.539V102.818H182.373ZM196.954 107.909C196.954 109.006 196.748 109.946 196.337 110.728C195.93 111.507 195.373 112.103 194.667 112.518C193.964 112.932 193.167 113.139 192.276 113.139C191.384 113.139 190.585 112.932 189.879 112.518C189.177 112.1 188.62 111.502 188.209 110.723C187.801 109.941 187.597 109.003 187.597 107.909C187.597 106.812 187.801 105.874 188.209 105.095C188.62 104.313 189.177 103.715 189.879 103.3C190.585 102.886 191.384 102.679 192.276 102.679C193.167 102.679 193.964 102.886 194.667 103.3C195.373 103.715 195.93 104.313 196.337 105.095C196.748 105.874 196.954 106.812 196.954 107.909ZM195.099 107.909C195.099 107.137 194.978 106.486 194.737 105.955C194.498 105.422 194.166 105.019 193.742 104.747C193.318 104.472 192.829 104.335 192.276 104.335C191.722 104.335 191.233 104.472 190.809 104.747C190.385 105.019 190.052 105.422 189.81 105.955C189.571 106.486 189.452 107.137 189.452 107.909C189.452 108.681 189.571 109.334 189.81 109.868C190.052 110.398 190.385 110.801 190.809 111.076C191.233 111.348 191.722 111.484 192.276 111.484C192.829 111.484 193.318 111.348 193.742 111.076C194.166 110.801 194.498 110.398 194.737 109.868C194.978 109.334 195.099 108.681 195.099 107.909ZM198.698 113V102.818H205.22V104.364H200.542V107.129H204.773V108.675H200.542V113H198.698ZM211.915 102.818L214.157 106.547H214.236L216.488 102.818H218.591L215.454 107.909L218.641 113H216.503L214.236 109.296H214.157L211.89 113H209.762L212.979 107.909L209.802 102.818H211.915ZM220.039 113V102.818H226.662V104.364H221.884V107.129H226.319V108.675H221.884V111.454H226.701V113H220.039ZM228.543 113V102.818H232.362C233.144 102.818 233.8 102.954 234.33 103.226C234.864 103.498 235.267 103.879 235.538 104.369C235.813 104.857 235.951 105.425 235.951 106.075C235.951 106.728 235.812 107.294 235.533 107.775C235.258 108.252 234.852 108.622 234.315 108.884C233.778 109.142 233.119 109.271 232.337 109.271H229.617V107.74H232.088C232.545 107.74 232.92 107.677 233.212 107.551C233.503 107.422 233.719 107.235 233.858 106.989C234 106.741 234.072 106.436 234.072 106.075C234.072 105.713 234 105.405 233.858 105.15C233.715 104.891 233.498 104.696 233.207 104.563C232.915 104.427 232.539 104.359 232.078 104.359H230.388V113H228.543ZM233.803 108.386L236.324 113H234.266L231.79 108.386H233.803ZM246.747 107.909C246.747 109.006 246.541 109.946 246.13 110.728C245.723 111.507 245.166 112.103 244.46 112.518C243.757 112.932 242.96 113.139 242.069 113.139C241.177 113.139 240.378 112.932 239.672 112.518C238.97 112.1 238.413 111.502 238.002 110.723C237.594 109.941 237.39 109.003 237.39 107.909C237.39 106.812 237.594 105.874 238.002 105.095C238.413 104.313 238.97 103.715 239.672 103.3C240.378 102.886 241.177 102.679 242.069 102.679C242.96 102.679 243.757 102.886 244.46 103.3C245.166 103.715 245.723 104.313 246.13 105.095C246.541 105.874 246.747 106.812 246.747 107.909ZM244.892 107.909C244.892 107.137 244.771 106.486 244.529 105.955C244.291 105.422 243.959 105.019 243.535 104.747C243.111 104.472 242.622 104.335 242.069 104.335C241.515 104.335 241.026 104.472 240.602 104.747C240.178 105.019 239.845 105.422 239.603 105.955C239.364 106.486 239.245 107.137 239.245 107.909C239.245 108.681 239.364 109.334 239.603 109.868C239.845 110.398 240.178 110.801 240.602 111.076C241.026 111.348 241.515 111.484 242.069 111.484C242.622 111.484 243.111 111.348 243.535 111.076C243.959 110.801 244.291 110.398 244.529 109.868C244.771 109.334 244.892 108.681 244.892 107.909ZM249.663 102.818L251.905 106.547H251.984L254.237 102.818H256.339L253.202 107.909L256.389 113H254.251L251.984 109.296H251.905L249.638 113H247.51L250.727 107.909L247.55 102.818H249.663Z" fill="black"/>
</svg>
